<?xml version="1.0" encoding="utf-8"?>
<!-- Generator: Adobe Illustrator 16.0.0, SVG Export Plug-In . SVG Version: 6.00 Build 0)  -->
<!DOCTYPE svg PUBLIC "-//W3C//DTD SVG 1.1//EN" "http://www.w3.org/Graphics/SVG/1.1/DTD/svg11.dtd">
<svg version="1.1" id="Layer_1" xmlns="http://www.w3.org/2000/svg" xmlns:xlink="http://www.w3.org/1999/xlink" x="0px" y="0px"
	 width="31.943px" height="31.435px" viewBox="4.802 5.182 31.943 31.435" enable-background="new 4.802 5.182 31.943 31.435"
	 xml:space="preserve">
<path fill="#2797E8" d="M20.833,6.25c-1.915,0-3.812,0.377-5.581,1.11c-1.769,0.733-3.377,1.807-4.731,3.162
	c-1.354,1.354-2.429,2.962-3.162,4.731c-0.733,1.77-1.11,3.666-1.11,5.581s0.377,3.812,1.11,5.581
	c0.733,1.77,1.807,3.377,3.162,4.731c1.354,1.354,2.962,2.429,4.731,3.161c1.77,0.732,3.666,1.109,5.581,1.109
	s3.812-0.377,5.581-1.109c1.77-0.732,3.377-1.807,4.731-3.161s2.429-2.962,3.161-4.731c0.732-1.769,1.109-3.666,1.109-5.581
	s-0.377-3.812-1.109-5.581c-0.732-1.769-1.807-3.377-3.161-4.731c-1.354-1.354-2.962-2.429-4.731-3.162
	C24.645,6.627,22.749,6.25,20.833,6.25z"/>
<path fill="#FFFFFF" d="M26.666,19.792h-4.791v-5.208c0-0.576-0.466-1.042-1.042-1.042c-0.576,0-1.042,0.466-1.042,1.042v5.208H15
	c-0.575,0-1.042,0.466-1.042,1.042c0,0.575,0.466,1.042,1.042,1.042h4.792v5.209c0,0.574,0.466,1.041,1.042,1.041
	c0.575,0,1.042-0.467,1.042-1.041v-5.209h4.791c0.576,0,1.043-0.466,1.043-1.042C27.709,20.258,27.242,19.792,26.666,19.792z"/>
<path fill="none" stroke="#FFFFFF" stroke-width="2" stroke-miterlimit="10" d="M20.833,6.25c-1.915,0-3.812,0.377-5.581,1.11
	c-1.769,0.733-3.377,1.807-4.731,3.162c-1.354,1.354-2.429,2.962-3.162,4.731c-0.733,1.77-1.11,3.666-1.11,5.581
	s0.377,3.812,1.11,5.581c0.733,1.77,1.807,3.377,3.162,4.731c1.354,1.354,2.962,2.429,4.731,3.161
	c1.77,0.732,3.666,1.109,5.581,1.109s3.812-0.377,5.581-1.109c1.77-0.732,3.377-1.807,4.731-3.161s2.429-2.962,3.161-4.731
	c0.732-1.769,1.109-3.666,1.109-5.581s-0.377-3.812-1.109-5.581c-0.732-1.769-1.807-3.377-3.161-4.731
	c-1.354-1.354-2.962-2.429-4.731-3.162C24.645,6.627,22.749,6.25,20.833,6.25L20.833,6.25z"/>
<path fill="none" stroke="#FFFFFF" stroke-linecap="round" stroke-linejoin="round" stroke-miterlimit="10" d="M25.208,8.898
	c-1.364-0.5-2.838-0.773-4.375-0.773c-7.019,0-12.708,5.689-12.708,12.708c0,7.018,5.689,12.708,12.708,12.708
	c7.018,0,12.708-5.689,12.708-12.708c0-3.73-1.606-7.085-4.166-9.41 M27.291,9.886c-0.271-0.161-0.549-0.311-0.832-0.452
	L27.291,9.886z M28.541,10.729c-0.137-0.104-0.275-0.206-0.416-0.305L28.541,10.729z"/>
<path fill="none" stroke="#2797E8" stroke-miterlimit="10" d="M26.666,19.792h-4.791v-5.208c0-0.576-0.466-1.042-1.042-1.042
	c-0.576,0-1.042,0.466-1.042,1.042v5.208H15c-0.575,0-1.042,0.466-1.042,1.042c0,0.575,0.466,1.042,1.042,1.042h4.792v5.209
	c0,0.574,0.466,1.041,1.042,1.041c0.575,0,1.042-0.467,1.042-1.041v-5.209h4.791c0.576,0,1.043-0.466,1.043-1.042
	C27.709,20.258,27.242,19.792,26.666,19.792z"/>
</svg>
