<svg width="140" height="140" viewBox="0 0 140 140" fill="none" xmlns="http://www.w3.org/2000/svg">
<path d="M70 21C63.5652 21 57.1935 22.2674 51.2485 24.7299C45.3036 27.1924 39.9018 30.8017 35.3518 35.3518C30.8017 39.9018 27.1924 45.3036 24.7299 51.2485C22.2674 57.1935 21 63.5652 21 70C21 76.4348 22.2674 82.8065 24.7299 88.7515C27.1924 94.6964 30.8017 100.098 35.3518 104.648C39.9018 109.198 45.3036 112.808 51.2485 115.27C57.1935 117.733 63.5652 119 70 119C76.4348 119 82.8065 117.733 88.7515 115.27C94.6964 112.808 100.098 109.198 104.648 104.648C109.198 100.098 112.808 94.6964 115.27 88.7515C117.733 82.8065 119 76.4348 119 70C119 63.5652 117.733 57.1935 115.27 51.2485C112.808 45.3036 109.198 39.9018 104.648 35.3518C100.098 30.8017 94.6964 27.1924 88.7515 24.7299C82.8065 22.2674 76.4348 21 70 21Z" fill="#51BF56"/>
<path d="M66.4998 86.1C65.8264 86.1 65.1502 85.8578 64.6154 85.3706L47.8154 68.5706C46.6716 67.5318 46.5876 65.7594 47.6278 64.6156C48.668 63.4746 50.4376 63.3864 51.5828 64.428L66.462 79.4822L91.1762 54.663C92.299 53.6018 94.07 53.6494 95.134 54.7764C96.1966 55.9006 96.1462 57.6716 95.0206 58.7342L68.4206 85.3342C67.883 85.8438 67.1914 86.1 66.4998 86.1Z" fill="white"/>
<path d="M66.4999 86.8C65.6263 86.8 64.7891 86.4766 64.1437 85.8886L47.3213 69.0662C46.6535 68.4614 46.2475 67.6004 46.2041 66.6666C46.1607 65.7328 46.4813 64.8368 47.1099 64.1452C48.4119 62.7186 50.6295 62.6164 52.0533 63.9114L66.4635 78.4896L90.6807 54.1702C91.3779 53.5136 92.2879 53.1958 93.1979 53.2C94.1331 53.2266 95.0011 53.6158 95.6437 54.2962C96.2863 54.9752 96.6251 55.8642 96.5985 56.7994C96.5719 57.7332 96.1827 58.6026 95.5023 59.2452L68.9177 85.8312C68.2499 86.4612 67.3973 86.8 66.4999 86.8ZM49.7125 64.3986C49.1399 64.3986 48.5645 64.6296 48.1459 65.0888C47.7693 65.5032 47.5761 66.0408 47.6027 66.6008C47.6293 67.1608 47.8715 67.6774 48.2859 68.054L65.1111 84.8778C65.8475 85.5456 67.1677 85.5554 67.9419 84.8274L94.5265 58.2414C94.9493 57.8424 95.1831 57.3216 95.1985 56.7602C95.2139 56.2002 95.0109 55.6668 94.6259 55.2594C94.2409 54.8506 93.7187 54.6182 93.1573 54.6014C92.6085 54.5748 92.0653 54.7876 91.6579 55.174L66.9591 79.9764C66.8275 80.108 66.6483 80.1822 66.4635 80.1822H66.4621C66.2759 80.1822 66.0967 80.1066 65.9665 79.975L51.0859 64.9208C50.7009 64.5722 50.2081 64.3986 49.7125 64.3986Z" fill="white"/>
<path d="M91.7 33.9178C91.5782 33.9178 91.455 33.887 91.343 33.8198C90.4498 33.292 89.5244 32.7908 88.5892 32.3288C88.2434 32.1566 88.1006 31.738 88.2714 31.3908C88.4422 31.0422 88.865 30.905 89.2094 31.073C90.174 31.5504 91.133 32.0684 92.0556 32.6158C92.3874 32.8132 92.498 33.2416 92.302 33.5748C92.1718 33.7946 91.9394 33.9178 91.7 33.9178ZM95.9 36.75C95.7516 36.75 95.6018 36.7024 95.4744 36.6058C95.0236 36.26 94.5644 35.9254 94.0982 35.5978C93.7818 35.3752 93.7048 34.9398 93.9274 34.6234C94.1486 34.3042 94.584 34.2314 94.9018 34.4512C95.3848 34.7886 95.858 35.1372 96.3256 35.4942C96.6336 35.728 96.691 36.1676 96.4572 36.4756C96.3186 36.6548 96.11 36.75 95.9 36.75Z" fill="white"/>
<path d="M70.0001 113.4C46.0685 113.4 26.6001 93.9302 26.6001 70C26.6001 46.0698 46.0685 26.6 70.0001 26.6C75.1353 26.6 80.1627 27.489 84.9409 29.2404C85.3049 29.3734 85.4911 29.7752 85.3581 30.1392C85.2251 30.5032 84.8205 30.6894 84.4593 30.555C79.8351 28.8596 74.9715 28 70.0001 28C46.8413 28 28.0001 46.8412 28.0001 70C28.0001 93.1588 46.8413 112 70.0001 112C93.1589 112 112 93.1588 112 70C112 58.1854 106.981 46.851 98.2297 38.9018C97.9427 38.6414 97.9217 38.199 98.1821 37.912C98.4439 37.6264 98.8849 37.6054 99.1705 37.8644C108.215 46.0796 113.4 57.792 113.4 70C113.4 93.9302 93.9317 113.4 70.0001 113.4Z" fill="white"/>
</svg>
