<?xml version="1.0" encoding="utf-8"?>
<!-- Generator: Adobe Illustrator 21.1.0, SVG Export Plug-In . SVG Version: 6.00 Build 0)  -->
<svg version="1.1" id="Layer_1" xmlns="http://www.w3.org/2000/svg" xmlns:xlink="http://www.w3.org/1999/xlink" x="0px" y="0px"
	 viewBox="0 0 36 36" enable-background="new 0 0 36 36" xml:space="preserve">
<path fill="#E0654B" d="M29.9,6.2c-6.5-6.5-17.2-6.6-23.7,0c-6.5,6.5-6.5,17.2,0,23.7c6.6,6.6,17.2,6.6,23.7,0
	C36.5,23.4,36.5,12.8,29.9,6.2z M22.9,23.9L18,19.1l-4.8,4.8c-0.3,0.3-0.7,0.3-1,0c-0.3-0.3-0.3-0.7,0-1l4.8-4.8l-4.8-4.8
	c-0.3-0.3-0.3-0.7,0-1c0.3-0.3,0.8-0.3,1,0l4.8,4.8l4.8-4.8c0.3-0.3,0.7-0.3,1,0c0.3,0.3,0.3,0.7,0,1l-4.8,4.8l4.8,4.8
	c0.3,0.3,0.3,0.8,0,1C23.6,24.2,23.2,24.2,22.9,23.9z"/>
<path fill="none" stroke="#FFFFFF" stroke-width="1.0276" stroke-linecap="round" stroke-linejoin="round" stroke-miterlimit="10" d="
	M23.4,3.3c-1.7-0.6-3.5-1-5.4-1c-8.7,0-15.7,7-15.7,15.7s7,15.7,15.7,15.7s15.7-7,15.7-15.7c0-4.6-2-8.7-5.1-11.6 M26,4.6
	c-0.3-0.2-0.7-0.4-1-0.6L26,4.6z M27.6,5.6c-0.2-0.1-0.3-0.3-0.5-0.4L27.6,5.6z"/>
</svg>
