<svg width="25" height="25" viewBox="0 0 25 25" fill="none" xmlns="http://www.w3.org/2000/svg">
<circle cx="9.51562" cy="10.5" r="9.51562" fill="#E0654C"/>
<path d="M9.51562 0.984375C4.26891 0.984375 0 5.25295 0 10.5C0 15.747 4.26891 20.0156 9.51562 20.0156C14.7623 20.0156 19.0312 15.747 19.0312 10.5C19.0312 5.25295 14.7623 0.984375 9.51562 0.984375ZM9.51562 1.64062C14.4008 1.64062 18.375 5.61488 18.375 10.5C18.375 15.3851 14.4008 19.3594 9.51562 19.3594C4.6305 19.3594 0.65625 15.3851 0.65625 10.5C0.65625 5.61488 4.6305 1.64062 9.51562 1.64062ZM9.37271 2.95505C7.43972 2.9944 5.5657 3.77715 4.17911 5.16348C1.23681 8.10578 1.23681 12.8936 4.17911 15.8359C4.24309 15.8999 4.3271 15.932 4.4111 15.932C4.4951 15.932 4.57911 15.8999 4.6431 15.8359C4.77139 15.7076 4.77139 15.5002 4.6431 15.3719C1.95641 12.6855 1.95674 8.31416 4.6431 5.62747C6.20103 4.06953 8.43212 3.34774 10.6109 3.69653C10.7897 3.72541 10.9585 3.60299 10.9871 3.42416C11.0159 3.24534 10.8935 3.07652 10.7147 3.04797C10.2675 2.97618 9.81879 2.94597 9.37271 2.95505ZM12.0285 3.40814C11.9007 3.41359 11.7831 3.49393 11.7356 3.62091C11.6716 3.79088 11.7579 3.97959 11.9279 4.04324C12.1618 4.13085 12.3937 4.2319 12.6168 4.34445C12.6644 4.36841 12.7146 4.3797 12.7642 4.3797C12.884 4.3797 13 4.3138 13.0577 4.19962C13.1394 4.03785 13.074 3.84007 12.9122 3.7587C12.6681 3.63532 12.4139 3.52446 12.1573 3.42865C12.1148 3.41274 12.0711 3.40633 12.0285 3.40814ZM13.9229 4.48737C13.8396 4.4975 13.7603 4.53921 13.7043 4.61041C13.5925 4.75315 13.6174 4.95931 13.7601 5.0712C13.9793 5.24281 14.1906 5.42994 14.3882 5.62747C17.0748 8.31416 17.0748 12.6858 14.3882 15.3725C14.2599 15.5008 14.2599 15.7082 14.3882 15.8365C14.4521 15.9005 14.5361 15.9326 14.6201 15.9326C14.7041 15.9326 14.7882 15.9005 14.8521 15.8365C17.7941 12.8942 17.7941 8.10578 14.8521 5.16348C14.6362 4.94725 14.405 4.74267 14.1651 4.55466C14.0934 4.49871 14.0061 4.47723 13.9229 4.48737ZM4.26562 8.53125C4.0845 8.53125 3.9375 8.67792 3.9375 8.85938V12.1406C3.9375 12.3221 4.0845 12.4688 4.26562 12.4688H14.7656C14.9467 12.4688 15.0938 12.3221 15.0938 12.1406V8.85938C15.0938 8.67792 14.9467 8.53125 14.7656 8.53125H4.26562ZM4.59375 9.1875H14.4375V11.8125H4.59375V9.1875ZM6.35678 15.8795C6.22989 15.8638 6.10042 15.9233 6.0325 16.041L5.70438 16.6094C5.61381 16.7662 5.66738 16.9668 5.82422 17.0574C5.87573 17.0872 5.93186 17.1016 5.98764 17.1016C6.10117 17.1016 6.21148 17.0429 6.27219 16.9375L6.60031 16.3691C6.6912 16.2126 6.63764 16.012 6.48047 15.9211C6.44126 15.8986 6.39908 15.8847 6.35678 15.8795ZM12.6738 15.8795C12.6316 15.8847 12.5898 15.8985 12.5508 15.9211C12.3936 16.0117 12.34 16.2129 12.4309 16.3697L12.7591 16.9375C12.8201 17.0429 12.9301 17.1016 13.0436 17.1016C13.0994 17.1016 13.1555 17.0879 13.207 17.058C13.3642 16.9675 13.4178 16.7662 13.3269 16.6094L12.9987 16.0416C12.9306 15.9237 12.8006 15.8637 12.6738 15.8795ZM7.81476 16.519C7.68811 16.5366 7.57758 16.628 7.54239 16.7594L7.37256 17.3938C7.32564 17.569 7.42966 17.7487 7.60455 17.7957C7.6331 17.8032 7.66157 17.8072 7.68979 17.8072C7.83449 17.8072 7.96733 17.7103 8.00638 17.5637L8.17685 16.9298C8.22377 16.7546 8.11975 16.574 7.94485 16.5274C7.90113 16.5156 7.85697 16.5132 7.81476 16.519ZM11.2171 16.519C11.1749 16.5132 11.1302 16.5155 11.0864 16.5274C10.9115 16.5743 10.8075 16.7546 10.8544 16.9298L11.0249 17.5637C11.0639 17.7103 11.1964 17.8072 11.3415 17.8072C11.3697 17.8072 11.3981 17.8035 11.4267 17.7957C11.6016 17.7487 11.7056 17.569 11.6587 17.3938L11.4889 16.7594C11.4537 16.628 11.3438 16.5365 11.2171 16.519ZM9.51562 16.7344C9.33417 16.7344 9.1875 16.8814 9.1875 17.0625V17.7188C9.1875 17.8999 9.33417 18.0469 9.51562 18.0469C9.69708 18.0469 9.84375 17.8999 9.84375 17.7188V17.0625C9.84375 16.8814 9.69708 16.7344 9.51562 16.7344Z" fill="white"/>
</svg>
