<svg width="177" height="177" viewBox="0 0 177 177" fill="none" xmlns="http://www.w3.org/2000/svg">
<rect width="177" height="177" fill="white"/>
<path d="M98.1797 0C89.7424 0 82.3422 4.47254 78.2045 11.1705C63.8795 12.1968 52.5469 24.1452 52.5469 38.7188C52.5469 40.2312 52.7089 41.7112 52.9466 43.1805C38.8916 47.8907 26.6191 56.166 18.0306 67.3257C15.2758 63.8687 13.8281 59.7202 13.8281 55.3125C13.8281 54.3186 13.9254 53.2707 14.1198 52.0931C14.3035 50.9696 13.7849 49.8461 12.8126 49.2627C11.8295 48.6793 10.598 48.7549 9.70129 49.4464C3.54346 54.2106 0 61.3839 0 69.1406C0 75.9791 2.71161 82.353 7.69189 87.128C6.25507 92.1083 5.53125 97.2182 5.53125 102.328C5.53125 117.615 11.9916 132.404 23.7347 143.921L21.8117 163.129C21.4012 167.201 23.9724 170.918 27.9155 171.977L40.8794 175.444C44.358 176.373 48.0095 174.98 49.9757 171.977L56.1335 162.556C71.5714 167.029 88.6512 167.061 104.1 162.578L110.236 171.977C111.803 174.364 114.428 175.736 117.183 175.736C117.896 175.736 118.619 175.639 119.343 175.444L132.275 171.987C136.239 170.918 138.811 167.191 138.378 163.107L136.963 149.138C146.859 144.558 154.778 137.611 159.877 129.034L169.74 127.802C173.878 127.284 177 123.751 177 119.57V96.1487C177 91.9786 173.878 88.4352 169.74 87.9166L160.169 86.7067C157.425 81.9749 153.795 77.6968 149.344 73.9913V47.1993C149.344 45.8057 148.307 44.6281 146.924 44.4661C145.757 44.3148 144.774 44.25 143.812 44.25C137.968 44.25 132.458 46.281 128.061 49.9109C128.018 49.9433 127.964 49.9433 127.921 49.9865C127.845 50.0405 127.781 50.1161 127.705 50.181C127.608 50.2782 127.5 50.3754 127.402 50.4727C126.851 50.948 126.311 51.4341 125.814 51.9527C120.856 48.7009 115.432 46.0325 109.718 43.9475C116.848 39.9071 121.688 32.28 121.688 23.5078C121.688 10.5439 111.144 0 98.1797 0ZM98.1797 5.53125C108.097 5.53125 116.156 13.5905 116.156 23.5078C116.156 29.8493 112.829 35.413 107.859 38.5999C107.795 25.0095 97.8772 13.7201 84.8917 11.4946C88.1759 7.85394 92.8969 5.53125 98.1797 5.53125ZM80.2031 16.5938C92.4 16.5938 102.328 26.5219 102.328 38.7188C102.328 44.6821 99.8866 50.3862 95.6301 54.5347C90.6498 53.3679 85.4967 52.7629 80.2031 52.7629C74.9095 52.7629 69.7564 53.3679 64.7761 54.5347C60.5197 50.3862 58.0781 44.6713 58.0781 38.7188C58.0781 26.5219 68.0063 16.5938 80.2031 16.5938ZM80.2031 22.125C71.0528 22.125 63.6094 29.5684 63.6094 38.7188C63.6094 40.242 64.8517 41.4844 66.375 41.4844C67.8983 41.4844 69.1406 40.242 69.1406 38.7188C69.1406 32.6149 74.0993 27.6562 80.2031 27.6562C81.7264 27.6562 82.9688 26.4139 82.9688 24.8906C82.9688 23.3674 81.7264 22.125 80.2031 22.125ZM54.3834 48.5173C55.4421 51.3045 56.9438 53.9081 58.8452 56.2308C57.4623 56.6953 56.0903 57.2031 54.7399 57.7648C53.3247 58.3482 52.6657 59.9579 53.2491 61.3731C53.8325 62.7883 55.4529 63.4581 56.8682 62.864C64.1603 59.8282 72.0035 58.2942 80.2031 58.2942C88.6729 58.2942 96.7537 59.9255 104.229 63.1664C104.586 63.3177 104.953 63.3933 105.321 63.3933C106.39 63.3933 107.416 62.7667 107.859 61.7188C108.475 60.3144 107.827 58.6939 106.423 58.0781C104.824 57.3975 103.203 56.7925 101.561 56.2308C103.462 53.9189 104.953 51.3261 106.012 48.5389C111.857 50.5159 117.388 53.1627 122.422 56.436C120.164 60.228 118.922 64.6033 118.922 69.1406C118.922 70.6639 120.164 71.9062 121.688 71.9062C123.211 71.9062 124.453 70.6639 124.453 69.1406C124.453 64.8409 125.868 60.7465 128.429 57.3975C128.45 57.3759 128.483 57.3651 128.504 57.3327C132.21 52.5361 137.784 49.7812 143.812 49.7812V73.9913C143.812 75.6226 144.536 77.1566 145.8 78.2153C149.733 81.5211 152.963 85.313 155.383 89.4831C156.258 91.0063 157.749 92.0002 159.466 92.2163L169.049 93.4047C170.432 93.5775 171.469 94.7659 171.469 96.1487V119.57C171.469 120.964 170.432 122.141 169.049 122.314L159.185 123.546C157.5 123.762 156.02 124.734 155.134 126.214C150.597 133.809 143.51 139.999 134.641 144.115C132.469 145.12 131.184 147.367 131.421 149.7L132.88 163.68C133.02 165.041 132.167 166.283 130.849 166.629L117.896 170.097C116.74 170.41 115.53 169.945 114.871 168.952L108.724 159.553C107.687 157.965 105.958 157.068 104.132 157.068C103.614 157.068 103.084 157.133 102.577 157.284C88.1219 161.433 72.1115 161.422 57.6784 157.241C55.3125 156.549 52.8278 157.468 51.499 159.499L45.3303 168.941C44.6821 169.945 43.4614 170.41 42.3054 170.097L29.3416 166.629C28.0344 166.272 27.1701 165.03 27.3105 163.68L29.2335 144.461C29.3956 142.808 28.8014 141.187 27.6022 139.999C16.9395 129.509 11.0625 116.124 11.0625 102.328C11.0625 97.7368 11.7107 93.1454 13.0071 88.6729C13.5796 86.6851 12.9963 84.5568 11.473 83.0984C7.64868 79.4145 5.53125 74.4558 5.53125 69.1406C5.53125 65.4027 6.58997 61.8484 8.53455 58.7911C9.13953 63.1556 10.9005 67.2501 13.6985 70.7719C14.714 72.0467 16.2372 72.7705 17.8793 72.7705H17.9117C19.6187 72.7597 21.2607 71.9495 22.3195 70.5883C30.2166 60.444 41.4736 52.8818 54.3834 48.5173ZM82.9688 69.1406C81.4455 69.1406 80.2031 70.383 80.2031 71.9062V74.6719C74.0993 74.6719 69.1406 79.6306 69.1406 85.7344V91.2656C69.1406 97.3694 74.0993 102.328 80.2031 102.328H85.7344C88.7809 102.328 91.2656 104.813 91.2656 107.859V113.391C91.2656 116.437 88.7809 118.922 85.7344 118.922V107.859C85.7344 106.336 84.492 105.094 82.9688 105.094C81.4455 105.094 80.2031 106.336 80.2031 107.859V118.922C77.1566 118.922 74.6719 116.437 74.6719 113.391C74.6719 111.867 73.4295 110.625 71.9062 110.625C70.383 110.625 69.1406 111.867 69.1406 113.391C69.1406 119.494 74.0993 124.453 80.2031 124.453V127.219C80.2031 128.742 81.4455 129.984 82.9688 129.984C84.492 129.984 85.7344 128.742 85.7344 127.219V124.453C91.8382 124.453 96.7969 119.494 96.7969 113.391V107.859C96.7969 101.756 91.8382 96.7969 85.7344 96.7969V85.7344C85.7344 84.2111 84.492 82.9688 82.9688 82.9688C81.4455 82.9688 80.2031 84.2111 80.2031 85.7344V96.7969C77.1566 96.7969 74.6719 94.3121 74.6719 91.2656V85.7344C74.6719 82.6879 77.1566 80.2031 80.2031 80.2031H85.7344C88.7809 80.2031 91.2656 82.6879 91.2656 85.7344C91.2656 87.2576 92.508 88.5 94.0312 88.5C95.5545 88.5 96.7969 87.2576 96.7969 85.7344C96.7969 79.6306 91.8382 74.6719 85.7344 74.6719V71.9062C85.7344 70.383 84.492 69.1406 82.9688 69.1406ZM138.389 88.5C135.332 88.5 132.858 90.9739 132.858 94.0312C132.858 97.0886 135.332 99.5625 138.389 99.5625C141.447 99.5625 143.921 97.0886 143.921 94.0312C143.921 90.9739 141.447 88.5 138.389 88.5ZM43.5154 128.407C42.824 128.515 42.165 128.893 41.7112 129.509L38.4595 133.992C37.5628 135.224 37.8437 136.952 39.0753 137.849C39.5722 138.206 40.134 138.378 40.7065 138.378C41.56 138.378 42.4026 137.979 42.9428 137.244L46.1946 132.761C47.0912 131.529 46.8104 129.801 45.5788 128.904C44.963 128.45 44.2176 128.299 43.5154 128.407ZM122.422 128.407C121.72 128.299 120.974 128.45 120.359 128.904C119.127 129.801 118.846 131.529 119.743 132.761L122.995 137.244C123.535 137.979 124.378 138.378 125.231 138.378C125.804 138.378 126.365 138.206 126.862 137.849C128.094 136.952 128.375 135.224 127.478 133.992L124.226 129.509C123.773 128.893 123.114 128.515 122.422 128.407ZM56.0255 135.31C54.9452 135.289 53.9081 135.905 53.4435 136.952L51.1965 141.998C50.5699 143.402 51.2073 145.033 52.6009 145.66C52.9682 145.822 53.3463 145.898 53.7244 145.898C54.7831 145.898 55.7986 145.282 56.2524 144.245L58.4995 139.2C59.1152 137.806 58.4887 136.164 57.095 135.548C56.7493 135.397 56.382 135.321 56.0255 135.31ZM109.912 135.31C109.555 135.321 109.188 135.397 108.842 135.548C107.449 136.175 106.822 137.806 107.438 139.2L109.685 144.245C110.139 145.282 111.154 145.898 112.213 145.898C112.591 145.898 112.969 145.822 113.337 145.66C114.73 145.033 115.357 143.402 114.741 141.998L112.494 136.952C112.029 135.905 110.992 135.289 109.912 135.31ZM68.6437 139.642C67.585 139.848 66.6991 140.669 66.4614 141.781L65.3055 147.194C64.9922 148.696 65.9537 150.165 67.4445 150.478C67.639 150.521 67.8334 150.543 68.0171 150.543C69.3027 150.543 70.4478 149.646 70.7287 148.35L71.8738 142.937C72.1871 141.447 71.2365 139.977 69.7456 139.664C69.3675 139.578 69.0002 139.578 68.6437 139.642ZM97.283 139.642C96.9373 139.578 96.5592 139.578 96.1919 139.664C94.701 139.977 93.7504 141.447 94.0637 142.937L95.2088 148.35C95.4897 149.646 96.6348 150.543 97.9204 150.543C98.1041 150.543 98.2985 150.521 98.493 150.478C99.9838 150.165 100.945 148.696 100.632 147.194L99.4761 141.781C99.2384 140.669 98.3417 139.848 97.283 139.642ZM82.9688 141.047C81.4455 141.047 80.2031 142.289 80.2031 143.812V149.344C80.2031 150.867 81.4455 152.109 82.9688 152.109C84.492 152.109 85.7344 150.867 85.7344 149.344V143.812C85.7344 142.289 84.492 141.047 82.9688 141.047Z" fill="#46A9D4"/>
</svg>
