<svg width="151" height="150" viewBox="0 0 151 150" fill="none" xmlns="http://www.w3.org/2000/svg">
<rect width="149.254" height="149.254" transform="translate(0.776367 0.447754)" fill="white"/>
<path d="M30.9475 19.1044C24.5745 19.1824 19.4328 24.372 19.4328 30.7648V35.429C19.4305 36.8539 19.9027 38.5587 20.5533 40.0932C21.148 41.4948 22.0845 42.7226 23.2179 43.7371C23.5584 44.0402 23.9078 44.3503 24.2063 44.6162C24.7171 45.0709 25.2647 45.4948 25.8734 45.805C29.4672 47.6357 33.7812 47.481 37.256 45.3495C39.3759 43.9502 40.4222 42.4269 41.0776 41.4824C42.1736 39.6564 42.7631 37.5652 42.7537 35.429V31.2659C42.7537 25.1744 38.3 19.7374 32.2366 19.159C31.8019 19.1176 31.3724 19.0992 30.9475 19.1044ZM119.854 19.1044C119.429 19.0992 119 19.1176 118.565 19.159C112.504 19.7374 108.052 25.1744 108.052 31.2659V35.429C108.043 37.5652 108.632 39.6564 109.728 41.4824C110.384 42.4269 111.432 43.9502 113.55 45.3495C117.025 47.481 121.339 47.6357 124.933 45.805C125.541 45.4948 126.084 45.0709 126.595 44.6162C126.894 44.3503 127.248 44.0402 127.588 43.7371C128.721 42.7226 129.658 41.4948 130.253 40.0932C130.906 38.5587 131.371 36.8539 131.369 35.429V30.7648C131.369 24.372 126.227 19.1824 119.854 19.1044ZM31.0933 23.7686C34.9576 23.7686 38.0896 26.9005 38.0896 30.7648V35.429C38.0896 39.2933 34.9576 42.4253 31.0933 42.4253C27.229 42.4253 24.097 39.2933 24.097 35.429V30.7648C24.097 26.9005 27.229 23.7686 31.0933 23.7686ZM119.713 23.7686C123.577 23.7686 126.709 26.9005 126.709 30.7648V35.429C126.709 39.2933 123.577 42.4253 119.713 42.4253C115.848 42.4253 112.716 39.2933 112.716 35.429V30.7648C112.716 26.9005 115.848 23.7686 119.713 23.7686ZM12.4366 33.0969C11.1493 33.0969 10.1045 34.1417 10.1045 35.429V84.4029C10.1045 93.0614 14.8589 100.617 21.8834 104.64L10.2867 132.475C9.79228 133.664 10.3499 135.032 11.5393 135.527C11.8331 135.65 12.1381 135.709 12.4366 135.709C13.3484 135.709 14.2156 135.172 14.591 134.274L26.1467 106.544C28.4396 107.3 30.8827 107.724 33.4254 107.724H43.109L40.4535 123.666C40.3416 124.342 40.5297 125.031 40.9728 125.556C41.4159 126.081 42.0681 126.38 42.7537 126.38H52.0821V133.377C52.0821 134.664 53.1269 135.709 54.4142 135.709C55.7015 135.709 56.7463 134.664 56.7463 133.377V126.38H94.0597V133.377C94.0597 134.664 95.1045 135.709 96.3918 135.709C97.6791 135.709 98.7239 134.664 98.7239 133.377V126.38H108.052C108.738 126.38 109.39 126.081 109.833 125.556C110.276 125.031 110.464 124.342 110.352 123.666L107.697 107.724H117.381C119.923 107.724 122.366 107.3 124.659 106.544L136.215 134.274C136.586 135.17 137.455 135.709 138.369 135.709C138.668 135.709 138.973 135.653 139.267 135.527C140.456 135.03 141.018 133.664 140.524 132.475L128.923 104.636C135.946 100.613 140.702 93.0606 140.702 84.4029V35.429C140.702 34.1417 139.657 33.0969 138.369 33.0969C137.082 33.0969 136.037 34.1417 136.037 35.429V84.4029C136.037 94.6897 127.667 103.06 117.381 103.06H106.918L106.139 98.3954H115.049C124.05 98.3954 131.373 91.0727 131.373 82.0708V63.4141C131.373 60.1352 129.982 56.9933 127.556 54.7872C125.131 52.5833 121.86 51.4911 118.579 51.8083C112.676 52.3703 108.052 57.6442 108.052 63.8149V75.0745H102.368C102.329 75.0745 102.297 75.0954 102.258 75.0973L101.024 67.6956C100.838 66.5739 99.8643 65.7462 98.7239 65.7462H52.0821C50.9417 65.7462 49.9685 66.5739 49.7819 67.6956L48.5521 75.0745H42.7537V63.8149C42.7537 57.6442 38.13 52.3703 32.2275 51.8083C28.9485 51.4911 25.6752 52.5833 23.2498 54.7872C20.8245 56.9933 19.4328 60.1352 19.4328 63.4141V82.0708C19.4328 91.0727 26.7556 98.3954 35.7575 98.3954H44.6668L43.8879 103.06H33.4254C23.1385 103.06 14.7687 94.6897 14.7687 84.4029V35.429C14.7687 34.1417 13.7239 33.0969 12.4366 33.0969ZM119.02 56.4497C121.014 56.2561 122.939 56.8919 124.418 58.2352C125.873 59.5598 126.709 61.4481 126.709 63.4141V82.0708C126.709 88.5004 121.478 93.7312 115.049 93.7312H105.365L103.033 79.7387H108.052C110.625 79.7387 112.716 77.6468 112.716 75.0745V63.8149C112.716 60.0229 115.485 56.7878 119.02 56.4497ZM31.7902 56.4542C35.3233 56.7901 38.0896 60.0229 38.0896 63.8149V75.0745C38.0896 77.6468 40.1814 79.7387 42.7537 79.7387H47.7732L45.4411 93.7312H35.7575C29.3279 93.7312 24.097 88.5004 24.097 82.0708V63.4141C24.097 61.4481 24.9306 59.5575 26.3881 58.2352C27.8643 56.8919 29.7893 56.2607 31.7902 56.4542ZM54.0589 70.4103H96.7471L105.301 121.716H45.5094L54.0589 70.4103ZM56.7463 107.724C55.459 107.724 54.4142 108.769 54.4142 110.056V114.72C54.4142 116.007 55.459 117.052 56.7463 117.052C58.0336 117.052 59.0784 116.007 59.0784 114.72V110.056C59.0784 108.769 58.0336 107.724 56.7463 107.724ZM68.4067 107.724C67.1194 107.724 66.0746 108.769 66.0746 110.056V114.72C66.0746 116.007 67.1194 117.052 68.4067 117.052C69.694 117.052 70.7388 116.007 70.7388 114.72V110.056C70.7388 108.769 69.694 107.724 68.4067 107.724ZM80.0672 107.724C78.7799 107.724 77.7351 108.769 77.7351 110.056V114.72C77.7351 116.007 78.7799 117.052 80.0672 117.052C81.3545 117.052 82.3993 116.007 82.3993 114.72V110.056C82.3993 108.769 81.3545 107.724 80.0672 107.724ZM91.7276 107.724C90.4403 107.724 89.3955 108.769 89.3955 110.056V114.72C89.3955 116.007 90.4403 117.052 91.7276 117.052C93.0149 117.052 94.0597 116.007 94.0597 114.72V110.056C94.0597 108.769 93.0149 107.724 91.7276 107.724Z" fill="#46A9D4"/>
</svg>
