<svg width="85" height="85" viewBox="0 0 85 85" fill="none" xmlns="http://www.w3.org/2000/svg">
<path d="M42.0827 8.41602C23.4908 8.41602 8.41699 23.4899 8.41699 42.0818C8.41699 60.6737 23.4908 75.7475 42.0827 75.7475C60.6747 75.7475 75.7485 60.6737 75.7485 42.0818C75.7485 23.4899 60.6747 8.41602 42.0827 8.41602ZM60.2174 35.1663C60.2342 35.5394 60.2426 35.9097 60.2426 36.28C60.2426 47.6927 51.5597 60.8448 35.6778 60.8448C30.7991 60.8448 26.2626 59.4168 22.4444 56.9648C23.1205 57.0462 23.8079 57.0827 24.5064 57.0827C28.5547 57.0827 32.2748 55.7052 35.2262 53.385C31.4472 53.3149 28.2573 50.818 27.1604 47.3897C27.6878 47.4907 28.2293 47.544 28.7848 47.544C29.5731 47.544 30.339 47.4374 31.06 47.241C27.1099 46.4499 24.1333 42.9599 24.1333 38.7769C24.1333 38.7404 24.1333 38.704 24.1333 38.6675C25.2976 39.3156 26.6274 39.7027 28.0441 39.7476C25.7296 38.2018 24.2034 35.5562 24.2034 32.5628C24.2034 30.9777 24.6271 29.4936 25.3705 28.2227C29.6292 33.4465 35.992 36.886 43.1657 37.2451C43.0198 36.6139 42.944 35.9546 42.944 35.2785C42.944 30.512 46.81 26.6432 51.5765 26.6432C54.0593 26.6432 56.3037 27.6925 57.8776 29.3701C59.8442 28.9802 61.693 28.2648 63.3623 27.2744C62.717 29.2916 61.348 30.9805 59.5637 32.0522C61.3087 31.8446 62.9723 31.3817 64.5238 30.6943C63.3707 32.4281 61.9091 33.9459 60.2174 35.1663Z" fill="#46A9D4"/>
</svg>
