<svg width="27" height="28" viewBox="0 0 27 28" fill="none" xmlns="http://www.w3.org/2000/svg">
<path d="M15.3438 0.9375C15.2239 0.9375 15.104 0.983188 15.0123 1.07483L13 3.08716L11.9252 2.01233C11.7419 1.82905 11.4456 1.82905 11.2623 2.01233L8.11841 5.15625H5.03125C4.96984 5.15625 4.90851 5.16882 4.85089 5.19287C4.79417 5.21659 4.74266 5.25078 4.69983 5.29358L0.949829 9.04358C0.813786 9.17962 0.779542 9.37808 0.845459 9.5462C0.824608 9.64236 0.8125 9.74145 0.8125 9.84375V25.7812C0.8125 26.5566 1.44344 27.1875 2.21875 27.1875H24.7188C25.4941 27.1875 26.125 26.5566 26.125 25.7812V9.84375C26.125 9.74145 26.1129 9.64236 26.092 9.5462C26.158 9.37808 26.1237 9.17962 25.9877 9.04358L22.2377 5.29358C22.1948 5.25078 22.1433 5.21659 22.0866 5.19287C22.029 5.16882 21.9677 5.15625 21.9062 5.15625H19.7566L15.6752 1.07483C15.5835 0.983188 15.4636 0.9375 15.3438 0.9375ZM15.3438 2.06909L19.2311 5.95642L20.6373 7.36267C20.7287 7.45408 20.8487 7.5 20.9688 7.5C21.0888 7.5 21.2088 7.45408 21.3002 7.36267C21.4835 7.17939 21.4835 6.88311 21.3002 6.69983L20.6941 6.09375H21.7122L24.0559 8.4375H2.88159L5.22534 6.09375H7.18091L6.57483 6.69983C6.39155 6.88311 6.39155 7.17939 6.57483 7.36267C6.75811 7.54595 7.05439 7.54595 7.23767 7.36267L11.5938 3.00659L12.6686 4.08142L15.9498 7.36267C16.0412 7.45408 16.1613 7.5 16.2812 7.5C16.4012 7.5 16.5213 7.45408 16.6127 7.36267C16.796 7.17939 16.796 6.88311 16.6127 6.69983L13.6628 3.75L15.3438 2.06909ZM2.21875 9.375H24.7188C24.977 9.375 25.1875 9.585 25.1875 9.84375V25.7812C25.1875 26.04 24.977 26.25 24.7188 26.25H2.21875C1.96047 26.25 1.75 26.04 1.75 25.7812V9.84375C1.75 9.585 1.96047 9.375 2.21875 9.375ZM10.1875 15C9.15203 15 8.3125 15.8395 8.3125 16.875C8.3125 17.9105 9.15203 18.75 10.1875 18.75H16.75C17.7855 18.75 18.625 17.9105 18.625 16.875C18.625 15.8395 17.7855 15 16.75 15H10.1875ZM10.1875 15.9375H16.75C17.268 15.9375 17.6875 16.357 17.6875 16.875C17.6875 17.393 17.268 17.8125 16.75 17.8125H10.1875C9.66953 17.8125 9.25 17.393 9.25 16.875C9.25 16.357 9.66953 15.9375 10.1875 15.9375ZM4.09375 23.4659C3.835 23.4659 3.625 23.6759 3.625 23.9346V24.8721C3.625 25.1309 3.835 25.3409 4.09375 25.3409C4.3525 25.3409 4.5625 25.1309 4.5625 24.8721V23.9346C4.5625 23.6759 4.3525 23.4659 4.09375 23.4659ZM6.4375 23.4659C6.17875 23.4659 5.96875 23.6759 5.96875 23.9346V24.8721C5.96875 25.1309 6.17875 25.3409 6.4375 25.3409C6.69625 25.3409 6.90625 25.1309 6.90625 24.8721V23.9346C6.90625 23.6759 6.69625 23.4659 6.4375 23.4659ZM8.78125 23.4659C8.5225 23.4659 8.3125 23.6759 8.3125 23.9346V24.8721C8.3125 25.1309 8.5225 25.3409 8.78125 25.3409C9.04 25.3409 9.25 25.1309 9.25 24.8721V23.9346C9.25 23.6759 9.04 23.4659 8.78125 23.4659ZM11.125 23.4659C10.8663 23.4659 10.6562 23.6759 10.6562 23.9346V24.8721C10.6562 25.1309 10.8663 25.3409 11.125 25.3409C11.3837 25.3409 11.5938 25.1309 11.5938 24.8721V23.9346C11.5938 23.6759 11.3837 23.4659 11.125 23.4659ZM13.4688 23.4659C13.21 23.4659 13 23.6759 13 23.9346V24.8721C13 25.1309 13.21 25.3409 13.4688 25.3409C13.7275 25.3409 13.9375 25.1309 13.9375 24.8721V23.9346C13.9375 23.6759 13.7275 23.4659 13.4688 23.4659ZM15.8125 23.4659C15.5538 23.4659 15.3438 23.6759 15.3438 23.9346V24.8721C15.3438 25.1309 15.5538 25.3409 15.8125 25.3409C16.0712 25.3409 16.2812 25.1309 16.2812 24.8721V23.9346C16.2812 23.6759 16.0712 23.4659 15.8125 23.4659ZM18.1562 23.4659C17.8975 23.4659 17.6875 23.6759 17.6875 23.9346V24.8721C17.6875 25.1309 17.8975 25.3409 18.1562 25.3409C18.415 25.3409 18.625 25.1309 18.625 24.8721V23.9346C18.625 23.6759 18.415 23.4659 18.1562 23.4659ZM20.5 23.4659C20.2412 23.4659 20.0312 23.6759 20.0312 23.9346V24.8721C20.0312 25.1309 20.2412 25.3409 20.5 25.3409C20.7588 25.3409 20.9688 25.1309 20.9688 24.8721V23.9346C20.9688 23.6759 20.7588 23.4659 20.5 23.4659ZM22.8438 23.4659C22.585 23.4659 22.375 23.6759 22.375 23.9346V24.8721C22.375 25.1309 22.585 25.3409 22.8438 25.3409C23.1025 25.3409 23.3125 25.1309 23.3125 24.8721V23.9346C23.3125 23.6759 23.1025 23.4659 22.8438 23.4659Z" fill="white"/>
</svg>
