<svg width="30" height="30" viewBox="0 0 30 30" fill="none" xmlns="http://www.w3.org/2000/svg">
<path d="M12.1875 0C11.1548 0 9.67896 0.322266 8.7616 0.941162C7.0166 1.00525 5.82275 2.23022 5.62683 4.17297C5.50781 5.37231 5.61768 6.23108 5.68909 6.79871C5.71472 6.99646 5.74219 7.21985 5.73303 7.28577C5.71838 7.37366 5.70374 7.46155 5.69092 7.54944C5.61401 7.5531 5.54443 7.56409 5.48584 7.58057C4.71313 7.78748 4.38904 8.91724 4.73511 10.2081C4.98596 11.1438 5.51147 11.8469 6.08643 12.063C6.38306 12.9712 6.81885 13.8739 7.36084 14.6869L3.03955 17.1899C1.16455 18.2739 0 20.2954 0 22.4615V25.7812C0 26.5558 0.631714 27.1875 1.40625 27.1875H19.519C20.6287 28.3411 22.1832 29.0625 23.9062 29.0625C27.2662 29.0625 30 26.3287 30 22.9688C30 19.6088 27.2662 16.875 23.9062 16.875C23.0768 16.875 22.2858 17.0435 21.5643 17.3438C21.4856 17.2943 21.416 17.2357 21.3354 17.1899L17.0142 14.6869C17.5562 13.8739 17.9919 12.9712 18.2886 12.063C18.8635 11.8469 19.389 11.1456 19.6399 10.2081C19.986 8.91724 19.6619 7.78748 18.8892 7.58057C18.8306 7.56592 18.7628 7.5531 18.6859 7.54944C18.62 7.04773 18.4918 6.57898 18.2556 5.93811C18.2483 5.9198 18.2428 5.90332 18.2373 5.88867C18.4039 5.90149 18.6676 5.96924 18.8837 6.05713C19.0466 6.12488 19.2316 6.09741 19.3652 5.98389C19.4989 5.87219 19.5593 5.69458 19.5227 5.52429C18.7665 2.06543 16.1993 0 12.6562 0H12.1875ZM12.1875 0.9375H12.6562C15.5017 0.9375 17.5562 2.39136 18.3984 4.96033C18.0762 4.92554 17.7393 4.96399 17.5104 5.18555C17.3309 5.35583 17.1625 5.68359 17.3749 6.26221C17.6642 7.04773 17.7667 7.51282 17.7979 8.172C17.8052 8.34045 17.9041 8.4906 18.0524 8.5675C18.2007 8.64258 18.3801 8.63342 18.5211 8.54187C18.598 8.49243 18.6383 8.48694 18.6475 8.48694C18.761 8.52539 18.9661 9.09668 18.7335 9.96643C18.5028 10.8289 18.0597 11.1932 17.9224 11.1932C17.7136 11.1713 17.5323 11.3306 17.4738 11.5283C16.6827 14.1852 14.6136 16.875 12.1875 16.875C9.76135 16.875 7.69226 14.1852 6.90125 11.5283C6.84265 11.3306 6.66138 11.1932 6.45264 11.1932C6.31531 11.1932 5.87219 10.8289 5.64148 9.96643C5.4071 9.08936 5.61768 8.51624 5.72571 8.48694C5.72754 8.48694 5.76782 8.48694 5.85205 8.54187C5.99304 8.63342 6.17432 8.64258 6.32263 8.5675C6.47278 8.4906 6.56799 8.34045 6.57715 8.172C6.58813 7.92847 6.61377 7.68494 6.65588 7.44873C6.69067 7.24731 6.66321 7.02209 6.61926 6.67969C6.55151 6.15417 6.45081 5.3595 6.56067 4.26636C6.70898 2.77039 7.58606 1.875 8.91357 1.875C9.01611 1.875 9.11316 1.84204 9.19556 1.78162C9.83826 1.30005 11.1237 0.9375 12.1875 0.9375ZM9.62219 3.80859C9.28711 3.7793 8.9502 3.93127 8.75793 4.22607L8.00537 5.36682C7.86255 5.58289 7.92297 5.87402 8.13904 6.01685C8.2196 6.06995 8.3075 6.09375 8.39539 6.09375C8.54919 6.09375 8.69751 6.02051 8.78906 5.88318L9.53979 4.74243L10.2722 5.09949C11.6071 5.74951 13.0975 6.09375 14.5825 6.09375H15.7819C16.04 6.09375 16.2506 5.88318 16.2506 5.625C16.2506 5.36682 16.04 5.15625 15.7819 5.15625H14.5825C13.2404 5.15625 11.8909 4.84497 10.6842 4.25537L9.95178 3.89832C9.84558 3.84705 9.73389 3.81775 9.62219 3.80859ZM7.9248 15.4413C9.06555 16.8329 10.5487 17.8125 12.1875 17.8125C13.8263 17.8125 15.3076 16.8347 16.4484 15.4431L20.6104 17.851C18.9294 18.9386 17.8125 20.8246 17.8125 22.9688C17.8125 24.1772 18.1696 25.3015 18.7793 26.25H1.40625C1.14807 26.25 0.9375 26.0394 0.9375 25.7812V22.4615C0.9375 20.6287 1.92261 18.9185 3.51013 17.9993L7.9248 15.4413ZM15.9082 17.8125C15.8478 17.8162 15.7855 17.8326 15.7269 17.8619L12.1875 19.6326L8.64807 17.8619C8.41553 17.7466 8.13354 17.84 8.01819 18.0707C7.90283 18.3032 7.99622 18.5852 8.22693 18.7006L11.9769 20.5756C12.0447 20.6085 12.1161 20.625 12.1875 20.625C12.2589 20.625 12.3322 20.6085 12.3981 20.5756L16.1481 18.7006C16.3788 18.5852 16.4722 18.3032 16.3568 18.0707C16.2708 17.8986 16.0913 17.8015 15.9082 17.8125ZM23.9062 17.8125C26.7499 17.8125 29.0625 20.1251 29.0625 22.9688C29.0625 25.8124 26.7499 28.125 23.9062 28.125C21.0626 28.125 18.75 25.8124 18.75 22.9688C18.75 20.1251 21.0626 17.8125 23.9062 17.8125ZM23.9062 19.6875C23.6481 19.6875 23.4375 19.8981 23.4375 20.1562V22.5H21.0938C20.8356 22.5 20.625 22.7106 20.625 22.9688C20.625 23.2269 20.8356 23.4375 21.0938 23.4375H23.4375V25.7812C23.4375 26.0394 23.6481 26.25 23.9062 26.25C24.1644 26.25 24.375 26.0394 24.375 25.7812V23.4375H26.7188C26.9769 23.4375 27.1875 23.2269 27.1875 22.9688C27.1875 22.7106 26.9769 22.5 26.7188 22.5H24.375V20.1562C24.375 19.8981 24.1644 19.6875 23.9062 19.6875ZM2.8125 23.4375C2.55432 23.4375 2.34375 23.6481 2.34375 23.9062V24.8438C2.34375 25.1019 2.55432 25.3125 2.8125 25.3125C3.07068 25.3125 3.28125 25.1019 3.28125 24.8438V23.9062C3.28125 23.6481 3.07068 23.4375 2.8125 23.4375ZM5.15625 23.4375C4.89807 23.4375 4.6875 23.6481 4.6875 23.9062V24.8438C4.6875 25.1019 4.89807 25.3125 5.15625 25.3125C5.41443 25.3125 5.625 25.1019 5.625 24.8438V23.9062C5.625 23.6481 5.41443 23.4375 5.15625 23.4375ZM7.5 23.4375C7.24182 23.4375 7.03125 23.6481 7.03125 23.9062V24.8438C7.03125 25.1019 7.24182 25.3125 7.5 25.3125C7.75818 25.3125 7.96875 25.1019 7.96875 24.8438V23.9062C7.96875 23.6481 7.75818 23.4375 7.5 23.4375ZM9.84375 23.4375C9.58557 23.4375 9.375 23.6481 9.375 23.9062V24.8438C9.375 25.1019 9.58557 25.3125 9.84375 25.3125C10.1019 25.3125 10.3125 25.1019 10.3125 24.8438V23.9062C10.3125 23.6481 10.1019 23.4375 9.84375 23.4375ZM12.1875 23.4375C11.9293 23.4375 11.7188 23.6481 11.7188 23.9062V24.8438C11.7188 25.1019 11.9293 25.3125 12.1875 25.3125C12.4457 25.3125 12.6562 25.1019 12.6562 24.8438V23.9062C12.6562 23.6481 12.4457 23.4375 12.1875 23.4375ZM14.5312 23.4375C14.2731 23.4375 14.0625 23.6481 14.0625 23.9062V24.8438C14.0625 25.1019 14.2731 25.3125 14.5312 25.3125C14.7894 25.3125 15 25.1019 15 24.8438V23.9062C15 23.6481 14.7894 23.4375 14.5312 23.4375ZM16.875 23.4375C16.6168 23.4375 16.4062 23.6481 16.4062 23.9062V24.8438C16.4062 25.1019 16.6168 25.3125 16.875 25.3125C17.1332 25.3125 17.3438 25.1019 17.3438 24.8438V23.9062C17.3438 23.6481 17.1332 23.4375 16.875 23.4375Z" fill="white"/>
</svg>
