<svg width="28" height="26" viewBox="0 0 28 26" fill="none" xmlns="http://www.w3.org/2000/svg">
<path d="M2.28125 0.8125C1.50671 0.8125 0.875 1.44421 0.875 2.21875V23.7812C0.875 24.5558 1.50671 25.1875 2.28125 25.1875H25.7188C26.4933 25.1875 27.125 24.5558 27.125 23.7812V2.21875C27.125 1.44421 26.4933 0.8125 25.7188 0.8125H2.28125ZM2.28125 1.75H25.7188C25.9769 1.75 26.1875 1.96057 26.1875 2.21875V23.7812C26.1875 24.0394 25.9769 24.25 25.7188 24.25H2.28125C2.02307 24.25 1.8125 24.0394 1.8125 23.7812V2.21875C1.8125 1.96057 2.02307 1.75 2.28125 1.75ZM8.375 3.625C8.11499 3.625 7.90625 3.83374 7.90625 4.09375V6.4375H5.5625C5.30249 6.4375 5.09375 6.64624 5.09375 6.90625C5.09375 7.16626 5.30249 7.375 5.5625 7.375H7.90625V9.71875C7.90625 9.97876 8.11499 10.1875 8.375 10.1875C8.63501 10.1875 8.84375 9.97876 8.84375 9.71875V7.375H11.1875C11.4475 7.375 11.6562 7.16626 11.6562 6.90625C11.6562 6.64624 11.4475 6.4375 11.1875 6.4375H8.84375V4.09375C8.84375 3.83374 8.63501 3.625 8.375 3.625ZM16.8125 6.4375C16.5525 6.4375 16.3438 6.64624 16.3438 6.90625C16.3438 7.16626 16.5525 7.375 16.8125 7.375H22.4375C22.6975 7.375 22.9062 7.16626 22.9062 6.90625C22.9062 6.64624 22.6975 6.4375 22.4375 6.4375H16.8125ZM6.38648 13.824C6.26746 13.824 6.14661 13.8698 6.05505 13.9613C5.87195 14.1444 5.87195 14.441 6.05505 14.6241L7.71216 16.2812L6.05505 17.9384C5.87195 18.1215 5.87195 18.4181 6.05505 18.6012C6.14661 18.6927 6.26562 18.7385 6.38648 18.7385C6.50732 18.7385 6.62634 18.6927 6.7179 18.6012L8.375 16.9441L10.0321 18.6012C10.1237 18.6927 10.2427 18.7385 10.3635 18.7385C10.4844 18.7385 10.6034 18.6927 10.6949 18.6012C10.8781 18.4181 10.8781 18.1215 10.6949 17.9384L9.03784 16.2812L10.6949 14.6241C10.8781 14.441 10.8781 14.1444 10.6949 13.9613C10.5118 13.7782 10.2152 13.7782 10.0321 13.9613L8.375 15.6184L6.7179 13.9613C6.62634 13.8698 6.50549 13.824 6.38648 13.824ZM16.8125 13.9375C16.5525 13.9375 16.3438 14.1462 16.3438 14.4062C16.3438 14.6663 16.5525 14.875 16.8125 14.875H22.4375C22.6975 14.875 22.9062 14.6663 22.9062 14.4062C22.9062 14.1462 22.6975 13.9375 22.4375 13.9375H16.8125ZM16.8125 17.6875C16.5525 17.6875 16.3438 17.8962 16.3438 18.1562C16.3438 18.4163 16.5525 18.625 16.8125 18.625H22.4375C22.6975 18.625 22.9062 18.4163 22.9062 18.1562C22.9062 17.8962 22.6975 17.6875 22.4375 17.6875H16.8125ZM3.21875 21.4375C2.95874 21.4375 2.75 21.6462 2.75 21.9062V22.8438C2.75 23.1038 2.95874 23.3125 3.21875 23.3125C3.47876 23.3125 3.6875 23.1038 3.6875 22.8438V21.9062C3.6875 21.6462 3.47876 21.4375 3.21875 21.4375ZM5.5625 21.4375C5.30249 21.4375 5.09375 21.6462 5.09375 21.9062V22.8438C5.09375 23.1038 5.30249 23.3125 5.5625 23.3125C5.82251 23.3125 6.03125 23.1038 6.03125 22.8438V21.9062C6.03125 21.6462 5.82251 21.4375 5.5625 21.4375ZM7.90625 21.4375C7.64624 21.4375 7.4375 21.6462 7.4375 21.9062V22.8438C7.4375 23.1038 7.64624 23.3125 7.90625 23.3125C8.16626 23.3125 8.375 23.1038 8.375 22.8438V21.9062C8.375 21.6462 8.16626 21.4375 7.90625 21.4375ZM10.25 21.4375C9.98999 21.4375 9.78125 21.6462 9.78125 21.9062V22.8438C9.78125 23.1038 9.98999 23.3125 10.25 23.3125C10.51 23.3125 10.7188 23.1038 10.7188 22.8438V21.9062C10.7188 21.6462 10.51 21.4375 10.25 21.4375ZM12.5938 21.4375C12.3337 21.4375 12.125 21.6462 12.125 21.9062V22.8438C12.125 23.1038 12.3337 23.3125 12.5938 23.3125C12.8538 23.3125 13.0625 23.1038 13.0625 22.8438V21.9062C13.0625 21.6462 12.8538 21.4375 12.5938 21.4375ZM14.9375 21.4375C14.6775 21.4375 14.4688 21.6462 14.4688 21.9062V22.8438C14.4688 23.1038 14.6775 23.3125 14.9375 23.3125C15.1975 23.3125 15.4062 23.1038 15.4062 22.8438V21.9062C15.4062 21.6462 15.1975 21.4375 14.9375 21.4375ZM17.2812 21.4375C17.0212 21.4375 16.8125 21.6462 16.8125 21.9062V22.8438C16.8125 23.1038 17.0212 23.3125 17.2812 23.3125C17.5413 23.3125 17.75 23.1038 17.75 22.8438V21.9062C17.75 21.6462 17.5413 21.4375 17.2812 21.4375ZM19.625 21.4375C19.365 21.4375 19.1562 21.6462 19.1562 21.9062V22.8438C19.1562 23.1038 19.365 23.3125 19.625 23.3125C19.885 23.3125 20.0938 23.1038 20.0938 22.8438V21.9062C20.0938 21.6462 19.885 21.4375 19.625 21.4375ZM21.9688 21.4375C21.7087 21.4375 21.5 21.6462 21.5 21.9062V22.8438C21.5 23.1038 21.7087 23.3125 21.9688 23.3125C22.2288 23.3125 22.4375 23.1038 22.4375 22.8438V21.9062C22.4375 21.6462 22.2288 21.4375 21.9688 21.4375ZM24.3125 21.4375C24.0525 21.4375 23.8438 21.6462 23.8438 21.9062V22.8438C23.8438 23.1038 24.0525 23.3125 24.3125 23.3125C24.5725 23.3125 24.7812 23.1038 24.7812 22.8438V21.9062C24.7812 21.6462 24.5725 21.4375 24.3125 21.4375Z" fill="white"/>
</svg>
