<svg width="30" height="29" viewBox="0 0 30 29" fill="none" xmlns="http://www.w3.org/2000/svg">
<path d="M17.3779 5.91593e-05C16.3287 -0.005434 15.3143 0.371763 14.5324 1.07123C13.637 1.8714 13.1243 3.01764 13.1243 4.21698C13.1243 5.31012 13.5418 6.34649 14.2999 7.13751C14.4482 7.29132 14.5306 7.49273 14.5306 7.70514C13.2177 7.60626 11.936 7.44513 10.7183 7.2254L8.446 6.80975C7.99373 6.72552 7.52681 6.87384 7.20088 7.19977C6.87495 7.52569 6.72847 7.99261 6.81086 8.44488L7.22468 10.7191C7.44624 11.9349 7.60737 13.2184 7.70259 14.5295C7.49385 14.5295 7.2906 14.4471 7.13313 14.2951C6.21394 13.4162 4.95967 13.0005 3.68709 13.1562C1.77913 13.3887 0.239209 14.947 0.0268067 16.8586C-0.108691 18.0598 0.273999 19.2609 1.07234 20.1545C1.87251 21.048 3.01875 21.5607 4.21809 21.5607C5.31123 21.5607 6.34761 21.1432 7.13862 20.3852C7.29243 20.2369 7.49202 20.1545 7.70442 20.1545H7.70625C7.60737 21.4673 7.44624 22.7491 7.22651 23.9667L6.77058 26.4661C6.69551 26.8763 6.8072 27.2974 7.07454 27.6179C7.34187 27.9383 7.73555 28.1232 8.15303 28.1232H26.8719C27.5531 28.1232 28.1353 27.638 28.2562 26.9678L28.7725 24.1334C28.9996 22.8846 29.1662 21.5681 29.2669 20.2259C29.2852 19.9659 29.1955 19.7095 29.0179 19.5191C28.8403 19.3268 28.5876 19.217 28.3276 19.217C27.8753 19.217 27.4432 19.3928 27.1099 19.7132C26.3958 20.3962 25.418 20.7184 24.4274 20.5994C22.9443 20.4163 21.7486 19.2078 21.5838 17.7228C21.4776 16.7725 21.7651 15.8607 22.3968 15.1557C23.0175 14.4599 23.9111 14.0607 24.8431 14.0607C25.6927 14.0607 26.5002 14.3848 27.1136 14.9763C27.4432 15.293 27.8753 15.467 28.3276 15.467C28.5894 15.467 28.8403 15.3571 29.0179 15.1649C29.1955 14.9744 29.2852 14.7162 29.2669 14.4581C29.1662 13.1141 28.9996 11.7994 28.7725 10.5506L28.2855 7.86627C28.2177 7.49823 28.0108 7.17596 27.7014 6.96356C27.3937 6.74933 27.0202 6.66693 26.6503 6.73651L23.9678 7.22357C22.7502 7.44513 21.4685 7.60626 20.1556 7.70148C20.1556 7.49273 20.2398 7.28949 20.39 7.13202C21.2707 6.21283 21.6845 4.95856 21.5307 3.68597C21.2963 1.77801 19.7381 0.238096 17.8265 0.0256939C17.6763 0.0073834 17.5262 5.91593e-05 17.3779 5.91593e-05ZM17.3687 0.935728C17.4859 0.935728 17.6049 0.944883 17.7239 0.957701C19.2089 1.12433 20.4174 2.31817 20.6005 3.7995C20.7214 4.7901 20.3973 5.76971 19.7143 6.48382C19.3939 6.81708 19.2181 7.2492 19.2181 7.70148C19.2181 7.96332 19.328 8.21417 19.5202 8.39178C19.7106 8.5694 19.9688 8.66095 20.227 8.64081C21.571 8.5401 22.8857 8.37347 24.1345 8.14642L26.8188 7.65936C26.9433 7.63556 27.066 7.66302 27.1685 7.73443C27.2711 7.80585 27.3406 7.91205 27.3626 8.03473L27.8515 10.7191C28.0712 11.9349 28.2342 13.2184 28.3276 14.5295C28.1188 14.5295 27.9174 14.4471 27.7636 14.3006C26.9726 13.5407 25.9362 13.1232 24.8431 13.1232C23.6437 13.1232 22.4975 13.6359 21.6973 14.5295C20.899 15.423 20.5181 16.6242 20.6518 17.8254C20.8642 19.737 22.4041 21.2952 24.3139 21.5278C25.5847 21.6834 26.8389 21.2678 27.7581 20.3889C27.9156 20.2387 28.117 20.1545 28.3294 20.1545H28.3312C28.2324 21.4673 28.0712 22.7491 27.8497 23.9667L27.3333 26.8012C27.2949 27.0246 27.0989 27.1857 26.8719 27.1857H8.15303C7.9626 27.1857 7.84541 27.0795 7.79231 27.0173C7.74104 26.955 7.65864 26.8213 7.6916 26.6346L8.1457 24.1334C8.37459 22.8846 8.54121 21.5699 8.64192 20.2259C8.66023 19.9677 8.57051 19.7095 8.3929 19.5191C8.21528 19.3268 7.96443 19.217 7.70259 19.217C7.25032 19.217 6.81819 19.3928 6.4886 19.7095C5.8752 20.2991 5.0677 20.6232 4.21809 20.6232C3.28608 20.6232 2.39253 20.2241 1.7718 19.5283C1.14009 18.8233 0.852613 17.9114 0.958813 16.9611C1.12544 15.4761 2.31929 14.2676 3.80061 14.0845C4.79304 13.9655 5.77083 14.2878 6.48494 14.9708C6.81819 15.2912 7.25032 15.467 7.70259 15.467C7.96443 15.467 8.21528 15.3571 8.3929 15.1649C8.57051 14.9744 8.66023 14.7162 8.64192 14.4581C8.54121 13.1141 8.37459 11.7994 8.14753 10.5506L7.73372 8.27643C7.70625 8.12445 7.75386 7.97247 7.86372 7.86261C7.97542 7.75274 8.12739 7.70697 8.27754 7.7326L10.5517 8.14642C11.8005 8.37347 13.117 8.5401 14.4592 8.64081C14.7119 8.66095 14.9755 8.5694 15.166 8.39178C15.3582 8.21417 15.4681 7.96332 15.4681 7.70148C15.4681 7.2492 15.2923 6.81708 14.9755 6.48749C14.3859 5.87408 14.0618 5.06659 14.0618 4.21698C14.0618 3.28497 14.461 2.39142 15.1568 1.77069C15.7739 1.21771 16.5484 0.926573 17.3687 0.935728ZM26.1688 9.16632L24.6911 9.43548C24.4366 9.48309 24.2681 9.72479 24.3139 9.98114C24.3542 10.2064 24.552 10.3657 24.7753 10.3657C24.8028 10.3657 24.8303 10.3638 24.8577 10.3565L26.3372 10.0892C26.5917 10.0434 26.7602 9.79986 26.7144 9.54352C26.6687 9.289 26.4233 9.12054 26.1688 9.16632ZM9.44575 9.33661C9.19124 9.28717 8.94587 9.45929 8.9001 9.7138C8.85249 9.96832 9.02278 10.2119 9.2773 10.2595L10.5517 10.4902C12.8002 10.8985 15.0689 11.1036 17.3413 11.1036C19.2034 11.1036 21.0675 10.9662 22.9223 10.6916C23.1787 10.6531 23.3544 10.4133 23.316 10.1569C23.2775 9.90057 23.0413 9.72845 22.785 9.76141C18.7695 10.3583 14.71 10.2924 10.7183 9.56732L9.44575 9.33661ZM9.84309 24.3732C9.58308 24.3732 9.37434 24.582 9.37434 24.842V25.7795C9.37434 26.0395 9.58308 26.2482 9.84309 26.2482C10.1031 26.2482 10.3118 26.0395 10.3118 25.7795V24.842C10.3118 24.582 10.1031 24.3732 9.84309 24.3732ZM12.1868 24.3732C11.9268 24.3732 11.7181 24.582 11.7181 24.842V25.7795C11.7181 26.0395 11.9268 26.2482 12.1868 26.2482C12.4469 26.2482 12.6556 26.0395 12.6556 25.7795V24.842C12.6556 24.582 12.4469 24.3732 12.1868 24.3732ZM14.5306 24.3732C14.2706 24.3732 14.0618 24.582 14.0618 24.842V25.7795C14.0618 26.0395 14.2706 26.2482 14.5306 26.2482C14.7906 26.2482 14.9993 26.0395 14.9993 25.7795V24.842C14.9993 24.582 14.7906 24.3732 14.5306 24.3732ZM16.8743 24.3732C16.6143 24.3732 16.4056 24.582 16.4056 24.842V25.7795C16.4056 26.0395 16.6143 26.2482 16.8743 26.2482C17.1343 26.2482 17.3431 26.0395 17.3431 25.7795V24.842C17.3431 24.582 17.1343 24.3732 16.8743 24.3732ZM19.2181 24.3732C18.9581 24.3732 18.7493 24.582 18.7493 24.842V25.7795C18.7493 26.0395 18.9581 26.2482 19.2181 26.2482C19.4781 26.2482 19.6868 26.0395 19.6868 25.7795V24.842C19.6868 24.582 19.4781 24.3732 19.2181 24.3732ZM21.5618 24.3732C21.3018 24.3732 21.0931 24.582 21.0931 24.842V25.7795C21.0931 26.0395 21.3018 26.2482 21.5618 26.2482C21.8218 26.2482 22.0306 26.0395 22.0306 25.7795V24.842C22.0306 24.582 21.8218 24.3732 21.5618 24.3732ZM23.9056 24.3732C23.6456 24.3732 23.4368 24.582 23.4368 24.842V25.7795C23.4368 26.0395 23.6456 26.2482 23.9056 26.2482C24.1656 26.2482 24.3743 26.0395 24.3743 25.7795V24.842C24.3743 24.582 24.1656 24.3732 23.9056 24.3732ZM26.2493 24.3732C25.9893 24.3732 25.7806 24.582 25.7806 24.842V25.7795C25.7806 26.0395 25.9893 26.2482 26.2493 26.2482C26.5093 26.2482 26.7181 26.0395 26.7181 25.7795V24.842C26.7181 24.582 26.5093 24.3732 26.2493 24.3732Z" fill="white"/>
</svg>
