<?xml version="1.0" encoding="utf-8"?>
<!-- Generator: Adobe Illustrator 21.1.0, SVG Export Plug-In . SVG Version: 6.00 Build 0)  -->
<svg version="1.1" id="Layer_1" xmlns="http://www.w3.org/2000/svg" xmlns:xlink="http://www.w3.org/1999/xlink" x="0px" y="0px"
	 viewBox="0 0 124.3 125.3" style="enable-background:new 0 0 124.3 125.3;" xml:space="preserve">
<g>
	<path style="fill:#45A9D4;" d="M104.3,34.7H75.5c-1.1,0-2-0.9-2-2v0c0-1.1,0.9-2,2-2h28.8c1.1,0,2,0.9,2,2v0
		C106.3,33.8,105.4,34.7,104.3,34.7z"/>
	<g id="equal">
		<path style="fill:#45A9D4;" d="M104.3,88.7H75.5c-1.1,0-2-0.9-2-2v0c0-1.1,0.9-2,2-2h28.8c1.1,0,2,0.9,2,2v0
			C106.3,87.8,105.4,88.7,104.3,88.7z"/>
		<path style="fill:#45A9D4;" d="M104.3,100.7H75.5c-1.1,0-2-0.9-2-2v0c0-1.1,0.9-2,2-2h28.8c1.1,0,2,0.9,2,2v0
			C106.3,99.8,105.4,100.7,104.3,100.7z"/>
	</g>
	<g id="plus">
		<path style="fill:#45A9D4;" d="M23.1,81.1l20.4,20.4c0.8,0.8,0.8,2.1,0,2.8h0c-0.8,0.8-2.1,0.8-2.8,0L20.3,84
			c-0.8-0.8-0.8-2.1,0-2.8h0C21.1,80.4,22.3,80.4,23.1,81.1z"/>
		<path style="fill:#45A9D4;" d="M20.3,101.5l20.4-20.4c0.8-0.8,2.1-0.8,2.8,0h0c0.8,0.8,0.8,2.1,0,2.8l-20.4,20.4
			c-0.8,0.8-2.1,0.8-2.8,0h0C19.5,103.5,19.5,102.3,20.3,101.5z"/>
	</g>
	<g id="plus_1_">
		<path style="fill:#45A9D4;" d="M46.3,34.7H17.5c-1.1,0-2-0.9-2-2v0c0-1.1,0.9-2,2-2h28.8c1.1,0,2,0.9,2,2v0
			C48.3,33.8,47.4,34.7,46.3,34.7z"/>
		<path style="fill:#45A9D4;" d="M33.9,18.3v28.8c0,1.1-0.9,2-2,2h0c-1.1,0-2-0.9-2-2V18.3c0-1.1,0.9-2,2-2h0
			C33,16.3,33.9,17.2,33.9,18.3z"/>
	</g>
	<g>
		<path style="fill:#45A9D4;" d="M62,72.4L62,72.4c-1.1,0-2-0.9-2-2v0c0-1.1,0.9-2,2-2h0c1.1,0,2,0.9,2,2v0
			C64,71.5,63.1,72.4,62,72.4z"/>
		<path style="fill:#45A9D4;" d="M62,80.4L62,80.4c-1.1,0-2-0.9-2-2v0c0-1.1,0.9-2,2-2h0c1.1,0,2,0.9,2,2v0
			C64,79.5,63.1,80.4,62,80.4z"/>
		<path style="fill:#45A9D4;" d="M62,88.4L62,88.4c-1.1,0-2-0.9-2-2v0c0-1.1,0.9-2,2-2h0c1.1,0,2,0.9,2,2v0
			C64,87.5,63.1,88.4,62,88.4z"/>
		<path style="fill:#45A9D4;" d="M62,96.4L62,96.4c-1.1,0-2-0.9-2-2v0c0-1.1,0.9-2,2-2h0c1.1,0,2,0.9,2,2v0
			C64,95.5,63.1,96.4,62,96.4z"/>
		<path style="fill:#45A9D4;" d="M62,104.4L62,104.4c-1.1,0-2-0.9-2-2v0c0-1.1,0.9-2,2-2h0c1.1,0,2,0.9,2,2v0
			C64,103.5,63.1,104.4,62,104.4z"/>
		<path style="fill:#45A9D4;" d="M62,112.4L62,112.4c-1.1,0-2-0.9-2-2v0c0-1.1,0.9-2,2-2h0c1.1,0,2,0.9,2,2v0
			C64,111.5,63.1,112.4,62,112.4z"/>
		<path style="fill:#45A9D4;" d="M62,64.4L62,64.4c-1.1,0-2-0.9-2-2v0c0-1.1,0.9-2,2-2h0c1.1,0,2,0.9,2,2v0
			C64,63.5,63.1,64.4,62,64.4z"/>
		<path style="fill:#45A9D4;" d="M62,56.4L62,56.4c-1.1,0-2-0.9-2-2v0c0-1.1,0.9-2,2-2h0c1.1,0,2,0.9,2,2v0
			C64,55.5,63.1,56.4,62,56.4z"/>
		<path style="fill:#45A9D4;" d="M62,48.4L62,48.4c-1.1,0-2-0.9-2-2v0c0-1.1,0.9-2,2-2h0c1.1,0,2,0.9,2,2v0
			C64,47.5,63.1,48.4,62,48.4z"/>
		<path style="fill:#45A9D4;" d="M62,40.4L62,40.4c-1.1,0-2-0.9-2-2v0c0-1.1,0.9-2,2-2h0c1.1,0,2,0.9,2,2v0
			C64,39.5,63.1,40.4,62,40.4z"/>
		<path style="fill:#45A9D4;" d="M62,32.4L62,32.4c-1.1,0-2-0.9-2-2v0c0-1.1,0.9-2,2-2h0c1.1,0,2,0.9,2,2v0
			C64,31.5,63.1,32.4,62,32.4z"/>
		<path style="fill:#45A9D4;" d="M62,24.4L62,24.4c-1.1,0-2-0.9-2-2v0c0-1.1,0.9-2,2-2h0c1.1,0,2,0.9,2,2v0
			C64,23.5,63.1,24.4,62,24.4z"/>
		<path style="fill:#45A9D4;" d="M62,16.4L62,16.4c-1.1,0-2-0.9-2-2v0c0-1.1,0.9-2,2-2h0c1.1,0,2,0.9,2,2v0
			C64,15.5,63.1,16.4,62,16.4z"/>
		<path style="fill:#45A9D4;" d="M64,6.4L64,6.4c0,1.1-0.9,2-2,2h0c-1.1,0-2-0.9-2-2v0"/>
		<path style="fill:#45A9D4;" d="M60,118.4L60,118.4c0-1.1,0.9-2,2-2h0c1.1,0,2,0.9,2,2l0,0"/>
	</g>
	<g>
		<path style="fill:#45A9D4;" d="M72,62.4L72,62.4c0,1.1-0.9,2-2,2l0,0c-1.1,0-2-0.9-2-2v0c0-1.1,0.9-2,2-2l0,0
			C71.1,60.4,72,61.3,72,62.4z"/>
		<path style="fill:#45A9D4;" d="M80,62.4L80,62.4c0,1.1-0.9,2-2,2l0,0c-1.1,0-2-0.9-2-2v0c0-1.1,0.9-2,2-2l0,0
			C79.1,60.4,80,61.3,80,62.4z"/>
		<path style="fill:#45A9D4;" d="M88,62.4L88,62.4c0,1.1-0.9,2-2,2l0,0c-1.1,0-2-0.9-2-2v0c0-1.1,0.9-2,2-2l0,0
			C87.1,60.4,88,61.3,88,62.4z"/>
		<path style="fill:#45A9D4;" d="M96,62.4L96,62.4c0,1.1-0.9,2-2,2l0,0c-1.1,0-2-0.9-2-2v0c0-1.1,0.9-2,2-2l0,0
			C95.1,60.4,96,61.3,96,62.4z"/>
		<path style="fill:#45A9D4;" d="M104,62.4L104,62.4c0,1.1-0.9,2-2,2l0,0c-1.1,0-2-0.9-2-2v0c0-1.1,0.9-2,2-2l0,0
			C103.1,60.4,104,61.3,104,62.4z"/>
		<path style="fill:#45A9D4;" d="M112,62.4L112,62.4c0,1.1-0.9,2-2,2l0,0c-1.1,0-2-0.9-2-2v0c0-1.1,0.9-2,2-2l0,0
			C111.1,60.4,112,61.3,112,62.4z"/>
		<path style="fill:#45A9D4;" d="M64,62.4L64,62.4c0,1.1-0.9,2-2,2h0c-1.1,0-2-0.9-2-2v0c0-1.1,0.9-2,2-2h0
			C63.1,60.4,64,61.3,64,62.4z"/>
		<path style="fill:#45A9D4;" d="M56,62.4L56,62.4c0,1.1-0.9,2-2,2h0c-1.1,0-2-0.9-2-2v0c0-1.1,0.9-2,2-2h0
			C55.1,60.4,56,61.3,56,62.4z"/>
		<path style="fill:#45A9D4;" d="M48,62.4L48,62.4c0,1.1-0.9,2-2,2h0c-1.1,0-2-0.9-2-2v0c0-1.1,0.9-2,2-2h0
			C47.1,60.4,48,61.3,48,62.4z"/>
		<path style="fill:#45A9D4;" d="M40,62.4L40,62.4c0,1.1-0.9,2-2,2h0c-1.1,0-2-0.9-2-2v0c0-1.1,0.9-2,2-2h0
			C39.1,60.4,40,61.3,40,62.4z"/>
		<path style="fill:#45A9D4;" d="M32,62.4L32,62.4c0,1.1-0.9,2-2,2h0c-1.1,0-2-0.9-2-2v0c0-1.1,0.9-2,2-2h0
			C31.1,60.4,32,61.3,32,62.4z"/>
		<path style="fill:#45A9D4;" d="M24,62.4L24,62.4c0,1.1-0.9,2-2,2h0c-1.1,0-2-0.9-2-2v0c0-1.1,0.9-2,2-2h0
			C23.1,60.4,24,61.3,24,62.4z"/>
		<path style="fill:#45A9D4;" d="M16,62.4L16,62.4c0,1.1-0.9,2-2,2h0c-1.1,0-2-0.9-2-2v0c0-1.1,0.9-2,2-2h0
			C15.1,60.4,16,61.3,16,62.4z"/>
		<path style="fill:#45A9D4;" d="M6,60.4L6,60.4c1.1,0,2,0.9,2,2v0c0,1.1-0.9,2-2,2h0"/>
		<path style="fill:#45A9D4;" d="M118,64.4L118,64.4c-1.1,0-2-0.9-2-2v0c0-1.1,0.9-2,2-2h0"/>
	</g>
</g>
<path style="fill:none;stroke:#45A9D4;stroke-width:4.142;stroke-miterlimit:10;" d="M11,4.5h101.9c3.8,0,7,3.2,7,7v101.8
	c0,3.8-3.2,7-7,7H11c-3.9,0-7-3.2-7-7V11.5C4,7.7,7.2,4.5,11,4.5z"/>
</svg>
