<svg width="60" height="60" viewBox="0 0 60 60" fill="none" xmlns="http://www.w3.org/2000/svg">
<path d="M29.0625 1.875C14.0698 1.875 1.875 14.0698 1.875 29.0625C1.875 44.0552 14.0698 56.25 29.0625 56.25C44.0552 56.25 56.25 44.0552 56.25 29.0625C56.25 14.0698 44.0552 1.875 29.0625 1.875ZM29.0625 3.75C43.0188 3.75 54.375 15.1062 54.375 29.0625C54.375 43.0188 43.0188 54.375 29.0625 54.375C15.1062 54.375 3.75 43.0188 3.75 29.0625C3.75 15.1062 15.1062 3.75 29.0625 3.75ZM28.6523 7.50733C23.1262 7.61719 17.7795 9.85474 13.8171 13.8135C9.74487 17.8894 7.5 23.302 7.5 29.0625C7.5 34.823 9.74121 40.2356 13.8135 44.3115C13.9966 44.491 14.2383 44.5862 14.4763 44.5862C14.718 44.5862 14.9597 44.491 15.1428 44.3115C15.509 43.9417 15.509 43.3521 15.1428 42.9822C14.7107 42.5537 14.3115 42.1069 13.927 41.6455C13.938 41.6272 13.96 41.6125 13.9709 41.5906C16.073 37.2656 19.79 34.2847 24.0637 33.3142C25.4626 34.7058 27.1838 35.625 29.0625 35.625C30.9412 35.625 32.666 34.7058 34.0613 33.3142C38.3386 34.281 42.0557 37.2656 44.1577 41.5906C44.1687 41.6125 44.1833 41.6309 44.1943 41.6492C43.8098 42.1069 43.4106 42.5574 42.9822 42.9822C42.616 43.3521 42.616 43.9417 42.9822 44.3115C43.1653 44.491 43.407 44.5862 43.6487 44.5862C43.8867 44.5862 44.1284 44.491 44.3115 44.3115C48.3838 40.2356 50.625 34.823 50.625 29.0625C50.625 23.302 48.3838 17.8894 44.3115 13.8135C43.689 13.1946 43.0298 12.6086 42.3486 12.074C41.9385 11.7554 41.3489 11.8286 41.0303 12.2351C40.7117 12.6416 40.7812 13.2312 41.1914 13.5498C41.814 14.0405 42.4182 14.5752 42.9822 15.1428C46.7029 18.8599 48.75 23.8037 48.75 29.0625C48.75 33.0139 47.5928 36.7859 45.4395 39.9939C43.1873 35.863 39.5691 32.926 35.3906 31.7139C36.698 29.7986 37.5 27.4548 37.5 25.3125V23.4375C37.5 18.7866 33.7134 15 29.0625 15C24.4116 15 20.625 18.7866 20.625 23.4375V25.3125C20.625 27.4548 21.4233 29.7986 22.7344 31.7139C18.5559 32.926 14.9341 35.863 12.6855 39.9939C10.5322 36.7859 9.375 33.0139 9.375 29.0625C9.375 23.8037 11.4221 18.8599 15.1428 15.1428C19.5923 10.6897 25.9644 8.62793 32.1936 9.62402C32.71 9.70825 33.186 9.35669 33.2666 8.84766C33.3472 8.33496 32.9993 7.85156 32.4902 7.771C31.2085 7.56592 29.9268 7.47803 28.6523 7.50733ZM36.2439 8.80005C35.8777 8.8147 35.5408 9.04541 35.4053 9.40796C35.2222 9.89136 35.4675 10.4333 35.9546 10.6165C36.6211 10.8655 37.2839 11.1548 37.9211 11.4734C38.0566 11.543 38.2031 11.5759 38.3459 11.5759C38.6865 11.5759 39.0161 11.3892 39.1846 11.0596C39.4153 10.5981 39.2285 10.0342 38.7671 9.7998C38.0676 9.44824 37.3425 9.1333 36.6101 8.85864C36.4929 8.8147 36.3647 8.79639 36.2439 8.80005ZM29.0625 16.875C32.6807 16.875 35.625 19.8193 35.625 23.4375V25.3125C35.625 29.0332 32.5342 33.75 29.0625 33.75C25.5908 33.75 22.5 29.0332 22.5 25.3125V23.4375C22.5 19.8193 25.4443 16.875 29.0625 16.875ZM20.0391 44.4324C19.6729 44.3884 19.303 44.5569 19.1125 44.8938L18.175 46.5198C17.915 46.9666 18.0688 47.5378 18.5156 47.7979C18.6621 47.8821 18.8232 47.926 18.9844 47.926C19.3066 47.926 19.6216 47.7576 19.7937 47.4573L20.7312 45.8313C20.9912 45.3845 20.8411 44.8096 20.3906 44.5496C20.2771 44.4873 20.1599 44.447 20.0391 44.4324ZM38.0859 44.4324C37.9651 44.447 37.8479 44.4873 37.7344 44.5496C37.2839 44.8096 37.1338 45.3845 37.3938 45.835L38.3313 47.4573C38.5034 47.7576 38.8184 47.926 39.1406 47.926C39.3018 47.926 39.4629 47.8857 39.6094 47.7979C40.0598 47.5415 40.21 46.9666 39.95 46.5198L39.0125 44.8975C38.8184 44.5605 38.4485 44.3884 38.0859 44.4324ZM24.1992 46.2598C23.8403 46.311 23.5254 46.571 23.4229 46.9482L22.9395 48.761C22.804 49.259 23.1042 49.7717 23.6023 49.9072C23.6829 49.9292 23.7671 49.9402 23.8477 49.9402C24.2615 49.9402 24.6387 49.6619 24.7522 49.2444L25.2356 47.4316C25.3711 46.9336 25.0745 46.4172 24.5764 46.2854C24.4482 46.2488 24.3201 46.2415 24.1992 46.2598ZM33.9258 46.2598C33.8049 46.2415 33.6768 46.2488 33.5486 46.2854C33.0505 46.4172 32.7539 46.9336 32.8857 47.4316L33.3728 49.2444C33.4863 49.6619 33.8635 49.9402 34.2773 49.9402C34.3579 49.9402 34.4385 49.9292 34.5227 49.9072C35.0208 49.7717 35.3174 49.259 35.1855 48.761L34.7021 46.9482C34.5996 46.571 34.2847 46.311 33.9258 46.2598ZM29.0625 46.875C28.5461 46.875 28.125 47.2961 28.125 47.8125V49.6875C28.125 50.2039 28.5461 50.625 29.0625 50.625C29.5789 50.625 30 50.2039 30 49.6875V47.8125C30 47.2961 29.5789 46.875 29.0625 46.875Z" fill="#46A9D4"/>
</svg>
