<svg width="60" height="60" viewBox="0 0 60 60" fill="none" xmlns="http://www.w3.org/2000/svg">
<path d="M29.9563 2.13867C21.658 2.13867 14.9124 8.88794 14.9124 17.1826C14.9124 22.5696 18.1313 27.3962 21.5444 32.5085C22.687 34.2188 23.8369 35.9509 24.8916 37.7307C13.7625 38.7012 5.62524 42.7734 5.62524 47.8125C5.62524 53.595 16.3333 58.125 30.0002 58.125C43.6672 58.125 54.3752 53.595 54.3752 47.8125C54.3752 42.7625 46.1978 38.6792 35.021 37.7234C36.072 35.9473 37.2256 34.2188 38.3645 32.5122C41.7776 27.3999 45.0002 22.5696 45.0002 17.1826C45.0002 8.88794 38.251 2.13867 29.9563 2.13867ZM29.9563 4.01367C37.2146 4.01367 43.1252 9.92065 43.1252 17.1826C43.1252 22.002 40.0564 26.6016 36.8044 31.4685C34.1494 35.4492 31.4211 39.5288 29.9526 44.1687C28.4841 39.5288 25.7595 35.4456 23.1045 31.4648C19.8562 26.5979 16.7874 22.002 16.7874 17.1826C16.7874 9.92432 22.6943 4.01367 29.9563 4.01367ZM28.7075 9.45923C28.019 9.57642 27.3489 9.79248 26.7153 10.0964C22.991 11.8982 21.4272 16.3879 23.2253 20.1123C24.5181 22.7893 27.2024 24.3494 29.9893 24.3494C31.0842 24.3494 32.1938 24.1113 33.2412 23.6023C36.3503 22.1008 38.0312 18.6914 37.3208 15.3149C37.2146 14.8096 36.7202 14.4836 36.2112 14.5898C35.7058 14.696 35.3799 15.1941 35.4861 15.6995C36.0171 18.23 34.761 20.7898 32.4282 21.9141C29.634 23.2654 26.2612 22.0935 24.9136 19.2993C23.5659 16.5051 24.7378 13.136 27.532 11.7883C28.0081 11.5576 28.5098 11.3928 29.0261 11.3049C29.5352 11.217 29.8794 10.7336 29.7915 10.2246C29.7036 9.71191 29.2202 9.36768 28.7075 9.45923ZM32.4209 9.8291C32.0583 9.83643 31.7141 10.0562 31.5676 10.415C31.3772 10.8948 31.6079 11.4441 32.0876 11.6345C32.7725 11.9128 33.384 12.312 33.9114 12.8247C34.0908 13.0005 34.3252 13.092 34.5632 13.092C34.8086 13.092 35.0503 12.9932 35.2334 12.8064C35.5959 12.4365 35.5886 11.8433 35.2151 11.4807C34.5156 10.7959 33.699 10.2649 32.7871 9.89868C32.6699 9.85107 32.5454 9.82544 32.4209 9.8291ZM30.0002 15C28.9639 15 28.1252 15.8386 28.1252 16.875C28.1252 17.9114 28.9639 18.75 30.0002 18.75C31.0366 18.75 31.8752 17.9114 31.8752 16.875C31.8752 15.8386 31.0366 15 30.0002 15ZM33.9993 39.5251C45.209 40.2905 52.5002 44.1577 52.5002 47.8125C52.5002 51.8884 43.4585 56.25 30.0002 56.25C16.542 56.25 7.50024 51.8884 7.50024 47.8125C7.50024 44.1687 14.7549 40.3125 25.9097 39.5361C27.4294 42.3743 28.616 45.3552 29.0225 48.6035C29.0811 49.0723 29.4802 49.4238 29.9526 49.4238C30.425 49.4238 30.8242 49.0723 30.8828 48.6035C31.293 45.3552 32.4758 42.3669 33.9993 39.5251ZM18.7795 51.2878C18.417 51.3464 18.1094 51.6138 18.0142 51.9873C17.886 52.4927 18.1936 53.0017 18.6953 53.1262C21.9473 53.9429 25.8547 54.375 30.0002 54.375C31.2856 54.375 32.571 54.3311 33.8198 54.2468C34.3362 54.2139 34.7244 53.7671 34.6877 53.2471C34.6548 52.7344 34.219 52.3425 33.6917 52.3792C32.4868 52.4597 31.2454 52.5 30.0002 52.5C26.0635 52.5 22.2109 52.0752 19.1494 51.3098C19.0249 51.2769 18.9004 51.2695 18.7795 51.2878ZM41.2209 51.2915C41.1038 51.2732 40.9756 51.2769 40.8511 51.3098C39.9392 51.5369 38.9578 51.7346 37.925 51.8994C37.4124 51.9836 37.0645 52.4634 37.1487 52.9761C37.2219 53.4375 37.6211 53.7634 38.0715 53.7634C38.1228 53.7634 38.1741 53.7598 38.2217 53.7524C39.3057 53.5767 40.3457 53.3679 41.3088 53.1262C41.8105 53.0017 42.1145 52.4927 41.9863 51.9873C41.8948 51.6138 41.5835 51.3464 41.2209 51.2915Z" fill="#46A9D4"/>
</svg>
