<svg width="32" height="32" viewBox="0 0 32 32" fill="none" xmlns="http://www.w3.org/2000/svg">
<path d="M14.7812 0C14.0898 0 13.4922 0.466797 13.3262 1.13672L12.4609 4.58203C12.0195 4.73242 11.5742 4.91992 11.1406 5.13867L8.08789 3.30469C7.49609 2.95117 6.74414 3.04297 6.25586 3.53125L4.53125 5.25586C4.04297 5.74219 3.95117 6.49609 4.30469 7.08789L6.13477 10.1406C5.91797 10.5781 5.73242 11.0215 5.58594 11.4629L2.13672 12.3262C1.4668 12.4922 1 13.0918 1 13.7812V16.2188C1 16.9102 1.4668 17.5078 2.13672 17.6738L5.58203 18.5391C5.73242 18.9785 5.91797 19.4219 6.13867 19.8594L4.30469 22.9121C3.95117 23.5039 4.04297 24.2559 4.53125 24.7441L6.25586 26.4688C6.74414 26.957 7.49609 27.0488 8.08789 26.6953L11.1406 24.8652C11.5742 25.0801 12.0176 25.2656 12.4629 25.4141L13.3262 28.8633C13.4922 29.5332 14.0918 30 14.7812 30H16V30.5C16 31.3262 16.6738 32 17.5 32H30.5C31.3262 32 32 31.3262 32 30.5V18.5C32 17.7617 31.4629 17.1504 30.7598 17.0254C30.9102 16.791 31 16.5156 31 16.2188V13.7812C31 13.0898 30.5332 12.4922 29.8652 12.3262L26.418 11.4609C26.2656 11.0176 26.0801 10.5742 25.8613 10.1406L27.6953 7.08789C28.0488 6.49609 27.9551 5.74414 27.4688 5.25586L25.7441 3.53125C25.2559 3.04297 24.5039 2.95117 23.9121 3.30469L20.8594 5.13477C20.4238 4.91797 19.9785 4.73242 19.5371 4.58398L18.6738 1.13672C18.5078 0.466797 17.9082 0 17.2188 0H14.7812ZM14.7812 1H17.2188C17.4492 1 17.6484 1.15625 17.7051 1.37891L18.5684 4.82812C18.6504 5.15625 18.8926 5.41797 19.2168 5.5293C19.6152 5.66406 20.0176 5.83398 20.4141 6.03125C20.7227 6.18359 21.0801 6.16992 21.375 5.99414L24.4277 4.16211C24.625 4.04297 24.875 4.07617 25.0371 4.23828L26.7617 5.96094C26.9238 6.125 26.9551 6.375 26.8359 6.57227L25.0059 9.625C24.8301 9.91797 24.8164 10.2773 24.9688 10.5859C25.166 10.9805 25.334 11.3828 25.4707 11.7832C25.584 12.1074 25.8457 12.3516 26.1719 12.4316L29.6211 13.2949C29.8438 13.3516 30 13.5508 30 13.7812V16.2188C30 16.4492 29.8438 16.6484 29.6211 16.7031L28.5098 16.9824C28.4961 16.9863 28.4863 16.9961 28.4727 17H22.709C22.9004 16.3555 23 15.6836 23 15C23 11.7676 20.8105 8.97266 17.6777 8.20312C17.4062 8.13867 17.1387 8.30078 17.0723 8.56836C17.0059 8.83594 17.1699 9.10742 17.4375 9.17188C20.123 9.83398 22 12.2305 22 15C22 15.6895 21.8789 16.3594 21.6504 17H17.5C16.6738 17 16 17.6738 16 18.5V29H14.7812C14.5508 29 14.3516 28.8438 14.2969 28.6211L13.4336 25.1738C13.3516 24.8457 13.1094 24.582 12.7832 24.4707C12.3828 24.334 11.9805 24.166 11.5859 23.9688C11.2754 23.8145 10.918 23.8301 10.627 24.0059L7.57227 25.8359C7.37695 25.9551 7.125 25.9238 6.96289 25.7617L5.23828 24.0371C5.07617 23.875 5.04492 23.623 5.16406 23.4277L6.99414 20.373C7.16992 20.0801 7.18359 19.7227 7.03125 19.4141C6.83398 19.0156 6.66602 18.6133 6.5293 18.2168C6.41797 17.8906 6.1543 17.6484 5.82812 17.5664L2.37891 16.7031C2.15625 16.6484 2 16.4492 2 16.2188V13.7812C2 13.5508 2.15625 13.3516 2.37891 13.2969L5.82617 12.4336C6.1543 12.3516 6.41797 12.1094 6.5293 11.7832C6.66406 11.3867 6.83398 10.9844 7.03125 10.5859C7.18359 10.2773 7.16992 9.91992 6.99414 9.62695L5.16406 6.57227C5.04492 6.37695 5.07617 6.125 5.23828 5.96289L6.96094 4.23828C7.125 4.07617 7.375 4.04492 7.57227 4.16406L10.625 5.99414C10.918 6.16992 11.2773 6.18164 11.5859 6.03125C11.9805 5.83398 12.3828 5.66602 12.7832 5.5293C13.1094 5.41797 13.3516 5.1543 13.4316 4.82812L14.2969 1.37891C14.3516 1.15625 14.5508 1 14.7812 1ZM15.0625 8.0625C14.6426 8.11719 14.2266 8.21289 13.8262 8.34375C13.5645 8.42969 13.4199 8.71289 13.5059 8.97461C13.5742 9.18555 13.7715 9.32031 13.9824 9.32031C14.0332 9.32031 14.084 9.3125 14.1367 9.29492C14.4805 9.18359 14.8359 9.10156 15.1953 9.05469C15.4688 9.01758 15.6602 8.76562 15.625 8.49219C15.5879 8.2168 15.334 8.02539 15.0625 8.0625ZM11.4043 9.9043C11.2773 9.9043 11.1484 9.95312 11.0508 10.0508C10.8555 10.2461 10.8555 10.5625 11.0508 10.7578L11.7578 11.4648C11.8555 11.5625 11.9824 11.6113 12.1113 11.6113C12.2402 11.6113 12.3672 11.5625 12.4648 11.4648C12.6602 11.2695 12.6602 10.9531 12.4648 10.7578L11.7578 10.0508C11.6602 9.95312 11.5312 9.9043 11.4043 9.9043ZM16 11C13.7949 11 12 12.7949 12 15C12 16.5234 12.8457 17.8945 14.209 18.5781C14.2812 18.6133 14.3574 18.6309 14.4316 18.6309C14.6152 18.6309 14.793 18.5293 14.8809 18.3535C15.0039 18.1074 14.9043 17.8066 14.6562 17.6836C13.6348 17.1719 13 16.1426 13 15C13 13.3457 14.3457 12 16 12C17.6543 12 19 13.3457 19 15C19 15.0977 18.9961 15.1973 18.9863 15.293C18.959 15.5684 19.1602 15.8105 19.4355 15.8379C19.7129 15.8594 19.9551 15.6621 19.9824 15.3887C19.9941 15.2598 20 15.1309 20 15C20 12.7949 18.2051 11 16 11ZM10.0176 11.9609C9.82422 11.959 9.63672 12.0742 9.55469 12.2656C9.44727 12.5195 9.56641 12.8125 9.82031 12.9219L10.7422 13.3125C10.8066 13.3379 10.8711 13.3516 10.9375 13.3516C11.1328 13.3516 11.3184 13.2363 11.3984 13.0469C11.5059 12.793 11.3867 12.498 11.1328 12.3906L10.2109 12C10.1484 11.9727 10.084 11.9609 10.0176 11.9609ZM16 14C15.4473 14 15 14.4473 15 15C15 15.5527 15.4473 16 16 16C16.5527 16 17 15.5527 17 15C17 14.4473 16.5527 14 16 14ZM9.5 14.5C9.22266 14.5 9 14.7246 9 15C9 15.2754 9.22266 15.5 9.5 15.5H10.5C10.7773 15.5 11 15.2754 11 15C11 14.7246 10.7773 14.5 10.5 14.5H9.5ZM10.9082 16.5605C10.8438 16.5586 10.7773 16.5703 10.7129 16.5957L9.78711 16.9707C9.5293 17.0742 9.40625 17.3652 9.50977 17.623C9.58789 17.8164 9.77539 17.9355 9.97461 17.9355C10.0371 17.9355 10.0996 17.9238 10.1621 17.8984L11.0879 17.5234C11.3438 17.4219 11.4668 17.1289 11.3652 16.873C11.2871 16.6816 11.1035 16.5645 10.9082 16.5605ZM17.5 18H22C22 18 22 18 22.002 18C22.0039 18 22.0039 18 22.0059 18H30.5C30.7754 18 31 18.2246 31 18.5V19H17V18.5C17 18.2246 17.2246 18 17.5 18ZM12.1094 18.3887C11.9824 18.3887 11.8555 18.4375 11.7578 18.5352L11.0508 19.2422C10.8555 19.4375 10.8555 19.7539 11.0508 19.9492C11.1484 20.0469 11.2754 20.0957 11.4043 20.0957C11.5332 20.0957 11.6602 20.0469 11.7578 19.9492L12.4648 19.2422C12.6602 19.0469 12.6602 18.7305 12.4648 18.5352C12.3672 18.4375 12.2383 18.3887 12.1094 18.3887ZM13.8516 19.5625C13.6582 19.5625 13.4707 19.6758 13.3906 19.8672L13 20.7891C12.8906 21.043 13.0098 21.3359 13.2656 21.4453C13.3281 21.4707 13.3945 21.4844 13.4609 21.4844C13.6543 21.4844 13.8398 21.3691 13.9199 21.1797L14.3105 20.2578C14.4199 20.0039 14.3008 19.7109 14.0469 19.6016C13.9844 19.5762 13.918 19.5625 13.8516 19.5625ZM17 20H31V30.5C31 30.7754 30.7754 31 30.5 31H17.5C17.2246 31 17 30.7754 17 30.5V20ZM22.5 22C22.373 22 22.2441 22.0488 22.1465 22.1465L20.5 23.793L19.8535 23.1465C19.6582 22.9512 19.3418 22.9512 19.1465 23.1465C18.9512 23.3418 18.9512 23.6582 19.1465 23.8535L20.1465 24.8535C20.2441 24.9512 20.3711 25 20.5 25C20.6289 25 20.7559 24.9512 20.8535 24.8535L22.8535 22.8535C23.0488 22.6582 23.0488 22.3418 22.8535 22.1465C22.7559 22.0488 22.627 22 22.5 22ZM24.5 23C24.2227 23 24 23.2246 24 23.5C24 23.7754 24.2227 24 24.5 24H28.5C28.7773 24 29 23.7754 29 23.5C29 23.2246 28.7773 23 28.5 23H24.5ZM22.5 26C22.373 26 22.2441 26.0488 22.1465 26.1465L20.5 27.793L19.8535 27.1465C19.6582 26.9512 19.3418 26.9512 19.1465 27.1465C18.9512 27.3418 18.9512 27.6582 19.1465 27.8535L20.1465 28.8535C20.2441 28.9512 20.3711 29 20.5 29C20.6289 29 20.7559 28.9512 20.8535 28.8535L22.8535 26.8535C23.0488 26.6582 23.0488 26.3418 22.8535 26.1465C22.7559 26.0488 22.627 26 22.5 26ZM24.5 27C24.2227 27 24 27.2246 24 27.5C24 27.7754 24.2227 28 24.5 28H26.5C26.7773 28 27 27.7754 27 27.5C27 27.2246 26.7773 27 26.5 27H24.5Z" fill="white"/>
</svg>
