<?xml version="1.0" encoding="utf-8"?>
<!-- Generator: Adobe Illustrator 21.1.0, SVG Export Plug-In . SVG Version: 6.00 Build 0)  -->
<svg version="1.1" id="Layer_1" xmlns="http://www.w3.org/2000/svg" xmlns:xlink="http://www.w3.org/1999/xlink" x="0px" y="0px"
	 viewBox="0 0 32 32" style="enable-background:new 0 0 32 32;" xml:space="preserve">
<style type="text/css">
	.st0{fill:#A9D47D;stroke:#A9D47D;}
	.st1{fill:#FFFFFF;}
</style>
<path class="st0" d="M31,16.5C31.3,8.2,24.8,1.3,16.5,1C8.2,0.7,1.3,7.2,1,15.5C0.7,23.8,7.2,30.7,15.5,31
	C23.8,31.3,30.7,24.8,31,16.5z"/>
<path class="st1" d="M13.3,9.8l6.3,5.6c0.3,0.3,0.5,0.7,0.5,1.1c0,0.4-0.2,0.8-0.5,1l-6.6,5.1c-0.4,0.3-1.1,0-1-0.5
	c0-0.2,0.1-0.4,0.2-0.5l6.7-5.2l-6.3-5.7c-0.1-0.1-0.2-0.3-0.2-0.5C12.2,9.7,12.9,9.4,13.3,9.8z"/>
</svg>
