<svg width="32" height="32" viewBox="0 0 32 32" fill="none" xmlns="http://www.w3.org/2000/svg">
<path fill-rule="evenodd" clip-rule="evenodd" d="M16 31C24.2843 31 31 24.2843 31 16C31 7.71573 24.2843 1 16 1C7.71573 1 1 7.71573 1 16C1 24.2843 7.71573 31 16 31Z" stroke="#3D4C66"/>
<path d="M20 10.3783C20 10.5695 19.9152 10.7509 19.7685 10.8736L13.2706 16.308L19.7685 21.7424C19.9152 21.8651 20 22.0465 20 22.2377C20 22.7851 19.3616 23.0842 18.941 22.7339L12.4948 17.3642C12.1813 17.103 12 16.7161 12 16.308C12 15.8999 12.1813 15.513 12.4948 15.2518L18.941 9.88213C19.3616 9.53178 20 9.83086 20 10.3783Z" fill="#3D4C66"/>
</svg>
