<svg width="40" height="40" viewBox="0 0 40 40" fill="none" xmlns="http://www.w3.org/2000/svg">
<path fill-rule="evenodd" clip-rule="evenodd" d="M20 40C31.0457 40 40 31.0457 40 20C40 8.9543 31.0457 0 20 0C8.9543 0 0 8.9543 0 20C0 31.0457 8.9543 40 20 40Z" fill="#E0654C"/>
<path fill-rule="evenodd" clip-rule="evenodd" d="M20.6345 20.0002L31.8685 8.76611C32.0438 8.59071 32.0438 8.30695 31.8685 8.13155C31.6931 7.95615 31.4087 7.95615 31.2333 8.13155L20 19.3651L8.7661 8.13155C8.5907 7.95615 8.30695 7.95615 8.13155 8.13155C7.95615 8.30695 7.95615 8.59071 8.13155 8.76611L19.3649 20.0002L8.13155 31.2337C7.95615 31.4091 7.95615 31.6929 8.13155 31.8683C8.21895 31.9563 8.33389 32 8.44882 32C8.56376 32 8.6787 31.9563 8.7661 31.8683L20 20.6354L31.2333 31.8683C31.3213 31.9563 31.4356 32 31.5506 32C31.6655 32 31.7805 31.9563 31.8685 31.8683C32.0438 31.6929 32.0438 31.4091 31.8685 31.2337L20.6345 20.0002Z" fill="white"/>
<path d="M20.6345 20.0002L31.8685 8.76611C32.0438 8.59071 32.0438 8.30695 31.8685 8.13155C31.6931 7.95615 31.4087 7.95615 31.2333 8.13155L20 19.3651L8.7661 8.13155C8.5907 7.95615 8.30695 7.95615 8.13155 8.13155C7.95615 8.30695 7.95615 8.59071 8.13155 8.76611L19.3649 20.0002L8.13155 31.2337C7.95615 31.4091 7.95615 31.6929 8.13155 31.8683C8.21895 31.9563 8.33389 32 8.44882 32C8.56376 32 8.6787 31.9563 8.7661 31.8683L20 20.6354L31.2333 31.8683C31.3213 31.9563 31.4356 32 31.5506 32C31.6655 32 31.7805 31.9563 31.8685 31.8683C32.0438 31.6929 32.0438 31.4091 31.8685 31.2337L20.6345 20.0002" stroke="white" stroke-width="2"/>
</svg>
