<svg width="35" height="35" viewBox="0 0 35 35" fill="none" xmlns="http://www.w3.org/2000/svg">
<path fill-rule="evenodd" clip-rule="evenodd" d="M17.6985 17.2632L25.395 9.56663C25.5151 9.44656 25.5151 9.25166 25.395 9.13158C25.2749 9.01151 25.08 9.01151 24.96 9.13158L17.2634 16.8281L9.56689 9.13158C9.44682 9.01151 9.25192 9.01151 9.13184 9.13158C9.01177 9.25166 9.01177 9.44656 9.13184 9.56663L16.8284 17.2632L9.13155 24.96C9.01148 25.0801 9.01148 25.275 9.13155 25.395C9.25163 25.5151 9.44653 25.5151 9.5666 25.395L17.2634 17.6982L24.9603 25.395C25.0803 25.5151 25.2752 25.5151 25.3953 25.395C25.5154 25.275 25.5154 25.0801 25.3953 24.96L17.6985 17.2632Z" fill="#C5BFBF" stroke="#C5BFBF"/>
</svg>
