<svg width="45" height="45" viewBox="0 0 45 45" fill="none" xmlns="http://www.w3.org/2000/svg">
<path fill-rule="evenodd" clip-rule="evenodd" d="M32.8198 32.8198C38.6777 26.9619 38.6777 17.4645 32.8198 11.6066C26.9619 5.74874 17.4645 5.74874 11.6066 11.6066C5.74874 17.4645 5.74874 26.9619 11.6066 32.8198C17.4645 38.6777 26.9619 38.6777 32.8198 32.8198Z" stroke="#2797E8"/>
<path fill-rule="evenodd" clip-rule="evenodd" d="M22.0243 21.932L17.0499 16.9576C16.9723 16.88 16.8463 16.88 16.7687 16.9576C16.6911 17.0352 16.6911 17.1612 16.7687 17.2388L21.7432 22.2132L16.7687 27.1876C16.6911 27.2652 16.6911 27.3912 16.7687 27.4688C16.8463 27.5464 16.9723 27.5464 17.0499 27.4688L22.0243 22.4944L26.999 27.469C27.0766 27.5466 27.2025 27.5466 27.2802 27.469C27.3578 27.3914 27.3578 27.2654 27.2802 27.1878L22.3055 22.2132L27.2802 17.2386C27.3578 17.161 27.3578 17.035 27.2802 16.9574C27.2025 16.8798 27.0766 16.8798 26.999 16.9574L22.0243 21.932Z" stroke="#2797E8"/>
</svg>
