<svg width="32" height="32" viewBox="0 0 32 32" fill="none" xmlns="http://www.w3.org/2000/svg">
<path fill-rule="evenodd" clip-rule="evenodd" d="M16 31C24.2843 31 31 24.2843 31 16C31 7.71573 24.2843 1 16 1C7.71573 1 1 7.71573 1 16C1 24.2843 7.71573 31 16 31Z" stroke="#00ABD9"/>
<path fill-rule="evenodd" clip-rule="evenodd" d="M11.5833 17.5417C11.8611 17.2361 12 16.8889 12 16.5C12 16.1111 11.8611 15.7639 11.5833 15.4583C11.3056 15.1528 10.9444 15 10.5 15C10.0556 15 9.69445 15.1528 9.41667 15.4583C9.13889 15.7639 9 16.1111 9 16.5C9 16.8889 9.13889 17.2361 9.41667 17.5417C9.69445 17.8472 10.0556 18 10.5 18C10.9444 18 11.3056 17.8472 11.5833 17.5417ZM18 16.5C18 16.8889 17.8611 17.2361 17.5833 17.5417C17.3056 17.8472 16.9444 18 16.5 18C16.0556 18 15.6944 17.8472 15.4167 17.5417C15.1389 17.2361 15 16.8889 15 16.5C15 16.1111 15.1389 15.7639 15.4167 15.4583C15.6944 15.1528 16.0556 15 16.5 15C16.9444 15 17.3056 15.1528 17.5833 15.4583C17.8611 15.7639 18 16.1111 18 16.5ZM24 16.5C24 16.8889 23.8611 17.2361 23.5833 17.5417C23.3056 17.8472 22.9444 18 22.5 18C22.0556 18 21.6944 17.8472 21.4167 17.5417C21.1389 17.2361 21 16.8889 21 16.5C21 16.1111 21.1389 15.7639 21.4167 15.4583C21.6944 15.1528 22.0556 15 22.5 15C22.9444 15 23.3056 15.1528 23.5833 15.4583C23.8611 15.7639 24 16.1111 24 16.5Z" fill="#00ABD9"/>
</svg>
