<?xml version="1.0" encoding="utf-8"?>
<!-- Generator: Adobe Illustrator 21.1.0, SVG Export Plug-In . SVG Version: 6.00 Build 0)  -->
<svg version="1.1" id="Layer_1" xmlns="http://www.w3.org/2000/svg" xmlns:xlink="http://www.w3.org/1999/xlink" x="0px" y="0px"
	 viewBox="0 0 32 32" style="enable-background:new 0 0 32 32;" xml:space="preserve" width="40" height="40">
<style type="text/css">
	.st0{fill:none;stroke:#3D4C66;}
</style>
<path class="st0" d="M16,31c8.3,0,15-6.7,15-15c0-8.3-6.7-15-15-15C7.7,1,1,7.7,1,16C1,24.3,7.7,31,16,31z M11.6,17.5
	c0.3-0.3,0.4-0.7,0.4-1s-0.1-0.7-0.4-1c-0.3-0.3-0.6-0.5-1.1-0.5s-0.8,0.2-1.1,0.5c-0.3,0.3-0.4,0.7-0.4,1s0.1,0.7,0.4,1
	c0.3,0.3,0.6,0.5,1.1,0.5S11.3,17.8,11.6,17.5z M18,16.5c0,0.4-0.1,0.7-0.4,1c-0.3,0.3-0.6,0.5-1.1,0.5s-0.8-0.2-1.1-0.5
	c-0.3-0.3-0.4-0.7-0.4-1s0.1-0.7,0.4-1c0.3-0.3,0.6-0.5,1.1-0.5s0.8,0.2,1.1,0.5C17.9,15.8,18,16.1,18,16.5z M24,16.5
	c0,0.4-0.1,0.7-0.4,1c-0.3,0.3-0.6,0.5-1.1,0.5s-0.8-0.2-1.1-0.5c-0.3-0.3-0.4-0.7-0.4-1s0.1-0.7,0.4-1c0.3-0.3,0.6-0.5,1.1-0.5
	s0.8,0.2,1.1,0.5C23.9,15.8,24,16.1,24,16.5z"/>
</svg>
