<svg width="36" height="36" viewBox="0 0 36 36" fill="none" xmlns="http://www.w3.org/2000/svg">
<path d="M30.3875 17.8748C30.3875 16.2316 30.0638 14.6046 29.435 13.0865C28.8062 11.5684 27.8845 10.1891 26.7226 9.02721C25.5607 7.86533 24.1814 6.94368 22.6633 6.31487C21.1452 5.68607 19.5181 5.36243 17.875 5.36243C16.2318 5.36243 14.6047 5.68607 13.0866 6.31487C11.5685 6.94368 10.1892 7.86533 9.02728 9.02721C7.86539 10.1891 6.94372 11.5684 6.31491 13.0865C5.6861 14.6046 5.36245 16.2316 5.36245 17.8748C5.36245 19.5179 5.6861 21.145 6.31491 22.6631C6.94372 24.1811 7.86539 25.5605 9.02728 26.7224C10.1892 27.8842 11.5685 28.8059 13.0866 29.4347C14.6047 30.0635 16.2318 30.3871 17.875 30.3871C19.5181 30.3871 21.1452 30.0635 22.6633 29.4347C24.1814 28.8059 25.5607 27.8842 26.7226 26.7224C27.8845 25.5605 28.8062 24.1811 29.435 22.6631C30.0638 21.145 30.3875 19.5179 30.3875 17.8748Z" fill="#A9D47D"/>
<path d="M23.7737 17.4762V14.4786L17.8749 20.4184L11.9762 14.4786V17.4762L17.8749 23.416L23.7737 17.4762Z" fill="white"/>
<path d="M27.0888 23.416C27.0888 23.3849 27.0967 23.3534 27.1138 23.3248C27.2486 23.0967 27.3766 22.8604 27.4946 22.6216C27.5385 22.5333 27.6454 22.4969 27.7341 22.5405C27.8231 22.5844 27.8582 22.6924 27.8153 22.78C27.6933 23.0263 27.5611 23.2712 27.4213 23.5068C27.3709 23.5915 27.2615 23.6197 27.1764 23.5697C27.1203 23.5364 27.0888 23.4771 27.0888 23.416ZM26.3656 24.4885C26.3656 24.4506 26.3777 24.4123 26.4024 24.3798C26.4907 24.2647 26.5762 24.1474 26.6598 24.0284C26.7167 23.9476 26.8278 23.9279 26.9086 23.9848C26.9901 24.0412 27.0087 24.1528 26.9526 24.2336C26.8664 24.3569 26.7774 24.4777 26.6863 24.5971C26.6266 24.6758 26.5143 24.6904 26.4357 24.6307C26.3899 24.5954 26.3656 24.5421 26.3656 24.4885Z" fill="white"/>
<path d="M6.79252 17.8748C6.79252 11.7638 11.7643 6.79242 17.875 6.79242C23.9858 6.79242 28.9575 11.7638 28.9575 17.8748C28.9575 19.1861 28.7305 20.4699 28.2833 21.69C28.2493 21.7829 28.1467 21.8305 28.0538 21.7965C27.9608 21.7626 27.9133 21.6596 27.9476 21.567C28.3805 20.3862 28.6 19.1443 28.6 17.8748C28.6 11.9611 23.7888 7.14992 17.875 7.14992C11.9613 7.14992 7.15002 11.9611 7.15002 17.8748C7.15002 23.7885 11.9613 28.5997 17.875 28.5997C20.892 28.5997 23.7863 27.318 25.8162 25.0833C25.8827 25.0101 25.9956 25.0047 26.0689 25.0712C26.1418 25.138 26.1472 25.251 26.0811 25.3236C23.9833 27.633 20.9924 28.9572 17.875 28.9572C11.7643 28.9572 6.79252 23.9858 6.79252 17.8748Z" fill="white"/>
<path d="M11.7975 17.4762V14.4786C11.7975 14.406 11.8411 14.3409 11.9083 14.3134C11.9755 14.2859 12.0521 14.3012 12.1032 14.3527L17.875 20.1649L23.6472 14.3524C23.6983 14.3009 23.7748 14.2855 23.842 14.313C23.9093 14.3406 23.9525 14.406 23.9525 14.4786V17.4762C23.9525 17.5234 23.9339 17.5688 23.9003 17.6024L18.0016 23.5422C17.9683 23.5758 17.9226 23.5947 17.875 23.5947C17.8275 23.5947 17.7817 23.5758 17.7485 23.5422L11.8497 17.6024C11.8161 17.5688 11.7975 17.5234 11.7975 17.4762ZM12.155 14.9122V17.4025L17.875 23.1625L23.595 17.4025V14.9122L18.0016 20.5446C17.968 20.5782 17.9222 20.5971 17.875 20.5971C17.8278 20.5971 17.7817 20.5782 17.7485 20.5446L12.155 14.9122Z" fill="white"/>
</svg>
