<svg width="22" height="24" viewBox="0 0 22 24" fill="none" xmlns="http://www.w3.org/2000/svg">
<path fill-rule="evenodd" clip-rule="evenodd" d="M13.5565 20C13.3114 20 13.1119 20.2705 13.1119 20.6037C13.1119 21.8104 12.3884 22.7925 11.4991 22.7925C10.6104 22.7925 9.8881 21.8104 9.8881 20.6037C9.8881 20.2705 9.68917 20 9.44346 20C9.19893 20 9 20.2705 9 20.6037C9 22.4762 10.1208 24 11.4991 24C12.8774 24 14 22.4762 14 20.6037C14 20.2705 13.8017 20 13.5565 20ZM21.8256 17.8131L18.937 15.5395V8.94171C18.937 5.34828 16.3744 2.26751 12.7896 1.4744V1.30698C12.7896 0.586582 12.1831 0 11.4382 0H10.5612C9.81569 0 9.20979 0.586582 9.20979 1.30698V1.47868C5.63378 2.27728 3.07941 5.35623 3.07941 8.94171V15.5383L0.175641 17.8119C0.0644439 17.8987 0 18.0301 0 18.1682V19.5417C0 19.7947 0.212918 20 0.474484 20H21.5255C21.7877 20 22 19.7947 22 19.5417V18.1682C22 18.0301 21.9362 17.8993 21.8256 17.8131ZM21 19H1V18.3098L3.88821 16.0571C3.99758 15.9711 4.06295 15.841 4.06295 15.7042V8.95143C4.06295 5.71129 6.46466 2.94518 9.77275 2.37488C9.99714 2.33553 10.1618 2.14785 10.1618 1.92809V1.38686C10.1618 1.17375 10.341 1 10.5635 1H11.4359C11.6572 1 11.8376 1.17375 11.8376 1.38686V1.92446C11.8376 2.14483 12.001 2.33371 12.2266 2.37186C15.5448 2.93731 17.9534 5.70402 17.9534 8.95143V15.7042C17.9534 15.841 18.0169 15.9705 18.1269 16.0565L21 18.3086V19Z" fill="#3D4C66"/>
</svg>
