<svg width="201" height="349" viewBox="0 0 201 349" fill="none" xmlns="http://www.w3.org/2000/svg">
<path fill-rule="evenodd" clip-rule="evenodd" d="M165.723 24.9671C169.738 28.4507 175.681 31.2051 180.909 31.5455C207.854 33.3052 229.131 48.896 238.89 74.658C240.251 78.2498 242.96 83.0535 246.057 84.0291C286.909 96.9028 310.625 127.873 328.583 163.722C337.028 180.582 338.586 196.26 345.339 216.439C334.486 227.292 248.725 313.052 239.077 322.7C211.085 320.652 188.822 309.801 166.487 294.847C139.634 276.868 115.987 255.728 106.903 222.711C106.192 220.126 102.628 217.469 99.8109 216.418C72.3177 206.161 57.0889 186.945 54.7455 157.458C54.4136 153.296 52.0517 148.57 49.1764 145.442C39.9596 135.42 30.0593 126.026 19.7274 115.694C116.32 105.872 129.509 63.0508 137.522 -2.83749C147.886 7.52621 156.318 16.8063 165.723 24.9671ZM143.255 129.515C129.967 116.413 108.804 116.29 95.6402 129.233C82.2737 142.372 82.1964 164.93 95.4723 177.97C108.28 190.551 130.695 190.627 143.605 178.132C156.991 165.178 156.829 142.899 143.255 129.515ZM152.538 119.916C165.911 133.582 187.882 133.922 201.013 120.67C213.803 107.759 213.716 86.2062 200.819 72.9641C187.389 59.1749 165.857 58.9319 152.46 72.4228C139.454 85.5163 139.49 106.585 152.538 119.916ZM183.436 158.827C182.101 140.422 177.297 136.01 160.852 137.343C160.886 154.697 165.152 158.903 183.436 158.827Z" fill="#A9D47D" fill-opacity="0.95"/>
<path fill-rule="evenodd" clip-rule="evenodd" d="M201.465 120.482C214.938 107.009 214.938 85.1647 201.465 71.6916C187.992 58.2186 166.148 58.2186 152.674 71.6916C139.201 85.1647 139.201 107.009 152.674 120.482C166.148 133.955 187.992 133.955 201.465 120.482Z" fill="white"/>
<path fill-rule="evenodd" clip-rule="evenodd" d="M143.482 178.465C156.955 164.992 156.955 143.148 143.482 129.674C130.009 116.201 108.165 116.201 94.6916 129.674C81.2185 143.147 81.2185 164.992 94.6916 178.465C108.165 191.938 130.009 191.938 143.482 178.465Z" fill="white"/>
<path fill-rule="evenodd" clip-rule="evenodd" d="M130.754 166.565C137.198 160.122 137.198 149.674 130.754 143.231C124.31 136.787 113.863 136.787 107.42 143.231C100.976 149.674 100.976 160.122 107.42 166.565C113.863 173.009 124.31 173.009 130.754 166.565Z" fill="#46A9D4"/>
<path fill-rule="evenodd" clip-rule="evenodd" d="M189.002 108.002C195.445 101.558 195.445 91.1109 189.002 84.6673C182.558 78.2236 172.111 78.2236 165.667 84.6673C159.224 91.1109 159.224 101.558 165.667 108.002C172.111 114.445 182.558 114.445 189.002 108.002Z" fill="#46A9D4"/>
</svg>
