<svg width="278" height="189" viewBox="0 0 278 189" fill="none" xmlns="http://www.w3.org/2000/svg">
<path fill-rule="evenodd" clip-rule="evenodd" d="M242.305 49.5303C242.773 56.1625 245.578 63.8543 249.878 68.7789C272.033 94.1655 277.035 126.77 262.958 158.185C260.995 162.566 259.152 169.21 261.018 172.811C285.631 220.326 279.249 268.69 263.51 316.276C256.107 338.656 243.686 353.899 231.876 377.718C212.781 377.718 61.8935 377.718 44.9187 377.718C22.096 351.15 12.057 321.864 5.56384 288.886C-2.24262 249.238 -4.44797 209.628 16.6052 172.394C18.2548 169.479 17.4563 163.977 15.9032 160.556C0.74074 127.17 4.24765 96.7077 28.1262 68.5569C31.4957 64.5823 33.5752 58.3141 33.7975 53.0047C34.5053 35.9905 34.0608 18.926 34.0608 0.651091C127.674 77.391 176.946 51.1846 241.957 0C241.957 18.3312 241.211 33.9958 242.305 49.5303ZM130.57 122.121C130.406 98.7823 111.897 79.9569 88.9313 79.7616C65.6143 79.5603 45.7018 99.4423 45.9095 122.716C46.1084 145.17 65.7605 165.06 88.1094 165.427C111.28 165.809 130.736 145.963 130.57 122.121ZM147.18 121.843C146.922 145.756 165.951 165.487 189.16 165.38C211.769 165.274 230.652 146.134 230.957 123.018C231.272 98.9451 212.545 79.6876 188.891 79.7705C165.931 79.8474 147.428 98.513 147.18 121.843ZM140.131 183.581C155.147 166.123 154.802 157.972 139.163 144.607C123.927 159.985 123.98 167.478 140.131 183.581Z" fill="#A9D47D" fill-opacity="0.95"/>
<path fill-rule="evenodd" clip-rule="evenodd" d="M188.859 165.988C212.563 165.988 231.78 146.67 231.78 122.839C231.78 99.0076 212.563 79.6887 188.859 79.6887C165.154 79.6887 145.938 99.0076 145.938 122.839C145.938 146.67 165.154 165.988 188.859 165.988Z" fill="white"/>
<path fill-rule="evenodd" clip-rule="evenodd" d="M87.7079 165.613C111.413 165.613 130.629 146.294 130.629 122.463C130.629 98.6322 111.413 79.3134 87.7079 79.3134C64.0034 79.3134 44.787 98.6322 44.787 122.463C44.787 146.294 64.0034 165.613 87.7079 165.613Z" fill="white"/>
<path fill-rule="evenodd" clip-rule="evenodd" d="M86.9794 143.833C98.3164 143.833 107.507 134.593 107.507 123.196C107.507 111.799 98.3164 102.559 86.9794 102.559C75.6424 102.559 66.452 111.799 66.452 123.196C66.452 134.593 75.6424 143.833 86.9794 143.833Z" fill="#46A9D4"/>
<path fill-rule="evenodd" clip-rule="evenodd" d="M188.692 143.833C200.029 143.833 209.22 134.593 209.22 123.196C209.22 111.799 200.029 102.559 188.692 102.559C177.355 102.559 168.165 111.799 168.165 123.196C168.165 134.593 177.355 143.833 188.692 143.833Z" fill="#46A9D4"/>
</svg>
