<svg width="44" height="44" viewBox="0 0 44 44" fill="none" xmlns="http://www.w3.org/2000/svg">
<path fill-rule="evenodd" clip-rule="evenodd" d="M32.6067 32.6066C38.4645 26.7487 38.4645 17.2513 32.6067 11.3934C26.7488 5.53553 17.2513 5.53553 11.3935 11.3934C5.5356 17.2513 5.5356 26.7487 11.3935 32.6066C17.2513 38.4645 26.7488 38.4645 32.6067 32.6066Z" fill="#3D4C66" stroke="#3D4C66"/>
<path d="M21.7568 17.8868C21.7568 18.3801 21.6635 18.8401 21.4768 19.2668C21.3035 19.6935 21.0568 20.0668 20.7368 20.3868C20.4168 20.6935 20.0435 20.9401 19.6168 21.1268C19.1901 21.3001 18.7301 21.3868 18.2368 21.3868C17.7435 21.3868 17.2835 21.3001 16.8568 21.1268C16.4301 20.9401 16.0568 20.6935 15.7368 20.3868C15.4168 20.0668 15.1635 19.6935 14.9768 19.2668C14.8035 18.8401 14.7168 18.3801 14.7168 17.8868C14.7168 17.3935 14.8035 16.9335 14.9768 16.5068C15.1635 16.0801 15.4168 15.7135 15.7368 15.4068C16.0568 15.0868 16.4301 14.8401 16.8568 14.6668C17.2835 14.4801 17.7435 14.3868 18.2368 14.3868C18.7301 14.3868 19.1901 14.4801 19.6168 14.6668C20.0435 14.8401 20.4168 15.0868 20.7368 15.4068C21.0568 15.7135 21.3035 16.0801 21.4768 16.5068C21.6635 16.9335 21.7568 17.3935 21.7568 17.8868ZM20.5568 17.8868C20.5568 17.5535 20.4901 17.2468 20.3568 16.9668C20.2368 16.6868 20.0701 16.4468 19.8568 16.2468C19.6568 16.0335 19.4168 15.8735 19.1368 15.7668C18.8568 15.6468 18.5568 15.5868 18.2368 15.5868C17.9168 15.5868 17.6168 15.6468 17.3368 15.7668C17.0568 15.8735 16.8101 16.0335 16.5968 16.2468C16.3968 16.4468 16.2301 16.6868 16.0968 16.9668C15.9768 17.2468 15.9168 17.5535 15.9168 17.8868C15.9168 18.2201 15.9768 18.5268 16.0968 18.8068C16.2301 19.0868 16.3968 19.3335 16.5968 19.5468C16.8101 19.7468 17.0568 19.9068 17.3368 20.0268C17.6168 20.1335 17.9168 20.1868 18.2368 20.1868C18.5568 20.1868 18.8568 20.1335 19.1368 20.0268C19.4168 19.9068 19.6568 19.7468 19.8568 19.5468C20.0701 19.3335 20.2368 19.0868 20.3568 18.8068C20.4901 18.5268 20.5568 18.2201 20.5568 17.8868ZM29.8568 25.5268C29.8568 26.0201 29.7635 26.4801 29.5768 26.9068C29.4035 27.3335 29.1568 27.7068 28.8368 28.0268C28.5168 28.3335 28.1435 28.5801 27.7168 28.7668C27.2901 28.9401 26.8301 29.0268 26.3368 29.0268C25.8435 29.0268 25.3835 28.9401 24.9568 28.7668C24.5301 28.5801 24.1568 28.3335 23.8368 28.0268C23.5168 27.7068 23.2635 27.3335 23.0768 26.9068C22.9035 26.4801 22.8168 26.0201 22.8168 25.5268C22.8168 25.0335 22.9035 24.5735 23.0768 24.1468C23.2635 23.7201 23.5168 23.3535 23.8368 23.0468C24.1568 22.7268 24.5301 22.4801 24.9568 22.3068C25.3835 22.1201 25.8435 22.0268 26.3368 22.0268C26.8301 22.0268 27.2901 22.1201 27.7168 22.3068C28.1435 22.4801 28.5168 22.7268 28.8368 23.0468C29.1568 23.3535 29.4035 23.7201 29.5768 24.1468C29.7635 24.5735 29.8568 25.0335 29.8568 25.5268ZM28.6568 25.5268C28.6568 25.1935 28.5901 24.8868 28.4568 24.6068C28.3368 24.3268 28.1701 24.0868 27.9568 23.8868C27.7568 23.6735 27.5168 23.5135 27.2368 23.4068C26.9568 23.2868 26.6568 23.2268 26.3368 23.2268C26.0168 23.2268 25.7168 23.2868 25.4368 23.4068C25.1568 23.5135 24.9101 23.6735 24.6968 23.8868C24.4968 24.0868 24.3301 24.3268 24.1968 24.6068C24.0768 24.8868 24.0168 25.1935 24.0168 25.5268C24.0168 25.8601 24.0768 26.1668 24.1968 26.4468C24.3301 26.7268 24.4968 26.9735 24.6968 27.1868C24.9101 27.3868 25.1568 27.5468 25.4368 27.6668C25.7168 27.7735 26.0168 27.8268 26.3368 27.8268C26.6568 27.8268 26.9568 27.7735 27.2368 27.6668C27.5168 27.5468 27.7568 27.3868 27.9568 27.1868C28.1701 26.9735 28.3368 26.7268 28.4568 26.4468C28.5901 26.1668 28.6568 25.8601 28.6568 25.5268ZM18.2968 29.4068L17.2568 28.8668L26.2768 14.0068L27.2968 14.5468L18.2968 29.4068Z" fill="white"/>
</svg>
