<svg width="40" height="40" viewBox="0 0 40 40" fill="none" xmlns="http://www.w3.org/2000/svg">
<path fill-rule="evenodd" clip-rule="evenodd" d="M20 40C31.0457 40 40 31.0457 40 20C40 8.9543 31.0457 0 20 0C8.9543 0 0 8.9543 0 20C0 31.0457 8.9543 40 20 40Z" fill="#2797E8"/>
<path fill-rule="evenodd" clip-rule="evenodd" d="M20.1583 19.4855V7.58162C20.1583 7.39591 20.0076 7.24519 19.8219 7.24519C19.6362 7.24519 19.4854 7.39591 19.4854 7.58162V19.4855H7.58161C7.3959 19.4855 7.24518 19.6362 7.24518 19.8219C7.24518 20.0076 7.3959 20.1583 7.58161 20.1583H19.4854V32.0626C19.4854 32.2483 19.6362 32.399 19.8219 32.399C20.0076 32.399 20.1583 32.2483 20.1583 32.0626V20.1583H32.0626C32.2483 20.1583 32.399 20.0076 32.399 19.8219C32.399 19.6362 32.2483 19.4855 32.0626 19.4855H20.1583Z" fill="white" stroke="white" stroke-width="2"/>
</svg>
