<svg width="32" height="32" viewBox="0 0 32 32" fill="none" xmlns="http://www.w3.org/2000/svg">
<path fill-rule="evenodd" clip-rule="evenodd" d="M16 31C24.2843 31 31 24.2843 31 16C31 7.71573 24.2843 1 16 1C7.71573 1 1 7.71573 1 16C1 24.2843 7.71573 31 16 31Z" stroke="#2797E8"/>
<path fill-rule="evenodd" clip-rule="evenodd" d="M16.0653 15.6676V8.63272C16.0653 8.52297 15.9762 8.43389 15.8665 8.43389C15.7567 8.43389 15.6676 8.52297 15.6676 8.63272V15.6676H8.63272C8.52297 15.6676 8.4339 15.7567 8.4339 15.8665C8.4339 15.9762 8.52297 16.0653 8.63272 16.0653H15.6676V23.1005C15.6676 23.2102 15.7567 23.2993 15.8665 23.2993C15.9762 23.2993 16.0653 23.2102 16.0653 23.1005V16.0653H23.1005C23.2102 16.0653 23.2993 15.9762 23.2993 15.8665C23.2993 15.7567 23.2102 15.6676 23.1005 15.6676H16.0653Z" stroke="#2797E8"/>
</svg>
