<svg width="17" height="17" viewBox="0 0 17 17" fill="none" xmlns="http://www.w3.org/2000/svg">
<path fill-rule="evenodd" clip-rule="evenodd" d="M9.06522 8.66763V1.63272C9.06522 1.52297 8.97615 1.4339 8.8664 1.4339C8.75665 1.4339 8.66757 1.52297 8.66757 1.63272V8.66763H1.63266C1.52291 8.66763 1.43384 8.75671 1.43384 8.86646C1.43384 8.97621 1.52291 9.06528 1.63266 9.06528H8.66757V16.1005C8.66757 16.2102 8.75665 16.2993 8.8664 16.2993C8.97615 16.2993 9.06522 16.2102 9.06522 16.1005V9.06528H16.1004C16.2101 9.06528 16.2992 8.97621 16.2992 8.86646C16.2992 8.75671 16.2101 8.66763 16.1004 8.66763H9.06522Z" stroke="rgba(75, 75, 75, 0.5)"/>
</svg>
