<svg width="34" height="34" viewBox="0 0 34 34" fill="none" xmlns="http://www.w3.org/2000/svg">
<path fill-rule="evenodd" clip-rule="evenodd" d="M17.3658 16.5483V1.42736C17.3658 1.19146 17.1748 1 16.9395 1C16.7041 1 16.5131 1.19146 16.5131 1.42736V16.5483H1.42639C1.19102 16.5483 1 16.7398 1 16.9757C1 17.2116 1.19102 17.403 1.42639 17.403H16.5131V32.5246C16.5131 32.7605 16.7041 32.9519 16.9395 32.9519C17.1748 32.9519 17.3658 32.7605 17.3658 32.5246V17.403H32.4531C32.6884 17.403 32.8795 17.2116 32.8795 16.9757C32.8795 16.7398 32.6884 16.5483 32.4531 16.5483H17.3658Z" fill="#4B4B4B" stroke="#4B4B4B" stroke-width="2"/>
</svg>
