<svg width="40" height="40" viewBox="0 0 40 40" fill="none" xmlns="http://www.w3.org/2000/svg">
<path fill-rule="evenodd" clip-rule="evenodd" d="M20 40C31.0457 40 40 31.0457 40 20C40 8.95431 31.0457 0 20 0C8.95431 0 0 8.95431 0 20C0 31.0457 8.95431 40 20 40Z" fill="#2797E8"/>
<path fill-rule="evenodd" clip-rule="evenodd" d="M32.1325 10.6138C31.9625 10.4775 31.7146 10.5028 31.5777 10.6733L20.4335 24.4717C20.4225 24.4859 20.4125 24.5001 20.403 24.5154C20.3998 24.5207 20.3967 24.5265 20.393 24.5328L17.3772 28.2959C17.2893 28.4038 17.1683 28.4691 17.0362 28.4796C16.8993 28.487 16.7751 28.4438 16.6741 28.3528L8.02879 20.4928C7.86827 20.347 7.61827 20.358 7.4709 20.5196C7.32458 20.6807 7.33616 20.9307 7.49774 21.077L16.1441 28.938C16.3841 29.1538 16.6841 29.2701 16.9983 29.2701C17.0309 29.2701 17.0635 29.2691 17.0967 29.2665C17.4467 29.2396 17.7635 29.0717 17.9914 28.7917L21.0456 24.9807C21.0556 24.967 21.0662 24.9507 21.0756 24.9333L32.1919 11.1691C32.3288 10.9996 32.3019 10.7512 32.1325 10.6138Z" fill="white"/>
<path d="M32.1325 10.6138C31.9625 10.4775 31.7146 10.5028 31.5777 10.6733L20.4335 24.4717C20.4225 24.4859 20.4125 24.5001 20.403 24.5154C20.3998 24.5207 20.3967 24.5265 20.393 24.5328L17.3772 28.2959C17.2893 28.4038 17.1683 28.4691 17.0362 28.4796C16.8993 28.487 16.7751 28.4438 16.6741 28.3528L8.02879 20.4928C7.86827 20.347 7.61827 20.358 7.4709 20.5196C7.32458 20.6807 7.33616 20.9307 7.49774 21.077L16.1441 28.938C16.3841 29.1538 16.6841 29.2701 16.9983 29.2701C17.0309 29.2701 17.0635 29.2691 17.0967 29.2665C17.4467 29.2396 17.7635 29.0717 17.9914 28.7917L21.0456 24.9807C21.0556 24.967 21.0662 24.9507 21.0756 24.9333L32.1919 11.1691C32.3288 10.9996 32.3019 10.7512 32.1325 10.6138" stroke="white" stroke-width="3"/>
</svg>
