<svg width="29" height="29" viewBox="0 0 29 29" fill="none" xmlns="http://www.w3.org/2000/svg">
<path fill-rule="evenodd" clip-rule="evenodd" d="M14.5 29C22.5081 29 29 22.5081 29 14.5C29 6.49187 22.5081 0 14.5 0C6.49187 0 0 6.49187 0 14.5C0 22.5081 6.49187 29 14.5 29Z" fill="#E0654C"/>
<path fill-rule="evenodd" clip-rule="evenodd" d="M22.708 8.49438L15.0826 17.9359C15.0596 17.9694 15.0574 17.9734 15.0549 17.9777L12.9913 20.5526C12.9312 20.6265 12.8484 20.6711 12.758 20.6783C12.6643 20.6834 12.5793 20.6538 12.5102 20.5915L6.59469 15.2133C6.48485 15.1136 6.31379 15.1211 6.21295 15.2317C6.11283 15.3419 6.12076 15.513 6.23132 15.6131L12.1475 20.992C12.3118 21.1397 12.517 21.2192 12.732 21.2192C12.7544 21.2192 12.7767 21.2185 12.7994 21.2167C13.0389 21.1984 13.2557 21.0835 13.4116 20.8919L15.5014 18.2842C15.5083 18.2748 23.1283 8.83362 23.1283 8.83362C23.2219 8.71766 23.2036 8.54768 23.0876 8.45368C22.9713 8.36041 22.8017 8.37769 22.708 8.49438Z" fill="white" stroke="white" stroke-width="2"/>
</svg>
