<svg width="29" height="22" viewBox="0 0 29 22" fill="none" xmlns="http://www.w3.org/2000/svg">
<path fill-rule="evenodd" clip-rule="evenodd" d="M27.1325 1.61388C26.9625 1.47757 26.7146 1.50283 26.5777 1.67336L15.4335 15.4718C15.4225 15.486 15.4125 15.5002 15.403 15.5155C15.3998 15.5207 15.3967 15.5265 15.393 15.5328L12.3772 19.296C12.2893 19.4039 12.1683 19.4691 12.0362 19.4797C11.8993 19.487 11.7751 19.4439 11.6741 19.3528L3.02879 11.4928C2.86827 11.347 2.61827 11.3581 2.4709 11.5197C2.32458 11.6807 2.33616 11.9307 2.49774 12.077L11.1441 19.9381C11.3841 20.1539 11.6841 20.2702 11.9983 20.2702C12.0309 20.2702 12.0635 20.2691 12.0967 20.2665C12.4467 20.2397 12.7635 20.0718 12.9914 19.7918L16.0456 15.9807C16.0556 15.967 16.0662 15.9507 16.0756 15.9334L27.1919 2.16915C27.3288 1.99967 27.3019 1.75125 27.1325 1.61388Z" fill="#FFFFFF"/>
<path d="M27.1325 1.61388C26.9625 1.47757 26.7146 1.50283 26.5777 1.67336L15.4335 15.4718C15.4225 15.486 15.4125 15.5002 15.403 15.5155C15.3998 15.5207 15.3967 15.5265 15.393 15.5328L12.3772 19.296C12.2893 19.4039 12.1683 19.4691 12.0362 19.4797C11.8993 19.487 11.7751 19.4439 11.6741 19.3528L3.02879 11.4928C2.86827 11.347 2.61827 11.3581 2.4709 11.5197C2.32458 11.6807 2.33616 11.9307 2.49774 12.077L11.1441 19.9381C11.3841 20.1539 11.6841 20.2702 11.9983 20.2702C12.0309 20.2702 12.0635 20.2691 12.0967 20.2665C12.4467 20.2397 12.7635 20.0718 12.9914 19.7918L16.0456 15.9807C16.0556 15.967 16.0662 15.9507 16.0756 15.9334L27.1919 2.16915C27.3288 1.99967 27.3019 1.75125 27.1325 1.61388" stroke="#FFFFFF" stroke-width="3"/>
</svg>
