<svg width="96" height="96" viewBox="0 0 96 96" fill="none" xmlns="http://www.w3.org/2000/svg">
<path fill-rule="evenodd" clip-rule="evenodd" d="M48 96C74.5097 96 96 74.5097 96 48C96 21.4903 74.5097 0 48 0C21.4903 0 0 21.4903 0 48C0 74.5097 21.4903 96 48 96Z" fill="#51BF56"/>
<path fill-rule="evenodd" clip-rule="evenodd" d="M77.118 25.4732C76.71 25.146 76.115 25.2066 75.7866 25.6159L49.0405 58.7321C49.014 58.7662 48.99 58.8003 48.9672 58.837C48.9596 58.8496 48.9521 58.8635 48.9432 58.8786L41.7053 67.9102C41.4944 68.1692 41.2039 68.3258 40.8868 68.3511C40.5584 68.3687 40.2603 68.2652 40.0178 68.0466L19.2691 49.1826C18.8839 48.8327 18.2839 48.8593 17.9302 49.2471C17.579 49.6336 17.6068 50.2336 17.9946 50.5847L38.7458 69.4513C39.3218 69.9692 40.0418 70.2483 40.7959 70.2483C40.8742 70.2483 40.9525 70.2458 41.0321 70.2395C41.8721 70.1751 42.6325 69.7721 43.1794 69.1001L50.5095 59.9536C50.5335 59.9207 50.5588 59.8816 50.5815 59.8399L77.2607 26.8058C77.5891 26.3991 77.5247 25.8028 77.118 25.4732Z" fill="white"/>
<path d="M77.118 25.4732C76.71 25.146 76.115 25.2066 75.7866 25.6159L49.0405 58.7321C49.014 58.7662 48.99 58.8003 48.9672 58.837C48.9596 58.8496 48.9521 58.8635 48.9432 58.8786L41.7053 67.9102C41.4944 68.1692 41.2039 68.3258 40.8868 68.3511C40.5584 68.3687 40.2603 68.2652 40.0178 68.0466L19.2691 49.1826C18.8839 48.8327 18.2839 48.8593 17.9302 49.2471C17.579 49.6336 17.6068 50.2336 17.9946 50.5847L38.7458 69.4513C39.3218 69.9692 40.0418 70.2483 40.7959 70.2483C40.8742 70.2483 40.9525 70.2458 41.0321 70.2395C41.8721 70.1751 42.6325 69.7721 43.1794 69.1001L50.5095 59.9536C50.5335 59.9207 50.5588 59.8816 50.5815 59.8399L77.2607 26.8058C77.5891 26.3991 77.5247 25.8028 77.118 25.4732" stroke="white" stroke-width="3"/>
</svg>
