<svg width="28" height="28" viewBox="0 0 28 28" fill="none" xmlns="http://www.w3.org/2000/svg">
<path fill-rule="evenodd" clip-rule="evenodd" d="M26.8654 25.8009L17.6342 16.7807C19.2342 15.1025 20.2218 12.8602 20.2218 10.3917C20.2218 5.21305 15.9105 1 10.6103 1C5.3107 1 1 5.21305 1 10.3917C1 15.5692 5.3107 19.7828 10.6103 19.7828C13.0534 19.7828 15.2792 18.88 16.9772 17.4077L26.2164 26.4356C26.3058 26.523 26.4234 26.5667 26.5415 26.5667C26.6585 26.5667 26.7754 26.523 26.8654 26.4356C27.0449 26.2603 27.0449 25.9762 26.8654 25.8009ZM10.6103 18.8854C5.81709 18.8854 1.91847 15.0744 1.91847 10.3917C1.91847 5.70782 5.81709 1.89741 10.6103 1.89741C15.4035 1.89741 19.3033 5.70782 19.3033 10.3917C19.3033 15.0744 15.4035 18.8854 10.6103 18.8854Z" fill="white"/>
<path d="M17.6342 16.7807L17.2723 16.4357L16.9315 16.7931L17.2847 17.1383L17.6342 16.7807ZM16.9772 17.4077L17.3266 17.0501L16.9974 16.7284L16.6496 17.0299L16.9772 17.4077ZM26.2164 26.4356L25.8669 26.7933L25.867 26.7933L26.2164 26.4356ZM26.8654 26.4356L27.2137 26.7945L27.2149 26.7933L26.8654 26.4356ZM27.2149 25.4433L17.9836 16.4231L17.2847 17.1383L26.516 26.1585L27.2149 25.4433ZM17.9961 17.1257C19.6787 15.3609 20.7218 12.9971 20.7218 10.3917H19.7218C19.7218 12.7233 18.7896 14.8442 17.2723 16.4357L17.9961 17.1257ZM20.7218 10.3917C20.7218 4.92608 16.1757 0.5 10.6103 0.5V1.5C15.6453 1.5 19.7218 5.50002 19.7218 10.3917H20.7218ZM10.6103 0.5C5.04545 0.5 0.5 4.92614 0.5 10.3917H1.5C1.5 5.49996 5.57595 1.5 10.6103 1.5V0.5ZM0.5 10.3917C0.5 15.8561 5.04545 20.2828 10.6103 20.2828V19.2828C5.57595 19.2828 1.5 15.2823 1.5 10.3917H0.5ZM10.6103 20.2828C13.1789 20.2828 15.5198 19.3332 17.3047 17.7854L16.6496 17.0299C15.0386 18.4269 12.928 19.2828 10.6103 19.2828V20.2828ZM16.6277 17.7653L25.8669 26.7933L26.5658 26.078L17.3266 17.0501L16.6277 17.7653ZM25.867 26.7933C26.0554 26.9774 26.3008 27.0667 26.5415 27.0667V26.0667C26.5438 26.0667 26.5473 26.0671 26.5517 26.0688C26.5565 26.0707 26.5616 26.0738 26.5658 26.078L25.867 26.7933ZM26.5415 27.0667C26.7827 27.0667 27.0263 26.9763 27.2137 26.7945L26.5172 26.0768C26.5204 26.0738 26.5247 26.0709 26.5294 26.0691C26.5338 26.0673 26.5379 26.0667 26.5415 26.0667V27.0667ZM27.2149 26.7933C27.595 26.4218 27.595 25.8147 27.2149 25.4432L26.516 26.1585C26.5068 26.1495 26.5 26.1343 26.5 26.1183C26.5 26.1022 26.5068 26.087 26.516 26.078L27.2149 26.7933ZM10.6103 18.3854C6.08235 18.3854 2.41847 14.7875 2.41847 10.3917H1.41847C1.41847 15.3613 5.55183 19.3854 10.6103 19.3854V18.3854ZM2.41847 10.3917C2.41847 5.99472 6.08235 2.39741 10.6103 2.39741V1.39741C5.55183 1.39741 1.41847 5.42092 1.41847 10.3917H2.41847ZM10.6103 2.39741C15.1383 2.39741 18.8033 5.99481 18.8033 10.3917H19.8033C19.8033 5.42083 15.6687 1.39741 10.6103 1.39741V2.39741ZM18.8033 10.3917C18.8033 14.7874 15.1383 18.3854 10.6103 18.3854V19.3854C15.6687 19.3854 19.8033 15.3614 19.8033 10.3917H18.8033Z" fill="white"/>
</svg>
