<svg width="35" height="34" viewBox="0 0 35 34" fill="none" xmlns="http://www.w3.org/2000/svg">
<path fill-rule="evenodd" clip-rule="evenodd" d="M33.8292 32.478L22.1126 21.0293C24.1433 18.8994 25.3969 16.0533 25.3969 12.9203C25.3969 6.34733 19.9249 1 13.1977 1C6.47128 1 1 6.34733 1 12.9203C1 19.4917 6.47128 24.8397 13.1977 24.8397C16.2986 24.8397 19.1236 23.6939 21.2787 21.8251L33.0054 33.2837C33.1189 33.3946 33.2681 33.45 33.4181 33.45C33.5665 33.45 33.715 33.3946 33.8292 33.2837C34.0569 33.0612 34.0569 32.7005 33.8292 32.478ZM13.1977 23.7007C7.114 23.7007 2.16576 18.8637 2.16576 12.9203C2.16576 6.97531 7.114 2.13902 13.1977 2.13902C19.2814 2.13902 24.2312 6.97531 24.2312 12.9203C24.2312 18.8637 19.2814 23.7007 13.1977 23.7007Z" fill="#C5BFBF"/>
<path d="M22.1126 21.0293L21.7507 20.6843L21.4099 21.0418L21.7632 21.387L22.1126 21.0293ZM21.2787 21.8251L21.6281 21.4675L21.2989 21.1458L20.9511 21.4474L21.2787 21.8251ZM33.0054 33.2837L32.656 33.6413L32.656 33.6413L33.0054 33.2837ZM33.8292 33.2837L34.1774 33.6425L34.1786 33.6413L33.8292 33.2837ZM34.1787 32.1204L22.462 20.6717L21.7632 21.387L33.4798 32.8357L34.1787 32.1204ZM22.4745 21.3744C24.5879 19.1577 25.8969 16.1902 25.8969 12.9203H24.8969C24.8969 15.9164 23.6988 18.641 21.7507 20.6843L22.4745 21.3744ZM25.8969 12.9203C25.8969 6.06036 20.1901 0.5 13.1977 0.5V1.5C19.6597 1.5 24.8969 6.6343 24.8969 12.9203H25.8969ZM13.1977 0.5C6.20603 0.5 0.5 6.06042 0.5 12.9203H1.5C1.5 6.63424 6.73653 1.5 13.1977 1.5V0.5ZM0.5 12.9203C0.5 19.7786 6.20603 25.3397 13.1977 25.3397V24.3397C6.73653 24.3397 1.5 19.2047 1.5 12.9203H0.5ZM13.1977 25.3397C16.4241 25.3397 19.3642 24.1471 21.6063 22.2029L20.9511 21.4474C18.883 23.2407 16.1731 24.3397 13.1977 24.3397V25.3397ZM20.9293 22.1828L32.656 33.6413L33.3549 32.9261L21.6281 21.4675L20.9293 22.1828ZM32.656 33.6413C32.8685 33.8489 33.1456 33.95 33.4181 33.95V32.95C33.3906 32.95 33.3693 32.9402 33.3548 32.9261L32.656 33.6413ZM33.4181 33.95C33.6908 33.95 33.9658 33.8479 34.1774 33.6425L33.481 32.9249C33.4641 32.9413 33.4423 32.95 33.4181 32.95V33.95ZM34.1786 33.6413C34.6071 33.2227 34.6071 32.539 34.1786 32.1204L33.4798 32.8357C33.4947 32.8503 33.5 32.866 33.5 32.8809C33.5 32.8957 33.4947 32.9115 33.4798 32.9261L34.1786 33.6413ZM13.1977 23.2007C7.37926 23.2007 2.66576 18.5768 2.66576 12.9203H1.66576C1.66576 19.1506 6.84874 24.2007 13.1977 24.2007V23.2007ZM2.66576 12.9203C2.66576 7.26221 7.37926 2.63902 13.1977 2.63902V1.63902C6.84874 1.63902 1.66576 6.68841 1.66576 12.9203H2.66576ZM13.1977 2.63902C19.0162 2.63902 23.7312 7.2623 23.7312 12.9203H24.7312C24.7312 6.68832 19.5465 1.63902 13.1977 1.63902V2.63902ZM23.7312 12.9203C23.7312 18.5767 19.0162 23.2007 13.1977 23.2007V24.2007C19.5465 24.2007 24.7312 19.1507 24.7312 12.9203H23.7312Z" fill="#C5BFBF"/>
</svg>
