<svg width="19" height="19" viewBox="0 0 19 19" fill="none" xmlns="http://www.w3.org/2000/svg">
<path d="M8.63447 0.575623C8.34665 0.575623 8.08807 0.71953 7.91493 0.950006L7.05149 2.30251H3.74162C3.25256 2.30251 2.87817 2.67689 2.87817 3.16595V4.89284C2.87817 5.3819 3.25256 5.75629 3.74162 5.75629H3.76972L4.77708 15.3981C4.86365 16.1468 5.46851 16.6932 6.21615 16.6932H13.3553C14.1029 16.6932 14.7078 16.1468 14.7944 15.3981L15.8017 5.75629H15.8298C16.3189 5.75629 16.6933 5.3819 16.6933 4.89284V3.16595C16.6933 2.67689 16.3189 2.30251 15.8298 2.30251H12.52L11.6284 0.950006C11.4845 0.71953 11.1967 0.575623 10.9089 0.575623H8.63447ZM8.66257 1.15125H10.937C11.0236 1.15125 11.1101 1.20859 11.1675 1.26593L11.8285 2.30251H7.74292L8.40399 1.26593C8.46133 1.20859 8.5479 1.15125 8.66257 1.15125ZM3.74162 2.87814H15.8298C16.003 2.87814 16.1176 2.99282 16.1176 3.16595V4.89284C16.1176 5.06598 16.003 5.18066 15.8298 5.18066H3.74162C3.56848 5.18066 3.4538 5.06598 3.4538 4.89284V3.16595C3.4538 2.99282 3.56848 2.87814 3.74162 2.87814ZM4.60506 3.45377C4.43192 3.45377 4.31725 3.56844 4.31725 3.74158V4.31721C4.31725 4.49035 4.43192 4.60503 4.60506 4.60503C4.7782 4.60503 4.89288 4.49035 4.89288 4.31721V3.74158C4.89288 3.56844 4.7782 3.45377 4.60506 3.45377ZM6.04413 3.45377C5.871 3.45377 5.75632 3.56844 5.75632 3.74158V4.31721C5.75632 4.49035 5.871 4.60503 6.04413 4.60503C6.21727 4.60503 6.33195 4.49035 6.33195 4.31721V3.74158C6.33195 3.56844 6.21727 3.45377 6.04413 3.45377ZM7.48321 3.45377C7.31007 3.45377 7.19539 3.56844 7.19539 3.74158V4.31721C7.19539 4.49035 7.31007 4.60503 7.48321 4.60503C7.65635 4.60503 7.77102 4.49035 7.77102 4.31721V3.74158C7.77102 3.56844 7.65635 3.45377 7.48321 3.45377ZM8.92228 3.45377C8.74914 3.45377 8.63447 3.56844 8.63447 3.74158V4.31721C8.63447 4.49035 8.74914 4.60503 8.92228 4.60503C9.09542 4.60503 9.2101 4.49035 9.2101 4.31721V3.74158C9.2101 3.56844 9.09542 3.45377 8.92228 3.45377ZM10.6492 3.45377C10.476 3.45377 10.3614 3.56844 10.3614 3.74158V4.31721C10.3614 4.49035 10.476 4.60503 10.6492 4.60503C10.8223 4.60503 10.937 4.49035 10.937 4.31721V3.74158C10.937 3.56844 10.8223 3.45377 10.6492 3.45377ZM12.0882 3.45377C11.9151 3.45377 11.8004 3.56844 11.8004 3.74158V4.31721C11.8004 4.49035 11.9151 4.60503 12.0882 4.60503C12.2614 4.60503 12.3761 4.49035 12.3761 4.31721V3.74158C12.3761 3.56844 12.2614 3.45377 12.0882 3.45377ZM13.5273 3.45377C13.3542 3.45377 13.2395 3.56844 13.2395 3.74158V4.31721C13.2395 4.49035 13.3542 4.60503 13.5273 4.60503C13.7005 4.60503 13.8151 4.49035 13.8151 4.31721V3.74158C13.8151 3.56844 13.7005 3.45377 13.5273 3.45377ZM14.9664 3.45377C14.7932 3.45377 14.6786 3.56844 14.6786 3.74158V4.31721C14.6786 4.49035 14.7932 4.60503 14.9664 4.60503C15.1395 4.60503 15.2542 4.49035 15.2542 4.31721V3.74158C15.2542 3.56844 15.1395 3.45377 14.9664 3.45377ZM4.34535 5.75629H15.2261L14.2187 15.3407C14.1603 15.7725 13.8151 16.1176 13.3553 16.1176H6.21615C5.78443 16.1176 5.41117 15.7725 5.35271 15.3407L4.34535 5.75629ZM9.78572 7.19536C9.61259 7.19536 9.49791 7.31004 9.49791 7.48317V13.2395C9.49791 13.4126 9.61259 13.5273 9.78572 13.5273C9.95886 13.5273 10.0735 13.4126 10.0735 13.2395V7.48317C10.0735 7.31004 9.95886 7.19536 9.78572 7.19536ZM7.19539 7.22347C7.02225 7.22347 6.90758 7.36737 6.93569 7.51128L7.2235 13.2676C7.19539 13.4115 7.3393 13.5273 7.48321 13.5273C7.65635 13.5273 7.77102 13.3834 7.77102 13.2395L7.48321 7.48317C7.48321 7.31004 7.3393 7.19536 7.19539 7.22347ZM12.4042 7.22347C12.2321 7.22347 12.1163 7.33927 12.1163 7.48317L11.8285 13.2395C11.8004 13.3834 11.9151 13.5273 12.0882 13.5273C12.2614 13.5273 12.3761 13.4115 12.3761 13.2676L12.6639 7.51128C12.6639 7.33927 12.5481 7.22347 12.4042 7.22347ZM6.61976 14.9664C6.44663 14.9664 6.33195 15.081 6.33195 15.2542C6.33195 15.4273 6.44663 15.542 6.61976 15.542H10.6492C10.8223 15.542 10.937 15.4273 10.937 15.2542C10.937 15.081 10.8223 14.9664 10.6492 14.9664H6.61976ZM11.8004 14.9664C11.6273 14.9664 11.5126 15.081 11.5126 15.2542C11.5126 15.4273 11.6273 15.542 11.8004 15.542H12.9517C13.1248 15.542 13.2395 15.4273 13.2395 15.2542C13.2395 15.081 13.1248 14.9664 12.9517 14.9664H11.8004Z" fill="#747373"/>
</svg>
