<svg width="26" height="27" viewBox="0 0 26 27" fill="none" xmlns="http://www.w3.org/2000/svg">
<path d="M14.5312 0C14.4114 0 14.2915 0.0456884 14.1998 0.137329L12.1875 2.14966L11.1127 1.07483C10.9294 0.891548 10.6331 0.891548 10.4498 1.07483L7.30591 4.21875H4.21875C4.15734 4.21875 4.09601 4.23132 4.03839 4.25537C3.98167 4.27909 3.93016 4.31328 3.88733 4.35608L0.137329 8.10608C0.00128599 8.24212 -0.0329577 8.44058 0.032959 8.6087C0.0121082 8.70486 0 8.80395 0 8.90625V24.8438C0 25.6191 0.630937 26.25 1.40625 26.25H23.9062C24.6816 26.25 25.3125 25.6191 25.3125 24.8438V8.90625C25.3125 8.80395 25.3004 8.70486 25.2795 8.6087C25.3455 8.44058 25.3112 8.24212 25.1752 8.10608L21.4252 4.35608C21.3823 4.31328 21.3308 4.27909 21.2741 4.25537C21.2165 4.23132 21.1552 4.21875 21.0938 4.21875H18.9441L14.8627 0.137329C14.771 0.0456884 14.6511 0 14.5312 0ZM14.5312 1.13159L18.4186 5.01892L19.8248 6.42517C19.9162 6.51658 20.0362 6.5625 20.1562 6.5625C20.2763 6.5625 20.3963 6.51658 20.4877 6.42517C20.671 6.24189 20.671 5.94561 20.4877 5.76233L19.8816 5.15625H20.8997L23.2434 7.5H2.06909L4.41284 5.15625H6.36841L5.76233 5.76233C5.57905 5.94561 5.57905 6.24189 5.76233 6.42517C5.94561 6.60845 6.24189 6.60845 6.42517 6.42517L10.7812 2.06909L11.8561 3.14392L15.1373 6.42517C15.2287 6.51658 15.3488 6.5625 15.4688 6.5625C15.5887 6.5625 15.7088 6.51658 15.8002 6.42517C15.9835 6.24189 15.9835 5.94561 15.8002 5.76233L12.8503 2.8125L14.5312 1.13159ZM1.40625 8.4375H23.9062C24.1645 8.4375 24.375 8.6475 24.375 8.90625V24.8438C24.375 25.1025 24.1645 25.3125 23.9062 25.3125H1.40625C1.14797 25.3125 0.9375 25.1025 0.9375 24.8438V8.90625C0.9375 8.6475 1.14797 8.4375 1.40625 8.4375ZM9.375 14.0625C8.33953 14.0625 7.5 14.902 7.5 15.9375C7.5 16.973 8.33953 17.8125 9.375 17.8125H15.9375C16.973 17.8125 17.8125 16.973 17.8125 15.9375C17.8125 14.902 16.973 14.0625 15.9375 14.0625H9.375ZM9.375 15H15.9375C16.4555 15 16.875 15.4195 16.875 15.9375C16.875 16.4555 16.4555 16.875 15.9375 16.875H9.375C8.85703 16.875 8.4375 16.4555 8.4375 15.9375C8.4375 15.4195 8.85703 15 9.375 15ZM3.28125 22.5284C3.0225 22.5284 2.8125 22.7384 2.8125 22.9971V23.9346C2.8125 24.1934 3.0225 24.4034 3.28125 24.4034C3.54 24.4034 3.75 24.1934 3.75 23.9346V22.9971C3.75 22.7384 3.54 22.5284 3.28125 22.5284ZM5.625 22.5284C5.36625 22.5284 5.15625 22.7384 5.15625 22.9971V23.9346C5.15625 24.1934 5.36625 24.4034 5.625 24.4034C5.88375 24.4034 6.09375 24.1934 6.09375 23.9346V22.9971C6.09375 22.7384 5.88375 22.5284 5.625 22.5284ZM7.96875 22.5284C7.71 22.5284 7.5 22.7384 7.5 22.9971V23.9346C7.5 24.1934 7.71 24.4034 7.96875 24.4034C8.2275 24.4034 8.4375 24.1934 8.4375 23.9346V22.9971C8.4375 22.7384 8.2275 22.5284 7.96875 22.5284ZM10.3125 22.5284C10.0538 22.5284 9.84375 22.7384 9.84375 22.9971V23.9346C9.84375 24.1934 10.0538 24.4034 10.3125 24.4034C10.5712 24.4034 10.7812 24.1934 10.7812 23.9346V22.9971C10.7812 22.7384 10.5712 22.5284 10.3125 22.5284ZM12.6562 22.5284C12.3975 22.5284 12.1875 22.7384 12.1875 22.9971V23.9346C12.1875 24.1934 12.3975 24.4034 12.6562 24.4034C12.915 24.4034 13.125 24.1934 13.125 23.9346V22.9971C13.125 22.7384 12.915 22.5284 12.6562 22.5284ZM15 22.5284C14.7413 22.5284 14.5312 22.7384 14.5312 22.9971V23.9346C14.5312 24.1934 14.7413 24.4034 15 24.4034C15.2587 24.4034 15.4688 24.1934 15.4688 23.9346V22.9971C15.4688 22.7384 15.2587 22.5284 15 22.5284ZM17.3438 22.5284C17.085 22.5284 16.875 22.7384 16.875 22.9971V23.9346C16.875 24.1934 17.085 24.4034 17.3438 24.4034C17.6025 24.4034 17.8125 24.1934 17.8125 23.9346V22.9971C17.8125 22.7384 17.6025 22.5284 17.3438 22.5284ZM19.6875 22.5284C19.4287 22.5284 19.2188 22.7384 19.2188 22.9971V23.9346C19.2188 24.1934 19.4287 24.4034 19.6875 24.4034C19.9463 24.4034 20.1562 24.1934 20.1562 23.9346V22.9971C20.1562 22.7384 19.9463 22.5284 19.6875 22.5284ZM22.0312 22.5284C21.7725 22.5284 21.5625 22.7384 21.5625 22.9971V23.9346C21.5625 24.1934 21.7725 24.4034 22.0312 24.4034C22.29 24.4034 22.5 24.1934 22.5 23.9346V22.9971C22.5 22.7384 22.29 22.5284 22.0312 22.5284Z" fill="#3D4C66"/>
</svg>
