<svg width="30" height="30" viewBox="0 0 30 30" fill="none" xmlns="http://www.w3.org/2000/svg">
<path d="M6.11572 3.75C6.03333 3.74634 5.9491 3.76465 5.87402 3.80493C5.72021 3.88733 5.625 4.04663 5.625 4.21875V9.375H4.95117C4.30298 9.375 3.74268 9.81262 3.58521 10.4388L1.00708 20.7568C0.961304 20.9418 0.9375 21.1322 0.9375 21.3245V25.7812C0.9375 26.5558 1.56921 27.1875 2.34375 27.1875H27.6562C28.4308 27.1875 29.0625 26.5558 29.0625 25.7812V21.3245C29.0625 21.1322 29.0387 20.9418 28.9929 20.7568L26.25 9.78516V5.15625C26.25 4.38171 25.6183 3.75 24.8438 3.75H16.4062C15.6317 3.75 15 4.38171 15 5.15625V9.375H13.125V5.15625C13.125 5.03174 13.0756 4.91272 12.9877 4.82483L12.0502 3.88733C11.8927 3.72986 11.6455 3.70422 11.4587 3.82874L10.3125 4.59229L9.16626 3.82874C9.00879 3.72253 8.80371 3.72253 8.64624 3.82874L7.5 4.59229L6.35376 3.82874C6.28235 3.78113 6.19995 3.75366 6.11572 3.75ZM16.4062 4.6875H24.8438C25.1019 4.6875 25.3125 4.89807 25.3125 5.15625V9.84375C25.3125 9.8822 25.3162 9.92065 25.3271 9.95728L27.9932 20.625H2.00684L4.49707 10.6677C4.54834 10.459 4.73511 10.3125 4.95117 10.3125H5.625V13.125H5.15625C4.89807 13.125 4.6875 13.3337 4.6875 13.5938C4.6875 13.8538 4.89807 14.0625 5.15625 14.0625H13.5938C13.8519 14.0625 14.0625 13.8538 14.0625 13.5938C14.0625 13.3337 13.8519 13.125 13.5938 13.125H13.125V10.3125H15.4688C15.7269 10.3125 15.9375 10.1038 15.9375 9.84375V5.15625C15.9375 4.89807 16.1481 4.6875 16.4062 4.6875ZM8.90625 4.78272L10.0525 5.54626C10.21 5.65247 10.415 5.65247 10.5725 5.54626L11.6602 4.82117L12.1875 5.35034V13.125H6.5625V5.09399L7.23999 5.54626C7.39746 5.65247 7.60254 5.65247 7.76001 5.54626L8.90625 4.78272ZM7.96875 6.5625C7.71057 6.5625 7.5 6.77124 7.5 7.03125C7.5 7.29126 7.71057 7.5 7.96875 7.5H10.3125C10.5707 7.5 10.7812 7.29126 10.7812 7.03125C10.7812 6.77124 10.5707 6.5625 10.3125 6.5625H7.96875ZM7.96875 8.4375C7.71057 8.4375 7.5 8.64624 7.5 8.90625C7.5 9.16626 7.71057 9.375 7.96875 9.375H10.7812C11.0394 9.375 11.25 9.16626 11.25 8.90625C11.25 8.64624 11.0394 8.4375 10.7812 8.4375H7.96875ZM17.3438 9.375C17.0856 9.375 16.875 9.58374 16.875 9.84375C16.875 10.1038 17.0856 10.3125 17.3438 10.3125H23.9062C24.1644 10.3125 24.375 10.1038 24.375 9.84375C24.375 9.58374 24.1644 9.375 23.9062 9.375H17.3438ZM7.96875 10.3125C7.71057 10.3125 7.5 10.5212 7.5 10.7812C7.5 11.0413 7.71057 11.25 7.96875 11.25H8.90625C9.16443 11.25 9.375 11.0413 9.375 10.7812C9.375 10.5212 9.16443 10.3125 8.90625 10.3125H7.96875ZM15.9375 12.1637C15.4211 12.1637 15 12.5848 15 13.1012V14.0387C15 14.5551 15.4211 14.9762 15.9375 14.9762H16.875C17.3914 14.9762 17.8125 14.5551 17.8125 14.0387V13.1012C17.8125 12.5848 17.3914 12.1637 16.875 12.1637H15.9375ZM19.6875 12.1637C19.1711 12.1637 18.75 12.5848 18.75 13.1012V14.0387C18.75 14.5551 19.1711 14.9762 19.6875 14.9762H20.625C21.1414 14.9762 21.5625 14.5551 21.5625 14.0387V13.1012C21.5625 12.5848 21.1414 12.1637 20.625 12.1637H19.6875ZM23.4375 12.1637C22.9211 12.1637 22.5 12.5848 22.5 13.1012V14.0387C22.5 14.5551 22.9211 14.9762 23.4375 14.9762H24.375C24.8914 14.9762 25.3125 14.5551 25.3125 14.0387V13.1012C25.3125 12.5848 24.8914 12.1637 24.375 12.1637H23.4375ZM23.3295 12.9932H24.483V14.1467H23.3295V12.9932ZM15.8331 12.9987H16.9775V14.1431H15.835L15.8331 12.9987ZM19.6088 13.0225H20.7037V14.1174H19.6088V13.0225ZM15.9375 15.9137C15.4211 15.9137 15 16.3348 15 16.8512V17.7887C15 18.3051 15.4211 18.7262 15.9375 18.7262H16.875C17.3914 18.7262 17.8125 18.3051 17.8125 17.7887V16.8512C17.8125 16.3348 17.3914 15.9137 16.875 15.9137H15.9375ZM19.6875 15.9137C19.1711 15.9137 18.75 16.3348 18.75 16.8512V17.7887C18.75 18.3051 19.1711 18.7262 19.6875 18.7262H20.625C21.1414 18.7262 21.5625 18.3051 21.5625 17.7887V16.8512C21.5625 16.3348 21.1414 15.9137 20.625 15.9137H19.6875ZM23.4375 15.9137C22.9211 15.9137 22.5 16.3348 22.5 16.8512V17.7887C22.5 18.3051 22.9211 18.7262 23.4375 18.7262H24.375C24.8914 18.7262 25.3125 18.3051 25.3125 17.7887V16.8512C25.3125 16.3348 24.8914 15.9137 24.375 15.9137H23.4375ZM6.09375 15.9375C5.31921 15.9375 4.6875 16.5692 4.6875 17.3438C4.6875 18.1183 5.31921 18.75 6.09375 18.75C6.86829 18.75 7.5 18.1183 7.5 17.3438C7.5 16.5692 6.86829 15.9375 6.09375 15.9375ZM6.09375 16.7285C6.4325 16.7285 6.70898 17.005 6.70898 17.3438C6.70898 17.6825 6.4325 17.959 6.09375 17.959C5.755 17.959 5.47852 17.6825 5.47852 17.3438C5.47852 17.005 5.755 16.7285 6.09375 16.7285ZM15.8423 16.7578H16.9684V17.8839H15.8441L15.8423 16.7578ZM23.3423 16.7578H24.4684V17.8839H23.3441L23.3423 16.7578ZM19.6014 16.767H20.7092V17.8729H19.6033L19.6014 16.767ZM8.90625 16.875C8.64807 16.875 8.4375 17.0837 8.4375 17.3438C8.4375 17.6038 8.64807 17.8125 8.90625 17.8125H12.6562C12.9144 17.8125 13.125 17.6038 13.125 17.3438C13.125 17.0837 12.9144 16.875 12.6562 16.875H8.90625ZM1.875 21.5625H28.125V25.7812C28.125 26.0394 27.9144 26.25 27.6562 26.25H2.34375C2.08557 26.25 1.875 26.0394 1.875 25.7812V21.5625ZM3.28125 22.5C3.02307 22.5 2.8125 22.7087 2.8125 22.9688V23.9062C2.8125 24.1663 3.02307 24.375 3.28125 24.375C3.53943 24.375 3.75 24.1663 3.75 23.9062V22.9688C3.75 22.7087 3.53943 22.5 3.28125 22.5ZM5.625 22.5C5.36682 22.5 5.15625 22.7087 5.15625 22.9688V23.9062C5.15625 24.1663 5.36682 24.375 5.625 24.375C5.88318 24.375 6.09375 24.1663 6.09375 23.9062V22.9688C6.09375 22.7087 5.88318 22.5 5.625 22.5ZM7.96875 22.5C7.71057 22.5 7.5 22.7087 7.5 22.9688V23.9062C7.5 24.1663 7.71057 24.375 7.96875 24.375C8.22693 24.375 8.4375 24.1663 8.4375 23.9062V22.9688C8.4375 22.7087 8.22693 22.5 7.96875 22.5ZM10.3125 22.5C10.0543 22.5 9.84375 22.7087 9.84375 22.9688V23.9062C9.84375 24.1663 10.0543 24.375 10.3125 24.375C10.5707 24.375 10.7812 24.1663 10.7812 23.9062V22.9688C10.7812 22.7087 10.5707 22.5 10.3125 22.5ZM12.6562 22.5C12.3981 22.5 12.1875 22.7087 12.1875 22.9688V23.9062C12.1875 24.1663 12.3981 24.375 12.6562 24.375C12.9144 24.375 13.125 24.1663 13.125 23.9062V22.9688C13.125 22.7087 12.9144 22.5 12.6562 22.5ZM15 22.5C14.7418 22.5 14.5312 22.7087 14.5312 22.9688V23.9062C14.5312 24.1663 14.7418 24.375 15 24.375C15.2582 24.375 15.4688 24.1663 15.4688 23.9062V22.9688C15.4688 22.7087 15.2582 22.5 15 22.5ZM17.3438 22.5C17.0856 22.5 16.875 22.7087 16.875 22.9688V23.9062C16.875 24.1663 17.0856 24.375 17.3438 24.375C17.6019 24.375 17.8125 24.1663 17.8125 23.9062V22.9688C17.8125 22.7087 17.6019 22.5 17.3438 22.5ZM19.6875 22.5C19.4293 22.5 19.2188 22.7087 19.2188 22.9688V23.9062C19.2188 24.1663 19.4293 24.375 19.6875 24.375C19.9457 24.375 20.1562 24.1663 20.1562 23.9062V22.9688C20.1562 22.7087 19.9457 22.5 19.6875 22.5ZM22.0312 22.5C21.7731 22.5 21.5625 22.7087 21.5625 22.9688V23.9062C21.5625 24.1663 21.7731 24.375 22.0312 24.375C22.2894 24.375 22.5 24.1663 22.5 23.9062V22.9688C22.5 22.7087 22.2894 22.5 22.0312 22.5ZM24.375 22.5C24.1168 22.5 23.9062 22.7087 23.9062 22.9688V23.9062C23.9062 24.1663 24.1168 24.375 24.375 24.375C24.6332 24.375 24.8438 24.1663 24.8438 23.9062V22.9688C24.8438 22.7087 24.6332 22.5 24.375 22.5ZM26.7188 22.5C26.4606 22.5 26.25 22.7087 26.25 22.9688V23.9062C26.25 24.1663 26.4606 24.375 26.7188 24.375C26.9769 24.375 27.1875 24.1663 27.1875 23.9062V22.9688C27.1875 22.7087 26.9769 22.5 26.7188 22.5Z" fill="#3D4C66"/>
</svg>
