<svg width="30" height="30" viewBox="0 0 30 30" fill="none" xmlns="http://www.w3.org/2000/svg">
<path d="M12.1875 0.9375C11.1548 0.9375 9.67896 1.25977 8.7616 1.87866C7.0166 1.94275 5.82275 3.16772 5.62683 5.11047C5.50781 6.30981 5.61768 7.16858 5.68909 7.73621C5.71472 7.93396 5.74219 8.15735 5.73303 8.22327C5.71838 8.31116 5.70374 8.39905 5.69092 8.48694C5.61401 8.4906 5.54443 8.50159 5.48584 8.51807C4.71313 8.72498 4.38904 9.85474 4.73511 11.1456C4.98596 12.0813 5.51147 12.7844 6.08643 13.0005C6.38306 13.9087 6.81885 14.8114 7.36084 15.6244L3.03955 18.1274C1.16455 19.2114 0 21.2329 0 23.399V26.7188C0 27.4933 0.631714 28.125 1.40625 28.125H19.519C20.6287 29.2786 22.1832 30 23.9062 30C27.2662 30 30 27.2662 30 23.9062C30 20.5463 27.2662 17.8125 23.9062 17.8125C23.0768 17.8125 22.2858 17.981 21.5643 18.2812C21.4856 18.2318 21.416 18.1732 21.3354 18.1274L17.0142 15.6244C17.5562 14.8114 17.9919 13.9087 18.2886 13.0005C18.8635 12.7844 19.389 12.0831 19.6399 11.1456C19.986 9.85474 19.6619 8.72498 18.8892 8.51807C18.8306 8.50342 18.7628 8.4906 18.6859 8.48694C18.62 7.98523 18.4918 7.51648 18.2556 6.87561C18.2483 6.8573 18.2428 6.84082 18.2373 6.82617C18.4039 6.83899 18.6676 6.90674 18.8837 6.99463C19.0466 7.06238 19.2316 7.03491 19.3652 6.92139C19.4989 6.80969 19.5593 6.63208 19.5227 6.46179C18.7665 3.00293 16.1993 0.9375 12.6562 0.9375H12.1875ZM12.1875 1.875H12.6562C15.5017 1.875 17.5562 3.32886 18.3984 5.89783C18.0762 5.86304 17.7393 5.90149 17.5104 6.12305C17.3309 6.29333 17.1625 6.62109 17.3749 7.19971C17.6642 7.98523 17.7667 8.45032 17.7979 9.1095C17.8052 9.27795 17.9041 9.4281 18.0524 9.505C18.2007 9.58008 18.3801 9.57092 18.5211 9.47937C18.598 9.42993 18.6383 9.42444 18.6475 9.42444C18.761 9.46289 18.9661 10.0342 18.7335 10.9039C18.5028 11.7664 18.0597 12.1307 17.9224 12.1307C17.7136 12.1088 17.5323 12.2681 17.4738 12.4658C16.6827 15.1227 14.6136 17.8125 12.1875 17.8125C9.76135 17.8125 7.69226 15.1227 6.90125 12.4658C6.84265 12.2681 6.66138 12.1307 6.45264 12.1307C6.31531 12.1307 5.87219 11.7664 5.64148 10.9039C5.4071 10.0269 5.61768 9.45374 5.72571 9.42444C5.72754 9.42444 5.76782 9.42444 5.85205 9.47937C5.99304 9.57092 6.17432 9.58008 6.32263 9.505C6.47278 9.4281 6.56799 9.27795 6.57715 9.1095C6.58813 8.86597 6.61377 8.62244 6.65588 8.38623C6.69067 8.18481 6.66321 7.95959 6.61926 7.61719C6.55151 7.09167 6.45081 6.297 6.56067 5.20386C6.70898 3.70789 7.58606 2.8125 8.91357 2.8125C9.01611 2.8125 9.11316 2.77954 9.19556 2.71912C9.83826 2.23755 11.1237 1.875 12.1875 1.875ZM9.62219 4.74609C9.28711 4.7168 8.9502 4.86877 8.75793 5.16357L8.00537 6.30432C7.86255 6.52039 7.92297 6.81152 8.13904 6.95435C8.2196 7.00745 8.3075 7.03125 8.39539 7.03125C8.54919 7.03125 8.69751 6.95801 8.78906 6.82068L9.53979 5.67993L10.2722 6.03699C11.6071 6.68701 13.0975 7.03125 14.5825 7.03125H15.7819C16.04 7.03125 16.2506 6.82068 16.2506 6.5625C16.2506 6.30432 16.04 6.09375 15.7819 6.09375H14.5825C13.2404 6.09375 11.8909 5.78247 10.6842 5.19287L9.95178 4.83582C9.84558 4.78455 9.73389 4.75525 9.62219 4.74609ZM7.9248 16.3788C9.06555 17.7704 10.5487 18.75 12.1875 18.75C13.8263 18.75 15.3076 17.7722 16.4484 16.3806L20.6104 18.7885C18.9294 19.8761 17.8125 21.7621 17.8125 23.9062C17.8125 25.1147 18.1696 26.239 18.7793 27.1875H1.40625C1.14807 27.1875 0.9375 26.9769 0.9375 26.7188V23.399C0.9375 21.5662 1.92261 19.856 3.51013 18.9368L7.9248 16.3788ZM15.9082 18.75C15.8478 18.7537 15.7855 18.7701 15.7269 18.7994L12.1875 20.5701L8.64807 18.7994C8.41553 18.6841 8.13354 18.7775 8.01819 19.0082C7.90283 19.2407 7.99622 19.5227 8.22693 19.6381L11.9769 21.5131C12.0447 21.546 12.1161 21.5625 12.1875 21.5625C12.2589 21.5625 12.3322 21.546 12.3981 21.5131L16.1481 19.6381C16.3788 19.5227 16.4722 19.2407 16.3568 19.0082C16.2708 18.8361 16.0913 18.739 15.9082 18.75ZM23.9062 18.75C26.7499 18.75 29.0625 21.0626 29.0625 23.9062C29.0625 26.7499 26.7499 29.0625 23.9062 29.0625C21.0626 29.0625 18.75 26.7499 18.75 23.9062C18.75 21.0626 21.0626 18.75 23.9062 18.75ZM23.9062 20.625C23.6481 20.625 23.4375 20.8356 23.4375 21.0938V23.4375H21.0938C20.8356 23.4375 20.625 23.6481 20.625 23.9062C20.625 24.1644 20.8356 24.375 21.0938 24.375H23.4375V26.7188C23.4375 26.9769 23.6481 27.1875 23.9062 27.1875C24.1644 27.1875 24.375 26.9769 24.375 26.7188V24.375H26.7188C26.9769 24.375 27.1875 24.1644 27.1875 23.9062C27.1875 23.6481 26.9769 23.4375 26.7188 23.4375H24.375V21.0938C24.375 20.8356 24.1644 20.625 23.9062 20.625ZM2.8125 24.375C2.55432 24.375 2.34375 24.5856 2.34375 24.8438V25.7812C2.34375 26.0394 2.55432 26.25 2.8125 26.25C3.07068 26.25 3.28125 26.0394 3.28125 25.7812V24.8438C3.28125 24.5856 3.07068 24.375 2.8125 24.375ZM5.15625 24.375C4.89807 24.375 4.6875 24.5856 4.6875 24.8438V25.7812C4.6875 26.0394 4.89807 26.25 5.15625 26.25C5.41443 26.25 5.625 26.0394 5.625 25.7812V24.8438C5.625 24.5856 5.41443 24.375 5.15625 24.375ZM7.5 24.375C7.24182 24.375 7.03125 24.5856 7.03125 24.8438V25.7812C7.03125 26.0394 7.24182 26.25 7.5 26.25C7.75818 26.25 7.96875 26.0394 7.96875 25.7812V24.8438C7.96875 24.5856 7.75818 24.375 7.5 24.375ZM9.84375 24.375C9.58557 24.375 9.375 24.5856 9.375 24.8438V25.7812C9.375 26.0394 9.58557 26.25 9.84375 26.25C10.1019 26.25 10.3125 26.0394 10.3125 25.7812V24.8438C10.3125 24.5856 10.1019 24.375 9.84375 24.375ZM12.1875 24.375C11.9293 24.375 11.7188 24.5856 11.7188 24.8438V25.7812C11.7188 26.0394 11.9293 26.25 12.1875 26.25C12.4457 26.25 12.6562 26.0394 12.6562 25.7812V24.8438C12.6562 24.5856 12.4457 24.375 12.1875 24.375ZM14.5312 24.375C14.2731 24.375 14.0625 24.5856 14.0625 24.8438V25.7812C14.0625 26.0394 14.2731 26.25 14.5312 26.25C14.7894 26.25 15 26.0394 15 25.7812V24.8438C15 24.5856 14.7894 24.375 14.5312 24.375ZM16.875 24.375C16.6168 24.375 16.4062 24.5856 16.4062 24.8438V25.7812C16.4062 26.0394 16.6168 26.25 16.875 26.25C17.1332 26.25 17.3438 26.0394 17.3438 25.7812V24.8438C17.3438 24.5856 17.1332 24.375 16.875 24.375Z" fill="#3D4C66"/>
</svg>
