<svg width="30" height="30" viewBox="0 0 30 30" fill="none" xmlns="http://www.w3.org/2000/svg">
<path d="M3.28125 2.8125C2.50671 2.8125 1.875 3.44421 1.875 4.21875V25.7812C1.875 26.5558 2.50671 27.1875 3.28125 27.1875H26.7188C27.4933 27.1875 28.125 26.5558 28.125 25.7812V4.21875C28.125 3.44421 27.4933 2.8125 26.7188 2.8125H3.28125ZM3.28125 3.75H26.7188C26.9769 3.75 27.1875 3.96057 27.1875 4.21875V25.7812C27.1875 26.0394 26.9769 26.25 26.7188 26.25H3.28125C3.02307 26.25 2.8125 26.0394 2.8125 25.7812V4.21875C2.8125 3.96057 3.02307 3.75 3.28125 3.75ZM9.375 5.625C9.11499 5.625 8.90625 5.83374 8.90625 6.09375V8.4375H6.5625C6.30249 8.4375 6.09375 8.64624 6.09375 8.90625C6.09375 9.16626 6.30249 9.375 6.5625 9.375H8.90625V11.7188C8.90625 11.9788 9.11499 12.1875 9.375 12.1875C9.63501 12.1875 9.84375 11.9788 9.84375 11.7188V9.375H12.1875C12.4475 9.375 12.6562 9.16626 12.6562 8.90625C12.6562 8.64624 12.4475 8.4375 12.1875 8.4375H9.84375V6.09375C9.84375 5.83374 9.63501 5.625 9.375 5.625ZM17.8125 8.4375C17.5525 8.4375 17.3438 8.64624 17.3438 8.90625C17.3438 9.16626 17.5525 9.375 17.8125 9.375H23.4375C23.6975 9.375 23.9062 9.16626 23.9062 8.90625C23.9062 8.64624 23.6975 8.4375 23.4375 8.4375H17.8125ZM7.38648 15.824C7.26746 15.824 7.14661 15.8698 7.05505 15.9613C6.87195 16.1444 6.87195 16.441 7.05505 16.6241L8.71216 18.2812L7.05505 19.9384C6.87195 20.1215 6.87195 20.4181 7.05505 20.6012C7.14661 20.6927 7.26562 20.7385 7.38648 20.7385C7.50732 20.7385 7.62634 20.6927 7.7179 20.6012L9.375 18.9441L11.0321 20.6012C11.1237 20.6927 11.2427 20.7385 11.3635 20.7385C11.4844 20.7385 11.6034 20.6927 11.6949 20.6012C11.8781 20.4181 11.8781 20.1215 11.6949 19.9384L10.0378 18.2812L11.6949 16.6241C11.8781 16.441 11.8781 16.1444 11.6949 15.9613C11.5118 15.7782 11.2152 15.7782 11.0321 15.9613L9.375 17.6184L7.7179 15.9613C7.62634 15.8698 7.50549 15.824 7.38648 15.824ZM17.8125 15.9375C17.5525 15.9375 17.3438 16.1462 17.3438 16.4062C17.3438 16.6663 17.5525 16.875 17.8125 16.875H23.4375C23.6975 16.875 23.9062 16.6663 23.9062 16.4062C23.9062 16.1462 23.6975 15.9375 23.4375 15.9375H17.8125ZM17.8125 19.6875C17.5525 19.6875 17.3438 19.8962 17.3438 20.1562C17.3438 20.4163 17.5525 20.625 17.8125 20.625H23.4375C23.6975 20.625 23.9062 20.4163 23.9062 20.1562C23.9062 19.8962 23.6975 19.6875 23.4375 19.6875H17.8125ZM4.21875 23.4375C3.95874 23.4375 3.75 23.6462 3.75 23.9062V24.8438C3.75 25.1038 3.95874 25.3125 4.21875 25.3125C4.47876 25.3125 4.6875 25.1038 4.6875 24.8438V23.9062C4.6875 23.6462 4.47876 23.4375 4.21875 23.4375ZM6.5625 23.4375C6.30249 23.4375 6.09375 23.6462 6.09375 23.9062V24.8438C6.09375 25.1038 6.30249 25.3125 6.5625 25.3125C6.82251 25.3125 7.03125 25.1038 7.03125 24.8438V23.9062C7.03125 23.6462 6.82251 23.4375 6.5625 23.4375ZM8.90625 23.4375C8.64624 23.4375 8.4375 23.6462 8.4375 23.9062V24.8438C8.4375 25.1038 8.64624 25.3125 8.90625 25.3125C9.16626 25.3125 9.375 25.1038 9.375 24.8438V23.9062C9.375 23.6462 9.16626 23.4375 8.90625 23.4375ZM11.25 23.4375C10.99 23.4375 10.7812 23.6462 10.7812 23.9062V24.8438C10.7812 25.1038 10.99 25.3125 11.25 25.3125C11.51 25.3125 11.7188 25.1038 11.7188 24.8438V23.9062C11.7188 23.6462 11.51 23.4375 11.25 23.4375ZM13.5938 23.4375C13.3337 23.4375 13.125 23.6462 13.125 23.9062V24.8438C13.125 25.1038 13.3337 25.3125 13.5938 25.3125C13.8538 25.3125 14.0625 25.1038 14.0625 24.8438V23.9062C14.0625 23.6462 13.8538 23.4375 13.5938 23.4375ZM15.9375 23.4375C15.6775 23.4375 15.4688 23.6462 15.4688 23.9062V24.8438C15.4688 25.1038 15.6775 25.3125 15.9375 25.3125C16.1975 25.3125 16.4062 25.1038 16.4062 24.8438V23.9062C16.4062 23.6462 16.1975 23.4375 15.9375 23.4375ZM18.2812 23.4375C18.0212 23.4375 17.8125 23.6462 17.8125 23.9062V24.8438C17.8125 25.1038 18.0212 25.3125 18.2812 25.3125C18.5413 25.3125 18.75 25.1038 18.75 24.8438V23.9062C18.75 23.6462 18.5413 23.4375 18.2812 23.4375ZM20.625 23.4375C20.365 23.4375 20.1562 23.6462 20.1562 23.9062V24.8438C20.1562 25.1038 20.365 25.3125 20.625 25.3125C20.885 25.3125 21.0938 25.1038 21.0938 24.8438V23.9062C21.0938 23.6462 20.885 23.4375 20.625 23.4375ZM22.9688 23.4375C22.7087 23.4375 22.5 23.6462 22.5 23.9062V24.8438C22.5 25.1038 22.7087 25.3125 22.9688 25.3125C23.2288 25.3125 23.4375 25.1038 23.4375 24.8438V23.9062C23.4375 23.6462 23.2288 23.4375 22.9688 23.4375ZM25.3125 23.4375C25.0525 23.4375 24.8438 23.6462 24.8438 23.9062V24.8438C24.8438 25.1038 25.0525 25.3125 25.3125 25.3125C25.5725 25.3125 25.7812 25.1038 25.7812 24.8438V23.9062C25.7812 23.6462 25.5725 23.4375 25.3125 23.4375Z" fill="#3D4C66"/>
</svg>
