<svg width="30" height="30" viewBox="0 0 30 30" fill="none" xmlns="http://www.w3.org/2000/svg">
<path d="M17.3792 0.00182918C16.33 -0.00366399 15.3156 0.373533 14.5338 1.073C13.6384 1.87317 13.1257 3.01941 13.1257 4.21875C13.1257 5.31189 13.5432 6.34826 14.3012 7.13928C14.4495 7.29309 14.5319 7.4945 14.5319 7.70691C13.2191 7.60803 11.9373 7.4469 10.7197 7.22717L8.44734 6.81152C7.99507 6.72729 7.52815 6.87561 7.20222 7.20154C6.87629 7.52746 6.72981 7.99438 6.81221 8.44665L7.22603 10.7208C7.44758 11.9366 7.60872 13.2202 7.70393 14.5312C7.49519 14.5312 7.29194 14.4489 7.13447 14.2969C6.21528 13.418 4.96101 13.0023 3.68843 13.158C1.78047 13.3905 0.240552 14.9487 0.0281495 16.8603C-0.107349 18.0615 0.275342 19.2627 1.07368 20.1562C1.87385 21.0498 3.02009 21.5625 4.21943 21.5625C5.31257 21.5625 6.34895 21.145 7.13997 20.387C7.29377 20.2386 7.49336 20.1562 7.70576 20.1562H7.70759C7.60872 21.4691 7.44758 22.7509 7.22786 23.9685L6.77192 26.4679C6.69685 26.878 6.80855 27.2992 7.07588 27.6196C7.34321 27.9401 7.73689 28.125 8.15437 28.125H26.8732C27.5544 28.125 28.1367 27.6398 28.2575 26.9696L28.7739 24.1351C29.0009 22.8864 29.1676 21.5698 29.2683 20.2277C29.2866 19.9676 29.1968 19.7113 29.0192 19.5209C28.8416 19.3286 28.5889 19.2187 28.3289 19.2187C27.8767 19.2187 27.4445 19.3945 27.1113 19.715C26.3972 20.3979 25.4194 20.7202 24.4288 20.6012C22.9456 20.4181 21.75 19.2096 21.5852 17.7246C21.479 16.7743 21.7664 15.8624 22.3981 15.1575C23.0189 14.4617 23.9124 14.0625 24.8444 14.0625C25.694 14.0625 26.5015 14.3866 27.1149 14.978C27.4445 15.2948 27.8767 15.4687 28.3289 15.4687C28.5908 15.4687 28.8416 15.3589 29.0192 15.1666C29.1968 14.9762 29.2866 14.718 29.2683 14.4598C29.1676 13.1158 29.0009 11.8011 28.7739 10.5524L28.2868 7.86804C28.2191 7.5 28.0122 7.17773 27.7027 6.96533C27.3951 6.7511 27.0216 6.6687 26.6517 6.73828L23.9692 7.22534C22.7515 7.4469 21.4698 7.60803 20.1569 7.70325C20.1569 7.4945 20.2412 7.29126 20.3913 7.13379C21.272 6.2146 21.6859 4.96033 21.5321 3.68774C21.2977 1.77978 19.7395 0.239866 17.8278 0.027464C17.6777 0.00915342 17.5275 0.00182918 17.3792 0.00182918ZM17.3701 0.937498C17.4873 0.937498 17.6063 0.946653 17.7253 0.959471C19.2103 1.1261 20.4188 2.31994 20.6019 3.80127C20.7227 4.79187 20.3986 5.77148 19.7156 6.48559C19.3952 6.81885 19.2194 7.25097 19.2194 7.70325C19.2194 7.96509 19.3293 8.21594 19.5216 8.39355C19.712 8.57117 19.9702 8.66272 20.2283 8.64258C21.5723 8.54187 22.887 8.37524 24.1358 8.14819L26.8201 7.66113C26.9447 7.63733 27.0673 7.66479 27.1699 7.7362C27.2724 7.80762 27.342 7.91382 27.364 8.0365L27.8529 10.7208C28.0726 11.9366 28.2355 13.2202 28.3289 14.5312C28.1202 14.5312 27.9188 14.4489 27.765 14.3024C26.9739 13.5425 25.9376 13.125 24.8444 13.125C23.6451 13.125 22.4989 13.6377 21.6987 14.5312C20.9003 15.4248 20.5195 16.626 20.6531 17.8271C20.8656 19.7388 22.4055 21.297 24.3153 21.5295C25.586 21.6852 26.8403 21.2695 27.7595 20.3906C27.9169 20.2405 28.1184 20.1562 28.3308 20.1562H28.3326C28.2337 21.4691 28.0726 22.7509 27.851 23.9685L27.3347 26.803C27.2962 27.0264 27.1003 27.1875 26.8732 27.1875H8.15437C7.96394 27.1875 7.84675 27.0813 7.79365 27.019C7.74238 26.9568 7.65999 26.8231 7.69294 26.6364L8.14705 24.1351C8.37593 22.8864 8.54255 21.5717 8.64326 20.2277C8.66157 19.9695 8.57185 19.7113 8.39424 19.5209C8.21663 19.3286 7.96577 19.2187 7.70393 19.2187C7.25166 19.2187 6.81953 19.3945 6.48994 19.7113C5.87654 20.3009 5.06904 20.625 4.21943 20.625C3.28743 20.625 2.39387 20.2258 1.77314 19.53C1.14143 18.8251 0.853955 17.9132 0.960156 16.9629C1.12678 15.4779 2.32063 14.2694 3.80195 14.0863C4.79439 13.9673 5.77217 14.2895 6.48628 14.9725C6.81953 15.293 7.25166 15.4687 7.70393 15.4687C7.96577 15.4687 8.21663 15.3589 8.39424 15.1666C8.57185 14.9762 8.66157 14.718 8.64326 14.4598C8.54255 13.1158 8.37593 11.8011 8.14888 10.5524L7.73506 8.2782C7.70759 8.12622 7.7552 7.97424 7.86506 7.86438C7.97676 7.75451 8.12874 7.70874 8.27888 7.73437L10.5531 8.14819C11.8018 8.37524 13.1184 8.54187 14.4605 8.64258C14.7132 8.66272 14.9769 8.57117 15.1673 8.39355C15.3596 8.21594 15.4694 7.96509 15.4694 7.70325C15.4694 7.25097 15.2937 6.81885 14.9769 6.48926C14.3873 5.87585 14.0632 5.06836 14.0632 4.21875C14.0632 3.28674 14.4624 2.39319 15.1582 1.77246C15.7752 1.21948 16.5498 0.928343 17.3701 0.937498ZM26.1701 9.16809L24.6925 9.43725C24.4379 9.48486 24.2695 9.72656 24.3153 9.98291C24.3555 10.2081 24.5533 10.3674 24.7767 10.3674C24.8041 10.3674 24.8316 10.3656 24.8591 10.3583L26.3386 10.0909C26.5931 10.0452 26.7615 9.80163 26.7158 9.54529C26.67 9.29077 26.4246 9.12231 26.1701 9.16809ZM9.44709 9.33838C9.19258 9.28894 8.94722 9.46106 8.90144 9.71557C8.85383 9.97009 9.02412 10.2136 9.27864 10.2612L10.5531 10.4919C12.8016 10.9003 15.0703 11.1053 17.3426 11.1053C19.2048 11.1053 21.0688 10.968 22.9237 10.6934C23.18 10.6549 23.3558 10.415 23.3173 10.1587C23.2789 9.90234 23.0427 9.73022 22.7863 9.76318C18.7708 10.3601 14.7114 10.2942 10.7197 9.56909L9.44709 9.33838ZM9.84443 24.375C9.58442 24.375 9.37568 24.5837 9.37568 24.8437V25.7812C9.37568 26.0413 9.58442 26.25 9.84443 26.25C10.1044 26.25 10.3132 26.0413 10.3132 25.7812V24.8437C10.3132 24.5837 10.1044 24.375 9.84443 24.375ZM12.1882 24.375C11.9282 24.375 11.7194 24.5837 11.7194 24.8437V25.7812C11.7194 26.0413 11.9282 26.25 12.1882 26.25C12.4482 26.25 12.6569 26.0413 12.6569 25.7812V24.8437C12.6569 24.5837 12.4482 24.375 12.1882 24.375ZM14.5319 24.375C14.2719 24.375 14.0632 24.5837 14.0632 24.8437V25.7812C14.0632 26.0413 14.2719 26.25 14.5319 26.25C14.7919 26.25 15.0007 26.0413 15.0007 25.7812V24.8437C15.0007 24.5837 14.7919 24.375 14.5319 24.375ZM16.8757 24.375C16.6157 24.375 16.4069 24.5837 16.4069 24.8437V25.7812C16.4069 26.0413 16.6157 26.25 16.8757 26.25C17.1357 26.25 17.3444 26.0413 17.3444 25.7812V24.8437C17.3444 24.5837 17.1357 24.375 16.8757 24.375ZM19.2194 24.375C18.9594 24.375 18.7507 24.5837 18.7507 24.8437V25.7812C18.7507 26.0413 18.9594 26.25 19.2194 26.25C19.4794 26.25 19.6882 26.0413 19.6882 25.7812V24.8437C19.6882 24.5837 19.4794 24.375 19.2194 24.375ZM21.5632 24.375C21.3032 24.375 21.0944 24.5837 21.0944 24.8437V25.7812C21.0944 26.0413 21.3032 26.25 21.5632 26.25C21.8232 26.25 22.0319 26.0413 22.0319 25.7812V24.8437C22.0319 24.5837 21.8232 24.375 21.5632 24.375ZM23.9069 24.375C23.6469 24.375 23.4382 24.5837 23.4382 24.8437V25.7812C23.4382 26.0413 23.6469 26.25 23.9069 26.25C24.1669 26.25 24.3757 26.0413 24.3757 25.7812V24.8437C24.3757 24.5837 24.1669 24.375 23.9069 24.375ZM26.2507 24.375C25.9907 24.375 25.7819 24.5837 25.7819 24.8437V25.7812C25.7819 26.0413 25.9907 26.25 26.2507 26.25C26.5107 26.25 26.7194 26.0413 26.7194 25.7812V24.8437C26.7194 24.5837 26.5107 24.375 26.2507 24.375Z" fill="#3D4C66"/>
</svg>
