<svg width="37" height="36" viewBox="0 0 37 36" fill="none" xmlns="http://www.w3.org/2000/svg">
<path d="M22.0623 2.74384H11.4199V13.3724H22.0623V2.74384Z" fill="white"/>
<path d="M10.7336 2.74384C5.22316 3.14816 0.826433 7.68475 0.43457 13.3724H10.7336V2.74384Z" fill="white"/>
<path d="M10.7336 14.0581H0.43457V24.6867H10.7336V14.0581Z" fill="white"/>
<path d="M33.3914 14.0581H22.749V24.6867H33.3914V14.0581Z" fill="white"/>
<path d="M22.749 35.6581C28.4451 35.2686 32.9864 30.8776 33.3914 25.3724H22.749V35.6581Z" fill="white"/>
<path d="M22.0623 25.3724H11.4199V35.6581H22.0623V25.3724Z" fill="white"/>
<path d="M10.7336 25.3724H0.43457C0.824558 30.8795 5.21941 35.2686 10.7336 35.6581V25.3724Z" fill="white"/>
<path d="M24.4648 0.343842V11.3153H35.4505C35.4486 5.25595 30.5302 0.343842 24.4648 0.343842Z" fill="white"/>
</svg>
