<svg width="69" height="70" viewBox="0 0 69 70" fill="none" xmlns="http://www.w3.org/2000/svg">
<path d="M21.0244 27.5185H0V48.4849H21.0244V27.5185Z" fill="#A568BC"/>
<path d="M63.0722 27.5185H42.0479V48.4849H63.0722V27.5185Z" fill="#A1E663"/>
<path d="M42.0498 6.55206H21.0254V27.5185H42.0498V6.55206Z" fill="#FF8552"/>
<path d="M42.0498 48.4849H21.0254V69.4513H42.0498V48.4849Z" fill="#1DB9CA"/>
<path d="M47.3037 22.2768V1.31039C58.9173 1.31039 68.3281 10.6991 68.3281 22.2768H47.3037Z" fill="#FFD026"/>
<path d="M42.0479 69.4513V48.4849H63.0722C63.0722 60.0627 53.6614 69.4513 42.0479 69.4513Z" fill="#47D2A5"/>
<path d="M0 27.5185C0 15.937 9.41465 6.55206 21.0244 6.55206V27.5185H0Z" fill="#FF525F"/>
<path d="M0 48.4849H21.0244V69.4513C9.41465 69.4551 0 60.0664 0 48.4849Z" fill="#2797E8"/>
</svg>
