<svg width="183" height="111" viewBox="0 0 183 111" fill="none" xmlns="http://www.w3.org/2000/svg">
<g opacity="0.8">
<path d="M127.532 95.9756C126.904 94.6418 125.094 93.5505 122.989 94.1859C121.983 94.4865 121.106 95.1311 120.5 96.0144C119.894 95.1311 119.016 94.4865 118.01 94.1859C115.901 93.5602 114.096 94.6418 113.468 95.9756C112.586 97.843 112.952 99.9431 114.555 102.218C115.812 103.998 117.607 105.802 120.214 107.897C120.296 107.964 120.398 108 120.502 108C120.607 108 120.708 107.964 120.791 107.897C123.393 105.807 125.193 104.017 126.449 102.218C128.048 99.9431 128.414 97.843 127.532 95.9756Z" fill="white"/>
<path d="M16.0932 100.114C16.0932 99.162 16.3079 98.308 16.7372 97.552C17.1665 96.7867 17.7499 96.1893 18.4872 95.76C19.2339 95.3307 20.0599 95.116 20.9652 95.116C22.0292 95.116 22.9579 95.3727 23.7512 95.886C24.5445 96.3993 25.1232 97.1273 25.4872 98.07H23.9612C23.6905 97.482 23.2985 97.0293 22.7852 96.712C22.2812 96.3947 21.6745 96.236 20.9652 96.236C20.2839 96.236 19.6725 96.3947 19.1312 96.712C18.5899 97.0293 18.1652 97.482 17.8572 98.07C17.5492 98.6487 17.3952 99.33 17.3952 100.114C17.3952 100.889 17.5492 101.57 17.8572 102.158C18.1652 102.737 18.5899 103.185 19.1312 103.502C19.6725 103.819 20.2839 103.978 20.9652 103.978C21.6745 103.978 22.2812 103.824 22.7852 103.516C23.2985 103.199 23.6905 102.746 23.9612 102.158H25.4872C25.1232 103.091 24.5445 103.815 23.7512 104.328C22.9579 104.832 22.0292 105.084 20.9652 105.084C20.0599 105.084 19.2339 104.874 18.4872 104.454C17.7499 104.025 17.1665 103.432 16.7372 102.676C16.3079 101.92 16.0932 101.066 16.0932 100.114ZM28.6577 98.574C28.8817 98.1353 29.199 97.7947 29.6097 97.552C30.0297 97.3093 30.5383 97.188 31.1357 97.188V98.504H30.7997C29.3717 98.504 28.6577 99.2787 28.6577 100.828V105H27.3837V97.328H28.6577V98.574ZM39.6063 100.87C39.6063 101.113 39.5923 101.369 39.5643 101.64H33.4323C33.479 102.396 33.7357 102.989 34.2023 103.418C34.6783 103.838 35.2523 104.048 35.9243 104.048C36.475 104.048 36.9323 103.922 37.2963 103.67C37.6697 103.409 37.931 103.063 38.0803 102.634H39.4523C39.247 103.371 38.8363 103.973 38.2203 104.44C37.6043 104.897 36.839 105.126 35.9243 105.126C35.1963 105.126 34.543 104.963 33.9643 104.636C33.395 104.309 32.947 103.847 32.6203 103.25C32.2937 102.643 32.1303 101.943 32.1303 101.15C32.1303 100.357 32.289 99.6613 32.6063 99.064C32.9237 98.4667 33.367 98.0093 33.9363 97.692C34.515 97.3653 35.1777 97.202 35.9243 97.202C36.6523 97.202 37.2963 97.3607 37.8563 97.678C38.4163 97.9953 38.8457 98.434 39.1443 98.994C39.4523 99.5447 39.6063 100.17 39.6063 100.87ZM38.2903 100.604C38.2903 100.119 38.183 99.7033 37.9683 99.358C37.7537 99.0033 37.4597 98.7373 37.0863 98.56C36.7223 98.3733 36.3163 98.28 35.8683 98.28C35.2243 98.28 34.6737 98.4853 34.2163 98.896C33.7683 99.3067 33.5117 99.876 33.4463 100.604H38.2903ZM40.812 101.136C40.812 100.352 40.9706 99.666 41.288 99.078C41.6053 98.4807 42.0393 98.0187 42.59 97.692C43.15 97.3653 43.7706 97.202 44.452 97.202C45.124 97.202 45.7073 97.3467 46.202 97.636C46.6966 97.9253 47.0653 98.2893 47.308 98.728V97.328H48.596V105H47.308V103.572C47.056 104.02 46.678 104.393 46.174 104.692C45.6793 104.981 45.1006 105.126 44.438 105.126C43.7566 105.126 43.1406 104.958 42.59 104.622C42.0393 104.286 41.6053 103.815 41.288 103.208C40.9706 102.601 40.812 101.911 40.812 101.136ZM47.308 101.15C47.308 100.571 47.1913 100.067 46.958 99.638C46.7246 99.2087 46.4073 98.882 46.006 98.658C45.614 98.4247 45.18 98.308 44.704 98.308C44.228 98.308 43.794 98.42 43.402 98.644C43.01 98.868 42.6973 99.1947 42.464 99.624C42.2306 100.053 42.114 100.557 42.114 101.136C42.114 101.724 42.2306 102.237 42.464 102.676C42.6973 103.105 43.01 103.437 43.402 103.67C43.794 103.894 44.228 104.006 44.704 104.006C45.18 104.006 45.614 103.894 46.006 103.67C46.4073 103.437 46.7246 103.105 46.958 102.676C47.1913 102.237 47.308 101.729 47.308 101.15ZM52.3029 98.378V102.9C52.3029 103.273 52.3822 103.539 52.5409 103.698C52.6996 103.847 52.9749 103.922 53.3669 103.922H54.3049V105H53.1569C52.4476 105 51.9156 104.837 51.5609 104.51C51.2062 104.183 51.0289 103.647 51.0289 102.9V98.378H50.0349V97.328H51.0289V95.396H52.3029V97.328H54.3049V98.378H52.3029ZM62.8485 100.87C62.8485 101.113 62.8345 101.369 62.8065 101.64H56.6745C56.7212 102.396 56.9778 102.989 57.4445 103.418C57.9205 103.838 58.4945 104.048 59.1665 104.048C59.7172 104.048 60.1745 103.922 60.5385 103.67C60.9118 103.409 61.1732 103.063 61.3225 102.634H62.6945C62.4892 103.371 62.0785 103.973 61.4625 104.44C60.8465 104.897 60.0812 105.126 59.1665 105.126C58.4385 105.126 57.7852 104.963 57.2065 104.636C56.6372 104.309 56.1892 103.847 55.8625 103.25C55.5358 102.643 55.3725 101.943 55.3725 101.15C55.3725 100.357 55.5312 99.6613 55.8485 99.064C56.1658 98.4667 56.6092 98.0093 57.1785 97.692C57.7572 97.3653 58.4198 97.202 59.1665 97.202C59.8945 97.202 60.5385 97.3607 61.0985 97.678C61.6585 97.9953 62.0878 98.434 62.3865 98.994C62.6945 99.5447 62.8485 100.17 62.8485 100.87ZM61.5325 100.604C61.5325 100.119 61.4252 99.7033 61.2105 99.358C60.9958 99.0033 60.7018 98.7373 60.3285 98.56C59.9645 98.3733 59.5585 98.28 59.1105 98.28C58.4665 98.28 57.9158 98.4853 57.4585 98.896C57.0105 99.3067 56.7538 99.876 56.6885 100.604H61.5325ZM64.0541 101.136C64.0541 100.352 64.2128 99.666 64.5301 99.078C64.8475 98.4807 65.2815 98.0187 65.8321 97.692C66.3921 97.3653 67.0175 97.202 67.7081 97.202C68.3055 97.202 68.8608 97.342 69.3741 97.622C69.8875 97.8927 70.2795 98.252 70.5501 98.7V94.64H71.8381V105H70.5501V103.558C70.2981 104.015 69.9248 104.393 69.4301 104.692C68.9355 104.981 68.3568 105.126 67.6941 105.126C67.0128 105.126 66.3921 104.958 65.8321 104.622C65.2815 104.286 64.8475 103.815 64.5301 103.208C64.2128 102.601 64.0541 101.911 64.0541 101.136ZM70.5501 101.15C70.5501 100.571 70.4335 100.067 70.2001 99.638C69.9668 99.2087 69.6495 98.882 69.2481 98.658C68.8561 98.4247 68.4221 98.308 67.9461 98.308C67.4701 98.308 67.0361 98.42 66.6441 98.644C66.2521 98.868 65.9395 99.1947 65.7061 99.624C65.4728 100.053 65.3561 100.557 65.3561 101.136C65.3561 101.724 65.4728 102.237 65.7061 102.676C65.9395 103.105 66.2521 103.437 66.6441 103.67C67.0361 103.894 67.4701 104.006 67.9461 104.006C68.4221 104.006 68.8561 103.894 69.2481 103.67C69.6495 103.437 69.9668 103.105 70.2001 102.676C70.4335 102.237 70.5501 101.729 70.5501 101.15ZM87.9435 97.328L85.5495 105H84.2335L82.3855 98.91L80.5375 105H79.2215L76.8135 97.328H78.1155L79.8795 103.768L81.7835 97.328H83.0855L84.9475 103.782L86.6835 97.328H87.9435ZM89.8659 96.082C89.6232 96.082 89.4179 95.998 89.2499 95.83C89.0819 95.662 88.9979 95.4567 88.9979 95.214C88.9979 94.9713 89.0819 94.766 89.2499 94.598C89.4179 94.43 89.6232 94.346 89.8659 94.346C90.0992 94.346 90.2952 94.43 90.4539 94.598C90.6219 94.766 90.7059 94.9713 90.7059 95.214C90.7059 95.4567 90.6219 95.662 90.4539 95.83C90.2952 95.998 90.0992 96.082 89.8659 96.082ZM90.4819 97.328V105H89.2079V97.328H90.4819ZM94.2072 98.378V102.9C94.2072 103.273 94.2865 103.539 94.4452 103.698C94.6039 103.847 94.8792 103.922 95.2712 103.922H96.2092V105H95.0612C94.3519 105 93.8199 104.837 93.4652 104.51C93.1105 104.183 92.9332 103.647 92.9332 102.9V98.378H91.9392V97.328H92.9332V95.396H94.2072V97.328H96.2092V98.378H94.2072ZM101.561 97.188C102.139 97.188 102.662 97.314 103.129 97.566C103.595 97.8087 103.959 98.1773 104.221 98.672C104.491 99.1667 104.627 99.7687 104.627 100.478V105H103.367V100.66C103.367 99.8947 103.175 99.3113 102.793 98.91C102.41 98.4993 101.887 98.294 101.225 98.294C100.553 98.294 100.016 98.504 99.6148 98.924C99.2228 99.344 99.0268 99.9553 99.0268 100.758V105H97.7528V94.64H99.0268V98.42C99.2788 98.028 99.6241 97.7247 100.063 97.51C100.511 97.2953 101.01 97.188 101.561 97.188ZM137.225 96.082C136.983 96.082 136.777 95.998 136.609 95.83C136.441 95.662 136.357 95.4567 136.357 95.214C136.357 94.9713 136.441 94.766 136.609 94.598C136.777 94.43 136.983 94.346 137.225 94.346C137.459 94.346 137.655 94.43 137.813 94.598C137.981 94.766 138.065 94.9713 138.065 95.214C138.065 95.4567 137.981 95.662 137.813 95.83C137.655 95.998 137.459 96.082 137.225 96.082ZM137.841 97.328V105H136.567V97.328H137.841ZM143.751 97.188C144.684 97.188 145.44 97.4727 146.019 98.042C146.597 98.602 146.887 99.414 146.887 100.478V105H145.627V100.66C145.627 99.8947 145.435 99.3113 145.053 98.91C144.67 98.4993 144.147 98.294 143.485 98.294C142.813 98.294 142.276 98.504 141.875 98.924C141.483 99.344 141.287 99.9553 141.287 100.758V105H140.013V97.328H141.287V98.42C141.539 98.028 141.879 97.7247 142.309 97.51C142.747 97.2953 143.228 97.188 143.751 97.188ZM160.372 105H159.098L153.974 97.23V105H152.7V95.228H153.974L159.098 102.984V95.228H160.372V105ZM163.818 103.964H167.234V105H162.544V95.242H163.818V103.964Z" fill="white"/>
</g>
<g opacity="0.8">
<path d="M99.4131 4.07642H83.5635V19.8726H99.4131V4.07642Z" fill="white"/>
<path d="M82.5415 4.07642C74.3348 4.67733 67.7867 11.4196 67.2031 19.8726H82.5415V4.07642Z" fill="white"/>
<path d="M82.5415 20.8917H67.2031V36.6879H82.5415V20.8917Z" fill="white"/>
<path d="M116.285 20.8917H100.436V36.6879H116.285V20.8917Z" fill="white"/>
<path d="M100.436 52.9937C108.919 52.4148 115.682 45.8888 116.285 37.707H100.436V52.9937Z" fill="white"/>
<path d="M99.4131 37.707H83.5635V52.9937H99.4131V37.707Z" fill="white"/>
<path d="M82.5415 37.707H67.2031C67.7839 45.8916 74.3292 52.4148 82.5415 52.9937V37.707Z" fill="white"/>
<path d="M102.992 0.509583V16.8153H119.353C119.35 7.80996 112.025 0.509583 102.992 0.509583Z" fill="white"/>
<path d="M62.335 78.8762C60.9796 78.127 59.9178 77.0948 59.1515 75.7777C58.3852 74.4626 58 72.9821 58 71.3402C58 69.6983 58.3832 68.2178 59.1515 66.9026C59.9178 65.5875 60.9796 64.5553 62.335 63.8041C63.6903 63.0549 65.2127 62.6803 66.9023 62.6803C68.5918 62.6803 70.1102 63.0549 71.4573 63.8041C72.8045 64.5533 73.8663 65.5855 74.6408 66.9026C75.4153 68.2178 75.8025 69.6983 75.8025 71.3402C75.8025 72.9821 75.4153 74.4626 74.6408 75.7777C73.8663 77.0928 72.8045 78.127 71.4573 78.8762C70.1102 79.6254 68.5898 80 66.9023 80C65.2147 80 63.6923 79.6254 62.335 78.8762ZM69.5864 76.1603C70.3853 75.692 71.011 75.0385 71.4675 74.1996C71.922 73.3607 72.1503 72.4082 72.1503 71.3402C72.1503 70.2721 71.922 69.3177 71.4675 68.4808C71.013 67.6419 70.3853 66.9883 69.5864 66.5201C68.7875 66.0518 67.8928 65.8167 66.9023 65.8167C65.9118 65.8167 65.0171 66.0518 64.2202 66.5201C63.4212 66.9883 62.7956 67.6419 62.339 68.4808C61.8825 69.3197 61.6563 70.2721 61.6563 71.3402C61.6563 72.4082 61.8845 73.3627 62.339 74.1996C62.7935 75.0385 63.4212 75.692 64.2202 76.1603C65.0191 76.6285 65.9138 76.8637 66.9023 76.8637C67.8928 76.8617 68.7875 76.6285 69.5864 76.1603Z" fill="white"/>
<path d="M77.8467 61.9012H81.3399V79.7231H77.8467V61.9012Z" fill="white"/>
<path d="M84.589 67.3211H88.0822V79.723H84.589V67.3211ZM88.447 63.6686C88.4246 65.1152 86.307 66.522 86.307 66.522C86.307 66.522 84.1508 65.0774 84.1671 63.6686C84.1793 62.5866 85.125 61.6561 86.307 61.6561C87.4891 61.6561 88.4633 62.5866 88.447 63.6686Z" fill="white"/>
<path d="M103.29 67.321L98.205 79.723H94.5997L89.5371 67.321H93.1424L96.4788 75.7577L99.9272 67.321H103.29Z" fill="white"/>
<path d="M116.123 74.5363H107.009C107.174 75.3055 107.561 75.9112 108.173 76.3576C108.784 76.8039 109.546 77.0271 110.457 77.0271C111.085 77.0271 111.641 76.9314 112.126 76.7381C112.612 76.5468 113.064 76.242 113.482 75.8275L115.341 77.9018C114.205 79.2389 112.548 79.9064 110.368 79.9064C109.008 79.9064 107.806 79.6334 106.762 79.0874C105.717 78.5415 104.91 77.7843 104.343 76.8178C103.775 75.8494 103.491 74.7515 103.491 73.5221C103.491 72.3086 103.77 71.2126 104.331 70.2383C104.891 69.2619 105.66 68.5027 106.638 67.9567C107.616 67.4107 108.711 67.1378 109.919 67.1378C111.099 67.1378 112.167 67.3988 113.123 67.9209C114.079 68.4429 114.829 69.1921 115.373 70.1685C115.917 71.1449 116.19 72.2767 116.19 73.5679C116.19 73.6137 116.168 73.9365 116.123 74.5363ZM107.948 70.5491C107.41 71.0094 107.082 71.641 106.962 72.4401H112.897C112.777 71.657 112.448 71.0293 111.91 70.5611C111.372 70.0928 110.716 69.8577 109.94 69.8577C109.151 69.8577 108.487 70.0888 107.948 70.5491Z" fill="white"/>
<path d="M123.548 67.598C124.258 67.2912 125.075 67.1378 126 67.1378V70.4574C125.611 70.4276 125.35 70.4116 125.216 70.4116C124.215 70.4116 123.43 70.7005 122.864 71.2764C122.295 71.8523 122.012 72.7171 122.012 73.8688V79.7231H118.519V67.3211H121.855V68.957C122.277 68.3592 122.839 67.9069 123.548 67.598Z" fill="white"/>
</g>
</svg>
