<svg width="208" height="73" viewBox="0 0 208 73" fill="none" xmlns="http://www.w3.org/2000/svg">
<path d="M21.0244 27.5185H0V48.4849H21.0244V27.5185Z" fill="#A568BC"/>
<path d="M63.0722 27.5185H42.0479V48.4849H63.0722V27.5185Z" fill="#A1E663"/>
<path d="M42.0498 6.55206H21.0254V27.5185H42.0498V6.55206Z" fill="#FF8552"/>
<path d="M42.0498 48.4849H21.0254V69.4513H42.0498V48.4849Z" fill="#1DB9CA"/>
<path d="M47.3037 22.2768V1.31039C58.9173 1.31039 68.3281 10.6991 68.3281 22.2768H47.3037Z" fill="#FFD026"/>
<path d="M42.0479 69.4513V48.4849H63.0722C63.0722 60.0627 53.6614 69.4513 42.0479 69.4513Z" fill="#47D2A5"/>
<path d="M0 27.5185C0 15.937 9.41465 6.55206 21.0244 6.55206V27.5185H0Z" fill="#FF525F"/>
<path d="M0 48.4849H21.0244V69.4513C9.41465 69.4551 0 60.0664 0 48.4849Z" fill="#2797E8"/>
<path d="M91.93 51.6794C89.4812 50.3146 87.5627 48.4344 86.1782 46.0352C84.7936 43.6395 84.0977 40.9427 84.0977 37.9518C84.0977 34.9609 84.7899 32.264 86.1782 29.8684C87.5627 27.4728 89.4812 25.5926 91.93 24.2242C94.3787 22.8594 97.1295 22.177 100.182 22.177C103.235 22.177 105.978 22.8594 108.412 24.2242C110.846 25.5889 112.765 27.4691 114.164 29.8684C115.563 32.264 116.263 34.9609 116.263 37.9518C116.263 40.9427 115.563 43.6395 114.164 46.0352C112.765 48.4308 110.846 50.3146 108.412 51.6794C105.978 53.0442 103.231 53.7265 100.182 53.7265C97.1331 53.7265 94.3824 53.0442 91.93 51.6794ZM105.032 46.7321C106.475 45.8791 107.606 44.6885 108.431 43.1604C109.252 41.6323 109.664 39.8973 109.664 37.9518C109.664 36.0062 109.252 34.2676 108.431 32.7431C107.609 31.215 106.475 30.0245 105.032 29.1715C103.588 28.3185 101.972 27.8902 100.182 27.8902C98.3925 27.8902 96.776 28.3185 95.3362 29.1715C93.8927 30.0245 92.7622 31.215 91.9374 32.7431C91.1125 34.2712 90.7038 36.0062 90.7038 37.9518C90.7038 39.8973 91.1162 41.6359 91.9374 43.1604C92.7585 44.6885 93.8927 45.8791 95.3362 46.7321C96.7796 47.5851 98.3962 48.0134 100.182 48.0134C101.972 48.0097 103.588 47.5851 105.032 46.7321Z" fill="#3D4C66"/>
<path d="M119.955 20.7576H126.267V53.2218H119.955V20.7576Z" fill="#3D4C66"/>
<path d="M132.138 30.6305H138.45V53.2219H132.138V30.6305ZM139.109 23.9772C139.069 26.6124 135.243 29.175 135.243 29.175C135.243 29.175 131.347 26.5435 131.376 23.9772C131.398 22.0063 133.107 20.3112 135.243 20.3112C137.378 20.3112 139.139 22.0063 139.109 23.9772Z" fill="#3D4C66"/>
<path d="M165.927 30.6305L156.739 53.2219H150.225L141.078 30.6305H147.592L153.62 45.9987L159.851 30.6305H165.927Z" fill="#3D4C66"/>
<path d="M189.114 43.7738H172.647C172.945 45.1749 173.645 46.2783 174.749 47.0914C175.854 47.9044 177.231 48.311 178.877 48.311C180.011 48.311 181.017 48.1367 181.893 47.7847C182.769 47.4362 183.587 46.8809 184.342 46.1259L187.7 49.9044C185.649 52.34 182.655 53.5559 178.715 53.5559C176.259 53.5559 174.087 53.0587 172.201 52.0641C170.312 51.0696 168.854 49.6903 167.83 47.9299C166.803 46.1658 166.291 44.1658 166.291 41.9263C166.291 39.7158 166.795 37.7194 167.808 35.9445C168.821 34.1659 170.209 32.783 171.977 31.7885C173.744 30.7939 175.721 30.2967 177.905 30.2967C180.037 30.2967 181.967 30.7722 183.694 31.7231C185.421 32.6741 186.776 34.0389 187.759 35.8175C188.742 37.596 189.236 39.6577 189.236 42.0098C189.236 42.0933 189.195 42.6813 189.114 43.7738ZM174.344 36.5107C173.372 37.3492 172.779 38.4998 172.562 39.9554H183.285C183.068 38.5289 182.475 37.3855 181.503 36.5325C180.531 35.6795 179.345 35.2512 177.942 35.2512C176.517 35.2512 175.316 35.6723 174.344 36.5107Z" fill="#3D4C66"/>
<path d="M202.529 31.1351C203.811 30.5762 205.287 30.2967 206.959 30.2967V36.3438C206.256 36.2893 205.785 36.2603 205.542 36.2603C203.734 36.2603 202.316 36.7866 201.292 37.8356C200.265 38.8846 199.753 40.4599 199.753 42.5579V53.222H193.441V30.6306H199.469V33.6106C200.232 32.5217 201.248 31.6977 202.529 31.1351Z" fill="#3D4C66"/>
</svg>
