<svg width="37" height="37" viewBox="0 0 37 37" fill="none" xmlns="http://www.w3.org/2000/svg">
<path d="M18.5 9.6875C18.8895 9.6875 19.2631 9.84224 19.5386 10.1177C19.814 10.3931 19.9688 10.7667 19.9688 11.1562V17.0312H25.8438C26.2333 17.0312 26.6069 17.186 26.8823 17.4614C27.1578 17.7369 27.3125 18.1105 27.3125 18.5C27.3125 18.8895 27.1578 19.2631 26.8823 19.5386C26.6069 19.814 26.2333 19.9688 25.8438 19.9688H19.9688V25.8438C19.9688 26.2333 19.814 26.6069 19.5386 26.8823C19.2631 27.1578 18.8895 27.3125 18.5 27.3125C18.1105 27.3125 17.7369 27.1578 17.4614 26.8823C17.186 26.6069 17.0312 26.2333 17.0312 25.8438V19.9688H11.1562C10.7667 19.9688 10.3931 19.814 10.1177 19.5386C9.84224 19.2631 9.6875 18.8895 9.6875 18.5C9.6875 18.1105 9.84224 17.7369 10.1177 17.4614C10.3931 17.186 10.7667 17.0312 11.1562 17.0312H17.0312V11.1562C17.0312 10.7667 17.186 10.3931 17.4614 10.1177C17.7369 9.84224 18.1105 9.6875 18.5 9.6875Z" fill="#2797E8"/>
<path d="M0.875 18.5C0.875 16.1855 1.33088 13.8936 2.21662 11.7552C3.10236 9.61684 4.40061 7.67388 6.03724 6.03724C7.67388 4.40061 9.61684 3.10236 11.7552 2.21662C13.8936 1.33088 16.1855 0.875 18.5 0.875C20.8145 0.875 23.1064 1.33088 25.2448 2.21662C27.3832 3.10236 29.3261 4.40061 30.9628 6.03724C32.5994 7.67388 33.8976 9.61684 34.7834 11.7552C35.6691 13.8936 36.125 16.1855 36.125 18.5C36.125 23.1744 34.2681 27.6574 30.9628 30.9628C27.6574 34.2681 23.1744 36.125 18.5 36.125C13.8256 36.125 9.34257 34.2681 6.03724 30.9628C2.73191 27.6574 0.875 23.1744 0.875 18.5ZM18.5 3.8125C14.6046 3.8125 10.8688 5.35993 8.11437 8.11437C5.35993 10.8688 3.8125 14.6046 3.8125 18.5C3.8125 22.3954 5.35993 26.1312 8.11437 28.8856C10.8688 31.6401 14.6046 33.1875 18.5 33.1875C22.3954 33.1875 26.1312 31.6401 28.8856 28.8856C31.6401 26.1312 33.1875 22.3954 33.1875 18.5C33.1875 14.6046 31.6401 10.8688 28.8856 8.11437C26.1312 5.35993 22.3954 3.8125 18.5 3.8125Z" fill="#2797E8"/>
</svg>
