<svg width="42" height="39" viewBox="0 0 42 39" fill="none" xmlns="http://www.w3.org/2000/svg">
<path d="M15.2147 11.5763C15.2147 11.1621 14.8789 10.8263 14.4647 10.8263C14.0505 10.8263 13.7147 11.1621 13.7147 11.5763H15.2147ZM28.2877 11.5763C28.2877 11.1621 27.9519 10.8263 27.5377 10.8263C27.1235 10.8263 26.7877 11.1621 26.7877 11.5763H28.2877ZM13.7148 11.5634C13.7077 11.9776 14.0377 12.3191 14.4519 12.3262C14.866 12.3333 15.2075 12.0034 15.2146 11.5892L13.7148 11.5634ZM15.243 9.94021C15.2501 9.52606 14.9201 9.18455 14.506 9.17743C14.0918 9.17032 13.7503 9.50029 13.7432 9.91444L15.243 9.94021ZM15.1922 11.7588C15.293 11.357 15.049 10.9496 14.6472 10.8489C14.2454 10.7481 13.838 10.9921 13.7373 11.3939L15.1922 11.7588ZM14.0199 13.35L14.7456 13.5395L14.7474 13.5324L14.0199 13.35ZM9.977 17.815L10.2374 18.5184L9.977 17.815ZM4.42861 16.4425C4.08822 16.2065 3.62094 16.2911 3.38491 16.6315C3.14888 16.9718 3.23348 17.4391 3.57386 17.6751L4.42861 16.4425ZM4.75119 17.0665C4.75544 16.6523 4.42311 16.3131 4.00892 16.3089C3.59473 16.3046 3.25552 16.6369 3.25127 17.0511L4.75119 17.0665ZM3.8454 32.2653L4.59535 32.2743L4.59536 32.273L3.8454 32.2653ZM5.48089 36.3163L4.94741 36.8435H4.94741L5.48089 36.3163ZM9.51207 38V37.25H9.51201L9.51207 38ZM15.3346 38.75C15.7488 38.75 16.0846 38.4142 16.0846 38C16.0846 37.5858 15.7488 37.25 15.3346 37.25V38.75ZM3.57199 17.6738C3.91166 17.9109 4.37919 17.8277 4.61626 17.4881C4.85332 17.1484 4.77014 16.6809 4.43047 16.4438L3.57199 17.6738ZM1.39173 9.92732L0.688668 9.66618C0.680332 9.68862 0.673076 9.71144 0.666923 9.73458L1.39173 9.92732ZM3.75757 3.55799L4.46063 3.81914C4.46786 3.79968 4.47428 3.77993 4.47987 3.75993L3.75757 3.55799ZM6.89973 1.16666V0.416653L6.89756 0.41666L6.89973 1.16666ZM35.0999 1.16666L35.1021 0.416656H35.0999V1.16666ZM38.2421 3.55799L37.5198 3.75994C37.5253 3.77989 37.5318 3.79961 37.539 3.81904L38.2421 3.55799ZM40.6079 9.93016L41.3327 9.73749C41.3266 9.71437 41.3193 9.69155 41.311 9.66911L40.6079 9.93016ZM37.5717 16.444C37.2321 16.6813 37.1492 17.1489 37.3865 17.4884C37.6237 17.8279 38.0913 17.9109 38.4308 17.6736L37.5717 16.444ZM14.5846 38C14.5846 38.4142 14.9204 38.75 15.3346 38.75C15.7488 38.75 16.0846 38.4142 16.0846 38H14.5846ZM25.9179 38C25.9179 38.4142 26.2537 38.75 26.6679 38.75C27.0821 38.75 27.4179 38.4142 27.4179 38H25.9179ZM15.3346 37.25C14.9204 37.25 14.5846 37.5858 14.5846 38C14.5846 38.4142 14.9204 38.75 15.3346 38.75V37.25ZM26.6679 38.75C27.0821 38.75 27.4179 38.4142 27.4179 38C27.4179 37.5858 27.0821 37.25 26.6679 37.25V38.75ZM26.7878 11.5853C26.7928 11.9995 27.1326 12.3313 27.5468 12.3263C27.9609 12.3213 28.2927 11.9815 28.2877 11.5673L26.7878 11.5853ZM28.2678 9.9183C28.2629 9.50412 27.9231 9.1724 27.5089 9.17738C27.0947 9.18236 26.763 9.52216 26.768 9.93634L28.2678 9.9183ZM28.2735 11.393C28.1723 10.9914 27.7646 10.7478 27.363 10.8491C26.9613 10.9503 26.7178 11.3579 26.819 11.7596L28.2735 11.393ZM27.9911 13.3415L27.2638 13.5248L27.2653 13.5307L27.9911 13.3415ZM32.0283 17.8064L31.7672 18.5095L32.0283 17.8064ZM38.4276 17.6759C38.7683 17.4404 38.8537 16.9733 38.6183 16.6325C38.3828 16.2917 37.9157 16.2063 37.5749 16.4418L38.4276 17.6759ZM38.7512 17.0516C38.7472 16.6374 38.4082 16.3048 37.994 16.3089C37.5798 16.3129 37.2473 16.6519 37.2513 17.0661L38.7512 17.0516ZM38.1486 32.2653L37.3986 32.2726L37.3986 32.2743L38.1486 32.2653ZM36.5131 36.3163L35.9796 35.7891L36.5131 36.3163ZM32.4819 38L32.482 37.25H32.4819V38ZM26.6679 37.25C26.2537 37.25 25.9179 37.5858 25.9179 38C25.9179 38.4142 26.2537 38.75 26.6679 38.75V37.25ZM13.7147 11.5763C13.7147 15.6005 16.977 18.8628 21.0012 18.8628V17.3628C17.8054 17.3628 15.2147 14.7721 15.2147 11.5763H13.7147ZM21.0012 18.8628C25.0255 18.8628 28.2877 15.6005 28.2877 11.5763H26.7877C26.7877 14.7721 24.197 17.3628 21.0012 17.3628V18.8628ZM15.2146 11.5892L15.243 9.94021L13.7432 9.91444L13.7148 11.5634L15.2146 11.5892ZM13.7373 11.3939L13.2924 13.1675L14.7474 13.5324L15.1922 11.7588L13.7373 11.3939ZM13.2942 13.1605C12.8184 14.9827 11.4828 16.4578 9.71662 17.1117L10.2374 18.5184C12.463 17.6945 14.146 15.8357 14.7456 13.5395L13.2942 13.1605ZM9.71662 17.1117C7.95043 17.7655 5.97625 17.5157 4.42861 16.4425L3.57386 17.6751C5.52408 19.0275 8.01177 19.3423 10.2374 18.5184L9.71662 17.1117ZM3.25127 17.0511L3.09544 32.2576L4.59536 32.273L4.75119 17.0665L3.25127 17.0511ZM3.09545 32.2563C3.07487 33.9714 3.74181 35.6234 4.94741 36.8435L6.01438 35.7891C5.09061 34.8543 4.57958 33.5885 4.59535 32.2743L3.09545 32.2563ZM4.94741 36.8435C6.15301 38.0635 7.79689 38.7501 9.51212 38.75L9.51201 37.25C8.19774 37.2501 6.93815 36.724 6.01438 35.7891L4.94741 36.8435ZM9.51207 38.75H15.3346V37.25H9.51207V38.75ZM4.43047 16.4438C2.40697 15.0315 1.48239 12.5048 2.11654 10.1201L0.666923 9.73458C-0.129234 12.7285 1.03154 15.9008 3.57199 17.6738L4.43047 16.4438ZM2.0948 10.1885L4.46063 3.81914L3.0545 3.29684L0.688668 9.66618L2.0948 10.1885ZM4.47987 3.75993C4.78382 2.67278 5.77306 1.91992 6.90191 1.91665L6.89756 0.41666C5.09746 0.42187 3.51997 1.62241 3.03527 3.35605L4.47987 3.75993ZM6.89973 1.91666H35.0999V0.416656H6.89973V1.91666ZM35.0977 1.91665C36.2266 1.91992 37.2158 2.67278 37.5198 3.75994L38.9644 3.35604C38.4797 1.62241 36.9022 0.42187 35.1021 0.41666L35.0977 1.91665ZM37.539 3.81904L39.9048 10.1912L41.311 9.66911L38.9452 3.29694L37.539 3.81904ZM39.8831 10.1228C40.5166 12.5062 39.5932 15.0315 37.5717 16.444L38.4308 17.6736C40.9688 15.9002 42.1281 12.7298 41.3327 9.73749L39.8831 10.1228ZM16.0846 38V29.5H14.5846V38H16.0846ZM16.0846 29.5C16.0846 28.3494 17.0173 27.4167 18.1679 27.4167V25.9167C16.1889 25.9167 14.5846 27.521 14.5846 29.5H16.0846ZM18.1679 27.4167H23.8346V25.9167H18.1679V27.4167ZM23.8346 27.4167C24.9852 27.4167 25.9179 28.3494 25.9179 29.5H27.4179C27.4179 27.521 25.8136 25.9167 23.8346 25.9167V27.4167ZM25.9179 29.5V38H27.4179V29.5H25.9179ZM15.3346 38.75H26.6679V37.25H15.3346V38.75ZM28.2877 11.5673L28.2678 9.9183L26.768 9.93634L26.7878 11.5853L28.2877 11.5673ZM26.819 11.7596L27.2638 13.5248L28.7183 13.1582L28.2735 11.393L26.819 11.7596ZM27.2653 13.5307C27.8636 15.8255 29.5441 17.6839 31.7672 18.5095L32.2894 17.1033C30.5252 16.4482 29.1916 14.9733 28.7168 13.1523L27.2653 13.5307ZM31.7672 18.5095C33.9903 19.3351 36.4765 19.0239 38.4276 17.6759L37.5749 16.4418C36.0266 17.5116 34.0536 17.7585 32.2894 17.1033L31.7672 18.5095ZM37.2513 17.0661L37.3986 32.2726L38.8985 32.2581L38.7512 17.0516L37.2513 17.0661ZM37.3986 32.2743C37.4144 33.5885 36.9034 34.8543 35.9796 35.7891L37.0466 36.8435C38.2522 35.6234 38.9191 33.9714 38.8985 32.2563L37.3986 32.2743ZM35.9796 35.7891C35.0558 36.724 33.7962 37.2501 32.482 37.25L32.4818 38.75C34.1971 38.7501 35.841 38.0635 37.0466 36.8435L35.9796 35.7891ZM32.4819 37.25H26.6679V38.75H32.4819V37.25Z" fill="white"/>
</svg>
