<svg width="55" height="70" viewBox="0 0 55 70" fill="none" xmlns="http://www.w3.org/2000/svg">
<g opacity="0.2">
<path d="M16.6267 26.9004H0V43.5484H16.6267V26.9004Z" fill="#A568BC"/>
<path d="M49.8755 26.9004H33.2488V43.5484H49.8755V26.9004Z" fill="#A1E663"/>
<path d="M33.2534 10.2524H16.6267V26.9005H33.2534V10.2524Z" fill="#FF8552"/>
<path d="M33.2534 43.5439H16.6267V60.192H33.2534V43.5439Z" fill="#1DB9CA"/>
<path d="M38.3733 21.7694V5.12134C47.5555 5.12134 55 12.5754 55 21.7694H38.3733Z" fill="#FFD026"/>
<path d="M33.2488 60.192V43.5439H49.8755C49.8755 52.7379 42.431 60.192 33.2488 60.192Z" fill="#47D2A5"/>
<path d="M0 26.9005C0 17.7065 7.44452 10.2524 16.6267 10.2524V26.9005H0Z" fill="#FF525F"/>
<path d="M0 43.5439H16.6267V60.192C7.44452 60.192 0 52.7379 0 43.5439Z" fill="#2797E8"/>
</g>
</svg>
