<svg width="102" height="37" viewBox="0 0 102 37" fill="none" xmlns="http://www.w3.org/2000/svg">
<path d="M42.501 25.8552C41.2727 25.1561 40.3104 24.1929 39.6159 22.9639C38.9214 21.7368 38.5723 20.3553 38.5723 18.8232C38.5723 17.2911 38.9195 15.9096 39.6159 14.6825C40.3104 13.4553 41.2727 12.4922 42.501 11.7912C43.7293 11.0921 45.1091 10.7426 46.6403 10.7426C48.1716 10.7426 49.5476 11.0921 50.7686 11.7912C51.9895 12.4903 52.9518 13.4535 53.6537 14.6825C54.3556 15.9096 54.7066 17.2911 54.7066 18.8232C54.7066 20.3553 54.3556 21.7368 53.6537 22.9639C52.9518 24.1911 51.9895 25.1561 50.7686 25.8552C49.5476 26.5543 48.1697 26.9038 46.6403 26.9038C45.1109 26.9038 43.7312 26.5543 42.501 25.8552ZM49.0729 23.3209C49.797 22.884 50.3641 22.2741 50.7778 21.4913C51.1897 20.7086 51.3966 19.8198 51.3966 18.8232C51.3966 17.8266 51.1897 16.936 50.7778 16.1551C50.3659 15.3723 49.797 14.7624 49.0729 14.3255C48.3489 13.8885 47.538 13.6691 46.6403 13.6691C45.7427 13.6691 44.9318 13.8885 44.2096 14.3255C43.4855 14.7624 42.9185 15.3723 42.5047 16.1551C42.091 16.9378 41.8859 17.8266 41.8859 18.8232C41.8859 19.8198 42.0928 20.7104 42.5047 21.4913C42.9166 22.2741 43.4855 22.884 44.2096 23.3209C44.9336 23.7579 45.7445 23.9773 46.6403 23.9773C47.538 23.9754 48.3489 23.7579 49.0729 23.3209Z" fill="white"/>
<path d="M56.5586 10.0156H59.7245V26.6455H56.5586V10.0156Z" fill="white"/>
<path d="M62.6695 15.0729H65.8354V26.6454H62.6695V15.0729ZM66.1661 11.6648C66.1458 13.0147 64.2266 14.3273 64.2266 14.3273C64.2266 14.3273 62.2724 12.9793 62.2872 11.6648C62.2983 10.6552 63.1553 9.78687 64.2266 9.78687C65.2979 9.78687 66.1808 10.6552 66.1661 11.6648Z" fill="white"/>
<path d="M79.6184 15.073L75.0099 26.6455H71.7425L67.1543 15.073H70.4218L73.4455 22.9454L76.5707 15.073H79.6184Z" fill="white"/>
<path d="M91.249 21.8055H82.9888C83.1385 22.5232 83.4894 23.0885 84.0435 23.505C84.5977 23.9215 85.2885 24.1297 86.1141 24.1297C86.683 24.1297 87.1873 24.0405 87.6269 23.8601C88.0665 23.6816 88.4765 23.3971 88.8552 23.0104L90.5397 24.9459C89.5109 26.1936 88.0092 26.8164 86.0328 26.8164C84.8008 26.8164 83.7111 26.5617 82.7653 26.0522C81.8178 25.5428 81.0864 24.8362 80.5729 23.9345C80.0575 23.0308 79.8008 22.0063 79.8008 20.8591C79.8008 19.7268 80.0538 18.7042 80.5618 17.795C81.0697 16.8839 81.7661 16.1755 82.6527 15.666C83.5393 15.1566 84.5312 14.9019 85.6265 14.9019C86.6959 14.9019 87.6638 15.1454 88.5301 15.6326C89.3964 16.1197 90.0761 16.8188 90.5693 17.7299C91.0624 18.641 91.31 19.6971 91.31 20.9019C91.31 20.9447 91.2896 21.2459 91.249 21.8055ZM83.8404 18.085C83.3527 18.5145 83.0553 19.1039 82.9464 19.8495H88.3251C88.2161 19.1188 87.9187 18.5331 87.4311 18.0962C86.9435 17.6592 86.3487 17.4398 85.645 17.4398C84.9301 17.4398 84.328 17.6555 83.8404 18.085Z" fill="white"/>
<path d="M97.9785 15.3314C98.6213 15.045 99.362 14.9019 100.201 14.9019V17.9995C99.8478 17.9716 99.6113 17.9567 99.4894 17.9567C98.5825 17.9567 97.8714 18.2263 97.3579 18.7637C96.8426 19.301 96.5858 20.108 96.5858 21.1827V26.6454H93.4199V15.0729H96.4436V16.5994C96.8259 16.0416 97.3357 15.6196 97.9785 15.3314Z" fill="white"/>
<path d="M10.2255 13.5223H0V23.8156H10.2255V13.5223Z" fill="#A568BC"/>
<path d="M30.6786 13.5223H20.4531V23.8156H30.6786V13.5223Z" fill="#A1E663"/>
<path d="M20.4501 3.229H10.2246V13.5222H20.4501V3.229Z" fill="#FF8552"/>
<path d="M20.3837 23.8546H10.1582V34.1479H20.3837V23.8546Z" fill="#1DB9CA"/>
<path d="M23.6035 10.3484V0.0551758C29.2519 0.0551758 33.829 4.66445 33.829 10.3484H23.6035Z" fill="#FFD026"/>
<path d="M20.4531 34.1106V23.8174H30.6786C30.6786 29.5014 26.1015 34.1106 20.4531 34.1106Z" fill="#47D2A5"/>
<path d="M0 13.5222C0 7.83642 4.57892 3.229 10.2255 3.229V13.5222H0Z" fill="#FF525F"/>
<path d="M0 23.8156H10.2255V34.1088C4.57892 34.1107 0 29.5014 0 23.8156Z" fill="#2797E8"/>
</svg>
