<svg width="95" height="33" viewBox="0 0 95 33" fill="none" xmlns="http://www.w3.org/2000/svg">
<path d="M39.5847 23.6501C38.4407 23.0093 37.5444 22.1264 36.8975 20.9998C36.2507 19.8749 35.9255 18.6085 35.9255 17.2041C35.9255 15.7997 36.249 14.5334 36.8975 13.4085C37.5444 12.2836 38.4407 11.4007 39.5847 10.7581C40.7287 10.1173 42.0138 9.79688 43.4399 9.79688C44.8661 9.79688 46.1477 10.1173 47.2848 10.7581C48.422 11.399 49.3183 12.2819 49.972 13.4085C50.6257 14.5334 50.9526 15.7997 50.9526 17.2041C50.9526 18.6085 50.6257 19.8749 49.972 20.9998C49.3183 22.1247 48.422 23.0093 47.2848 23.6501C46.1477 24.291 44.8643 24.6114 43.4399 24.6114C42.0155 24.6114 40.7304 24.291 39.5847 23.6501ZM45.7056 21.327C46.38 20.9265 46.9081 20.3675 47.2934 19.6499C47.6771 18.9324 47.8698 18.1177 47.8698 17.2041C47.8698 16.2906 47.6771 15.4742 47.2934 14.7583C46.9098 14.0408 46.38 13.4818 45.7056 13.0812C45.0312 12.6807 44.276 12.4796 43.4399 12.4796C42.6038 12.4796 41.8486 12.6807 41.176 13.0812C40.5016 13.4818 39.9735 14.0408 39.5881 14.7583C39.2028 15.4759 39.0118 16.2906 39.0118 17.2041C39.0118 18.1177 39.2045 18.9341 39.5881 19.6499C39.9717 20.3675 40.5016 20.9265 41.176 21.327C41.8503 21.7276 42.6056 21.9287 43.4399 21.9287C44.276 21.927 45.0312 21.7276 45.7056 21.327Z" fill="#3D4C66"/>
<path d="M52.678 9.13037H55.6266V24.3744H52.678V9.13037Z" fill="#3D4C66"/>
<path d="M58.3689 13.7663H61.3175V24.3744H58.3689V13.7663ZM61.6255 10.6422C61.6065 11.8796 59.8191 13.0829 59.8191 13.0829C59.8191 13.0829 57.999 11.8472 58.0128 10.6422C58.0231 9.71672 58.8213 8.92078 59.8191 8.92078C60.8169 8.92078 61.6392 9.71672 61.6255 10.6422Z" fill="#3D4C66"/>
<path d="M74.1546 13.7664L69.8624 24.3744H66.8192L62.5459 13.7664H65.5892L68.4053 20.9827L71.3161 13.7664H74.1546Z" fill="#3D4C66"/>
<path d="M84.9875 19.9379H77.2942C77.4336 20.5958 77.7604 21.1139 78.2765 21.4957C78.7926 21.8775 79.436 22.0684 80.205 22.0684C80.7349 22.0684 81.2045 21.9865 81.614 21.8212C82.0234 21.6576 82.4053 21.3968 82.758 21.0423L84.3269 22.8166C83.3687 23.9602 81.9701 24.5312 80.1293 24.5312C78.9819 24.5312 77.9669 24.2977 77.0861 23.8307C76.2035 23.3637 75.5223 22.716 75.044 21.8894C74.5641 21.0611 74.325 20.1219 74.325 19.0703C74.325 18.0324 74.5606 17.095 75.0337 16.2615C75.5068 15.4264 76.1554 14.777 76.9811 14.31C77.8069 13.843 78.7307 13.6095 79.7508 13.6095C80.7469 13.6095 81.6484 13.8328 82.4552 14.2793C83.262 14.7259 83.8951 15.3667 84.3544 16.2019C84.8138 17.037 85.0443 18.0051 85.0443 19.1095C85.0443 19.1487 85.0254 19.4249 84.9875 19.9379ZM78.0873 16.5274C77.6331 16.9211 77.3562 17.4614 77.2547 18.1449H82.2642C82.1627 17.475 81.8858 16.9382 81.4316 16.5376C80.9774 16.1371 80.4235 15.936 79.768 15.936C79.1023 15.936 78.5415 16.1337 78.0873 16.5274Z" fill="#3D4C66"/>
<path d="M91.2545 14.0032C91.8532 13.7407 92.5431 13.6095 93.3241 13.6095V16.449C92.9955 16.4234 92.7753 16.4098 92.6618 16.4098C91.8171 16.4098 91.1548 16.6569 90.6765 17.1495C90.1965 17.6421 89.9574 18.3818 89.9574 19.3669V24.3744H87.0088V13.7663H89.825V15.1656C90.1811 14.6543 90.6559 14.2674 91.2545 14.0032Z" fill="#3D4C66"/>
<path d="M9.52372 12.3448H0V21.7803H9.52372V12.3448Z" fill="#A568BC"/>
<path d="M28.5728 12.3448H19.0491V21.7803H28.5728V12.3448Z" fill="#A1E663"/>
<path d="M19.0474 2.90942H9.52368V12.3449H19.0474V2.90942Z" fill="#FF8552"/>
<path d="M18.9854 21.8162H9.46167V31.2516H18.9854V21.8162Z" fill="#1DB9CA"/>
<path d="M21.9841 9.43547V0C27.2449 0 31.5078 4.22517 31.5078 9.43547H21.9841Z" fill="#FFD026"/>
<path d="M19.0491 31.2175V21.782H28.5728C28.5728 26.9923 24.3098 31.2175 19.0491 31.2175Z" fill="#47D2A5"/>
<path d="M0 12.3449C0 7.13289 4.26468 2.90942 9.52372 2.90942V12.3449H0Z" fill="#FF525F"/>
<path d="M0 21.7804H9.52372V31.2159C4.26468 31.2176 0 26.9924 0 21.7804Z" fill="#2797E8"/>
</svg>
