<svg width="38" height="38" viewBox="0 0 38 38" fill="none" xmlns="http://www.w3.org/2000/svg">
<g clip-path="url(#clip0)">
<path d="M24.7671 10.193V3.04001C28.7174 3.04001 31.9201 6.2427 31.9201 10.193H24.7671Z" fill="white"/>
<path d="M22.5627 4.58783H15.4097V11.7409H22.5627V4.58783Z" fill="white"/>
<path d="M7.6001 11.7402C7.6001 7.78981 10.8028 4.58713 14.7531 4.58713V11.7402H7.6001Z" fill="white"/>
<path d="M14.7531 12.3975H7.6001V19.5505H14.7531V12.3975Z" fill="white"/>
<path d="M7.6001 20.2078H14.7531V27.3602C10.8021 27.3609 7.6001 24.1582 7.6001 20.2078Z" fill="white"/>
<path d="M22.5627 20.2078H15.4097V27.3602H22.5627V20.2078Z" fill="white"/>
<path d="M23.2207 27.3609V20.2078H30.3737C30.3731 24.1582 27.1711 27.3609 23.2207 27.3609Z" fill="white"/>
<path d="M30.3737 12.3975H23.2207V19.5505H30.3737V12.3975Z" fill="white"/>
<path d="M13.5611 31.689V38H12.7312V33.2941L10.6336 38H10.0499L7.9432 33.285V38H7.11328V31.689H8.00704L10.3418 36.9056L12.6765 31.689H13.5611Z" fill="white"/>
<path d="M19.5286 35.3096C19.5286 35.4677 19.5195 35.6349 19.5012 35.8112H15.5067C15.5371 36.3037 15.7043 36.6898 16.0083 36.9694C16.3184 37.243 16.6923 37.3798 17.13 37.3798C17.4888 37.3798 17.7867 37.2978 18.0238 37.1336C18.267 36.9634 18.4372 36.7384 18.5345 36.4587H19.4283C19.2945 36.939 19.027 37.3312 18.6257 37.6352C18.2244 37.9331 17.7259 38.0821 17.13 38.0821C16.6558 38.0821 16.2302 37.9757 15.8532 37.7629C15.4824 37.5501 15.1905 37.2491 14.9777 36.86C14.7649 36.4648 14.6585 36.0088 14.6585 35.492C14.6585 34.9752 14.7619 34.5222 14.9686 34.1331C15.1753 33.744 15.4641 33.4461 15.835 33.2394C16.212 33.0266 16.6436 32.9202 17.13 32.9202C17.6043 32.9202 18.0238 33.0235 18.3886 33.2302C18.7534 33.437 19.0331 33.7227 19.2276 34.0875C19.4283 34.4462 19.5286 34.8536 19.5286 35.3096ZM18.6713 35.1363C18.6713 34.8202 18.6014 34.5496 18.4616 34.3246C18.3217 34.0936 18.1302 33.9203 17.887 33.8048C17.6499 33.6832 17.3854 33.6224 17.0936 33.6224C16.674 33.6224 16.3153 33.7562 16.0174 34.0237C15.7256 34.2912 15.5584 34.6621 15.5158 35.1363H18.6713Z" fill="white"/>
<path d="M23.0591 32.911C23.6671 32.911 24.1596 33.0965 24.5365 33.4674C24.9135 33.8322 25.102 34.3611 25.102 35.0542V38H24.2812V35.1728C24.2812 34.6742 24.1565 34.2942 23.9073 34.0328C23.658 33.7653 23.3175 33.6315 22.8858 33.6315C22.4481 33.6315 22.0985 33.7683 21.837 34.0419C21.5817 34.3155 21.454 34.7138 21.454 35.2366V38H20.6241V33.0022H21.454V33.7136C21.6181 33.4582 21.8401 33.2606 22.1197 33.1208C22.4055 32.981 22.7186 32.911 23.0591 32.911Z" fill="white"/>
<path d="M30.89 33.0022V38H30.0601V37.2613C29.902 37.5166 29.6801 37.7173 29.3943 37.8632C29.1146 38.003 28.8045 38.073 28.4641 38.073C28.0749 38.073 27.7253 37.9939 27.4153 37.8358C27.1052 37.6717 26.8589 37.4285 26.6765 37.1062C26.5002 36.784 26.4121 36.3918 26.4121 35.9298V33.0022H27.2329V35.8203C27.2329 36.3128 27.3575 36.6928 27.6068 36.9603C27.8561 37.2218 28.1965 37.3525 28.6282 37.3525C29.0721 37.3525 29.4217 37.2157 29.677 36.9421C29.9324 36.6685 30.0601 36.2702 30.0601 35.7474V33.0022H30.89Z" fill="white"/>
</g>
<defs>
<clipPath id="clip0">
<rect width="38" height="38" fill="white"/>
</clipPath>
</defs>
</svg>
