<svg width="391" height="394" viewBox="0 0 391 394" fill="none" xmlns="http://www.w3.org/2000/svg">
<g opacity="0.15">
<path d="M63.0645 186.033H-79V327.57H63.0645V186.033Z" fill="#A568BC"/>
<path d="M347.218 186.033H205.153V327.57H347.218V186.033Z" fill="#A1E663"/>
<path d="M205.127 44.4959H63.0625V186.033H205.127V44.4959Z" fill="#FF8552"/>
<path d="M204.207 328.106H62.1426V469.643H204.207V328.106Z" fill="#1DB9CA"/>
<path d="M248.936 142.39V0.853516C327.41 0.853516 391 64.2332 391 142.39H248.936Z" fill="#FFD026"/>
<path d="M204.207 469.132V327.595H346.272C346.272 405.752 282.681 469.132 204.207 469.132Z" fill="#47D2A5"/>
<path d="M-79 186.033C-79 107.85 -15.3841 44.4959 63.0645 44.4959V186.033H-79Z" fill="#FF525F"/>
<path d="M-79 327.57H63.0645V469.107C-15.3841 469.132 -79 405.752 -79 327.57Z" fill="#2797E8"/>
</g>
</svg>
