<?xml version="1.0" encoding="utf-8"?>
<!-- Generator: Adobe Illustrator 21.1.0, SVG Export Plug-In . SVG Version: 6.00 Build 0)  -->
<svg version="1.1" id="Layer_1" xmlns="http://www.w3.org/2000/svg" xmlns:xlink="http://www.w3.org/1999/xlink" x="0px" y="0px"
	 viewBox="0 0 50 50" style="enable-background:new 0 0 50 50;" xml:space="preserve">
<style type="text/css">
	.st0{fill:#46A9D4;}
</style>
<g id="surface1">
	<path class="st0" d="M34.3,2.1l-0.6,0.8l-8.9,12.8L17,18l0,0h0c-1,0.4-1.8,1-2.3,1.8l0,0v0L7.8,30.4l-0.3-0.8l-6.6,2l-0.9,0.3
		l0.3,0.9l4.5,15.1l0.3,1l1-0.3l5.6-1.7l1-0.3l-0.3-0.9l-0.6-1.9l7.8-1.8c2.4-0.5,4.6-1.8,6.2-3.8l0.4-0.5l3.8,2.7l0.8,0.6l0.6-0.8
		l18.1-26.2l0.6-0.8l-0.8-0.6L35.1,2.7L34.3,2.1z M34.8,4.9l12.5,8.7l-7.2,10.3c0.9-2.9-0.5-6.4-3.5-8.5c0,0,0,0,0,0c0,0,0,0,0,0
		c-1.7-1.2-3.8-1.7-5.7-1.6c-1.1,0.1-2.1,0.4-3,1L34.8,4.9z M38.9,10.8c-0.5,0-1.1,0.3-1.4,0.8c-0.5,0.8-0.3,1.8,0.4,2.3
		s1.8,0.3,2.4-0.4c0.5-0.8,0.3-1.8-0.4-2.3C39.6,10.9,39.3,10.8,38.9,10.8z M31.1,15.8c1.4-0.1,2.9,0.3,4.3,1.2l0,0
		c2.8,1.9,3.7,5.3,2.3,7.3h0c-0.7,1.1-1.9,1.7-3.4,1.8c0.1-1.1-0.4-2.3-1.3-3.1c0,0,0,0,0,0c-1.4-1.3-3.5-1.6-5.1-0.5
		c-1-1.7-1-3.6-0.1-4.9C28.5,16.5,29.7,15.9,31.1,15.8z M23,18.3l-4.8,7.5l-0.5,0.9l0.9,0.5l3.2,1.9l0.6,0.4l0.6-0.5L28,25
		c0.3-0.1,0.5-0.3,0.6-0.5l0.3-0.2c0.8-0.7,2-0.6,2.8,0.1v0h0c0.8,0.8,0.9,1.9,0.2,2.8l-7.6,9.6c-1.3,1.6-3,2.7-5,3.2l-8,1.8
		l-2.8-9.4l0.3-0.1l0.3-0.1l0.2-0.3l7-10.8c0.4-0.6,0.8-0.9,1.4-1.1c0,0,0,0,0.1,0L23,18.3z M25.3,18.5c-0.4,1.7,0,3.6,1,5.3
		l-4.1,3.3l-1.7-1L25.3,18.5z M38.1,26.8l-7.8,11.3l-2.9-2l6-7.6v0h0c0.1-0.1,0.2-0.2,0.3-0.4C35.3,28.2,36.8,27.8,38.1,26.8z
		 M6.2,32l3.9,13.2l-3.7,1.1L2.5,33.2L6.2,32z"/>
</g>
</svg>
