<?xml version="1.0" encoding="utf-8"?>
<!-- Generator: Adobe Illustrator 21.1.0, SVG Export Plug-In . SVG Version: 6.00 Build 0)  -->
<svg version="1.1" id="Layer_1" xmlns="http://www.w3.org/2000/svg" xmlns:xlink="http://www.w3.org/1999/xlink" x="0px" y="0px"
	 viewBox="0 0 36 36" enable-background="new 0 0 36 36" xml:space="preserve">
<path fill="#2797E8" d="M34.2,11.4c-0.9-2.1-2.2-4.1-3.8-5.7c-1.6-1.6-3.6-2.9-5.7-3.8c-2.1-0.9-4.4-1.3-6.7-1.3
	c-2.3,0-4.6,0.5-6.7,1.3c-2.1,0.9-4,2.2-5.7,3.8C4,7.4,2.7,9.3,1.8,11.4c-0.9,2.1-1.3,4.4-1.3,6.7c0,2.3,0.4,4.6,1.3,6.7
	C2.7,27,4,28.9,5.7,30.5c1.6,1.6,3.5,2.9,5.7,3.8c2.1,0.9,4.4,1.3,6.7,1.3c2.3,0,4.6-0.5,6.7-1.3c2.1-0.9,4.1-2.2,5.7-3.8
	c1.6-1.6,2.9-3.6,3.8-5.7c0.9-2.1,1.3-4.4,1.3-6.7C35.5,15.8,35.1,13.6,34.2,11.4z M25,19.4h-5.8v6.3c0,0.7-0.6,1.3-1.3,1.3
	s-1.3-0.6-1.3-1.3v-6.3H11c-0.7,0-1.3-0.6-1.3-1.3s0.6-1.3,1.3-1.3h5.8v-6.3c0-0.7,0.6-1.3,1.3-1.3s1.3,0.6,1.3,1.3v6.3H25
	c0.7,0,1.3,0.6,1.3,1.3S25.7,19.4,25,19.4z"/>
<path fill="none" stroke="#FFFFFF" stroke-width="1.0681" stroke-linecap="round" stroke-linejoin="round" stroke-miterlimit="10" d="
	M23.6,2.8c-1.7-0.6-3.6-1-5.6-1C9,1.8,1.7,9.1,1.7,18.1S9,34.4,18,34.4s16.3-7.3,16.3-16.3c0-4.8-2.1-9.1-5.3-12.1 M26.3,4.1
	c-0.3-0.2-0.7-0.4-1.1-0.6L26.3,4.1z M27.9,5.2c-0.2-0.1-0.4-0.3-0.5-0.4L27.9,5.2z"/>
<path fill="none" stroke="#2797E8" stroke-miterlimit="10" d="M26.3,18.1c0,0.7-0.6,1.3-1.3,1.3h-5.8v6.3c0,0.7-0.6,1.3-1.3,1.3
	s-1.3-0.6-1.3-1.3v-6.3H11c-0.7,0-1.3-0.6-1.3-1.3s0.6-1.3,1.3-1.3h5.8v-6.3c0-0.7,0.6-1.3,1.3-1.3s1.3,0.6,1.3,1.3v6.3H25
	C25.7,16.9,26.3,17.4,26.3,18.1z"/>
</svg>
