<svg xmlns="http://www.w3.org/2000/svg" xmlns:xlink="http://www.w3.org/1999/xlink" width="27" height="27" viewBox="0 0 27 27"><defs><path id="6xm9a" d="M1256 175.5a3.5 3.5 0 1 1 7 0 3.5 3.5 0 0 1-7 0z"/><path id="6xm9b" d="M1265 175.5a3.5 3.5 0 1 1 7 0 3.5 3.5 0 0 1-7 0z"/><path id="6xm9c" d="M1274 175.5a3.5 3.5 0 1 1 7 0 3.5 3.5 0 0 1-7 0z"/><path id="6xm9d" d="M1256 184.5a3.5 3.5 0 1 1 7 0 3.5 3.5 0 0 1-7 0z"/><path id="6xm9e" d="M1265 184.5a3.5 3.5 0 1 1 7 0 3.5 3.5 0 0 1-7 0z"/><path id="6xm9f" d="M1274 184.5a3.5 3.5 0 1 1 7 0 3.5 3.5 0 0 1-7 0z"/><path id="6xm9g" d="M1256 193.5a3.5 3.5 0 1 1 7 0 3.5 3.5 0 0 1-7 0z"/><path id="6xm9h" d="M1265 193.5a3.5 3.5 0 1 1 7 0 3.5 3.5 0 0 1-7 0z"/><path id="6xm9i" d="M1274 193.5a3.5 3.5 0 1 1 7 0 3.5 3.5 0 0 1-7 0z"/></defs><g><g transform="translate(-1255 -171)"><g><use fill="#fff" fill-opacity="0" stroke="#979797" stroke-miterlimit="50" xlink:href="#6xm9a"/></g><g><use fill="#fff" fill-opacity="0" stroke="#979797" stroke-miterlimit="50" xlink:href="#6xm9b"/></g><g><use fill="#fff" fill-opacity="0" stroke="#979797" stroke-miterlimit="50" xlink:href="#6xm9c"/></g><g><use fill="#fff" fill-opacity="0" stroke="#979797" stroke-miterlimit="50" xlink:href="#6xm9d"/></g><g><use fill="#fff" fill-opacity="0" stroke="#979797" stroke-miterlimit="50" xlink:href="#6xm9e"/></g><g><use fill="#fff" fill-opacity="0" stroke="#979797" stroke-miterlimit="50" xlink:href="#6xm9f"/></g><g><use fill="#fff" fill-opacity="0" stroke="#979797" stroke-miterlimit="50" xlink:href="#6xm9g"/></g><g><use fill="#fff" fill-opacity="0" stroke="#979797" stroke-miterlimit="50" xlink:href="#6xm9h"/></g><g><use fill="#fff" fill-opacity="0" stroke="#979797" stroke-miterlimit="50" xlink:href="#6xm9i"/></g></g></g></svg>