<svg xmlns="http://www.w3.org/2000/svg" xmlns:xlink="http://www.w3.org/1999/xlink" width="25" height="25" viewBox="0 0 25 25"><defs><path id="2l8pa" d="M1256 169.38a3.5 3.5 0 1 1 7 0 3.5 3.5 0 0 1-7 0z"/><path id="2l8pb" d="M1265 169.38a3.5 3.5 0 1 1 7 0 3.5 3.5 0 0 1-7 0z"/><path id="2l8pc" d="M1274 169.38a3.5 3.5 0 1 1 7 0 3.5 3.5 0 0 1-7 0z"/><path id="2l8pd" d="M1256 178.38a3.5 3.5 0 1 1 7 0 3.5 3.5 0 0 1-7 0z"/><path id="2l8pe" d="M1265 178.38a3.5 3.5 0 1 1 7 0 3.5 3.5 0 0 1-7 0z"/><path id="2l8pf" d="M1274 178.38a3.5 3.5 0 1 1 7 0 3.5 3.5 0 0 1-7 0z"/><path id="2l8pg" d="M1256 187.38a3.5 3.5 0 1 1 7 0 3.5 3.5 0 0 1-7 0z"/><path id="2l8ph" d="M1265 187.38a3.5 3.5 0 1 1 7 0 3.5 3.5 0 0 1-7 0z"/><path id="2l8pi" d="M1274 187.38a3.5 3.5 0 1 1 7 0 3.5 3.5 0 0 1-7 0z"/></defs><g><g transform="translate(-1256 -166)"><g><use fill="#46a9d4" xlink:href="#2l8pa"/></g><g><use fill="#46a9d4" xlink:href="#2l8pb"/></g><g><use fill="#46a9d4" xlink:href="#2l8pc"/></g><g><use fill="#46a9d4" xlink:href="#2l8pd"/></g><g><use fill="#46a9d4" xlink:href="#2l8pe"/></g><g><use fill="#46a9d4" xlink:href="#2l8pf"/></g><g><use fill="#46a9d4" xlink:href="#2l8pg"/></g><g><use fill="#46a9d4" xlink:href="#2l8ph"/></g><g><use fill="#46a9d4" xlink:href="#2l8pi"/></g></g></g></svg>