<svg width="140" height="140" viewBox="0 0 140 140" fill="none" xmlns="http://www.w3.org/2000/svg">
<path d="M70 21C63.5652 21 57.1935 22.2674 51.2485 24.7299C45.3036 27.1924 39.9018 30.8017 35.3518 35.3518C30.8017 39.9018 27.1924 45.3036 24.7299 51.2485C22.2674 57.1935 21 63.5652 21 70C21 76.4348 22.2674 82.8065 24.7299 88.7515C27.1924 94.6964 30.8017 100.098 35.3518 104.648C39.9018 109.198 45.3036 112.808 51.2485 115.27C57.1935 117.733 63.5652 119 70 119C76.4348 119 82.8065 117.733 88.7515 115.27C94.6964 112.808 100.098 109.198 104.648 104.648C109.198 100.098 112.808 94.6964 115.27 88.7515C117.733 82.8065 119 76.4348 119 70C119 63.5652 117.733 57.1935 115.27 51.2485C112.808 45.3036 109.198 39.9018 104.648 35.3518C100.098 30.8017 94.6964 27.1924 88.7515 24.7299C82.8065 22.2674 76.4348 21 70 21Z" fill="#2797E8"/>
<path d="M66.5 86.1001C65.8266 86.1001 65.1504 85.8579 64.6156 85.3707L47.8156 68.5707C46.6718 67.5319 46.5878 65.7595 47.628 64.6157C48.6682 63.4747 50.4378 63.3865 51.583 64.4281L66.4622 79.4823L91.1764 54.6631C92.2992 53.6019 94.0702 53.6495 95.1342 54.7765C96.1968 55.9007 96.1464 57.6717 95.0208 58.7343L68.4208 85.3343C67.8832 85.8439 67.1916 86.1001 66.5 86.1001Z" fill="white"/>
<path d="M66.5 86.8C65.6264 86.8 64.7892 86.4766 64.1438 85.8886L47.3214 69.0662C46.6536 68.4614 46.2476 67.6004 46.2042 66.6666C46.1608 65.7328 46.4814 64.8368 47.11 64.1452C48.412 62.7186 50.6296 62.6164 52.0534 63.9114L66.4636 78.4896L90.6808 54.1702C91.378 53.5136 92.288 53.1958 93.198 53.2C94.1332 53.2266 95.0012 53.6158 95.6438 54.2962C96.2864 54.9752 96.6252 55.8642 96.5986 56.7994C96.572 57.7332 96.1828 58.6026 95.5024 59.2452L68.9178 85.8312C68.25 86.4612 67.3974 86.8 66.5 86.8ZM49.7126 64.3986C49.14 64.3986 48.5646 64.6296 48.146 65.0888C47.7694 65.5032 47.5762 66.0408 47.6028 66.6008C47.6294 67.1608 47.8716 67.6774 48.286 68.054L65.1112 84.8778C65.8476 85.5456 67.1678 85.5554 67.942 84.8274L94.5266 58.2414C94.9494 57.8424 95.1832 57.3216 95.1986 56.7602C95.214 56.2002 95.011 55.6668 94.626 55.2594C94.241 54.8506 93.7188 54.6182 93.1574 54.6014C92.6086 54.5748 92.0654 54.7876 91.658 55.174L66.9592 79.9764C66.8276 80.108 66.6484 80.1822 66.4636 80.1822H66.4622C66.276 80.1822 66.0968 80.1066 65.9666 79.975L51.086 64.9208C50.701 64.5722 50.2082 64.3986 49.7126 64.3986Z" fill="white"/>
<path d="M91.7 33.9178C91.5782 33.9178 91.455 33.887 91.343 33.8198C90.4498 33.292 89.5244 32.7908 88.5892 32.3288C88.2434 32.1566 88.1006 31.738 88.2714 31.3908C88.4422 31.0422 88.865 30.905 89.2094 31.073C90.174 31.5504 91.133 32.0684 92.0556 32.6158C92.3874 32.8132 92.498 33.2416 92.302 33.5748C92.1718 33.7946 91.9394 33.9178 91.7 33.9178ZM95.9 36.75C95.7516 36.75 95.6018 36.7024 95.4744 36.6058C95.0236 36.26 94.5644 35.9254 94.0982 35.5978C93.7818 35.3752 93.7048 34.9398 93.9274 34.6234C94.1486 34.3042 94.584 34.2314 94.9018 34.4512C95.3848 34.7886 95.858 35.1372 96.3256 35.4942C96.6336 35.728 96.691 36.1676 96.4572 36.4756C96.3186 36.6548 96.11 36.75 95.9 36.75Z" fill="white"/>
<path d="M70 113.4C46.0684 113.4 26.6 93.9302 26.6 70C26.6 46.0698 46.0684 26.6 70 26.6C75.1352 26.6 80.1626 27.489 84.9408 29.2404C85.3048 29.3734 85.491 29.7752 85.358 30.1392C85.225 30.5032 84.8204 30.6894 84.4592 30.555C79.835 28.8596 74.9714 28 70 28C46.8412 28 28 46.8412 28 70C28 93.1588 46.8412 112 70 112C93.1588 112 112 93.1588 112 70C112 58.1854 106.981 46.851 98.2296 38.9018C97.9426 38.6414 97.9216 38.199 98.182 37.912C98.4438 37.6264 98.8848 37.6054 99.1704 37.8644C108.214 46.0796 113.4 57.792 113.4 70C113.4 93.9302 93.9316 113.4 70 113.4Z" fill="white"/>
</svg>
