<?xml version="1.0" encoding="utf-8"?>
<!-- Generator: Adobe Illustrator 16.0.0, SVG Export Plug-In . SVG Version: 6.00 Build 0)  -->
<!DOCTYPE svg PUBLIC "-//W3C//DTD SVG 1.1//EN" "http://www.w3.org/Graphics/SVG/1.1/DTD/svg11.dtd">
<svg version="1.1" id="Layer_1" xmlns="http://www.w3.org/2000/svg" xmlns:xlink="http://www.w3.org/1999/xlink" x="0px" y="0px"
	 width="36px" height="36px" viewBox="7 7 36 36" enable-background="new 7 7 36 36" xml:space="preserve">
<path fill="#FF525F" d="M25,7.5c-2.298,0-4.574,0.453-6.697,1.332C16.18,9.711,14.25,11,12.625,12.625s-2.914,3.554-3.793,5.678
	C7.953,20.426,7.5,22.702,7.5,25s0.453,4.574,1.332,6.697S11,35.75,12.625,37.375s3.554,2.914,5.678,3.793
	C20.426,42.047,22.702,42.5,25,42.5s4.574-0.453,6.697-1.332S35.75,39,37.375,37.375s2.914-3.555,3.793-5.678S42.5,27.298,42.5,25
	s-0.453-4.574-1.332-6.697C40.289,16.18,39,14.25,37.375,12.625s-3.555-2.914-5.678-3.793S27.298,7.5,25,7.5z"/>
<path fill="#FDFCEF" d="M26.061,25l5.469-5.47c0.294-0.292,0.294-0.768,0-1.06c-0.146-0.147-0.338-0.22-0.529-0.22
	s-0.384,0.073-0.53,0.22L25,23.939l-5.47-5.47c-0.146-0.146-0.338-0.22-0.53-0.22s-0.384,0.073-0.53,0.22
	c-0.293,0.292-0.293,0.768,0,1.06l5.47,5.47l-5.47,5.47c-0.293,0.292-0.293,0.768,0,1.06c0.146,0.147,0.338,0.221,0.53,0.221
	s0.384-0.073,0.53-0.22l5.47-5.47l5.47,5.469c0.146,0.147,0.339,0.221,0.53,0.221s0.384-0.073,0.53-0.22
	c0.294-0.292,0.294-0.768,0-1.06L26.061,25z"/>
<path fill="#FFFFFF" d="M25,43c-9.925,0-18-8.074-18-18c0-9.925,8.075-18,18-18c9.926,0,18,8.075,18,18C43,34.926,34.926,43,25,43z
	 M25,8C15.626,8,8,15.626,8,25s7.626,17,17,17s17-7.626,17-17S34.374,8,25,8z"/>
<path fill="#FFFFFF" d="M32.75,12.113c-0.043,0-0.088-0.011-0.127-0.035c-0.319-0.188-0.65-0.368-0.984-0.533
	c-0.123-0.062-0.174-0.211-0.113-0.335c0.062-0.125,0.213-0.173,0.335-0.113c0.345,0.17,0.687,0.355,1.017,0.551
	c0.119,0.07,0.158,0.224,0.088,0.343C32.918,12.069,32.836,12.113,32.75,12.113z M34.25,13.125c-0.053,0-0.106-0.017-0.152-0.052
	c-0.16-0.123-0.324-0.243-0.491-0.36c-0.112-0.08-0.141-0.235-0.062-0.348c0.08-0.114,0.235-0.14,0.349-0.062
	c0.173,0.12,0.341,0.245,0.509,0.373c0.109,0.083,0.131,0.24,0.047,0.35C34.399,13.091,34.325,13.125,34.25,13.125z"/>
<path fill="#FFFFFF" d="M25,40.5c-8.547,0-15.5-6.953-15.5-15.5c0-8.546,6.953-15.5,15.5-15.5c1.834,0,3.629,0.317,5.336,0.943
	c0.13,0.048,0.197,0.191,0.148,0.321c-0.047,0.13-0.191,0.196-0.32,0.148C28.513,10.307,26.775,10,25,10c-8.271,0-15,6.729-15,15
	c0,8.271,6.729,15,15,15c8.271,0,15-6.729,15-15c0-4.22-1.793-8.268-4.918-11.106c-0.103-0.093-0.109-0.251-0.018-0.354
	c0.094-0.102,0.252-0.109,0.354-0.017C38.648,16.457,40.5,20.64,40.5,25C40.5,33.547,33.547,40.5,25,40.5z"/>
<path fill="#FFFFFF" d="M26.414,25l5.293-5.293C31.896,19.519,32,19.267,32,19s-0.104-0.519-0.293-0.707
	C31.518,18.104,31.268,18,31,18s-0.518,0.104-0.707,0.293L25,23.586l-5.293-5.293C19.518,18.104,19.267,18,19,18
	s-0.518,0.104-0.707,0.293C18.104,18.481,18,18.733,18,19s0.104,0.519,0.293,0.707L23.586,25l-5.293,5.293
	C18.104,30.481,18,30.732,18,31s0.104,0.519,0.293,0.707C18.482,31.896,18.733,32,19,32s0.518-0.104,0.707-0.293L25,26.414
	l5.293,5.293C30.482,31.896,30.732,32,31,32s0.518-0.104,0.707-0.293C31.896,31.519,32,31.268,32,31s-0.104-0.519-0.293-0.707
	L26.414,25z M31.354,31.354c-0.189,0.189-0.518,0.189-0.707,0L25,25.707l-5.646,5.646c-0.189,0.189-0.518,0.189-0.707,0
	C18.552,31.259,18.5,31.133,18.5,31s0.052-0.259,0.146-0.354L24.293,25l-5.646-5.646C18.552,19.259,18.5,19.133,18.5,19
	s0.052-0.259,0.146-0.354c0.189-0.189,0.518-0.189,0.707,0L25,24.293l5.646-5.646c0.189-0.189,0.518-0.189,0.707,0
	C31.448,18.741,31.5,18.867,31.5,19s-0.052,0.259-0.146,0.354L25.707,25l5.646,5.646C31.448,30.741,31.5,30.867,31.5,31
	S31.448,31.259,31.354,31.354z"/>
</svg>
