<svg xmlns="http://www.w3.org/2000/svg" xmlns:xlink="http://www.w3.org/1999/xlink" width="22" height="22" viewBox="0 0 22 22"><defs><path id="hzkua" d="M1300.374 260.414v-13.162a.373.373 0 0 0-.374-.372.373.373 0 0 0-.375.372v13.162h-13.25a.373.373 0 0 0-.375.372c0 .206.168.372.375.372h13.25v13.163c0 .205.168.372.375.372a.373.373 0 0 0 .374-.372v-13.163h13.252a.373.373 0 0 0 .374-.372.373.373 0 0 0-.374-.372z"/></defs><g><g clip-path="url(#clip-993F691E-AB58-F4E7-4D5E-EC6D120BB6BA)" transform="rotate(45 956.777 -1420.46)"><use fill="#fff" xlink:href="#hzkua"/><use fill="#fff" fill-opacity="0" stroke="#fff" stroke-miterlimit="50" xlink:href="#hzkua"/></g></g></svg>