<svg width="85" height="85" viewBox="0 0 85 85" fill="none" xmlns="http://www.w3.org/2000/svg">
<path d="M14.7895 17.158C13.4042 17.158 12.2632 18.299 12.2632 19.6843V65.158C12.2632 66.5432 13.4042 67.6843 14.7895 67.6843H19.8421C20.0654 67.6843 20.2796 67.5955 20.4375 67.4376C20.5955 67.2797 20.6842 67.0655 20.6842 66.8422V63.4738C20.6842 62.9979 21.0505 62.6316 21.5263 62.6316H24.8947C25.3705 62.6316 25.7368 62.9979 25.7368 63.4738V66.8422C25.7369 67.0655 25.8256 67.2797 25.9835 67.4376C26.1414 67.5955 26.3556 67.6843 26.5789 67.6843H58.5789C58.8023 67.6843 59.0164 67.5955 59.1744 67.4376C59.3323 67.2797 59.421 67.0655 59.421 66.8422V63.4738C59.421 62.9979 59.7873 62.6316 60.2631 62.6316H63.6316C64.1074 62.6316 64.4737 62.9979 64.4737 63.4738V66.8422C64.4737 67.0655 64.5624 67.2797 64.7203 67.4376C64.8783 67.5955 65.0924 67.6843 65.3158 67.6843H70.3684C71.7536 67.6843 72.8947 66.5432 72.8947 65.158V23.0527C72.8947 21.6675 71.7536 20.5264 70.3684 20.5264H43.421V19.6843C43.421 18.299 42.28 17.158 40.8947 17.158H14.7895ZM14.7895 18.8422H40.8947C41.3705 18.8422 41.7368 19.2085 41.7368 19.6843V21.3685C41.7369 21.5918 41.8256 21.806 41.9835 21.9639C42.1414 22.1218 42.3556 22.2106 42.5789 22.2106H70.3684C70.8442 22.2106 71.2105 22.5769 71.2105 23.0527V65.158C71.2105 65.6338 70.8442 66.0001 70.3684 66.0001H66.1579V63.4738C66.1579 62.0885 65.0168 60.9474 63.6316 60.9474H60.2631C58.8779 60.9474 57.7368 62.0885 57.7368 63.4738V66.0001H27.421V63.4738C27.421 62.0885 26.28 60.9474 24.8947 60.9474H21.5263C20.1411 60.9474 19 62.0885 19 63.4738V66.0001H14.7895C14.3137 66.0001 13.9474 65.6338 13.9474 65.158V19.6843C13.9474 19.2085 14.3137 18.8422 14.7895 18.8422ZM16.8947 24.7369C16.8389 24.7361 16.7835 24.7464 16.7318 24.7672C16.68 24.788 16.6329 24.8189 16.5931 24.8581C16.5534 24.8973 16.5218 24.944 16.5003 24.9954C16.4788 25.0469 16.4677 25.1022 16.4677 25.158C16.4677 25.2138 16.4788 25.269 16.5003 25.3205C16.5218 25.372 16.5534 25.4186 16.5931 25.4578C16.6329 25.497 16.68 25.5279 16.7318 25.5487C16.7835 25.5695 16.8389 25.5798 16.8947 25.579H58.1579C58.2137 25.5798 58.2691 25.5695 58.3208 25.5487C58.3726 25.5279 58.4198 25.497 58.4595 25.4578C58.4992 25.4186 58.5308 25.372 58.5523 25.3205C58.5738 25.269 58.5849 25.2138 58.5849 25.158C58.5849 25.1022 58.5738 25.0469 58.5523 24.9954C58.5308 24.944 58.4992 24.8973 58.4595 24.8581C58.4198 24.8189 58.3726 24.788 58.3208 24.7672C58.2691 24.7464 58.2137 24.7361 58.1579 24.7369H16.8947ZM60.6842 24.7369C60.6284 24.7361 60.573 24.7464 60.5212 24.7672C60.4695 24.788 60.4223 24.8189 60.3826 24.8581C60.3429 24.8973 60.3113 24.944 60.2898 24.9954C60.2682 25.0469 60.2572 25.1022 60.2572 25.158C60.2572 25.2138 60.2682 25.269 60.2898 25.3205C60.3113 25.372 60.3429 25.4186 60.3826 25.4578C60.4223 25.497 60.4695 25.5279 60.5212 25.5487C60.573 25.5695 60.6284 25.5798 60.6842 25.579H64.0526C64.1084 25.5798 64.1638 25.5695 64.2156 25.5487C64.2674 25.5279 64.3145 25.497 64.3542 25.4578C64.394 25.4186 64.4255 25.372 64.447 25.3205C64.4686 25.269 64.4797 25.2138 64.4797 25.158C64.4797 25.1022 64.4686 25.0469 64.447 24.9954C64.4255 24.944 64.394 24.8973 64.3542 24.8581C64.3145 24.8189 64.2674 24.788 64.2156 24.7672C64.1638 24.7464 64.1084 24.7361 64.0526 24.7369H60.6842ZM66.5789 24.7369C66.5231 24.7361 66.4677 24.7464 66.416 24.7672C66.3642 24.788 66.3171 24.8189 66.2773 24.8581C66.2376 24.8973 66.2061 24.944 66.1845 24.9954C66.163 25.0469 66.1519 25.1022 66.1519 25.158C66.1519 25.2138 66.163 25.269 66.1845 25.3205C66.2061 25.372 66.2376 25.4186 66.2773 25.4578C66.3171 25.497 66.3642 25.5279 66.416 25.5487C66.4677 25.5695 66.5231 25.5798 66.5789 25.579H68.2631C68.3189 25.5798 68.3743 25.5695 68.4261 25.5487C68.4779 25.5279 68.525 25.497 68.5648 25.4578C68.6045 25.4186 68.636 25.372 68.6576 25.3205C68.6791 25.269 68.6902 25.2138 68.6902 25.158C68.6902 25.1022 68.6791 25.0469 68.6576 24.9954C68.636 24.944 68.6045 24.8973 68.5648 24.8581C68.525 24.8189 68.4779 24.788 68.4261 24.7672C68.3743 24.7464 68.3189 24.7361 68.2631 24.7369H66.5789ZM27.8421 33.158C24.8241 33.158 22.3684 35.6136 22.3684 38.6316C22.3684 40.5008 23.3127 42.1519 24.7467 43.1399C21.3484 44.7653 19 48.9394 19 53.7895C18.9992 53.8453 19.0095 53.9007 19.0303 53.9525C19.0511 54.0043 19.082 54.0514 19.1212 54.0911C19.1604 54.1309 19.207 54.1624 19.2585 54.184C19.31 54.2055 19.3652 54.2166 19.421 54.2166C19.4768 54.2166 19.5321 54.2055 19.5836 54.184C19.635 54.1624 19.6817 54.1309 19.7209 54.0911C19.7601 54.0514 19.791 54.0043 19.8118 53.9525C19.8326 53.9007 19.8429 53.8453 19.8421 53.7895C19.8421 48.9291 22.3663 44.8855 25.6809 43.658C26.3446 43.9445 27.0745 44.1053 27.8421 44.1053C28.6097 44.1053 29.3396 43.9445 30.0033 43.658C33.3179 44.8855 35.8421 48.9291 35.8421 53.7895C35.8413 53.8453 35.8516 53.9007 35.8724 53.9525C35.8932 54.0043 35.9241 54.0514 35.9633 54.0911C36.0025 54.1309 36.0492 54.1624 36.1006 54.184C36.1521 54.2055 36.2073 54.2166 36.2631 54.2166C36.319 54.2166 36.3742 54.2055 36.4257 54.184C36.4771 54.1624 36.5238 54.1309 36.563 54.0911C36.6022 54.0514 36.6331 54.0043 36.6539 53.9525C36.6747 53.9007 36.685 53.8453 36.6842 53.7895C36.6842 48.9394 34.3358 44.7653 30.9375 43.1399C32.3715 42.1519 33.3158 40.5008 33.3158 38.6316C33.3158 35.6136 30.8601 33.158 27.8421 33.158ZM27.8421 34.0001C30.405 34.0001 32.4737 36.0687 32.4737 38.6316C32.4737 40.4761 31.3981 42.0603 29.8421 42.806C29.8157 42.8155 29.7904 42.8276 29.7664 42.8422H29.7648C29.1788 43.1095 28.5297 43.2632 27.8421 43.2632C27.1482 43.2632 26.4931 43.1076 25.903 42.8356C25.9013 42.835 25.8997 42.8345 25.898 42.8339C25.8811 42.824 25.8635 42.8152 25.8454 42.8076C24.2869 42.0629 23.2105 40.4779 23.2105 38.6316C23.2105 36.0687 25.2792 34.0001 27.8421 34.0001ZM43 34.8422C42.9442 34.8414 42.8888 34.8517 42.837 34.8725C42.7852 34.8933 42.7381 34.9242 42.6984 34.9634C42.6587 35.0025 42.6271 35.0492 42.6056 35.1007C42.584 35.1522 42.5729 35.2074 42.5729 35.2632C42.5729 35.319 42.584 35.3743 42.6056 35.4257C42.6271 35.4772 42.6587 35.5239 42.6984 35.5631C42.7381 35.6023 42.7852 35.6331 42.837 35.654C42.8888 35.6748 42.9442 35.6851 43 35.6843H65.7368C65.7926 35.6851 65.848 35.6748 65.8998 35.654C65.9516 35.6331 65.9987 35.6023 66.0384 35.5631C66.0782 35.5239 66.1097 35.4772 66.1313 35.4257C66.1528 35.3743 66.1639 35.319 66.1639 35.2632C66.1639 35.2074 66.1528 35.1522 66.1313 35.1007C66.1097 35.0492 66.0782 35.0025 66.0384 34.9634C65.9987 34.9242 65.9516 34.8933 65.8998 34.8725C65.848 34.8517 65.7926 34.8414 65.7368 34.8422H43ZM43 40.7369C42.9442 40.7361 42.8888 40.7464 42.837 40.7672C42.7852 40.788 42.7381 40.8189 42.6984 40.8581C42.6587 40.8973 42.6271 40.944 42.6056 40.9954C42.584 41.0469 42.5729 41.1022 42.5729 41.158C42.5729 41.2138 42.584 41.269 42.6056 41.3205C42.6271 41.372 42.6587 41.4186 42.6984 41.4578C42.7381 41.497 42.7852 41.5279 42.837 41.5487C42.8888 41.5695 42.9442 41.5798 43 41.579H59C59.0558 41.5798 59.1112 41.5695 59.163 41.5487C59.2147 41.5279 59.2619 41.497 59.3016 41.4578C59.3413 41.4186 59.3729 41.372 59.3944 41.3205C59.4159 41.269 59.427 41.2138 59.427 41.158C59.427 41.1022 59.4159 41.0469 59.3944 40.9954C59.3729 40.944 59.3413 40.8973 59.3016 40.8581C59.2619 40.8189 59.2147 40.788 59.163 40.7672C59.1112 40.7464 59.0558 40.7361 59 40.7369H43ZM61.5263 40.7369C61.4705 40.7361 61.4151 40.7464 61.3633 40.7672C61.3116 40.788 61.2644 40.8189 61.2247 40.8581C61.185 40.8973 61.1534 40.944 61.1319 40.9954C61.1103 41.0469 61.0993 41.1022 61.0993 41.158C61.0993 41.2138 61.1103 41.269 61.1319 41.3205C61.1534 41.372 61.185 41.4186 61.2247 41.4578C61.2644 41.497 61.3116 41.5279 61.3633 41.5487C61.4151 41.5695 61.4705 41.5798 61.5263 41.579H65.7368C65.7926 41.5798 65.848 41.5695 65.8998 41.5487C65.9516 41.5279 65.9987 41.497 66.0384 41.4578C66.0782 41.4186 66.1097 41.372 66.1313 41.3205C66.1528 41.269 66.1639 41.2138 66.1639 41.158C66.1639 41.1022 66.1528 41.0469 66.1313 40.9954C66.1097 40.944 66.0782 40.8973 66.0384 40.8581C65.9987 40.8189 65.9516 40.788 65.8998 40.7672C65.848 40.7464 65.7926 40.7361 65.7368 40.7369H61.5263ZM43 46.6316C42.9442 46.6309 42.8888 46.6412 42.837 46.662C42.7852 46.6828 42.7381 46.7137 42.6984 46.7528C42.6587 46.792 42.6271 46.8387 42.6056 46.8902C42.584 46.9417 42.5729 46.9969 42.5729 47.0527C42.5729 47.1085 42.584 47.1637 42.6056 47.2152C42.6271 47.2667 42.6587 47.3134 42.6984 47.3526C42.7381 47.3917 42.7852 47.4226 42.837 47.4434C42.8888 47.4642 42.9442 47.4745 43 47.4738H55.6316C55.6874 47.4745 55.7428 47.4642 55.7945 47.4434C55.8463 47.4226 55.8934 47.3917 55.9332 47.3526C55.9729 47.3134 56.0045 47.2667 56.026 47.2152C56.0475 47.1637 56.0586 47.1085 56.0586 47.0527C56.0586 46.9969 56.0475 46.9417 56.026 46.8902C56.0045 46.8387 55.9729 46.792 55.9332 46.7528C55.8934 46.7137 55.8463 46.6828 55.7945 46.662C55.7428 46.6412 55.6874 46.6309 55.6316 46.6316H43ZM58.1579 46.6316C58.1021 46.6309 58.0467 46.6412 57.9949 46.662C57.9431 46.6828 57.896 46.7137 57.8563 46.7528C57.8165 46.792 57.785 46.8387 57.7635 46.8902C57.7419 46.9417 57.7308 46.9969 57.7308 47.0527C57.7308 47.1085 57.7419 47.1637 57.7635 47.2152C57.785 47.2667 57.8165 47.3134 57.8563 47.3526C57.896 47.3917 57.9431 47.4226 57.9949 47.4434C58.0467 47.4642 58.1021 47.4745 58.1579 47.4738H61.5263C61.5821 47.4745 61.6375 47.4642 61.6893 47.4434C61.741 47.4226 61.7882 47.3917 61.8279 47.3526C61.8676 47.3134 61.8992 47.2667 61.9207 47.2152C61.9423 47.1637 61.9534 47.1085 61.9534 47.0527C61.9534 46.9969 61.9423 46.9417 61.9207 46.8902C61.8992 46.8387 61.8676 46.792 61.8279 46.7528C61.7882 46.7137 61.741 46.6828 61.6893 46.662C61.6375 46.6412 61.5821 46.6309 61.5263 46.6316H58.1579ZM64.0526 46.6316C63.9968 46.6309 63.9414 46.6412 63.8897 46.662C63.8379 46.6828 63.7908 46.7137 63.751 46.7528C63.7113 46.792 63.6797 46.8387 63.6582 46.8902C63.6367 46.9417 63.6256 46.9969 63.6256 47.0527C63.6256 47.1085 63.6367 47.1637 63.6582 47.2152C63.6797 47.2667 63.7113 47.3134 63.751 47.3526C63.7908 47.3917 63.8379 47.4226 63.8897 47.4434C63.9414 47.4642 63.9968 47.4745 64.0526 47.4738H65.7368C65.7926 47.4745 65.848 47.4642 65.8998 47.4434C65.9516 47.4226 65.9987 47.3917 66.0384 47.3526C66.0782 47.3134 66.1097 47.2667 66.1313 47.2152C66.1528 47.1637 66.1639 47.1085 66.1639 47.0527C66.1639 46.9969 66.1528 46.9417 66.1313 46.8902C66.1097 46.8387 66.0782 46.792 66.0384 46.7528C65.9987 46.7137 65.9516 46.6828 65.8998 46.662C65.848 46.6412 65.7926 46.6309 65.7368 46.6316H64.0526ZM43 52.5264C42.9442 52.5256 42.8888 52.5359 42.837 52.5567C42.7852 52.5775 42.7381 52.6084 42.6984 52.6476C42.6587 52.6868 42.6271 52.7334 42.6056 52.7849C42.584 52.8364 42.5729 52.8916 42.5729 52.9474C42.5729 53.0032 42.584 53.0585 42.6056 53.11C42.6271 53.1614 42.6587 53.2081 42.6984 53.2473C42.7381 53.2865 42.7852 53.3174 42.837 53.3382C42.8888 53.359 42.9442 53.3693 43 53.3685H59C59.0558 53.3693 59.1112 53.359 59.163 53.3382C59.2147 53.3174 59.2619 53.2865 59.3016 53.2473C59.3413 53.2081 59.3729 53.1614 59.3944 53.11C59.4159 53.0585 59.427 53.0032 59.427 52.9474C59.427 52.8916 59.4159 52.8364 59.3944 52.7849C59.3729 52.7334 59.3413 52.6868 59.3016 52.6476C59.2619 52.6084 59.2147 52.5775 59.163 52.5567C59.1112 52.5359 59.0558 52.5256 59 52.5264H43ZM61.5263 52.5264C61.4705 52.5256 61.4151 52.5359 61.3633 52.5567C61.3116 52.5775 61.2644 52.6084 61.2247 52.6476C61.185 52.6868 61.1534 52.7334 61.1319 52.7849C61.1103 52.8364 61.0993 52.8916 61.0993 52.9474C61.0993 53.0032 61.1103 53.0585 61.1319 53.11C61.1534 53.1614 61.185 53.2081 61.2247 53.2473C61.2644 53.2865 61.3116 53.3174 61.3633 53.3382C61.4151 53.359 61.4705 53.3693 61.5263 53.3685H65.7368C65.7926 53.3693 65.848 53.359 65.8998 53.3382C65.9516 53.3174 65.9987 53.2865 66.0384 53.2473C66.0782 53.2081 66.1097 53.1614 66.1313 53.11C66.1528 53.0585 66.1639 53.0032 66.1639 52.9474C66.1639 52.8916 66.1528 52.8364 66.1313 52.7849C66.1097 52.7334 66.0782 52.6868 66.0384 52.6476C65.9987 52.6084 65.9516 52.5775 65.8998 52.5567C65.848 52.5359 65.7926 52.5256 65.7368 52.5264H61.5263Z" fill="#747373"/>
</svg>
