<svg xmlns="http://www.w3.org/2000/svg" width="40" height="40" viewBox="0 0 40 40"><g><g><g><path fill="#e0654c" d="M20 40c11.046 0 20-8.954 20-20S31.046 0 20 0 0 8.954 0 20s8.954 20 20 20z"/></g><g><path fill="#fff" d="M20.635 20L31.868 8.766a.448.448 0 1 0-.635-.634L20 19.365 8.766 8.132a.448.448 0 1 0-.634.634L19.365 20 8.132 31.234a.448.448 0 1 0 .634.634L20 20.635l11.233 11.233a.446.446 0 0 0 .635 0 .448.448 0 0 0 0-.634L20.635 20"/><path fill="none" stroke="#fff" stroke-miterlimit="50" stroke-width="2" d="M20.635 20v0L31.868 8.766a.448.448 0 1 0-.635-.634L20 19.365v0L8.766 8.132a.448.448 0 1 0-.634.634L19.365 20v0L8.132 31.234a.448.448 0 1 0 .634.634L20 20.635v0l11.233 11.233a.446.446 0 0 0 .635 0 .448.448 0 0 0 0-.634L20.635 20v0"/></g></g></g></svg>