<svg width="98" height="56" viewBox="0 0 98 56" fill="none" xmlns="http://www.w3.org/2000/svg">
<path d="M47.9348 0C38.6944 0 31.1927 7.3974 30.9392 16.5774C29.3403 15.614 27.5655 14.913 25.5652 14.913C19.6944 14.913 14.913 19.6944 14.913 25.5652C6.68915 25.5652 0 32.2544 0 40.4783C0 48.7021 6.68915 55.3913 14.913 55.3913H83.087C91.3109 55.3913 98 48.7021 98 40.4783C98 33.9897 93.7819 28.5766 87.9803 26.5326C88.2 25.5262 88.413 24.5135 88.413 23.4348C88.413 15.2109 81.7239 8.52174 73.5 8.52174C69.8767 8.52174 66.5972 9.87593 64.0129 12.0295C61.8418 5.10906 55.559 0 47.9348 0ZM47.9348 2.13043C55.1398 2.13043 61.1315 7.22676 62.5358 14.0018C62.5751 14.191 62.6653 14.3659 62.7965 14.5078C62.9277 14.6497 63.095 14.7533 63.2806 14.8074C63.4661 14.8615 63.6629 14.864 63.8498 14.8149C64.0367 14.7657 64.2067 14.6666 64.3416 14.5281C66.6664 12.1384 69.9006 10.6522 73.5 10.6522C80.5726 10.6522 86.2826 16.3622 86.2826 23.4348C86.2826 24.6215 86.1097 25.7687 85.802 26.8697C85.7998 26.8808 85.7977 26.8918 85.7958 26.903C84.9185 26.7286 84.0141 26.6304 83.087 26.6304C79.9721 26.6304 77.0913 27.6617 74.7774 29.3996C74.7205 29.4412 74.6723 29.4938 74.6359 29.5542C74.5994 29.6147 74.5753 29.6817 74.565 29.7515C74.5546 29.8214 74.5583 29.8925 74.5757 29.9609C74.5931 30.0293 74.6239 30.0936 74.6664 30.15C74.7088 30.2063 74.7621 30.2537 74.823 30.2893C74.8839 30.325 74.9513 30.3481 75.0213 30.3575C75.0912 30.3668 75.1623 30.3622 75.2305 30.3438C75.2986 30.3255 75.3624 30.2937 75.4182 30.2505C77.5548 28.6458 80.2068 27.6956 83.087 27.6956C84.2482 27.6956 85.3685 27.8551 86.4366 28.145C86.4699 28.1585 86.504 28.1703 86.5385 28.1804C91.9172 29.6882 95.8696 34.607 95.8696 40.4783C95.8696 47.5509 90.1596 53.2609 83.087 53.2609H14.913C7.84042 53.2609 2.13043 47.5509 2.13043 40.4783C2.13043 33.4056 7.84042 27.6956 14.913 27.6956H16.0407C16.1906 27.6957 16.3388 27.6641 16.4757 27.6029C16.6126 27.5417 16.735 27.4523 16.8349 27.3406C16.9349 27.2289 17.0101 27.0973 17.0557 26.9545C17.1014 26.8117 17.1163 26.6608 17.0997 26.5118C17.0639 26.1941 17.0435 25.879 17.0435 25.5652C17.0435 20.8456 20.8456 17.0435 25.5652 17.0435C27.7864 17.0435 29.7921 17.8949 31.3116 19.2863C31.4702 19.4308 31.6687 19.5242 31.8812 19.554C32.0938 19.5838 32.3103 19.5488 32.5026 19.4534C32.6949 19.3581 32.8539 19.2069 32.9587 19.0197C33.0636 18.8324 33.1095 18.6179 33.0904 18.4041C33.0486 17.9445 33.0217 17.4926 33.0217 17.0435C33.0217 8.79494 39.6862 2.13043 47.9348 2.13043ZM49 20.2391C41.9531 20.2391 36.2174 25.9748 36.2174 33.0217C36.2174 33.4186 36.2392 33.8056 36.2736 34.1827C36.293 34.3979 36.3774 34.6021 36.5157 34.7683C36.6539 34.9344 36.8394 35.0546 37.0475 35.1128C37.2556 35.171 37.4765 35.1646 37.6809 35.0943C37.8853 35.0241 38.0635 34.8933 38.1918 34.7194L41.3354 30.4586C41.4204 30.3461 41.4823 30.2179 41.5174 30.0814C41.5525 29.9449 41.5602 29.8028 41.54 29.6633C41.5198 29.5238 41.4721 29.3897 41.3997 29.2688C41.3273 29.1478 41.2316 29.0425 41.1182 28.9588C41.0048 28.8751 40.8759 28.8147 40.739 28.7812C40.6021 28.7477 40.4599 28.7417 40.3206 28.7636C40.1814 28.7854 40.0478 28.8347 39.9278 28.9085C39.8077 28.9823 39.7034 29.0792 39.6211 29.1936L38.9304 30.1298C40.2082 25.6795 44.1314 22.3696 49 22.3696C52.7453 22.3696 56.0169 24.2982 57.9191 27.213C57.9938 27.3341 58.0919 27.439 58.2078 27.5216C58.3236 27.6042 58.4549 27.6627 58.5937 27.6937C58.7326 27.7248 58.8762 27.7277 59.0162 27.7023C59.1562 27.6769 59.2897 27.6237 59.4088 27.5459C59.5279 27.4681 59.6302 27.3672 59.7097 27.2491C59.7892 27.1311 59.8442 26.9984 59.8715 26.8588C59.8989 26.7191 59.898 26.5755 59.8689 26.4362C59.8398 26.2969 59.7831 26.1649 59.7021 26.0479C57.4222 22.5543 53.4782 20.2391 49 20.2391ZM73.346 30.8851C73.2687 30.8828 73.1917 30.8975 73.1206 30.928C73.0494 30.9586 72.9858 31.0043 72.9341 31.0619C72.6073 31.4142 72.2981 31.7837 72.0083 32.1687C71.965 32.2245 71.9333 32.2883 71.9149 32.3565C71.8966 32.4246 71.8919 32.4957 71.9013 32.5657C71.9107 32.6356 71.9338 32.703 71.9694 32.764C72.0051 32.8249 72.0525 32.8781 72.1088 32.9206C72.1652 32.963 72.2295 32.9939 72.2979 33.0113C72.3663 33.0287 72.4374 33.0323 72.5072 33.022C72.5771 33.0117 72.6441 32.9876 72.7046 32.9511C72.765 32.9146 72.8175 32.8665 72.8592 32.8095C73.1275 32.4532 73.4126 32.1111 73.7143 31.7859C73.7855 31.7115 73.8337 31.6181 73.8529 31.517C73.8721 31.4158 73.8616 31.3112 73.8227 31.2159C73.7837 31.1206 73.718 31.0386 73.6334 30.9799C73.5488 30.9212 73.449 30.8882 73.346 30.8851ZM28.7609 30.8913C25.8101 30.8913 23.3893 32.9302 22.6588 35.6557C21.8904 35.3872 21.0991 35.1522 20.2391 35.1522C16.1272 35.1522 12.7826 38.4967 12.7826 42.6087C12.7826 42.8003 12.7905 42.9919 12.8055 43.1829C12.808 43.2548 12.825 43.3254 12.8555 43.3905C12.886 43.4556 12.9294 43.5138 12.9831 43.5617C13.0367 43.6096 13.0995 43.6461 13.1676 43.6691C13.2357 43.6921 13.3078 43.7011 13.3795 43.6954C13.4512 43.6898 13.521 43.6697 13.5847 43.6364C13.6484 43.6031 13.7047 43.5572 13.7502 43.5016C13.7957 43.4459 13.8295 43.3816 13.8495 43.3125C13.8695 43.2435 13.8753 43.1711 13.8666 43.0997C13.8539 42.9392 13.8478 42.775 13.8478 42.6087C13.8478 39.0724 16.7028 36.2174 20.2391 36.2174C21.1454 36.2174 22.004 36.4083 22.7857 36.7479C22.8596 36.7799 22.9398 36.7948 23.0203 36.7913C23.1008 36.7878 23.1794 36.7662 23.2503 36.7279C23.3212 36.6897 23.3825 36.6358 23.4296 36.5705C23.4767 36.5051 23.5083 36.4299 23.5222 36.3505C23.9627 33.8545 26.1322 31.9565 28.7609 31.9565C30.0561 31.9565 31.2388 32.4174 32.1625 33.184C32.2162 33.2296 32.2784 33.2641 32.3455 33.2854C32.4127 33.3068 32.4833 33.3146 32.5535 33.3085C32.6237 33.3024 32.6919 33.2824 32.7543 33.2497C32.8167 33.217 32.872 33.1722 32.917 33.118C32.962 33.0638 32.9958 33.0013 33.0164 32.9339C33.037 32.8666 33.0441 32.7958 33.0372 32.7257C33.0303 32.6556 33.0096 32.5876 32.9762 32.5255C32.9428 32.4635 32.8975 32.4087 32.8428 32.3643C31.7362 31.4458 30.3098 30.8913 28.7609 30.8913ZM60.6446 30.8913C60.4813 30.8945 60.321 30.9352 60.176 31.0102C60.031 31.0853 59.9051 31.1926 59.8082 31.324L56.6646 35.5849C56.5796 35.6973 56.5177 35.8255 56.4826 35.962C56.4475 36.0985 56.4398 36.2407 56.46 36.3802C56.4802 36.5197 56.5279 36.6538 56.6003 36.7747C56.6727 36.8956 56.7684 37.001 56.8818 37.0847C56.9952 37.1684 57.1241 37.2287 57.261 37.2622C57.3979 37.2957 57.5401 37.3018 57.6794 37.2799C57.8186 37.2581 57.9522 37.2088 58.0722 37.135C58.1923 37.0612 58.2966 36.9643 58.3789 36.8499L59.0696 35.9136C57.7918 40.364 53.8686 43.6739 49 43.6739C45.2547 43.6739 41.9831 41.7453 40.0809 38.8305C40.0062 38.7094 39.9081 38.6044 39.7922 38.5219C39.6764 38.4393 39.5451 38.3808 39.4063 38.3497C39.2674 38.3187 39.1238 38.3158 38.9838 38.3412C38.8438 38.3666 38.7103 38.4198 38.5912 38.4976C38.4721 38.5754 38.3698 38.6763 38.2903 38.7943C38.2108 38.9123 38.1558 39.0451 38.1285 39.1847C38.1011 39.3243 38.102 39.468 38.1311 39.6073C38.1602 39.7466 38.2169 39.8786 38.2979 39.9956C40.5778 43.4891 44.5218 45.8043 49 45.8043C56.0469 45.8043 61.7826 40.0686 61.7826 33.0217C61.7826 32.6248 61.7608 32.2378 61.7264 31.8608C61.7022 31.5923 61.5772 31.343 61.3764 31.1631C61.1756 30.9831 60.9141 30.886 60.6446 30.8913Z" fill="#747373"/>
</svg>
