<svg width="80" height="80" viewBox="0 0 80 80" fill="none" xmlns="http://www.w3.org/2000/svg">
<path d="M38.9221 15.4611C31.0125 15.4611 27.4221 20.0179 26.5935 22.9172C25.9981 25.0025 27.2159 27.1935 29.3004 27.7897C31.3672 28.3791 33.5336 27.1899 34.1536 25.1405C34.1562 25.1351 34.1593 25.1291 34.1664 25.1161C34.1866 25.0793 34.2245 25.0178 34.2832 24.9391C34.4004 24.7817 34.6022 24.5567 34.9349 24.3233C35.6002 23.8566 36.795 23.3432 38.9221 23.3432C40.573 23.3432 42.0929 23.8386 43.1646 24.5889C44.2363 25.3391 44.8337 26.3024 44.8337 27.2842C44.8337 28.9147 44.4429 30.012 43.7612 31.0149C43.0795 32.0177 42.0713 32.9219 40.8516 34.004C38.0409 36.4975 34.3242 39.8466 34.3242 46.3326V47.6463C34.3242 49.8148 36.0961 51.5874 38.2653 51.5874C40.4344 51.5874 42.2063 49.8148 42.2063 47.6463V46.3326C42.2063 44.8601 42.5131 43.893 43.1364 42.9509C43.7597 42.0088 44.742 41.0902 46.0832 39.9002C48.9398 37.3655 52.7158 33.9619 52.7158 27.2842C52.7158 20.7079 46.4686 15.4611 38.9221 15.4611ZM38.9221 16.7747C45.8629 16.7747 51.4021 21.5461 51.4021 27.2842C51.4021 33.478 48.0675 36.384 45.2109 38.9188C43.8597 40.1177 42.7931 41.0891 42.0408 42.2261C41.2886 43.3631 40.8926 44.6642 40.8926 46.3326V47.6463C40.8926 49.1049 39.7245 50.2737 38.2653 50.2737C36.806 50.2737 35.6379 49.1049 35.6379 47.6463V46.3326C35.6379 40.3373 38.9134 37.48 41.7239 34.9867C42.9437 33.9046 44.0381 32.945 44.8478 31.7538C45.6575 30.5627 46.1474 29.1363 46.1474 27.2842C46.1474 25.7739 45.24 24.4382 43.9177 23.5125C42.5954 22.5868 40.832 22.0295 38.9221 22.0295C36.58 22.0295 35.0869 22.6124 34.1805 23.2482C33.7274 23.5661 33.4238 23.8937 33.2299 24.154C33.1329 24.2841 33.0623 24.3975 33.0144 24.4849C32.9904 24.5287 32.9722 24.5658 32.9579 24.5966C32.9508 24.6119 32.9444 24.6253 32.9387 24.6389C32.933 24.6525 32.9068 24.7331 32.9066 24.7338L32.9092 24.7223C32.508 26.126 31.0662 26.9268 29.6609 26.526C28.2589 26.1251 27.4567 24.6816 27.8571 23.279C28.5104 20.9933 31.5142 16.7747 38.9221 16.7747ZM39.2249 18.1025C39.1378 18.1049 39.0552 18.1418 38.9953 18.2051C38.9354 18.2684 38.903 18.3528 38.9054 18.4399C38.9078 18.527 38.9447 18.6096 39.008 18.6695C39.0712 18.7294 39.1557 18.7618 39.2428 18.7594C39.4492 18.7642 39.6602 18.7837 39.883 18.8004C39.9272 18.806 39.972 18.8024 40.0148 18.7901C40.0575 18.7778 40.0973 18.7569 40.1318 18.7287C40.1662 18.7005 40.1946 18.6655 40.2151 18.6261C40.2357 18.5866 40.2479 18.5433 40.2513 18.4989C40.2546 18.4545 40.2488 18.4099 40.2344 18.3678C40.2199 18.3257 40.197 18.287 40.1671 18.254C40.1373 18.221 40.101 18.1945 40.0605 18.1759C40.0201 18.1574 39.9762 18.1472 39.9317 18.1462C39.7183 18.1301 39.4959 18.1082 39.2582 18.1025C39.2471 18.102 39.236 18.102 39.2249 18.1025ZM41.2134 18.304C41.1307 18.3041 41.0511 18.3354 40.9905 18.3916C40.9299 18.4479 40.8927 18.5249 40.8864 18.6073C40.8801 18.6898 40.9051 18.7715 40.9564 18.8363C41.0077 18.9012 41.0816 18.9442 41.1633 18.9569C42.0655 19.1168 42.9207 19.3742 43.7214 19.71C43.7614 19.7281 43.8046 19.738 43.8485 19.7392C43.8924 19.7403 43.9361 19.7326 43.977 19.7166C44.0179 19.7005 44.0551 19.6764 44.0865 19.6457C44.1179 19.6151 44.1429 19.5784 44.1598 19.5379C44.1768 19.4974 44.1855 19.4539 44.1854 19.41C44.1853 19.3661 44.1764 19.3226 44.1592 19.2822C44.142 19.2418 44.1169 19.2053 44.0853 19.1747C44.0537 19.1442 44.0164 19.1203 43.9754 19.1045C43.1314 18.7506 42.2302 18.4777 41.2788 18.3091C41.2572 18.3052 41.2353 18.3035 41.2134 18.304ZM46.4681 20.6183C46.4001 20.6194 46.3342 20.6416 46.2794 20.6818C46.2246 20.722 46.1836 20.7782 46.1621 20.8426C46.1405 20.9071 46.1395 20.9766 46.1592 21.0417C46.1788 21.1068 46.2182 21.1641 46.2718 21.2059C48.2281 22.7634 49.4316 24.9107 49.4316 27.2842C49.4316 31.06 48.0227 33.35 46.2089 35.269C46.1793 35.3004 46.1561 35.3373 46.1407 35.3777C46.1254 35.4181 46.1181 35.4611 46.1193 35.5043C46.1206 35.5475 46.1303 35.59 46.148 35.6294C46.1657 35.6688 46.191 35.7044 46.2224 35.734C46.2538 35.7637 46.2908 35.7869 46.3311 35.8022C46.3715 35.8176 46.4145 35.8249 46.4577 35.8236C46.5009 35.8224 46.5434 35.8126 46.5828 35.7949C46.6223 35.7772 46.6578 35.752 46.6875 35.7205C48.5664 33.7326 50.0884 31.2263 50.0884 27.2842C50.0884 24.688 48.7643 22.3511 46.6798 20.6914C46.62 20.643 46.545 20.6171 46.4681 20.6183ZM38.2653 56.1853C35.7337 56.1853 33.6674 58.2516 33.6674 60.7832C33.6674 63.3147 35.7337 65.3811 38.2653 65.3811C40.7968 65.3811 42.8632 63.3147 42.8632 60.7832C42.8632 58.2516 40.7968 56.1853 38.2653 56.1853ZM38.2653 57.499C40.0869 57.499 41.5495 58.9616 41.5495 60.7832C41.5495 62.6048 40.0869 64.0674 38.2653 64.0674C36.4437 64.0674 34.981 62.6048 34.981 60.7832C34.981 58.9616 36.4437 57.499 38.2653 57.499ZM38.2653 58.8126C38.1312 58.8126 37.9995 58.8263 37.8714 58.8524C37.8272 58.8589 37.7848 58.8743 37.7468 58.8978C37.7088 58.9212 37.676 58.9521 37.6503 58.9887C37.6247 59.0252 37.6067 59.0666 37.5976 59.1103C37.5885 59.154 37.5884 59.1991 37.5973 59.2429C37.6062 59.2867 37.6239 59.3281 37.6494 59.3648C37.6749 59.4015 37.7076 59.4326 37.7455 59.4562C37.7834 59.4798 37.8257 59.4954 37.8699 59.5021C37.914 59.5088 37.9591 59.5064 38.0023 59.4951C38.087 59.4779 38.1747 59.4695 38.2653 59.4695C38.995 59.4695 39.5789 60.0535 39.5789 60.7832C39.5789 61.5129 38.995 62.0968 38.2653 62.0968C37.9697 62.0968 37.7011 61.9961 37.4776 61.8274C37.4432 61.8008 37.4038 61.7812 37.3618 61.7699C37.3198 61.7586 37.2759 61.7557 37.2328 61.7615C37.1896 61.7672 37.1481 61.7815 37.1105 61.8035C37.0729 61.8254 37.0401 61.8547 37.0139 61.8894C36.9878 61.9242 36.9687 61.9638 36.958 62.006C36.9473 62.0482 36.945 62.0921 36.9514 62.1351C36.9578 62.1782 36.9726 62.2195 36.9951 62.2568C37.0176 62.294 37.0473 62.3265 37.0824 62.3521C37.4093 62.5986 37.8186 62.7537 38.2653 62.7537C39.3498 62.7537 40.2358 61.8677 40.2358 60.7832C40.2358 59.6987 39.3498 58.8126 38.2653 58.8126ZM36.94 59.4656C36.8922 59.469 36.8458 59.4829 36.8039 59.5061C36.762 59.5294 36.7257 59.5616 36.6976 59.6003C36.5239 59.8301 36.4008 60.0976 36.3396 60.3867C36.3216 60.472 36.3382 60.5609 36.3857 60.6339C36.4332 60.7069 36.5078 60.7581 36.593 60.7761C36.6782 60.7941 36.7671 60.7776 36.8402 60.7301C36.9132 60.6825 36.9643 60.608 36.9824 60.5227C37.0237 60.3271 37.1057 60.148 37.221 59.9955C37.2581 59.9477 37.2813 59.8906 37.2881 59.8305C37.2948 59.7704 37.2848 59.7096 37.2592 59.6548C37.2336 59.6 37.1934 59.5534 37.1429 59.52C37.0925 59.4866 37.0338 59.4678 36.9734 59.4656C36.9623 59.4651 36.9511 59.4651 36.94 59.4656Z" fill="#747373"/>
</svg>
