<svg width="20" height="24" viewBox="0 0 20 24" fill="none" xmlns="http://www.w3.org/2000/svg">
<path fill-rule="evenodd" clip-rule="evenodd" d="M19.3271 3.16514H14.5396V1.40368C14.5396 0.629589 13.9101 0 13.1365 0H6.99424C6.2223 0 5.59325 0.629589 5.59325 1.40368V3.16514H0.402894C0.179959 3.16514 0 3.34563 0 3.56803C0 3.79043 0.179959 3.97093 0.402894 3.97093H1.85707L2.45819 20.8715C2.45819 22.4745 3.76142 23.7788 5.36279 23.7788H14.3677C15.9686 23.7788 17.2718 22.4745 17.2718 20.8855L17.8724 3.97093H19.3271C19.5495 3.97093 19.73 3.79043 19.73 3.56803C19.73 3.34563 19.5495 3.16514 19.3271 3.16514ZM6.39903 1.40368C6.39903 1.07385 6.66656 0.805789 6.99424 0.805789H13.1365C13.4653 0.805789 13.7339 1.07385 13.7339 1.40368V3.16514H6.39903V1.40368ZM16.466 20.8715C16.466 22.0303 15.5249 22.973 14.3677 22.973H5.36279C4.20568 22.973 3.26398 22.0303 3.26398 20.8565L2.6634 3.97093H17.0661L16.466 20.8715ZM12.9753 17.9068C13.1977 17.9068 13.3782 17.7263 13.3782 17.5039V9.44975C13.3782 9.22735 13.1977 9.04686 12.9753 9.04686C12.7529 9.04686 12.5724 9.22735 12.5724 9.44975V17.5039C12.5724 17.7263 12.7529 17.9068 12.9753 17.9068ZM6.78313 17.9068C7.00553 17.9068 7.18602 17.7263 7.18602 17.5039V9.44975C7.18602 9.22735 7.00553 9.04686 6.78313 9.04686C6.56073 9.04686 6.38023 9.22735 6.38023 9.44975V17.5039C6.38023 17.7263 6.56073 17.9068 6.78313 17.9068ZM9.85479 19.7504C10.0772 19.7504 10.2577 19.5699 10.2577 19.3475V7.60664C10.2577 7.38371 10.0772 7.20375 9.85479 7.20375C9.6324 7.20375 9.4519 7.38371 9.4519 7.60664V19.3475C9.4519 19.5699 9.6324 19.7504 9.85479 19.7504Z" fill="white"/>
</svg>
