<svg width="29" height="9" viewBox="0 0 29 9" fill="none" xmlns="http://www.w3.org/2000/svg">
<path fill-rule="evenodd" clip-rule="evenodd" d="M4.63462 8C6.64196 8 8.26923 6.433 8.26923 4.5C8.26923 2.567 6.64196 1 4.63462 1C2.62727 1 1 2.567 1 4.5C1 6.433 2.62727 8 4.63462 8Z" stroke="white"/>
<path fill-rule="evenodd" clip-rule="evenodd" d="M14.5 8C16.5073 8 18.1346 6.433 18.1346 4.5C18.1346 2.567 16.5073 1 14.5 1C12.4926 1 10.8654 2.567 10.8654 4.5C10.8654 6.433 12.4926 8 14.5 8Z" stroke="white"/>
<path fill-rule="evenodd" clip-rule="evenodd" d="M24.3654 8C26.3727 8 28 6.433 28 4.5C28 2.567 26.3727 1 24.3654 1C22.358 1 20.7308 2.567 20.7308 4.5C20.7308 6.433 22.358 8 24.3654 8Z" stroke="white"/>
</svg>
