<svg width="40" height="40" viewBox="0 0 40 40" fill="none" xmlns="http://www.w3.org/2000/svg">
<path fill-rule="evenodd" clip-rule="evenodd" d="M20 39.9999C31.0457 39.9999 40 31.0456 40 19.9999C40 8.95424 31.0457 -6.10352e-05 20 -6.10352e-05C8.9543 -6.10352e-05 0 8.95424 0 19.9999C0 31.0456 8.9543 39.9999 20 39.9999Z" fill="#A9D47D"/>
<path fill-rule="evenodd" clip-rule="evenodd" d="M20.2492 19.3944V4.27342C20.2492 4.03752 20.0578 3.84607 19.8219 3.84607C19.586 3.84607 19.3945 4.03752 19.3945 4.27342V19.3944H4.27355C4.03765 19.3944 3.84619 19.5858 3.84619 19.8217C3.84619 20.0576 4.03765 20.2491 4.27355 20.2491H19.3945V35.3706C19.3945 35.6065 19.586 35.798 19.8219 35.798C20.0578 35.798 20.2492 35.6065 20.2492 35.3706V20.2491H35.3708C35.6067 20.2491 35.7981 20.0576 35.7981 19.8217C35.7981 19.5858 35.6067 19.3944 35.3708 19.3944H20.2492Z" fill="white" stroke="white" stroke-width="2"/>
</svg>
