<svg width="30" height="30" viewBox="0 0 30 30" fill="none" xmlns="http://www.w3.org/2000/svg">
<path fill-rule="evenodd" clip-rule="evenodd" d="M15.3742 14.5343V1.372C15.3742 1.16666 15.2065 1 14.9998 1C14.793 1 14.6253 1.16666 14.6253 1.372V14.5343H1.3745C1.16778 14.5343 1 14.701 1 14.9063C1 15.1116 1.16778 15.2783 1.3745 15.2783H14.6253V28.4411C14.6253 28.6464 14.793 28.8131 14.9998 28.8131C15.2065 28.8131 15.3742 28.6464 15.3742 28.4411V15.2783H28.6255C28.8322 15.2783 29 15.1116 29 14.9063C29 14.701 28.8322 14.5343 28.6255 14.5343H15.3742Z" fill="white" stroke="white"/>
</svg>
