<svg width="126" height="132" viewBox="0 0 126 132" fill="none" xmlns="http://www.w3.org/2000/svg">
<path d="M63.225 0.934937C48.8229 0.934937 37.1058 12.652 37.1058 27.0541C37.1058 36.7321 42.4095 45.179 50.2504 49.6907H7.50414C3.66288 49.6907 0.539032 52.8145 0.539032 56.6558V93.2226C0.539032 97.0639 3.66288 100.188 7.50414 100.188H12.728V129.789C12.728 130.751 13.5081 131.531 14.4692 131.531H23.1756C24.1368 131.531 24.9169 130.751 24.9169 129.789V119.342H58.8718C59.3524 119.342 59.7424 118.952 59.7424 118.471C59.7424 117.991 59.3524 117.6 58.8718 117.6H24.9169V112.377H101.533V117.6H95.4386C94.958 117.6 94.568 117.991 94.568 118.471C94.568 118.952 94.958 119.342 95.4386 119.342H101.533V129.789C101.533 130.751 102.313 131.531 103.274 131.531H111.981C112.942 131.531 113.722 130.751 113.722 129.789V100.188H118.946C122.787 100.188 125.911 97.0639 125.911 93.2226V56.6558C125.911 52.8145 122.787 49.6907 118.946 49.6907H76.1995C84.0405 45.179 89.3441 36.7321 89.3441 27.0541C89.3441 12.652 77.6271 0.934937 63.225 0.934937ZM63.225 4.41749C75.7065 4.41749 85.8616 14.5726 85.8616 27.0541C85.8616 39.5356 75.7065 49.6907 63.225 49.6907C50.7435 49.6907 40.5884 39.5356 40.5884 27.0541C40.5884 14.5726 50.7435 4.41749 63.225 4.41749ZM52.7773 23.5715C50.8567 23.5715 49.2948 25.1335 49.2948 27.0541C49.2948 28.9747 50.8567 30.5366 52.7773 30.5366H73.6726C75.5933 30.5366 77.1552 28.9747 77.1552 27.0541C77.1552 25.1335 75.5933 23.5715 73.6726 23.5715H52.7773ZM52.7773 25.3128H73.6726C74.6321 25.3128 75.4139 26.0946 75.4139 27.0541C75.4139 28.0135 74.6321 28.7954 73.6726 28.7954H52.7773C51.8179 28.7954 51.036 28.0135 51.036 27.0541C51.036 26.0946 51.8179 25.3128 52.7773 25.3128ZM7.50414 53.1732H39.9796L15.8092 96.7051H14.4692H7.50414C5.58351 96.7051 4.02158 95.1432 4.02158 93.2226V83.87L17.4587 59.686C17.6937 59.2646 17.5434 58.7358 17.122 58.5025C16.7023 58.2657 16.1718 58.4229 15.9384 58.8426L4.02158 80.2923V56.6558C4.02158 54.7352 5.58351 53.1732 7.50414 53.1732ZM41.9726 53.1732H64.3575L40.1871 96.7051H23.1756H17.7988L41.9726 53.1732ZM66.3504 53.1732H85.2528L72.4381 76.2383C72.203 76.6597 72.3534 77.1919 72.7748 77.4253C72.9071 77.5001 73.0537 77.5341 73.1965 77.5341C73.503 77.5341 73.7981 77.3707 73.9583 77.0852L87.2458 53.1732H109.631L105.529 60.5567C105.294 60.978 105.444 61.5102 105.866 61.7436C105.998 61.8185 106.145 61.8524 106.288 61.8524C106.594 61.8524 106.891 61.6908 107.049 61.4035L111.624 53.1732H118.946C120.866 53.1732 122.428 54.7352 122.428 56.6558V67.753L106.345 96.7051H103.274H87.4294L97.3465 78.8741C97.5816 78.4527 97.4278 77.9205 97.0064 77.6871C96.5868 77.4521 96.0562 77.6076 95.8229 78.0272L85.4331 96.7051H63.0651L69.1324 85.7746C69.3675 85.3532 69.2171 84.8244 68.7957 84.591C68.3761 84.356 67.8455 84.5081 67.6122 84.9277L61.0722 96.7051H42.1766L66.3504 53.1732ZM104.434 63.6175C104.097 63.5804 103.755 63.747 103.58 64.063L102.591 65.8451C102.356 66.2665 102.506 66.7953 102.927 67.0286C103.06 67.1035 103.206 67.1409 103.349 67.1409C103.656 67.1409 103.953 66.9792 104.111 66.6919L105.104 64.9098C105.339 64.4885 105.185 63.9597 104.764 63.7263C104.659 63.6671 104.547 63.6298 104.434 63.6175ZM100.581 70.5588C100.243 70.522 99.9022 70.6849 99.7272 71.0009L97.775 74.5175C97.54 74.9389 97.6903 75.4677 98.1117 75.701C98.2441 75.7759 98.3907 75.8098 98.5334 75.8098C98.8399 75.8098 99.1368 75.6465 99.2953 75.3609L101.247 71.8477C101.482 71.4264 101.332 70.8976 100.911 70.6642C100.805 70.6055 100.693 70.5711 100.581 70.5588ZM122.428 71.3342V93.2226C122.428 95.1432 120.866 96.7051 118.946 96.7051H111.981H108.335L122.428 71.3342ZM16.2105 100.188H21.4343V128.048H16.2105V100.188ZM24.9169 100.188H101.533V110.635H24.9169V100.188ZM105.016 100.188H105.886H110.239V128.048H105.016V100.188ZM64.0956 117.6C63.615 117.6 63.225 117.991 63.225 118.471C63.225 118.952 63.615 119.342 64.0956 119.342H83.2497C83.7303 119.342 84.1203 118.952 84.1203 118.471C84.1203 117.991 83.7303 117.6 83.2497 117.6H64.0956ZM88.4735 117.6C87.9929 117.6 87.6029 117.991 87.6029 118.471C87.6029 118.952 87.9929 119.342 88.4735 119.342H91.956C92.4366 119.342 92.8267 118.952 92.8267 118.471C92.8267 117.991 92.4366 117.6 91.956 117.6H88.4735Z" fill="#D4E50B"/>
</svg>
