<svg width="149" height="149" viewBox="0 0 149 149" fill="none" xmlns="http://www.w3.org/2000/svg">
<path d="M89.8777 0C85.6736 0 81.7297 1.63159 78.7568 4.60449C76.0542 7.30713 74.3325 13.2629 73.2314 19.0786C72.3506 16.0256 71.1394 13.1729 69.4678 11.5112C66.9954 9.02881 63.6921 7.66748 60.1787 7.66748C56.6753 7.66748 53.3721 9.02881 50.8896 11.5112C48.4072 13.9937 47.0459 17.2969 47.0459 20.8103C47.0459 24.3137 48.4072 27.6169 50.8896 30.0994C51.1699 30.3796 51.4902 30.6399 51.8506 30.9001L7.6875 30.75C3.45337 30.75 0 34.2034 0 38.4375V48.6875C0 52.0308 2.14209 54.8835 5.125 55.9346V141.088C5.125 145.322 8.57837 148.625 12.8125 148.625H135.812C140.047 148.625 143.5 145.322 143.5 141.088V55.9346C146.483 54.8735 148.625 52.0308 148.625 48.6875V38.4375C148.625 34.2034 145.172 30.75 140.938 30.75L93.8816 30.9001C96.8445 29.739 99.437 28.3877 100.989 26.8362C107.125 20.7102 107.125 10.7305 100.989 4.60449C98.0256 1.63159 94.0818 0 89.8777 0ZM89.8777 5.125C92.7104 5.125 95.373 6.22608 97.375 8.22803C101.499 12.3621 101.499 19.0786 97.375 23.2126C94.5022 26.0754 84.3723 28.748 76.905 30.1494C77.6658 22.0815 79.5476 11.0708 82.3904 8.22803C84.3923 6.22608 87.0449 5.125 89.8777 5.125ZM60.1787 12.7925C62.3208 12.7925 64.3328 13.6133 65.8542 15.1348C67.8662 17.1567 69.3777 24.1235 70.0483 29.709C63.4419 29.4688 56.385 28.3477 54.5132 26.4658C53.0017 24.9543 52.1609 22.9424 52.1609 20.8103C52.1609 18.6682 53.0017 16.6462 54.5132 15.1348C56.0247 13.6233 58.0466 12.7925 60.1787 12.7925ZM7.6875 35.875H71.3496L71.75 36.1953V51.25H7.6875C6.27612 51.25 5.125 50.0989 5.125 48.6875V38.4375C5.125 37.0261 6.27612 35.875 7.6875 35.875ZM76.875 35.875H140.938C142.349 35.875 143.5 37.0261 143.5 38.4375V48.6875C143.5 50.0989 142.349 51.25 140.938 51.25H105.062C103.651 51.25 102.5 52.4011 102.5 53.8125C102.5 55.2239 103.651 56.375 105.062 56.375H138.375V141.088C138.375 142.499 137.224 143.5 135.812 143.5H12.8125C11.4011 143.5 10.25 142.499 10.25 141.088V56.375H74.3125C75.7239 56.375 76.875 55.2239 76.875 53.8125V35.875ZM84.5625 51.25C83.1511 51.25 82 52.4011 82 53.8125C82 55.2239 83.1511 56.375 84.5625 56.375H94.8125C96.2239 56.375 97.375 55.2239 97.375 53.8125C97.375 52.4011 96.2239 51.25 94.8125 51.25H84.5625ZM60.0986 64.0625C55.0337 64.0625 50.259 65.9543 46.6755 69.5479C39.2683 76.9551 39.2683 89.0068 46.6755 96.4141L71.0693 120.808C71.9502 121.689 73.1313 122.179 74.3826 122.179C75.6238 122.179 76.8049 121.689 77.6858 120.808L102.06 96.4141C109.467 89.0068 109.467 76.9551 102.06 69.5479C98.4761 65.9543 93.7014 64.0625 88.6365 64.0625C83.5615 64.0625 78.7869 65.9543 75.1934 69.5479L74.3625 70.3787L73.5417 69.5479C69.9482 65.9644 65.1736 64.0625 60.0986 64.0625ZM60.1086 69.1074C63.8123 69.1074 67.2957 70.5488 69.9182 73.1614L70.749 73.9922L69.4578 75.2935C68.4468 76.2944 68.4468 77.916 69.4578 78.917C69.9482 79.4175 70.6089 79.6677 71.2695 79.6677C71.9202 79.6677 72.5808 79.4175 73.0713 78.917L78.8269 73.1614C81.4495 70.5488 84.9329 69.1074 88.6365 69.1074C92.3401 69.1074 95.8235 70.5488 98.446 73.1614C103.841 78.5767 103.841 87.3752 98.436 92.7805L74.3826 116.864L50.2991 92.7805C44.8938 87.3752 44.8938 78.5767 50.2991 73.1614C52.9216 70.5488 56.405 69.1074 60.1086 69.1074ZM17.9375 128.275C16.5261 128.275 15.375 129.416 15.375 130.838V135.963C15.375 137.374 16.5261 138.525 17.9375 138.525C19.3489 138.525 20.5 137.374 20.5 135.963V130.838C20.5 129.416 19.3489 128.275 17.9375 128.275ZM30.75 128.275C29.3386 128.275 28.1875 129.416 28.1875 130.838V135.963C28.1875 137.374 29.3386 138.525 30.75 138.525C32.1614 138.525 33.3125 137.374 33.3125 135.963V130.838C33.3125 129.416 32.1614 128.275 30.75 128.275ZM43.5625 128.275C42.1511 128.275 41 129.416 41 130.838V135.963C41 137.374 42.1511 138.525 43.5625 138.525C44.9739 138.525 46.125 137.374 46.125 135.963V130.838C46.125 129.416 44.9739 128.275 43.5625 128.275ZM56.375 128.275C54.9636 128.275 53.8125 129.416 53.8125 130.838V135.963C53.8125 137.374 54.9636 138.525 56.375 138.525C57.7864 138.525 58.9375 137.374 58.9375 135.963V130.838C58.9375 129.416 57.7864 128.275 56.375 128.275ZM69.1875 128.275C67.7761 128.275 66.625 129.416 66.625 130.838V135.963C66.625 137.374 67.7761 138.525 69.1875 138.525C70.5989 138.525 71.75 137.374 71.75 135.963V130.838C71.75 129.416 70.5989 128.275 69.1875 128.275ZM82 128.275C80.5886 128.275 79.4375 129.416 79.4375 130.838V135.963C79.4375 137.374 80.5886 138.525 82 138.525C83.4114 138.525 84.5625 137.374 84.5625 135.963V130.838C84.5625 129.416 83.4114 128.275 82 128.275ZM94.8125 128.275C93.4011 128.275 92.25 129.416 92.25 130.838V135.963C92.25 137.374 93.4011 138.525 94.8125 138.525C96.2239 138.525 97.375 137.374 97.375 135.963V130.838C97.375 129.416 96.2239 128.275 94.8125 128.275ZM107.625 128.275C106.214 128.275 105.062 129.416 105.062 130.838V135.963C105.062 137.374 106.214 138.525 107.625 138.525C109.036 138.525 110.188 137.374 110.188 135.963V130.838C110.188 129.416 109.036 128.275 107.625 128.275ZM120.438 128.275C119.026 128.275 117.875 129.416 117.875 130.838V135.963C117.875 137.374 119.026 138.525 120.438 138.525C121.849 138.525 123 137.374 123 135.963V130.838C123 129.416 121.849 128.275 120.438 128.275ZM133.25 128.275C131.839 128.275 130.688 129.416 130.688 130.838V135.963C130.688 137.374 131.839 138.525 133.25 138.525C134.661 138.525 135.812 137.374 135.812 135.963V130.838C135.812 129.416 134.661 128.275 133.25 128.275Z" fill="#46A9D4"/>
</svg>
