<svg width="147" height="148" viewBox="0 0 147 148" fill="none" xmlns="http://www.w3.org/2000/svg">
<path d="M73.5103 22.498C66.7772 22.498 60.11 23.8242 53.8894 26.4009C47.6687 28.9776 42.0166 32.7542 37.2555 37.5153C32.4945 42.2763 28.7178 47.9285 26.1411 54.1491C23.5645 60.3697 22.2383 67.0369 22.2383 73.7701C22.2383 80.5032 23.5645 87.1704 26.1411 93.391C28.7178 99.6116 32.4945 105.264 37.2555 110.025C42.0166 114.786 47.6687 118.563 53.8894 121.139C60.11 123.716 66.7772 125.042 73.5103 125.042C80.2435 125.042 86.9107 123.716 93.1313 121.139C99.3519 118.563 105.004 114.786 109.765 110.025C114.526 105.264 118.303 99.6116 120.88 93.391C123.456 87.1704 124.782 80.5032 124.782 73.7701C124.782 67.0369 123.456 60.3697 120.88 54.1491C118.303 47.9285 114.526 42.2763 109.765 37.5153C105.004 32.7542 99.3519 28.9776 93.1313 26.4009C86.9107 23.8242 80.2435 22.498 73.5103 22.498Z" fill="#E0654C"/>
<path d="M76.6205 73.7725L92.6452 57.7477C93.5037 56.8908 93.5037 55.4976 92.6452 54.6407C92.2175 54.21 91.6549 53.9961 91.0924 53.9961C90.5299 53.9961 89.9674 54.21 89.5381 54.6392L73.5134 70.6654L57.4887 54.6392C57.0595 54.21 56.497 53.9961 55.9344 53.9961C55.3719 53.9961 54.8094 54.21 54.3802 54.6392C53.5217 55.4962 53.5217 56.8893 54.3802 57.7463L70.4063 73.7725L54.3802 89.7972C53.5217 90.6541 53.5217 92.0473 54.3802 92.9042C54.8094 93.3349 55.3719 93.5488 55.9344 93.5488C56.497 93.5488 57.0595 93.3349 57.4887 92.9057L73.5134 76.8795L89.5381 92.9042C89.9674 93.3349 90.5299 93.5488 91.0924 93.5488C91.6549 93.5488 92.2175 93.3349 92.6467 92.9057C93.5051 92.0487 93.5051 90.6556 92.6467 89.7986L76.6205 73.7725Z" fill="#FDFCEF"/>
<path d="M73.5104 126.507C44.4304 126.507 20.7734 102.85 20.7734 73.7702C20.7734 44.6901 44.4304 21.0332 73.5104 21.0332C102.59 21.0332 126.247 44.6901 126.247 73.7702C126.247 102.85 102.59 126.507 73.5104 126.507ZM73.5104 23.963C46.0462 23.963 23.7033 46.3059 23.7033 73.7702C23.7033 101.234 46.0462 123.577 73.5104 123.577C100.975 123.577 123.318 101.234 123.318 73.7702C123.318 46.3059 100.975 23.963 73.5104 23.963Z" fill="white"/>
<path d="M96.2178 36.0144C96.0903 36.0144 95.9614 35.9821 95.8442 35.9118C94.9096 35.3595 93.9413 34.8351 92.9628 34.3517C92.6009 34.1715 92.4515 33.7335 92.6302 33.3702C92.8104 33.0054 93.2528 32.8619 93.6117 33.0377C94.621 33.5372 95.6245 34.0792 96.5899 34.652C96.9371 34.8585 97.0528 35.3068 96.8477 35.6555C96.7115 35.8854 96.4683 36.0144 96.2178 36.0144ZM100.613 38.9779C100.457 38.9779 100.301 38.9281 100.167 38.827C99.6955 38.4652 99.215 38.115 98.7272 37.7723C98.3961 37.5393 98.3156 37.0838 98.5485 36.7527C98.7799 36.4187 99.237 36.3425 99.5681 36.5725C100.073 36.9255 100.569 37.2903 101.058 37.6639C101.38 37.9085 101.44 38.3685 101.196 38.6908C101.051 38.8783 100.832 38.9779 100.613 38.9779Z" fill="white"/>
<path d="M73.5081 119.184C48.4668 119.184 28.0957 98.8116 28.0957 73.7718C28.0957 48.732 48.4668 28.3594 73.5081 28.3594C78.8814 28.3594 84.1419 29.2896 89.1417 31.1222C89.5225 31.2614 89.7174 31.6818 89.5782 32.0627C89.439 32.4436 89.0171 32.6384 88.6377 32.4978C83.7991 30.7237 78.71 29.8243 73.5081 29.8243C49.2754 29.8243 29.5606 49.5391 29.5606 73.7718C29.5606 98.0044 49.2754 117.719 73.5081 117.719C97.7407 117.719 117.456 98.0044 117.456 73.7718C117.456 61.4093 112.204 49.5494 103.047 41.2316C102.746 40.9591 102.724 40.4962 102.997 40.1959C103.271 39.897 103.734 39.8751 104.031 40.1461C113.494 48.7422 118.92 60.9977 118.92 73.7718C118.92 98.8116 98.5493 119.184 73.5081 119.184Z" fill="white"/>
<path d="M77.6555 73.7725L93.1631 58.2649C93.7168 57.7126 94.0215 56.9758 94.0215 56.1935C94.0215 55.4112 93.7168 54.6744 93.1631 54.1221C92.6094 53.5684 91.874 53.2637 91.0917 53.2637C90.3094 53.2637 89.574 53.5684 89.0203 54.1221L73.5127 69.6297L58.0051 54.1221C57.4514 53.5684 56.716 53.2637 55.9337 53.2637C55.1515 53.2637 54.4161 53.5684 53.8623 54.1221C53.3086 54.6744 53.0039 55.4112 53.0039 56.1935C53.0039 56.9758 53.3086 57.7126 53.8623 58.2649L69.3699 73.7725L53.8623 89.2801C53.3086 89.8323 53.0039 90.5692 53.0039 91.3515C53.0039 92.1337 53.3086 92.8706 53.8623 93.4229C54.4161 93.9766 55.1515 94.2813 55.9337 94.2813C56.716 94.2813 57.4514 93.9766 58.0051 93.4229L73.5127 77.9153L89.0203 93.4229C89.574 93.9766 90.3094 94.2813 91.0917 94.2813C91.874 94.2813 92.6094 93.9766 93.1631 93.4229C93.7168 92.8706 94.0215 92.1337 94.0215 91.3515C94.0215 90.5692 93.7168 89.8323 93.1631 89.2801L77.6555 73.7725ZM92.1274 92.3872C91.5737 92.9409 90.6097 92.9409 90.056 92.3872L73.5127 75.8439L56.9694 92.3872C56.4157 92.9409 55.4518 92.9409 54.898 92.3872C54.6212 92.1103 54.4688 91.7426 54.4688 91.3515C54.4688 90.9603 54.6212 90.5926 54.898 90.3158L71.4413 73.7725L54.898 57.2292C54.6212 56.9523 54.4688 56.5846 54.4688 56.1935C54.4688 55.8024 54.6212 55.4347 54.898 55.1578C55.4518 54.6041 56.4157 54.6041 56.9694 55.1578L73.5127 71.7011L90.056 55.1578C90.6097 54.6041 91.5737 54.6041 92.1274 55.1578C92.4043 55.4347 92.5566 55.8024 92.5566 56.1935C92.5566 56.5846 92.4043 56.9523 92.1274 57.2292L75.5841 73.7725L92.1274 90.3158C92.4043 90.5926 92.5566 90.9603 92.5566 91.3515C92.5566 91.7426 92.4043 92.1103 92.1274 92.3872Z" fill="white"/>
</svg>
