<svg width="67" height="66" viewBox="0 0 67 66" fill="none" xmlns="http://www.w3.org/2000/svg">
<path d="M19.8834 0.130859C9.3578 0.130859 0.795898 8.70069 0.795898 19.229V46.5045C0.795898 57.0301 9.36573 65.592 19.8941 65.592H47.1696C57.6952 65.592 66.2571 57.0222 66.2571 46.4939V19.2184C66.2571 8.69277 57.6873 0.130859 47.1589 0.130859H19.8834ZM52.6193 11.0411C54.1249 11.0411 55.3469 12.263 55.3469 13.7686C55.3469 15.2742 54.1249 16.4962 52.6193 16.4962C51.1137 16.4962 49.8918 15.2742 49.8918 13.7686C49.8918 12.263 51.1137 11.0411 52.6193 11.0411ZM33.5265 16.4962C42.552 16.4962 49.8918 23.836 49.8918 32.8615C49.8918 41.8869 42.552 49.2268 33.5265 49.2268C24.501 49.2268 17.1612 41.8869 17.1612 32.8615C17.1612 23.836 24.501 16.4962 33.5265 16.4962ZM33.5265 21.9513C30.6329 21.9513 27.8579 23.1007 25.8118 25.1468C23.7658 27.1928 22.6163 29.9679 22.6163 32.8615C22.6163 35.755 23.7658 38.5301 25.8118 40.5761C27.8579 42.6222 30.6329 43.7717 33.5265 43.7717C36.4201 43.7717 39.1951 42.6222 41.2412 40.5761C43.2872 38.5301 44.4367 35.755 44.4367 32.8615C44.4367 29.9679 43.2872 27.1928 41.2412 25.1468C39.1951 23.1007 36.4201 21.9513 33.5265 21.9513Z" fill="#46A9D4"/>
</svg>
