<svg width="44" height="44" viewBox="0 0 44 44" fill="none" xmlns="http://www.w3.org/2000/svg">
<path fill-rule="evenodd" clip-rule="evenodd" d="M21.7921 43.5843C33.8276 43.5843 43.5843 33.8276 43.5843 21.7921C43.5843 9.75667 33.8276 0 21.7921 0C9.75667 0 0 9.75667 0 21.7921C0 33.8276 9.75667 43.5843 21.7921 43.5843Z" fill="#A9D47D"/>
<path fill-rule="evenodd" clip-rule="evenodd" d="M34.8002 11.6299L22.6574 26.6647C22.6207 26.7181 22.6173 26.7244 22.6133 26.7313L19.3272 30.8316C19.2315 30.9492 19.0996 31.0203 18.9556 31.0318C18.8065 31.0398 18.6712 30.9928 18.5611 30.8936L9.14114 22.3293C8.96623 22.1704 8.69383 22.1824 8.53326 22.3585C8.37383 22.534 8.38645 22.8064 8.5625 22.9658L17.9836 31.5313C18.2451 31.7664 18.572 31.8931 18.9143 31.8931C18.9499 31.8931 18.9854 31.892 19.0216 31.8891C19.4029 31.8599 19.7482 31.6769 19.9965 31.3718L23.3244 27.2193C23.3353 27.2044 35.4695 12.1701 35.4695 12.1701C35.6186 11.9854 35.5893 11.7148 35.4047 11.5651C35.2194 11.4166 34.9493 11.4441 34.8002 11.6299Z" fill="white" stroke="white" stroke-width="1.18866"/>
</svg>
