<svg width="151" height="151" viewBox="0 0 151 151" fill="none" xmlns="http://www.w3.org/2000/svg">
<path d="M84.5652 10.1978C76.1659 10.1883 67.5124 11.3473 59.0385 13.696C39.672 19.0622 22.6973 30.2352 12.4221 44.3692C12.2884 44.5098 12.1636 44.6651 12.0558 44.8362C10.6234 46.85 9.33613 48.897 8.25539 50.8756L7.75173 51.7776L7.81125 52.002C6.42106 56.0577 6.28718 60.3599 7.43121 64.4883C8.37832 67.9133 10.1871 71.0594 12.651 73.5725C14.1701 75.1456 16.0533 76.5573 18.0952 77.6568C18.8916 78.0858 19.7512 78.3676 20.6318 78.5405C20.5675 78.8929 20.47 79.2324 20.4166 79.589L14.9083 110.83C13.5815 118.355 15.638 126.029 20.5494 131.883C25.4608 137.739 32.662 141.096 40.3022 141.096H101.639C109.282 141.096 116.481 137.737 121.392 131.883C126.306 126.029 128.36 118.358 127.033 110.83L121.534 79.6486C119.737 67.6677 112.461 57.6338 102.642 52.0569L118.961 52.0157C122.313 51.9712 125.417 50.2239 127.061 47.4552C128.245 45.4626 129.135 43.2786 129.625 41.164C130.445 37.7249 130.375 34.1014 129.428 30.6786C128.279 26.5456 125.952 22.9206 122.665 20.1566L122.596 19.946L121.759 19.4561C119.768 18.291 117.611 17.1968 115.339 16.2052C115.159 16.1161 114.977 16.0438 114.79 15.9945C105.742 12.1558 95.3642 10.2101 84.5652 10.1978ZM84.556 14.8819C94.806 14.8916 104.63 16.7393 113.155 20.3947L113.549 20.5641H113.604C115.58 21.4339 117.461 22.3831 119.231 23.4076C122.007 25.5995 123.966 28.5458 124.904 31.9286C125.444 33.8784 125.606 35.9091 125.408 37.9131L95.0597 38.3435L94.2859 35.5505C93.1067 31.3002 91.2676 29.335 83.4892 28.9341C76.7094 28.5754 68.3965 30.5611 64.0431 31.7684C59.6874 32.9734 51.5445 35.5647 45.9158 39.3508C39.4548 43.6972 38.8872 46.3254 40.0641 50.578L40.8379 53.3619L14.6061 68.6458C13.4026 67.0301 12.4919 65.1952 11.9505 63.2383C11.0127 59.8554 11.1771 56.3217 12.4267 53.0139C13.4066 51.2416 14.5425 49.4451 15.792 47.6705L16.0805 47.2996C25.7298 33.9275 41.8411 23.3259 60.2839 18.2152C68.3527 15.9783 76.5838 14.8744 84.556 14.8819ZM78.3564 19.8727C75.5854 19.9474 72.4057 20.3307 68.8646 21.0129C67.5916 21.259 66.7618 22.4895 67.0056 23.7601C67.2213 24.8807 68.2023 25.6603 69.3041 25.6603C69.4495 25.6603 69.6006 25.6472 69.7483 25.6191C74.0993 24.7822 77.7973 24.439 80.7465 24.5843C82.0288 24.6476 83.1442 23.6577 83.2098 22.3636C83.2778 21.0719 82.2832 19.9704 80.9891 19.9048C80.1581 19.8608 79.28 19.8479 78.3564 19.8727ZM60.1557 23.316C59.8531 23.2845 59.5357 23.3126 59.2263 23.4076C54.6009 24.8165 48.1045 27.1591 43.4112 30.3169C42.3375 31.039 42.0503 32.4987 42.7747 33.5724C43.2272 34.2452 43.9704 34.6072 44.7253 34.6072C45.1754 34.6072 45.6248 34.4762 46.0257 34.2043C50.4635 31.22 57.0601 28.9708 60.5953 27.8948C61.8331 27.5173 62.5295 26.2067 62.1521 24.9689C61.8672 24.0388 61.0637 23.4104 60.1557 23.316ZM80.7923 33.6091C81.6345 33.5808 82.456 33.5832 83.2511 33.6228C88.9689 33.9158 89.1875 34.7022 89.7712 36.805L92.1797 45.5001C92.4802 46.5851 92.9897 47.5636 93.6357 48.4305C90.8588 47.7292 87.9855 47.3225 85.0368 47.3225H56.9048C52.6345 47.3225 48.5189 48.1518 44.6566 49.589L44.5833 49.328C44.002 47.2251 43.7876 46.4427 48.5348 43.2474C53.8049 39.7027 62.0133 37.2018 65.2977 36.2922C68.1716 35.4943 74.8963 33.8066 80.7923 33.6091ZM136.827 39.012C135.923 39.1399 135.14 39.7947 134.89 40.7336C134.558 41.9855 135.301 43.267 136.553 43.5999L141.085 44.8041C141.287 44.8581 141.486 44.8866 141.685 44.8866C142.721 44.8866 143.673 44.1947 143.952 43.142C144.285 41.8902 143.542 40.6041 142.29 40.2712L137.757 39.0715C137.445 38.9883 137.128 38.9694 136.827 39.012ZM124.236 42.6201C123.895 43.4494 123.489 44.2695 123.022 45.056C122.206 46.4321 120.626 47.3014 118.92 47.3225L100.82 47.3728H100.806C98.8931 47.3728 97.2054 46.0859 96.6943 44.241L96.3555 43.0184L124.236 42.6201ZM133.627 47.8582C132.729 47.6889 131.779 48.055 131.241 48.8655C130.526 49.9439 130.818 51.3991 131.896 52.1164L135.802 54.708C136.2 54.9729 136.652 55.1018 137.097 55.1018C137.855 55.1018 138.6 54.7331 139.053 54.0533C139.768 52.9749 139.476 51.5197 138.398 50.8023L134.492 48.2107C134.222 48.032 133.926 47.9146 133.627 47.8582ZM56.9048 52.0111H85.0368C100.779 52.0111 114.479 64.1907 116.91 80.4041L122.418 111.645C123.503 117.801 121.823 124.081 117.802 128.87C113.782 133.66 107.892 136.407 101.639 136.407H40.3022C34.2814 136.407 28.6138 133.84 24.6108 129.374H92.0698C93.3638 129.374 94.4141 128.324 94.4141 127.03C94.4141 125.736 93.3638 124.685 92.0698 124.685H21.7399C21.6342 124.685 21.5442 124.731 21.4422 124.745C19.4322 120.734 18.7262 116.159 19.5237 111.645L25.0412 80.3445C25.1488 79.6302 25.298 78.9299 25.4532 78.2337C26.1237 78.0169 26.7838 77.7498 27.4084 77.3867L42.9533 68.1101C46.4088 66.0471 48.0701 61.8982 46.9964 58.023L45.9066 54.1036C49.3648 52.77 53.0666 52.0111 56.9048 52.0111ZM126.887 54.9232C126.292 54.8488 125.672 55.0021 125.161 55.3994C124.138 56.1941 123.954 57.6648 124.748 58.687L127.624 62.3912C128.086 62.9843 128.775 63.2932 129.474 63.2932C129.975 63.2932 130.482 63.1338 130.911 62.8033C131.934 62.0086 132.118 60.5333 131.324 59.5111L128.448 55.8115C128.05 55.2993 127.482 54.9977 126.887 54.9232ZM42.1337 58.0322L42.4771 59.2685C42.9882 61.1181 42.1952 63.0939 40.5494 64.0762L25.0228 73.3436C23.5272 74.2157 21.7272 74.2863 20.3159 73.5268C19.5164 73.0958 18.7509 72.6078 18.0356 72.0753L42.1337 58.0322ZM70.9708 59.0441C54.1666 59.0441 40.4945 72.7162 40.4945 89.5204C40.4945 106.325 54.1666 119.997 70.9708 119.997C87.775 119.997 101.447 106.325 101.447 89.5204C101.447 72.7162 87.775 59.0441 70.9708 59.0441ZM70.9708 63.7328C85.1892 63.7328 96.7584 75.302 96.7584 89.5204C96.7584 103.739 85.1892 115.308 70.9708 115.308C56.7524 115.308 45.1832 103.739 45.1832 89.5204C45.1832 75.302 56.7524 63.7328 70.9708 63.7328ZM76.5615 69.3509C75.6507 69.4307 74.832 70.0441 74.5331 70.9672L73.0862 75.4224C72.6877 76.6531 73.3618 77.9771 74.5926 78.3757C74.8341 78.453 75.0769 78.4947 75.316 78.4947C76.303 78.4947 77.2224 77.8609 77.5459 76.8693L78.9974 72.4095C79.3959 71.1788 78.7172 69.8548 77.4864 69.4562C77.1781 69.3572 76.8651 69.3243 76.5615 69.3509ZM63.9836 69.7951C63.679 69.7899 63.3685 69.8437 63.0678 69.9645C61.8675 70.4497 61.2868 71.8182 61.772 73.0185L63.5303 77.3638C63.8984 78.2781 64.7769 78.829 65.7052 78.829C65.9959 78.829 66.296 78.7744 66.5843 78.6596C67.7846 78.1743 68.3654 76.8058 67.8801 75.6055L66.1219 71.2603C65.7579 70.36 64.8974 69.8104 63.9836 69.7951ZM86.4882 77.2768C86.1876 77.3249 85.888 77.4353 85.6137 77.6064L81.6439 80.0927C80.5468 80.7796 80.2107 82.2236 80.8976 83.3207C81.343 84.0311 82.1087 84.4196 82.8893 84.4196C83.3137 84.4196 83.7457 84.3062 84.1302 84.0671L88.1046 81.5762C89.2017 80.8893 89.5332 79.4453 88.8463 78.3482C88.3311 77.5253 87.3901 77.1324 86.4882 77.2768ZM54.6292 78.3802C53.7194 78.2986 52.8061 78.7557 52.3489 79.6119C51.7394 80.756 52.1734 82.1778 53.3151 82.785L57.4497 84.9874C57.8013 85.175 58.1758 85.2667 58.5486 85.2667C59.3879 85.2667 60.2008 84.8113 60.6228 84.0213C61.2323 82.8773 60.7983 81.46 59.6567 80.8528L55.5174 78.6458C55.232 78.4934 54.9324 78.4075 54.6292 78.3802ZM70.9708 84.8317C69.7273 84.8317 68.5347 85.3257 67.6554 86.205C66.7761 87.0843 66.2821 88.2769 66.2821 89.5204C66.2821 90.7639 66.7761 91.9565 67.6554 92.8358C68.5347 93.7151 69.7273 94.2091 70.9708 94.2091C72.2143 94.2091 73.4069 93.7151 74.2862 92.8358C75.1655 91.9565 75.6595 90.7639 75.6595 89.5204C75.6595 88.2769 75.1655 87.0843 74.2862 86.205C73.4069 85.3257 72.2143 84.8317 70.9708 84.8317ZM85.2062 89.1587C83.9356 88.9641 82.7378 89.8727 82.5597 91.155C82.3792 92.435 83.2782 93.6188 84.5606 93.797L89.2035 94.4472C89.3136 94.4636 89.4253 94.47 89.5331 94.47C90.6818 94.47 91.6813 93.6207 91.8454 92.4462C92.0259 91.1662 91.1314 89.9825 89.8491 89.8043L85.2062 89.1587ZM57.6603 90.1431C57.361 90.0852 57.0445 90.0849 56.7262 90.1523L52.1383 91.123C50.8724 91.3926 50.0625 92.634 50.3297 93.9023C50.5641 95.0041 51.5406 95.7613 52.6237 95.7613C52.7854 95.7613 52.9495 95.7461 53.1136 95.7109L57.7015 94.7402C58.9675 94.4706 59.7728 93.2246 59.5056 91.9563C59.3034 91.0069 58.5581 90.3168 57.6603 90.1431ZM80.4946 97.6157C79.8957 97.5846 79.2822 97.7864 78.8005 98.2201C77.8393 99.0875 77.7637 100.565 78.6311 101.526L81.7675 105.01C82.2294 105.526 82.872 105.789 83.512 105.789C84.07 105.789 84.6279 105.59 85.078 105.184C86.0392 104.317 86.1194 102.835 85.252 101.874L82.1109 98.3895C81.6784 97.9089 81.0936 97.6467 80.4946 97.6157ZM62.0376 98.2704C61.4422 98.3428 60.876 98.6397 60.4763 99.1496L57.5871 102.845C56.7876 103.864 56.9702 105.34 57.99 106.137C58.419 106.472 58.9259 106.631 59.4323 106.631C60.1286 106.631 60.8134 106.322 61.2775 105.734L64.1667 102.043C64.9662 101.024 64.7882 99.5483 63.7684 98.7512C63.2585 98.3527 62.6331 98.198 62.0376 98.2704ZM71.3829 101.215C70.0888 101.259 69.0764 102.343 69.121 103.637L69.2812 108.325C69.3258 109.594 70.3621 110.587 71.621 110.587C71.6468 110.587 71.6753 110.59 71.7034 110.587C72.9975 110.543 74.0098 109.455 73.9653 108.161L73.8051 103.476C73.7605 102.185 72.6934 101.182 71.3829 101.215ZM101.447 124.685C100.153 124.685 99.1028 125.736 99.1028 127.03C99.1028 128.324 100.153 129.374 101.447 129.374H110.824C112.118 129.374 113.169 128.324 113.169 127.03C113.169 125.736 112.118 124.685 110.824 124.685H101.447Z" fill="#46A9D4"/>
</svg>
