<svg width="151" height="152" viewBox="0 0 151 152" fill="none" xmlns="http://www.w3.org/2000/svg">
<g clip-path="url(#clip0)">
<path d="M64.9635 10.7959C29.2913 10.7959 0.255371 34.0412 0.255371 62.5992C0.255371 80.5134 11.4322 96.7732 30.2288 106.323C29.8612 111.029 28.5652 118.722 24.2268 125.901C23.758 126.701 23.8132 127.712 24.3463 128.484C24.7967 129.1 25.5044 129.449 26.2581 129.449C26.4236 129.449 26.6074 129.458 26.7728 129.403C41.8837 126.039 49.1082 117.5 51.8105 113.336C54.9632 113.851 58.1342 114.182 61.3145 114.329C68.9158 127.032 85.1021 135.837 103.788 135.837C106.822 135.837 109.882 135.598 112.897 135.102C115.057 138.3 120.379 144.21 131.032 146.563C131.197 146.609 131.363 146.637 131.528 146.637C132.282 146.637 132.99 146.279 133.431 145.644C134.001 144.891 134.047 143.861 133.56 143.052C130.618 138.162 129.699 132.841 129.387 129.761C142.871 122.748 150.849 110.983 150.849 98.014C150.849 84.7691 142.328 73.0959 129.488 66.3493C129.626 65.1176 129.672 63.8768 129.672 62.5992C129.672 34.0412 100.636 10.7959 64.9635 10.7959ZM64.9635 15.5019C98.0437 15.5019 124.966 36.624 124.966 62.5992C124.966 63.1415 124.947 63.7113 124.92 64.2536C118.568 61.6616 111.39 60.2094 103.788 60.2094C77.8316 60.2094 56.7279 77.1677 56.7279 98.014C56.7279 101.994 57.5 105.854 58.9339 109.448C56.3051 109.237 53.6672 108.888 51.0568 108.419C50.0641 108.235 49.053 108.704 48.5659 109.595C47.2699 111.994 42.426 119.338 30.8171 123.383C34.0249 116.066 34.843 109.007 35.0084 105.027C35.0544 104.09 34.5397 103.198 33.694 102.794C15.6971 94.1352 4.96142 79.1255 4.96142 62.5992C4.96142 36.624 31.8833 15.5019 64.9635 15.5019ZM64.9267 21.7705C63.1528 21.7889 61.3604 21.8808 59.6049 22.0371C58.3181 22.1566 57.3529 23.2963 57.4724 24.5923C57.5919 25.8883 58.7317 26.8534 60.0277 26.7248C61.6546 26.5777 63.3182 26.495 64.9727 26.4858C73.3645 26.3295 81.8115 28.0851 89.128 31.3573C89.4497 31.5043 89.7714 31.5687 90.1022 31.5687C90.9938 31.5687 91.8578 31.0448 92.2439 30.1716C92.777 28.9859 92.2439 27.598 91.0582 27.0648C83.1259 23.5169 74.0907 21.7246 64.9267 21.7705ZM98.6411 31.9823C98.0437 32.0834 97.4922 32.4143 97.1154 32.9382C96.3617 33.9952 96.6098 35.4659 97.6577 36.2288C98.9261 37.1295 100.139 38.0946 101.279 39.0965C101.72 39.4918 102.281 39.694 102.832 39.694C103.485 39.694 104.128 39.4274 104.597 38.8943C105.461 37.9292 105.369 36.4402 104.404 35.5762C103.145 34.464 101.794 33.3886 100.397 32.3867C99.8636 32.0191 99.2386 31.8904 98.6411 31.9823ZM42.6098 45.6868C40.0086 45.6868 37.9037 47.7917 37.9037 50.3929C37.9037 52.9941 40.0086 55.0989 42.6098 55.0989C45.211 55.0989 47.3158 52.9941 47.3158 50.3929C47.3158 47.7917 45.211 45.6868 42.6098 45.6868ZM84.9642 45.6868C82.363 45.6868 80.2582 47.7917 80.2582 50.3929C80.2582 52.9941 82.363 55.0989 84.9642 55.0989C87.5654 55.0989 89.6702 52.9941 89.6702 50.3929C89.6702 47.7917 87.5654 45.6868 84.9642 45.6868ZM103.788 64.9154C111.27 64.9154 118.302 66.4412 124.405 69.0976C125.903 69.7777 127.365 70.4855 128.725 71.2851C139.295 77.3148 146.143 87.0577 146.143 98.014C146.143 109.595 138.587 120.138 125.931 126.232C125.085 126.655 124.543 127.528 124.589 128.465C124.708 131.103 125.223 135.616 127.061 140.424C120.002 137.547 116.987 132.96 116.114 131.388C115.719 130.635 114.919 130.184 114.074 130.184C113.927 130.184 113.789 130.184 113.623 130.212C110.379 130.818 107.079 131.131 103.788 131.131C88.025 131.131 74.2561 124.366 66.9856 114.366C65.8827 112.886 64.9359 111.332 64.1638 109.687C62.3991 106.066 61.434 102.132 61.434 98.014C61.434 79.7597 80.4236 64.9154 103.788 64.9154ZM27.7563 76.6346C27.1589 76.6254 26.5522 76.8368 26.0927 77.2964L22.701 80.5594C21.7635 81.4601 21.7451 82.9583 22.6459 83.8867C23.1054 84.3646 23.7213 84.6036 24.3371 84.6036C24.9253 84.6036 25.5136 84.383 25.9732 83.951L29.3556 80.6788C30.2932 79.7689 30.3208 78.2799 29.4108 77.3423C28.9604 76.8828 28.363 76.6438 27.7563 76.6346ZM38.1519 84.668C37.242 84.5393 36.3044 84.9529 35.8081 85.7985L33.3815 89.8336C32.7105 90.9457 33.0782 92.3888 34.1904 93.0598C34.5672 93.2896 34.9808 93.3999 35.4037 93.3999C36.2033 93.3999 36.9754 92.9863 37.4166 92.2509L39.8431 88.2159C40.5049 87.1037 40.1465 85.6514 39.0343 84.9897C38.7494 84.815 38.446 84.7139 38.1519 84.668ZM89.6702 85.6882C87.0691 85.6882 84.9642 87.7931 84.9642 90.3943C84.9642 92.9955 87.0691 95.1003 89.6702 95.1003C92.2714 95.1003 94.3763 92.9955 94.3763 90.3943C94.3763 87.7931 92.2714 85.6882 89.6702 85.6882ZM117.907 85.6882C115.305 85.6882 113.2 87.7931 113.2 90.3943C113.2 92.9955 115.305 95.1003 117.907 95.1003C120.508 95.1003 122.613 92.9955 122.613 90.3943C122.613 87.7931 120.508 85.6882 117.907 85.6882ZM49.3655 89.806C48.4556 89.9163 47.6559 90.5597 47.3894 91.4972L46.0934 96.0195C45.7349 97.2695 46.461 98.5747 47.7111 98.9332C47.9317 98.9975 48.1431 99.0251 48.3545 99.0251C49.3839 99.0251 50.3215 98.3449 50.6248 97.3155L51.9116 92.7932C52.2701 91.5432 51.5439 90.238 50.2939 89.8795C49.9906 89.7968 49.6689 89.7692 49.3655 89.806ZM73.1439 104.512C72.8406 104.558 72.5373 104.659 72.2524 104.816C71.131 105.468 70.745 106.911 71.3976 108.033C74.826 113.989 81.0486 118.778 88.8982 121.507C89.1555 121.599 89.4221 121.645 89.6702 121.645C90.6445 121.645 91.5545 121.03 91.8946 120.064C92.3266 118.833 91.674 117.5 90.4423 117.068C83.659 114.706 78.3463 110.662 75.4786 105.68C74.9914 104.834 74.0539 104.402 73.1439 104.512Z" fill="#46A9D4"/>
</g>
<defs>
<clipPath id="clip0">
<rect width="150.593" height="150.593" fill="white" transform="translate(0.255371 0.979492)"/>
</clipPath>
</defs>
</svg>
