<svg width="70" height="70" viewBox="0 0 70 70" fill="none" xmlns="http://www.w3.org/2000/svg">
<path d="M35 9.79999C21.0908 9.79999 9.80005 21.0907 9.80005 35C9.80005 48.9093 21.0908 60.2 35 60.2C48.9093 60.2 60.2001 48.9093 60.2001 35C60.2001 21.0907 48.9093 9.79999 35 9.79999ZM35 11.2C48.1527 11.2 58.8001 21.8473 58.8001 35C58.8001 48.1527 48.1527 58.8 35 58.8C21.8474 58.8 11.2 48.1527 11.2 35C11.2 21.8473 21.8474 11.2 35 11.2ZM35 13.3C23.0194 13.3 13.3 23.0193 13.3 35C13.3 46.9806 23.0194 56.7 35 56.7C46.9807 56.7 56.7001 46.9806 56.7001 35C56.7001 28.6331 53.9554 22.9018 49.5852 18.9328C49.5515 18.9003 49.5116 18.875 49.4678 18.8582C49.4241 18.8415 49.3775 18.8337 49.3307 18.8352C49.2839 18.8368 49.2379 18.8478 49.1954 18.8675C49.1529 18.8872 49.1148 18.9152 49.0834 18.9498C49.0519 18.9845 49.0277 19.0251 49.0122 19.0693C48.9967 19.1135 48.9903 19.1603 48.9932 19.2071C48.9962 19.2538 49.0084 19.2994 49.0293 19.3413C49.0502 19.3832 49.0793 19.4205 49.1149 19.451C53.3449 23.2926 56.0001 28.8341 56.0001 35C56.0001 46.6023 46.6024 56 35 56C23.3977 56 14 46.6023 14 35C14 23.3976 23.3977 14 35 14C37.5416 14 39.9757 14.4521 42.2297 15.2783C42.2729 15.2941 42.3188 15.3013 42.3647 15.2993C42.4107 15.2974 42.4558 15.2865 42.4975 15.2671C42.5392 15.2477 42.5767 15.2204 42.6078 15.1865C42.6389 15.1527 42.6631 15.113 42.6789 15.0698C42.6947 15.0266 42.7018 14.9808 42.6999 14.9348C42.698 14.8889 42.687 14.8438 42.6677 14.8021C42.6483 14.7604 42.6209 14.7229 42.5871 14.6918C42.5532 14.6606 42.5135 14.6365 42.4704 14.6207C40.1408 13.7669 37.6245 13.3 35 13.3ZM44.4364 15.4984C44.3577 15.5004 44.282 15.5287 44.2215 15.5789C44.161 15.6292 44.1191 15.6983 44.1027 15.7753C44.0862 15.8522 44.0962 15.9324 44.1309 16.003C44.1657 16.0735 44.2232 16.1304 44.2942 16.1642C44.763 16.3962 45.2232 16.6455 45.6723 16.9107C45.7119 16.9352 45.7561 16.9516 45.8021 16.9588C45.8481 16.966 45.8951 16.964 45.9403 16.9528C45.9856 16.9416 46.0281 16.9216 46.0655 16.8937C46.1028 16.8659 46.1343 16.8309 46.1579 16.7908C46.1816 16.7506 46.197 16.7062 46.2032 16.66C46.2095 16.6139 46.2065 16.5669 46.1944 16.5219C46.1822 16.477 46.1613 16.4348 46.1327 16.3981C46.1041 16.3613 46.0684 16.3306 46.0278 16.3078C45.5641 16.034 45.0905 15.7765 44.6059 15.5367C44.5535 15.5099 44.4952 15.4967 44.4364 15.4984ZM47.2555 17.1582C47.2437 17.158 47.2318 17.1585 47.22 17.1596C47.1476 17.165 47.0786 17.1927 47.0227 17.2391C46.9668 17.2854 46.9266 17.348 46.9078 17.4181C46.8891 17.4883 46.8926 17.5625 46.9179 17.6306C46.9432 17.6987 46.989 17.7572 47.0491 17.798C47.282 17.9613 47.5113 18.13 47.7368 18.3025C47.7733 18.3305 47.815 18.3511 47.8595 18.363C47.9039 18.3749 47.9503 18.3779 47.996 18.3719C48.0416 18.3658 48.0856 18.3509 48.1255 18.3278C48.1654 18.3048 48.2003 18.2741 48.2283 18.2376C48.2563 18.2011 48.2768 18.1594 48.2887 18.1149C48.3006 18.0704 48.3036 18.024 48.2976 17.9784C48.2916 17.9327 48.2766 17.8887 48.2536 17.8489C48.2305 17.809 48.1999 17.7741 48.1633 17.7461C47.9296 17.5672 47.6913 17.3937 47.451 17.2252C47.3941 17.1837 47.3259 17.1603 47.2555 17.1582ZM31.9786 20.6596C31.3821 20.6596 30.7863 20.8921 30.3215 21.3568L24.2772 27.3998C20.6176 31.0594 20.6176 37.0266 24.2772 40.6861C26.0574 42.4663 28.4663 43.4082 30.9709 43.4082C33.4719 43.4082 35.88 42.4702 37.5635 40.6861L37.5717 40.6793L40.5864 37.6646C41.4328 36.8183 41.5365 35.2993 40.5864 34.3492C39.74 33.5028 38.2211 33.3991 37.2709 34.3492L34.1442 37.3762L34.136 37.3844C33.3028 38.3102 32.0912 38.7789 30.8711 38.7789C29.6707 38.7789 28.439 38.2139 27.5967 37.3734C25.8148 35.4937 25.8189 32.4889 27.5926 30.7152L33.6356 24.6723C34.5651 23.7428 34.5651 22.2863 33.6356 21.3568C33.1709 20.8921 32.575 20.6596 31.9786 20.6596ZM31.9786 21.3404C32.3894 21.3404 32.7997 21.5108 33.1407 21.8517C33.8226 22.5337 33.8226 23.4954 33.1407 24.1773L27.0977 30.2203C25.045 32.273 25.0501 35.7104 27.0922 37.8601L27.095 37.8629L27.0977 37.8656C28.0684 38.8363 29.4538 39.4789 30.8711 39.4789C32.2705 39.4789 33.6757 38.9421 34.6555 37.8533L37.7631 34.8469L37.7659 34.8441C38.4272 34.1829 39.5267 34.2807 40.0901 34.8441C40.7514 35.5054 40.6535 36.6063 40.0901 37.1697L37.0645 40.1953L37.0618 40.1994C35.5228 41.8346 33.3005 42.7082 30.9709 42.7082C28.6414 42.7082 26.4164 41.8354 24.7721 40.1912C21.3813 36.8004 21.3813 31.2856 24.7721 27.8947L30.8165 21.8517C31.1574 21.5108 31.5677 21.3404 31.9786 21.3404ZM39.0292 26.693C36.5245 26.693 34.2119 27.6384 32.4366 29.4137L29.3167 32.4338L29.3139 32.4365C28.4675 33.2829 28.3638 34.8018 29.3139 35.7519C30.1603 36.5983 31.6792 36.7021 32.6293 35.7519L35.7561 32.725L35.7643 32.7168C36.5975 31.7909 37.8091 31.3209 39.0292 31.3209C40.3517 31.3209 41.4607 31.784 42.4102 32.6348C44.189 34.5187 44.1879 37.4116 42.402 39.2916L36.3645 45.3277C35.435 46.2572 35.435 47.7137 36.3645 48.6432C36.829 49.1076 37.4248 49.35 38.0215 49.35C38.6183 49.35 39.1863 49.1173 39.6417 48.7758L39.6622 48.7607L45.7229 42.7C49.3825 39.0411 49.3817 33.0732 45.7229 29.4137C43.9427 27.6335 41.5338 26.693 39.0292 26.693ZM39.0292 27.393C41.3587 27.393 43.5837 28.2657 45.228 29.91C48.6174 33.3008 48.6185 38.8152 45.228 42.2051L39.211 48.2207C38.8615 48.4799 38.4276 48.65 38.0215 48.65C37.6117 48.65 37.1999 48.4888 36.8594 48.1482C36.1775 47.4663 36.1775 46.5046 36.8594 45.8226L42.9065 39.7769L42.9092 39.7742C44.9474 37.6287 44.9474 34.2853 42.9092 32.1398L42.8997 32.1303L42.8887 32.1207C41.8259 31.1642 40.5229 30.6209 39.0292 30.6209C37.6298 30.6209 36.2232 31.1591 35.2434 32.2478L32.1372 35.2543L32.1344 35.257C31.4731 35.9183 30.3723 35.8204 29.8088 35.257C29.1476 34.5957 29.2454 33.4949 29.8088 32.9314L32.9288 29.9113L32.9315 29.91C34.5806 28.2609 36.6996 27.393 39.0292 27.393Z" fill="#3D4C66"/>
<circle cx="35" cy="35" r="16.8" fill="white"/>
<path d="M42.8412 24.6717L42.5918 24.6896L42.5918 24.6896L42.8412 24.6717ZM43.4144 26.0985L43.601 25.9322L43.601 25.9322L43.4144 26.0985ZM44.4044 32.7262L44.1771 32.6222L44.1771 32.6222L44.4044 32.7262ZM44.2577 33.8104L44.4786 33.6935L44.4786 33.6935L44.2577 33.8104ZM44.4463 44.4454L44.6831 44.5254L44.6831 44.5254L44.4463 44.4454ZM42.0517 49V49.25H42.2054L42.2748 49.1129L42.0517 49ZM27.9001 49L27.7122 49.1649L27.7868 49.25H27.9001V49ZM24.9212 42.415L24.6761 42.4642L24.6761 42.4642L24.9212 42.415ZM25.7569 33.7795L25.5405 33.6544L25.5404 33.6545L25.7569 33.7795ZM25.7038 32.9019L25.9306 32.7968L25.9306 32.7968L25.7038 32.9019ZM26.629 26.0821L26.818 26.2458L26.818 26.2457L26.629 26.0821ZM27.0583 24.9292L27.3081 24.9399L27.3081 24.9398L27.0583 24.9292ZM27.0782 21.0483L27.2347 20.8533L26.8282 20.527V21.0483H27.0782ZM42.8148 21H43.0648V20.4916L42.6622 20.802L42.8148 21ZM31.2316 26.9127L31.2295 27.1627H31.2295L31.2316 26.9127ZM27.9751 30.0969L28.2251 30.0946V30.0946L27.9751 30.0969ZM31.1694 33.263L31.1734 33.0131H31.1734L31.1694 33.263ZM38.8184 33.2595L38.8195 33.5095H38.8195L38.8184 33.2595ZM41.9821 30.1192L42.2321 30.1226V30.1226L41.9821 30.1192ZM38.798 26.9133L38.7988 27.1633L38.7989 27.1633L38.798 26.9133ZM35.0338 31.7197L35.1943 31.5279L35.0199 31.382L34.8581 31.5419L35.0338 31.7197ZM42.5918 24.6896C42.6305 25.2271 42.8599 25.8523 43.2277 26.2649L43.601 25.9322C43.3179 25.6147 43.1226 25.0995 43.0905 24.6537L42.5918 24.6896ZM43.2277 26.2649C44.839 28.0729 45.2013 30.3839 44.1771 32.6222L44.6318 32.8302C45.7388 30.4109 45.3439 27.8879 43.601 25.9322L43.2277 26.2649ZM44.1771 32.6222C44.0964 32.7986 44.0167 33.023 43.9764 33.2453C43.9381 33.4564 43.9254 33.717 44.0367 33.9273L44.4786 33.6935C44.4487 33.6369 44.4351 33.5177 44.4683 33.3346C44.4996 33.1627 44.5639 32.9785 44.6318 32.8302L44.1771 32.6222ZM44.0367 33.9273C45.8525 37.3603 45.3919 40.8641 44.2094 44.3654L44.6831 44.5254C45.8833 40.9716 46.3889 37.305 44.4786 33.6935L44.0367 33.9273ZM44.2094 44.3654C43.9375 45.1706 43.5725 45.8504 43.1585 46.5562C42.7466 47.2583 42.2803 47.9951 41.8287 48.8871L42.2748 49.1129C42.7171 48.2393 43.1679 47.5282 43.5898 46.8092C44.0094 46.0939 44.3947 45.3792 44.6831 44.5254L44.2094 44.3654ZM42.0517 48.75C40.6063 48.75 29.185 48.75 27.9001 48.75V49.25C29.185 49.25 40.6063 49.25 42.0517 49.25V48.75ZM28.088 48.8351C26.4007 46.9115 25.6533 44.7882 25.1662 42.3657L24.6761 42.4642C25.172 44.931 25.9444 47.1496 27.7122 49.1649L28.088 48.8351ZM25.1662 42.3657C24.579 39.4446 24.4263 36.5841 25.9734 33.9045L25.5404 33.6545C23.9003 36.4951 24.0815 39.5071 24.6761 42.4642L25.1662 42.3657ZM25.9734 33.9046C26.0738 33.7308 26.0862 33.5132 26.0703 33.3328C26.0537 33.145 26.0022 32.9513 25.9306 32.7968L25.477 33.0071C25.5229 33.1062 25.5604 33.2432 25.5722 33.3768C25.5847 33.5177 25.5649 33.612 25.5405 33.6544L25.9734 33.9046ZM25.9306 32.7968C25.3722 31.5927 25.1646 30.4573 25.3061 29.379C25.4474 28.3012 25.9402 27.2592 26.818 26.2458L26.44 25.9184C25.5103 26.9918 24.9666 28.1222 24.8103 29.314C24.6541 30.5051 24.8876 31.7362 25.477 33.0071L25.9306 32.7968ZM26.818 26.2457C27.1167 25.9007 27.2893 25.3788 27.3081 24.9399L26.8085 24.9185C26.7936 25.2668 26.6514 25.6742 26.44 25.9185L26.818 26.2457ZM27.3081 24.9398C27.3619 23.6716 27.3282 22.3941 27.3282 21.0483H26.8282C26.8282 22.4119 26.8618 23.6644 26.8085 24.9186L27.3081 24.9398ZM26.9217 21.2432C30.489 24.1071 33.2574 25.0873 35.7838 24.829C38.2957 24.572 40.5094 23.0932 42.9675 21.198L42.6622 20.802C40.1992 22.7011 38.0876 24.0907 35.733 24.3315C33.3928 24.5709 30.7534 23.6782 27.2347 20.8533L26.9217 21.2432ZM42.5648 21C42.5648 22.3426 42.5082 23.5263 42.5918 24.6896L43.0905 24.6537C43.0086 23.5139 43.0648 22.3752 43.0648 21H42.5648ZM34.6334 30.051C34.62 28.1832 33.1075 26.6783 31.2337 26.6627L31.2295 27.1627C32.8325 27.176 34.122 28.4622 34.1334 30.0546L34.6334 30.051ZM31.2337 26.6627C29.3345 26.6466 27.7081 28.2286 27.7251 30.0991L28.2251 30.0946C28.2107 28.5146 29.5988 27.1489 31.2295 27.1627L31.2337 26.6627ZM27.7251 30.0991C27.7414 31.9029 29.3418 33.4837 31.1654 33.513L31.1734 33.0131C29.6136 32.988 28.2389 31.6198 28.2251 30.0946L27.7251 30.0991ZM31.1654 33.513C33.0615 33.5436 34.647 31.9568 34.6334 30.051L34.1334 30.0545C34.145 31.6835 32.7851 33.0391 31.1734 33.0131L31.1654 33.513ZM35.3907 30.0294C35.3697 31.9395 36.921 33.5181 38.8195 33.5095L38.8173 33.0095C37.2022 33.0168 35.8727 31.6701 35.8907 30.0349L35.3907 30.0294ZM38.8195 33.5095C40.6676 33.501 42.2073 31.9722 42.2321 30.1226L41.7322 30.1159C41.711 31.6935 40.392 33.0023 38.8172 33.0095L38.8195 33.5095ZM42.2321 30.1226C42.2579 28.1977 40.7266 26.6567 38.7972 26.6633L38.7989 27.1633C40.4503 27.1577 41.7542 28.4718 41.7322 30.1159L42.2321 30.1226ZM38.7972 26.6633C36.9236 26.6695 35.411 28.1622 35.3907 30.0294L35.8907 30.0349C35.908 28.4432 37.1965 27.1686 38.7988 27.1633L38.7972 26.6633ZM35.295 34.7737C35.8616 34.1286 36.206 33.5873 36.1905 33.0433C36.1747 32.4876 35.7888 32.0255 35.1943 31.5279L34.8734 31.9114C35.4627 32.4046 35.6817 32.74 35.6908 33.0575C35.7001 33.3869 35.4893 33.7948 34.9193 34.4438L35.295 34.7737ZM34.8581 31.5419C34.2845 32.1088 33.9173 32.6013 33.9296 33.1497C33.9418 33.6929 34.3255 34.195 34.9325 34.7876L35.2818 34.4299C34.6662 33.8288 34.4366 33.4564 34.4295 33.1384C34.4225 32.8256 34.6299 32.4704 35.2096 31.8975L34.8581 31.5419Z" fill="#3D4C66"/>
<path fill-rule="evenodd" clip-rule="evenodd" d="M31.2359 31.6827C32.1089 31.6827 32.8166 30.9779 32.8166 30.1084C32.8166 29.239 32.1089 28.5341 31.2359 28.5341C30.363 28.5341 29.6553 29.239 29.6553 30.1084C29.6553 30.9779 30.363 31.6827 31.2359 31.6827Z" stroke="#3D4C66" stroke-width="0.5"/>
<path fill-rule="evenodd" clip-rule="evenodd" d="M38.8387 31.6827C39.7117 31.6827 40.4193 30.9779 40.4193 30.1084C40.4193 29.239 39.7117 28.5341 38.8387 28.5341C37.9657 28.5341 37.2581 29.239 37.2581 30.1084C37.2581 30.9779 37.9657 31.6827 38.8387 31.6827Z" stroke="#3D4C66" stroke-width="0.5"/>
<path fill-rule="evenodd" clip-rule="evenodd" d="M31.5076 49H31.8312V46.93L33.156 48.772L33.4194 48.5851L31.8312 46.3769V44.3896H31.5076V46.377L29.9194 48.5851L30.1828 48.772L31.5076 46.93V49Z" fill="#3D4C66"/>
<path fill-rule="evenodd" clip-rule="evenodd" d="M38.1689 49H38.4925V46.93L39.8173 48.772L40.0807 48.5851L38.4925 46.3769V44.3896H38.1689V46.3769L36.5807 48.5851L36.8441 48.772L38.1689 46.93V49Z" fill="#3D4C66"/>
</svg>
