<svg width="30" height="30" viewBox="0 0 30 30" fill="none" xmlns="http://www.w3.org/2000/svg">
<path d="M4.21875 2.8125C3.44421 2.8125 2.8125 3.44421 2.8125 4.21875V24.8438C2.8125 25.6183 3.44421 26.25 4.21875 26.25H20.7861C21.4124 26.25 22.0001 26.0065 22.4432 25.5634L26.5009 21.5057C26.944 21.0626 27.1875 20.4749 27.1875 19.8486V4.21875C27.1875 3.44421 26.5558 2.8125 25.7812 2.8125H4.21875ZM4.21875 3.75H25.7812C26.0394 3.75 26.25 3.96057 26.25 4.21875V19.6674H22.0111C21.2366 19.6674 20.6049 20.2991 20.6049 21.0736V25.3125H4.21875C3.96057 25.3125 3.75 25.1019 3.75 24.8438V4.21875C3.75 3.96057 3.96057 3.75 4.21875 3.75ZM5.625 4.6875C5.36682 4.6875 5.15625 4.89807 5.15625 5.15625V6.09375C5.15625 6.35193 5.36682 6.5625 5.625 6.5625C5.88318 6.5625 6.09375 6.35193 6.09375 6.09375V5.15625C6.09375 4.89807 5.88318 4.6875 5.625 4.6875ZM7.96875 4.6875C7.71057 4.6875 7.5 4.89807 7.5 5.15625V6.09375C7.5 6.35193 7.71057 6.5625 7.96875 6.5625C8.22693 6.5625 8.4375 6.35193 8.4375 6.09375V5.15625C8.4375 4.89807 8.22693 4.6875 7.96875 4.6875ZM10.3125 4.6875C10.0543 4.6875 9.84375 4.89807 9.84375 5.15625V6.09375C9.84375 6.35193 10.0543 6.5625 10.3125 6.5625C10.5707 6.5625 10.7812 6.35193 10.7812 6.09375V5.15625C10.7812 4.89807 10.5707 4.6875 10.3125 4.6875ZM12.6562 4.6875C12.3981 4.6875 12.1875 4.89807 12.1875 5.15625V6.09375C12.1875 6.35193 12.3981 6.5625 12.6562 6.5625C12.9144 6.5625 13.125 6.35193 13.125 6.09375V5.15625C13.125 4.89807 12.9144 4.6875 12.6562 4.6875ZM15 4.6875C14.7418 4.6875 14.5312 4.89807 14.5312 5.15625V6.09375C14.5312 6.35193 14.7418 6.5625 15 6.5625C15.2582 6.5625 15.4688 6.35193 15.4688 6.09375V5.15625C15.4688 4.89807 15.2582 4.6875 15 4.6875ZM17.3438 4.6875C17.0856 4.6875 16.875 4.89807 16.875 5.15625V6.09375C16.875 6.35193 17.0856 6.5625 17.3438 6.5625C17.6019 6.5625 17.8125 6.35193 17.8125 6.09375V5.15625C17.8125 4.89807 17.6019 4.6875 17.3438 4.6875ZM19.6875 4.6875C19.4293 4.6875 19.2188 4.89807 19.2188 5.15625V6.09375C19.2188 6.35193 19.4293 6.5625 19.6875 6.5625C19.9457 6.5625 20.1562 6.35193 20.1562 6.09375V5.15625C20.1562 4.89807 19.9457 4.6875 19.6875 4.6875ZM22.0312 4.6875C21.7731 4.6875 21.5625 4.89807 21.5625 5.15625V6.09375C21.5625 6.35193 21.7731 6.5625 22.0312 6.5625C22.2894 6.5625 22.5 6.35193 22.5 6.09375V5.15625C22.5 4.89807 22.2894 4.6875 22.0312 4.6875ZM24.375 4.6875C24.1168 4.6875 23.9062 4.89807 23.9062 5.15625V6.09375C23.9062 6.35193 24.1168 6.5625 24.375 6.5625C24.6332 6.5625 24.8438 6.35193 24.8438 6.09375V5.15625C24.8438 4.89807 24.6332 4.6875 24.375 4.6875ZM7.96875 13.125C7.71057 13.125 7.5 13.3356 7.5 13.5938C7.5 13.8519 7.71057 14.0625 7.96875 14.0625H16.4062C16.6644 14.0625 16.875 13.8519 16.875 13.5938C16.875 13.3356 16.6644 13.125 16.4062 13.125H7.96875ZM18.2812 13.125C18.0231 13.125 17.8125 13.3356 17.8125 13.5938C17.8125 13.8519 18.0231 14.0625 18.2812 14.0625H21.0938C21.3519 14.0625 21.5625 13.8519 21.5625 13.5938C21.5625 13.3356 21.3519 13.125 21.0938 13.125H18.2812ZM7.96875 15.9375C7.71057 15.9375 7.5 16.1481 7.5 16.4062C7.5 16.6644 7.71057 16.875 7.96875 16.875H18.2812C18.5394 16.875 18.75 16.6644 18.75 16.4062C18.75 16.1481 18.5394 15.9375 18.2812 15.9375H7.96875ZM22.0111 20.6049H26.0284C25.9735 20.6891 25.9113 20.7697 25.838 20.8429L21.7804 24.9005C21.709 24.9719 21.6284 25.0342 21.5424 25.0873V21.0736C21.5424 20.8154 21.7529 20.6049 22.0111 20.6049Z" fill="#179E66"/>
</svg>
