<svg width="30" height="30" viewBox="0 0 30 30" fill="none" xmlns="http://www.w3.org/2000/svg">
<path d="M5.15625 1.875C4.38171 1.875 3.75 2.50671 3.75 3.28125V24.375H1.875C1.35864 24.375 0.9375 24.7961 0.9375 25.3125V26.25C0.9375 27.2845 1.77795 28.125 2.8125 28.125H25.3125C26.347 28.125 27.1875 27.2845 27.1875 26.25V3.28125C27.1875 2.50671 26.5558 1.875 25.7812 1.875H5.15625ZM5.15625 2.8125H25.7812C26.0394 2.8125 26.25 3.02307 26.25 3.28125V26.25C26.25 26.7664 25.8289 27.1875 25.3125 27.1875C24.7961 27.1875 24.375 26.7664 24.375 26.25V25.3125C24.375 24.7961 23.9539 24.375 23.4375 24.375H4.6875V3.28125C4.6875 3.02307 4.89807 2.8125 5.15625 2.8125ZM9.375 5.625C9.11499 5.625 8.90625 5.83374 8.90625 6.09375V6.5625C8.13171 6.5625 7.5 7.19421 7.5 7.96875V9.375C7.5 10.1495 8.13171 10.7812 8.90625 10.7812H9.84375C10.1019 10.7812 10.3125 10.9918 10.3125 11.25V12.6562C10.3125 12.9144 10.1019 13.125 9.84375 13.125H8.90625C8.64807 13.125 8.4375 12.9144 8.4375 12.6562V12.1875C8.4375 11.9275 8.22876 11.7188 7.96875 11.7188C7.70874 11.7188 7.5 11.9275 7.5 12.1875V12.6562C7.5 13.4308 8.13171 14.0625 8.90625 14.0625V14.5312C8.90625 14.7913 9.11499 15 9.375 15C9.63501 15 9.84375 14.7913 9.84375 14.5312V14.0625C10.6183 14.0625 11.25 13.4308 11.25 12.6562V11.25C11.25 10.4755 10.6183 9.84375 9.84375 9.84375H8.90625C8.64807 9.84375 8.4375 9.63318 8.4375 9.375V7.96875C8.4375 7.71057 8.64807 7.5 8.90625 7.5H9.84375C10.1019 7.5 10.3125 7.71057 10.3125 7.96875V8.4375C10.3125 8.69751 10.5212 8.90625 10.7812 8.90625C11.0413 8.90625 11.25 8.69751 11.25 8.4375V7.96875C11.25 7.19421 10.6183 6.5625 9.84375 6.5625V6.09375C9.84375 5.83374 9.63501 5.625 9.375 5.625ZM13.5938 6.5625C13.3337 6.5625 13.125 6.77124 13.125 7.03125C13.125 7.29126 13.3337 7.5 13.5938 7.5H17.3438C17.6038 7.5 17.8125 7.29126 17.8125 7.03125C17.8125 6.77124 17.6038 6.5625 17.3438 6.5625H13.5938ZM19.2188 6.5625C18.9587 6.5625 18.75 6.77124 18.75 7.03125C18.75 7.29126 18.9587 7.5 19.2188 7.5H22.0312C22.2913 7.5 22.5 7.29126 22.5 7.03125C22.5 6.77124 22.2913 6.5625 22.0312 6.5625H19.2188ZM13.5938 8.4375C13.3337 8.4375 13.125 8.64624 13.125 8.90625C13.125 9.16626 13.3337 9.375 13.5938 9.375H20.1562C20.4163 9.375 20.625 9.16626 20.625 8.90625C20.625 8.64624 20.4163 8.4375 20.1562 8.4375H13.5938ZM13.5938 13.125C13.3337 13.125 13.125 13.3337 13.125 13.5938C13.125 13.8538 13.3337 14.0625 13.5938 14.0625H22.0312C22.2913 14.0625 22.5 13.8538 22.5 13.5938C22.5 13.3337 22.2913 13.125 22.0312 13.125H13.5938ZM13.5938 15C13.3337 15 13.125 15.2087 13.125 15.4688C13.125 15.7288 13.3337 15.9375 13.5938 15.9375H17.3438C17.6038 15.9375 17.8125 15.7288 17.8125 15.4688C17.8125 15.2087 17.6038 15 17.3438 15H13.5938ZM19.2188 15C18.9587 15 18.75 15.2087 18.75 15.4688C18.75 15.7288 18.9587 15.9375 19.2188 15.9375H20.1562C20.4163 15.9375 20.625 15.7288 20.625 15.4688C20.625 15.2087 20.4163 15 20.1562 15H19.2188ZM6.5625 20.625C6.30249 20.625 6.09375 20.8337 6.09375 21.0938V22.0312C6.09375 22.2913 6.30249 22.5 6.5625 22.5C6.82251 22.5 7.03125 22.2913 7.03125 22.0312V21.0938C7.03125 20.8337 6.82251 20.625 6.5625 20.625ZM8.90625 20.625C8.64624 20.625 8.4375 20.8337 8.4375 21.0938V22.0312C8.4375 22.2913 8.64624 22.5 8.90625 22.5C9.16626 22.5 9.375 22.2913 9.375 22.0312V21.0938C9.375 20.8337 9.16626 20.625 8.90625 20.625ZM11.25 20.625C10.99 20.625 10.7812 20.8337 10.7812 21.0938V22.0312C10.7812 22.2913 10.99 22.5 11.25 22.5C11.51 22.5 11.7188 22.2913 11.7188 22.0312V21.0938C11.7188 20.8337 11.51 20.625 11.25 20.625ZM13.5938 20.625C13.3337 20.625 13.125 20.8337 13.125 21.0938V22.0312C13.125 22.2913 13.3337 22.5 13.5938 22.5C13.8538 22.5 14.0625 22.2913 14.0625 22.0312V21.0938C14.0625 20.8337 13.8538 20.625 13.5938 20.625ZM15.9375 20.625C15.6775 20.625 15.4688 20.8337 15.4688 21.0938V22.0312C15.4688 22.2913 15.6775 22.5 15.9375 22.5C16.1975 22.5 16.4062 22.2913 16.4062 22.0312V21.0938C16.4062 20.8337 16.1975 20.625 15.9375 20.625ZM18.2812 20.625C18.0212 20.625 17.8125 20.8337 17.8125 21.0938V22.0312C17.8125 22.2913 18.0212 22.5 18.2812 22.5C18.5413 22.5 18.75 22.2913 18.75 22.0312V21.0938C18.75 20.8337 18.5413 20.625 18.2812 20.625ZM20.625 20.625C20.365 20.625 20.1562 20.8337 20.1562 21.0938V22.0312C20.1562 22.2913 20.365 22.5 20.625 22.5C20.885 22.5 21.0938 22.2913 21.0938 22.0312V21.0938C21.0938 20.8337 20.885 20.625 20.625 20.625ZM22.9688 20.625C22.7087 20.625 22.5 20.8337 22.5 21.0938V22.0312C22.5 22.2913 22.7087 22.5 22.9688 22.5C23.2288 22.5 23.4375 22.2913 23.4375 22.0312V21.0938C23.4375 20.8337 23.2288 20.625 22.9688 20.625ZM25.3125 20.625C25.0525 20.625 24.8438 20.8337 24.8438 21.0938V22.0312C24.8438 22.2913 25.0525 22.5 25.3125 22.5C25.5725 22.5 25.7812 22.2913 25.7812 22.0312V21.0938C25.7812 20.8337 25.5725 20.625 25.3125 20.625ZM1.875 25.3125H23.4375V26.25C23.4375 26.5924 23.5364 26.911 23.6993 27.1875H2.8125C2.29614 27.1875 1.875 26.7664 1.875 26.25V25.3125Z" fill="#3D4C66"/>
</svg>
