<svg width="32" height="32" viewBox="0 0 32 32" fill="none" xmlns="http://www.w3.org/2000/svg">
<path d="M13 1C11.8984 1 10.3262 1.34375 9.3457 2.00391C7.48438 2.07031 6.20898 3.37891 6.00195 5.45117C5.87305 6.73047 5.99219 7.64648 6.06836 8.25195C6.0957 8.46289 6.125 8.70117 6.11523 8.77148C6.09766 8.86523 6.08398 8.95898 6.07031 9.05273C5.98828 9.05664 5.91406 9.06836 5.85156 9.08594C5.40234 9.20703 5.08594 9.60742 4.96094 10.2168C4.86133 10.7051 4.89258 11.2988 5.05078 11.8887C5.31836 12.8867 5.87891 13.6367 6.49219 13.8672C6.80859 14.8359 7.27344 15.7988 7.85156 16.666L3.24219 19.3359C1.24219 20.4922 0 22.6484 0 24.959V28.5C0 29.3262 0.673828 30 1.5 30H14.3828L14.2051 31.2285C14.1836 31.3848 14.2363 31.541 14.3477 31.6543C14.4414 31.748 14.5684 31.7988 14.7012 31.7988C14.7246 31.7988 14.748 31.7988 14.7734 31.7949L17.2324 31.4434L20.4258 31.1035C20.541 31.0918 20.6445 31.041 20.7266 30.9609L29.6484 22.0098L31.0605 20.5957C31.5332 20.125 31.7949 19.4961 31.7949 18.8281C31.793 18.1602 31.5332 17.5332 31.0605 17.0605L28.9395 14.9395C27.9648 13.9648 26.3789 13.9648 25.4043 14.9395L24.3672 15.9746V15.9766L24.2891 16.0527L23.9902 16.3535C23.9883 16.3555 23.9902 16.3555 23.9883 16.3574L22.4707 17.877C22.4668 17.8828 22.459 17.8848 22.4531 17.8906C22.4492 17.8945 22.4492 17.9023 22.4434 17.9062L21.6562 18.6973L18.1484 16.666C18.7266 15.7988 19.1914 14.8359 19.5078 13.8672C20.1211 13.6367 20.6816 12.8867 20.9492 11.8887C21.3184 10.5117 20.9727 9.30664 20.1484 9.08594C20.0859 9.07031 20.0117 9.05664 19.9297 9.05469C19.8594 8.51953 19.7246 8.01953 19.4707 7.33594C19.4648 7.31445 19.459 7.29688 19.4531 7.28125C19.6289 7.29492 19.9121 7.36719 20.1426 7.46289C20.3164 7.53516 20.5137 7.50391 20.6562 7.38281C20.7969 7.26367 20.8633 7.07422 20.8223 6.89258C20.0176 3.20313 17.2793 1 13.5 1H13ZM13 2H13.5C16.5352 2 18.7266 3.55078 19.625 6.29102C19.2812 6.25195 18.9238 6.29297 18.6777 6.53125C18.4863 6.71289 18.3066 7.0625 18.5332 7.67969C18.8418 8.51953 18.9531 9.01367 18.9844 9.7168C18.9941 9.89648 19.0977 10.0566 19.2559 10.1387C19.416 10.2188 19.6074 10.209 19.7578 10.1113C19.8379 10.0586 19.8828 10.0527 19.8906 10.0527C20.0117 10.0938 20.2305 10.7031 19.9844 11.6289C19.7363 12.5508 19.2656 12.9395 19.1172 12.9395C18.8965 12.9395 18.7012 13.0859 18.6387 13.2969C17.7949 16.1309 15.5879 19 13 19C10.4102 19 8.20508 16.1309 7.36328 13.2969C7.30078 13.0859 7.10547 12.9395 6.88281 12.9395C6.73633 12.9395 6.26367 12.5508 6.01758 11.6289C5.90039 11.1934 5.87305 10.752 5.94141 10.416C5.99805 10.1367 6.0957 10.0547 6.10742 10.0527C6.10938 10.0527 6.15234 10.0527 6.24414 10.1113C6.39453 10.209 6.58398 10.2188 6.74414 10.1387C6.90234 10.0566 7.00781 9.89648 7.01562 9.7168C7.02734 9.45703 7.05469 9.19531 7.09961 8.94531C7.13672 8.73047 7.10742 8.49023 7.06055 8.125C6.98828 7.56445 6.88086 6.7168 6.99805 5.55078C7.1582 3.95508 8.09375 3 9.50781 3C9.61719 3 9.72266 2.96484 9.80859 2.90039C10.4922 2.38672 11.8652 2 13 2ZM10.2637 5.0625C9.90625 5.03125 9.54688 5.19531 9.3418 5.50781L8.53906 6.72461C8.38672 6.95508 8.45117 7.26562 8.68164 7.41797C8.76562 7.47461 8.86133 7.5 8.95508 7.5C9.11914 7.5 9.27734 7.42188 9.375 7.27539L10.1777 6.05859L10.959 6.43945C12.3828 7.13281 13.9707 7.5 15.5547 7.5H16.834C17.1094 7.5 17.334 7.27539 17.334 7C17.334 6.72461 17.1094 6.5 16.834 6.5H15.5547C14.123 6.5 12.6836 6.16797 11.3965 5.53906L10.6152 5.1582C10.502 5.10352 10.3828 5.07227 10.2637 5.0625ZM27.1719 15.209C27.5547 15.207 27.9395 15.3535 28.2324 15.6465L30.3535 17.7676C30.6367 18.0508 30.793 18.4277 30.793 18.8281C30.793 19.2285 30.6367 19.6055 30.3535 19.8887L29.293 20.9492L25.0508 16.707L26.1113 15.6465C26.4043 15.3535 26.7871 15.209 27.1719 15.209ZM24.3438 17.4141L28.5859 21.6562L27.7598 22.4863L23.5156 18.2441L24.3438 17.4141ZM8.45312 17.4707C9.66992 18.9551 11.252 20 13 20C14.748 20 16.3281 18.9551 17.5449 17.4707L20.9238 19.4297L15.0703 25.3047C14.9902 25.3828 14.9395 25.4863 14.9277 25.5996L14.5605 28.7539L14.5234 29H1.5C1.22461 29 1 28.7754 1 28.5V24.959C1 23.0039 2.05078 21.1797 3.74414 20.1992L8.45312 17.4707ZM22.8105 18.9531L27.0547 23.1953L20.7266 29.541L20.502 27.3594C20.4746 27.1035 20.2617 26.9102 20.0059 26.9102H19.0918V26.2031L21.7734 23.5215C21.9688 23.3242 21.9688 23.0098 21.7734 22.8125C21.5762 22.6172 21.2617 22.6172 21.0645 22.8125L18.4062 25.4727L16.5098 25.2734L22.8105 18.9531ZM9.03125 20C8.83789 19.9883 8.64453 20.0918 8.55273 20.2754C8.42969 20.5234 8.5293 20.8242 8.77539 20.9473L12.7754 22.9473C12.8477 22.9824 12.9238 23 13 23C13.0762 23 13.1543 22.9824 13.2246 22.9473L17.2246 20.9473C17.4707 20.8242 17.5703 20.5234 17.4473 20.2754C17.3242 20.0293 17.0234 19.9297 16.7754 20.0527L13 21.9414L9.22461 20.0527C9.16211 20.0215 9.09766 20.0059 9.03125 20ZM3 26C2.72266 26 2.5 26.2246 2.5 26.5V27.5C2.5 27.7754 2.72266 28 3 28C3.27734 28 3.5 27.7754 3.5 27.5V26.5C3.5 26.2246 3.27734 26 3 26ZM5.5 26C5.22266 26 5 26.2246 5 26.5V27.5C5 27.7754 5.22266 28 5.5 28C5.77734 28 6 27.7754 6 27.5V26.5C6 26.2246 5.77734 26 5.5 26ZM8 26C7.72266 26 7.5 26.2246 7.5 26.5V27.5C7.5 27.7754 7.72266 28 8 28C8.27734 28 8.5 27.7754 8.5 27.5V26.5C8.5 26.2246 8.27734 26 8 26ZM10.5 26C10.2227 26 10 26.2246 10 26.5V27.5C10 27.7754 10.2227 28 10.5 28C10.7773 28 11 27.7754 11 27.5V26.5C11 26.2246 10.7773 26 10.5 26ZM13 26C12.7227 26 12.5 26.2246 12.5 26.5V27.5C12.5 27.7754 12.7227 28 13 28C13.2773 28 13.5 27.7754 13.5 27.5V26.5C13.5 26.2246 13.2773 26 13 26ZM15.8613 26.2109L18.0918 26.4453V27.4082C18.0918 27.6855 18.3145 27.9082 18.5918 27.9082H19.5547L19.7871 30.1641L17.3594 30.4219L15.5781 28.6406L15.8613 26.2109Z" fill="#B9DC96"/>
</svg>
