<svg width="30" height="30" viewBox="0 0 30 30" fill="none" xmlns="http://www.w3.org/2000/svg">
<path d="M4.21875 0.9375C3.95874 0.9375 3.75 1.14807 3.75 1.40625V6.1322C3.75 6.39038 3.95874 6.60095 4.21875 6.60095H8.90625C9.16626 6.60095 9.375 6.39038 9.375 6.1322C9.375 5.87402 9.16626 5.66345 8.90625 5.66345H5.50598C7.87903 3.24829 11.1218 1.875 14.5312 1.875C21.5094 1.875 27.1875 7.5531 27.1875 14.5312C27.1875 21.1432 22.0276 26.6895 15.4395 27.1564C15.1813 27.1729 14.9872 27.3981 15.0055 27.6562C15.022 27.9034 15.2271 28.092 15.4706 28.092C15.4816 28.092 15.4944 28.092 15.5054 28.0902C22.5806 27.5903 28.125 21.6339 28.125 14.5312C28.125 7.03491 22.0258 0.9375 14.5312 0.9375C10.7977 0.9375 7.24915 2.46826 4.6875 5.15625V1.40625C4.6875 1.14807 4.47876 0.9375 4.21875 0.9375ZM14.7675 3.75C14.0369 3.73352 13.3026 3.79211 12.5775 3.92578C12.323 3.97339 12.1564 4.21692 12.2021 4.47144C12.2498 4.72595 12.4951 4.89624 12.7478 4.84863C14.5111 4.52271 16.333 4.68933 18.0176 5.32471C18.0725 5.34485 18.1293 5.35583 18.1842 5.35583C18.3728 5.35583 18.5522 5.23865 18.6237 5.05188C18.7134 4.81018 18.5925 4.53918 18.349 4.44763C17.1973 4.01184 15.9851 3.7793 14.7675 3.75ZM20.083 5.32837C19.9036 5.29907 19.715 5.37781 19.6124 5.5426C19.4751 5.7605 19.541 6.0498 19.7607 6.18896C20.0629 6.37756 20.3577 6.5863 20.6396 6.80786C20.7257 6.87561 20.8264 6.90857 20.929 6.90857C21.0681 6.90857 21.2054 6.84814 21.297 6.73096C21.4581 6.52771 21.4233 6.23291 21.2201 6.07178C20.9125 5.83008 20.5884 5.6012 20.2588 5.39429C20.2039 5.3595 20.1434 5.33752 20.083 5.32837ZM14.5312 7.5C14.2712 7.5 14.0625 7.71057 14.0625 7.96875V9.375H13.5938C12.301 9.375 11.25 10.426 11.25 11.7188V12.6562C11.25 13.949 12.301 15 13.5938 15H15.4688C16.2433 15 16.875 15.6317 16.875 16.4062V17.3438C16.875 18.1183 16.2433 18.75 15.4688 18.75H15V15.9375C15 15.6793 14.7913 15.4688 14.5312 15.4688C14.2712 15.4688 14.0625 15.6793 14.0625 15.9375V18.75H13.5938C12.8192 18.75 12.1875 18.1183 12.1875 17.3438C12.1875 17.0856 11.9788 16.875 11.7188 16.875C11.4587 16.875 11.25 17.0856 11.25 17.3438C11.25 18.6365 12.301 19.6875 13.5938 19.6875H14.0625V21.0938C14.0625 21.3519 14.2712 21.5625 14.5312 21.5625C14.7913 21.5625 15 21.3519 15 21.0938V19.6875H15.4688C16.7615 19.6875 17.8125 18.6365 17.8125 17.3438V16.4062C17.8125 15.1135 16.7615 14.0625 15.4688 14.0625H15V11.25C15 10.9918 14.7913 10.7812 14.5312 10.7812C14.2712 10.7812 14.0625 10.9918 14.0625 11.25V14.0625H13.5938C12.8192 14.0625 12.1875 13.4308 12.1875 12.6562V11.7188C12.1875 10.9442 12.8192 10.3125 13.5938 10.3125H15.4688C16.2433 10.3125 16.875 10.9442 16.875 11.7188C16.875 11.9769 17.0837 12.1875 17.3438 12.1875C17.6038 12.1875 17.8125 11.9769 17.8125 11.7188C17.8125 10.426 16.7615 9.375 15.4688 9.375H15V7.96875C15 7.71057 14.7913 7.5 14.5312 7.5ZM2.54883 8.72314C2.36755 8.72131 2.19177 8.82568 2.11304 9.00146C2.00684 9.2395 2.11487 9.51599 2.35107 9.62219L3.20801 10.0031C3.26843 10.0305 3.33252 10.0433 3.39661 10.0433C3.57605 10.0433 3.74817 9.93896 3.82507 9.76318C3.93127 9.52698 3.82507 9.25049 3.58887 9.14612L2.73193 8.76526C2.67151 8.73779 2.61108 8.72498 2.54883 8.72314ZM1.604 11.3434C1.42639 11.3763 1.27441 11.5155 1.23413 11.7041C1.18103 11.9586 1.34216 12.2076 1.59668 12.2607L2.51221 12.4567C2.54517 12.4622 2.57812 12.4658 2.61108 12.4658C2.82715 12.4658 3.02124 12.3157 3.06885 12.0941C3.12195 11.8414 2.96082 11.5924 2.7063 11.5393L1.79077 11.3452C1.72668 11.3306 1.66443 11.3306 1.604 11.3434ZM1.40625 14.0625C1.14624 14.0625 0.9375 14.2731 0.9375 14.5312C0.9375 14.7894 1.14624 15 1.40625 15H2.34375C2.60376 15 2.8125 14.7894 2.8125 14.5312C2.8125 14.2731 2.60376 14.0625 2.34375 14.0625H1.40625ZM2.69897 16.604C2.64038 16.593 2.57629 16.593 2.51221 16.6058L1.59668 16.8018C1.34216 16.8549 1.18103 17.1039 1.23413 17.3584C1.28174 17.5781 1.47583 17.7301 1.69189 17.7301C1.72485 17.7301 1.75781 17.7264 1.79077 17.7191L2.7063 17.525C2.96082 17.4701 3.12195 17.2211 3.06885 16.9684C3.02856 16.778 2.88025 16.6388 2.69897 16.604ZM3.38928 19.021C3.32886 19.021 3.2666 19.0338 3.20801 19.0594L2.35107 19.4403C2.11487 19.5465 2.00867 19.823 2.11304 20.061C2.18994 20.235 2.36206 20.3394 2.5415 20.3394C2.60559 20.3394 2.66968 20.3247 2.73193 20.2972L3.58887 19.9164C3.82507 19.812 3.93127 19.5337 3.82507 19.2975C3.74634 19.1199 3.57239 19.0173 3.38928 19.021ZM4.74609 21.2329C4.62708 21.2128 4.50073 21.2384 4.39636 21.3153L3.63647 21.8665C3.42773 22.0184 3.38196 22.3132 3.53394 22.522C3.62549 22.6483 3.76831 22.7142 3.9148 22.7142C4.01001 22.7142 4.10522 22.6868 4.18945 22.6245L4.94751 22.0752C5.15625 21.9214 5.20386 21.6284 5.05188 21.4178C4.97498 21.3135 4.86328 21.2512 4.74609 21.2329ZM6.3501 23.1207C6.23108 23.1262 6.11389 23.1793 6.02783 23.2745L5.39978 23.9722C5.22766 24.1644 5.24414 24.4592 5.43457 24.6332C5.52429 24.7137 5.63782 24.754 5.74951 24.754C5.87585 24.754 6.00586 24.7009 6.09741 24.5984L6.72363 23.9008C6.89758 23.7085 6.8811 23.4137 6.68884 23.2397C6.59363 23.1537 6.47095 23.1152 6.3501 23.1207ZM8.49609 24.6204C8.31299 24.5984 8.12805 24.6826 8.03284 24.8511L7.56409 25.6641C7.43408 25.8875 7.51099 26.1731 7.73438 26.3031C7.80762 26.3452 7.88818 26.3672 7.96875 26.3672C8.12988 26.3672 8.28735 26.283 8.37341 26.1328L8.84216 25.3198C8.97217 25.0964 8.89709 24.809 8.67188 24.6808C8.61511 24.6478 8.55469 24.6277 8.49609 24.6204ZM10.7245 25.6549C10.5414 25.6714 10.3784 25.7922 10.3198 25.9772L10.0287 26.8689C9.94995 27.1143 10.0836 27.3798 10.329 27.4585C10.3784 27.475 10.4279 27.4823 10.4755 27.4823C10.6732 27.4823 10.8563 27.356 10.9204 27.1582L11.2115 26.2665C11.2921 26.0211 11.1566 25.7556 10.9113 25.6769C10.849 25.6567 10.7849 25.6494 10.7245 25.6549ZM13.3063 26.1859C13.0518 26.1621 12.8174 26.3452 12.7899 26.6034L12.6929 27.5354C12.6654 27.7936 12.8522 28.0243 13.1104 28.0518C13.1268 28.0518 13.1433 28.0518 13.1598 28.0518C13.3978 28.0518 13.5992 27.8741 13.6249 27.6324L13.7238 26.7004C13.7494 26.4441 13.5645 26.2134 13.3063 26.1859Z" fill="#FF525F"/>
</svg>
